<svg id="Capa_1" enable-background="new 0 0 512.375 512.375" height="512" viewBox="0 0 512.375 512.375" width="512" xmlns="http://www.w3.org/2000/svg"><g><g><path d="m34.817 21.633h442.741v333.419h-442.741z" fill="#f9f7f7"/><path d="m477.558 62.633v-41h-373.952-68.789v333.419h68.788 373.952v-41h-343.528c-16.802 0-30.423-13.621-30.423-30.423v-190.573c0-16.802 13.621-30.423 30.423-30.423z" fill="#f2eae7"/><path d="m141.719 463.865h229.938 24.657l-14.674-33.962h-231.393-25.397l-12.927 33.962z" fill="#cac5cb"/><path d="m418.321 497.295-32.171-128.111-7.448-26.444-37.088 1.303 6.266 25.141 32.917 131.08c.681 2.711 3.117 4.611 5.912 4.611h25.699c3.969 0 6.879-3.731 5.913-7.58z" fill="#e1dee2"/><path d="m133.922 345.429-6.696 23.756-32.171 128.11c-.967 3.849 1.944 7.581 5.912 7.581h25.699c2.795 0 5.232-1.901 5.912-4.611l32.917-131.08 4.422-23.756z" fill="#e1dee2"/><g><path d="m127.225 369.184-3.766 15h38.269l3.767-15 4.422-23.755h-35.995z" fill="#cac5cb"/><path d="m386.15 369.184-7.447-26.444-37.088 1.303 6.266 25.141 3.767 15h38.269z" fill="#cac5cb"/><path d="m484.923 334.052h-457.47c-4.247 0-7.691 3.443-7.691 7.691v19.751c0 4.247 3.443 7.691 7.691 7.691h457.47c4.247 0 7.691-3.443 7.691-7.691v-19.751c0-4.248-3.444-7.691-7.691-7.691z" fill="#b3adb5"/><path d="m484.923 7.5h-457.47c-4.247 0-7.691 3.443-7.691 7.691v19.751c0 4.247 3.443 7.691 7.691 7.691h457.47c4.247 0 7.691-3.443 7.691-7.691v-19.751c0-4.248-3.444-7.691-7.691-7.691z" fill="#b3adb5"/><g fill="#ee878a"><circle cx="116.941" cy="128.729" r="18.526"/><circle cx="245.527" cy="201.752" r="18.526"/></g></g></g><g><path d="m500.114 34.942v-19.751c0-8.376-6.814-15.191-15.19-15.191h-457.472c-8.376 0-15.19 6.814-15.19 15.191v19.751c0 8.331 6.742 15.111 15.056 15.184v276.432c-8.313.073-15.056 6.853-15.056 15.184v19.751c0 8.376 6.814 15.191 15.19 15.191h90.157l-29.829 118.785c-1.027 4.091-.128 8.346 2.466 11.672s6.502 5.234 10.721 5.234h25.699c6.243 0 11.666-4.229 13.186-10.285l7.716-30.726h218.24l7.716 30.726c1.521 6.056 6.943 10.285 13.186 10.285h25.699c4.219 0 8.126-1.908 10.721-5.234s3.494-7.581 2.466-11.673l-29.829-118.784h89.157c8.376 0 15.19-6.814 15.19-15.191v-19.751c0-8.331-6.742-15.111-15.056-15.184v-276.432c8.313-.073 15.056-6.853 15.056-15.184zm-374.543 462.433h-22.804l30.308-120.691h22.804zm25.764-41.01 4.762-18.962h151.717c4.142 0 7.5-3.358 7.5-7.5s-3.358-7.5-7.5-7.5h-147.95l11.481-45.718h170.687l11.481 45.718h-13.737c-4.142 0-7.5 3.358-7.5 7.5s3.358 7.5 7.5 7.5h17.503l4.762 18.962zm259.274 41.01h-22.804l-30.308-120.691h22.804zm74.505-135.882c0 .105-.085.191-.19.191h-457.472c-.105 0-.19-.085-.19-.191v-19.751c0-.105.085-.191.19-.191h79.299c4.142 0 7.5-3.358 7.5-7.5s-3.358-7.5-7.5-7.5h-64.433v-276.418h360.208c4.142 0 7.5-3.358 7.5-7.5s-3.358-7.5-7.5-7.5h-375.074c-.105 0-.19-.085-.19-.191v-19.751c0-.105.085-.191.19-.191h457.471c.105 0 .19.085.19.191v19.751c0 .105-.085.191-.19.191h-50.435c-4.142 0-7.5 3.358-7.5 7.5s3.358 7.5 7.5 7.5h35.569v276.418h-331.343c-4.142 0-7.5 3.358-7.5 7.5s3.358 7.5 7.5 7.5h346.209c.105 0 .19.085.19.191v19.751z"/><path d="m138.616 245.184 11.377 11.109-11.377 11.109c-2.964 2.894-3.02 7.643-.126 10.606 1.47 1.505 3.417 2.26 5.367 2.26 1.89 0 3.781-.709 5.239-2.134l11.633-11.359 11.628 11.355c1.459 1.424 3.35 2.134 5.239 2.134 1.949 0 3.897-.755 5.367-2.26 2.894-2.963 2.837-7.712-.126-10.606l-11.373-11.105 11.373-11.105c2.964-2.894 3.02-7.643.126-10.606-2.895-2.964-7.644-3.02-10.606-.126l-11.628 11.355-11.633-11.359c-2.964-2.894-7.712-2.838-10.606.126s-2.838 7.712.126 10.606z"/><path d="m374.475 154.259c1.47 1.505 3.417 2.26 5.367 2.26 1.89 0 3.781-.709 5.239-2.134l11.633-11.359 11.628 11.354c1.459 1.424 3.35 2.134 5.239 2.134 1.949 0 3.897-.755 5.367-2.26 2.894-2.963 2.837-7.712-.126-10.606l-11.372-11.105 11.372-11.105c2.964-2.894 3.02-7.643.126-10.606-2.895-2.964-7.644-3.02-10.606-.126l-11.628 11.354-11.633-11.359c-2.964-2.894-7.712-2.837-10.606.126s-2.837 7.712.126 10.606l11.377 11.11-11.377 11.11c-2.964 2.894-3.02 7.642-.126 10.606z"/><path d="m160.726 227.778c4.142 0 7.5-3.358 7.5-7.5v-15.718c0-35.576 28.943-64.519 64.519-64.519h102.671l-8.243 8.244c-2.929 2.929-2.929 7.678 0 10.606 1.464 1.464 3.384 2.197 5.303 2.197s3.839-.732 5.303-2.197l20.131-20.132c1.662-1.66 2.578-3.869 2.578-6.218 0-2.348-.915-4.556-2.575-6.216l-20.134-20.134c-2.929-2.929-7.678-2.929-10.606 0-2.929 2.929-2.929 7.678 0 10.606l8.243 8.244h-102.671c-43.847 0-79.519 35.672-79.519 79.519v15.718c0 4.142 3.358 7.5 7.5 7.5z"/><path d="m142.967 128.729c0-14.351-11.675-26.026-26.026-26.026s-26.026 11.675-26.026 26.026 11.675 26.025 26.026 26.025 26.026-11.674 26.026-26.025zm-26.026 11.025c-6.08 0-11.026-4.946-11.026-11.025s4.946-11.026 11.026-11.026 11.026 4.946 11.026 11.026-4.946 11.025-11.026 11.025z"/><path d="m245.527 175.727c-14.351 0-26.026 11.675-26.026 26.026s11.675 26.026 26.026 26.026 26.026-11.675 26.026-26.026-11.675-26.026-26.026-26.026zm0 37.051c-6.08 0-11.026-4.946-11.026-11.026s4.946-11.026 11.026-11.026 11.026 4.946 11.026 11.026-4.946 11.026-11.026 11.026z"/><path d="m323.794 214.715h6.482c4.142 0 7.5-3.358 7.5-7.5s-3.358-7.5-7.5-7.5h-6.482c-4.142 0-7.5 3.358-7.5 7.5s3.358 7.5 7.5 7.5z"/><path d="m349.086 207.215c0 4.142 3.358 7.5 7.5 7.5h78.167c4.142 0 7.5-3.358 7.5-7.5s-3.358-7.5-7.5-7.5h-78.167c-4.142 0-7.5 3.358-7.5 7.5z"/><path d="m434.753 236.32h-110.959c-4.142 0-7.5 3.358-7.5 7.5s3.358 7.5 7.5 7.5h110.958c4.142 0 7.5-3.358 7.5-7.5s-3.357-7.5-7.499-7.5z"/><path d="m434.753 272.924h-110.959c-4.142 0-7.5 3.358-7.5 7.5s3.358 7.5 7.5 7.5h110.958c4.142 0 7.5-3.358 7.5-7.5s-3.357-7.5-7.499-7.5z"/></g></g></svg>