<svg id="Capa_1" enable-background="new 0 0 511.109 511.109" height="512" viewBox="0 0 511.109 511.109" width="512" xmlns="http://www.w3.org/2000/svg"><g><g><g><path d="m454.748 102.131c18 0 32.593 14.592 32.593 32.593v308.466h-463.572v-308.466c0-18.001 14.592-32.593 32.593-32.593z" fill="#b3adb5"/><path d="m129.71 400.19c-26.666 0-48.283-21.617-48.283-48.283 0 0 .248-247.587.712-249.775h-25.778c-18.001 0-32.593 14.592-32.593 32.593v308.465h38.657 424.915v-25.809-17.191z" fill="#a59ca6"/><path d="m446.823 132.131c5.809 0 10.518 4.709 10.518 10.518v239.615c0 4.377-3.548 7.925-7.925 7.925h-387.722c-4.377 0-7.925-3.548-7.925-7.925v-239.615c0-5.809 4.709-10.519 10.519-10.519h382.535z" fill="#cfeffc"/><path d="m81.426 351.906s.154-153.404.445-219.776h-17.584c-5.809 0-10.519 4.709-10.519 10.519v239.615c0 4.377 3.548 7.925 7.925 7.925h38.608c-11.473-8.827-18.875-22.687-18.875-38.283z" fill="#a9e4f9"/><path d="m473.541 461.303h-435.973c-16.606 0-30.068-13.462-30.068-30.068v-7.001c0-2.234 1.811-4.044 4.044-4.044h488.02c2.234 0 4.044 1.811 4.044 4.044v7.001c.001 16.606-13.461 30.068-30.067 30.068z" fill="#b3adb5"/><path d="m204.659 350.232h-50.879v-103.207c0-3.194 2.589-5.783 5.783-5.783h39.313c3.194 0 5.783 2.589 5.783 5.783z" fill="#fbe88c"/><path d="m255.538 350.232h-50.879v-135.175c0-3.194 2.589-5.783 5.783-5.783h39.313c3.194 0 5.783 2.589 5.783 5.783z" fill="#ee878a"/><path d="m306.418 350.232h-50.879v-162.92c0-3.194 2.589-5.783 5.783-5.783h39.313c3.194 0 5.783 2.589 5.783 5.783z" fill="#fbe88c"/><path d="m357.297 350.232h-50.879v-294.642c0-3.194 2.589-5.783 5.783-5.783h39.313c3.194 0 5.783 2.589 5.783 5.783z" fill="#ee878a"/></g></g><g><path d="m276.418 139.631c4.142 0 7.5-3.358 7.5-7.5s-3.358-7.5-7.5-7.5h-220.057c-5.574 0-10.093 4.519-10.093 10.093v255.466c0 4.142 3.358 7.5 7.5 7.5h60.796c4.219 0 7.624-3.483 7.497-7.731-.123-4.105-3.704-7.269-7.811-7.269h-52.981v-243.059z"/><path d="m146.842 382.69c-4.106 0-7.688 3.164-7.811 7.269-.127 4.247 3.277 7.731 7.497 7.731h310.813c4.142 0 7.5-3.358 7.5-7.5v-255.467c0-5.574-4.519-10.093-10.093-10.093h-67.451c-4.142 0-7.5 3.358-7.5 7.5s3.358 7.5 7.5 7.5h62.544v243.06z"/><path d="m499.564 412.69h-4.724v-277.966c0-22.107-17.985-40.093-40.093-40.093h-67.451c-4.143 0-7.5 3.358-7.5 7.5s3.357 7.5 7.5 7.5h67.451c13.836 0 25.093 11.257 25.093 25.093v277.966h-84.132c-4.143 0-7.5 3.358-7.5 7.5s3.357 7.5 7.5 7.5h100.4v3.545c0 12.444-10.124 22.568-22.568 22.568h-435.972c-12.444 0-22.568-10.124-22.568-22.568v-3.545h348.746c4.143 0 7.5-3.358 7.5-7.5s-3.357-7.5-7.5-7.5h-332.477v-277.966c0-13.836 11.257-25.093 25.093-25.093h220.057c4.143 0 7.5-3.358 7.5-7.5s-3.357-7.5-7.5-7.5h-220.058c-22.107 0-40.093 17.986-40.093 40.093v277.966h-4.724c-6.365 0-11.544 5.178-11.544 11.544v7.001c0 20.715 16.854 37.568 37.568 37.568h435.973c20.715 0 37.568-16.853 37.568-37.568v-7.001c0-6.366-5.178-11.544-11.545-11.544z"/><path d="m261.321 174.029c-7.324 0-13.283 5.959-13.283 13.283v14.462h-37.596c-7.324 0-13.283 5.959-13.283 13.283v18.685h-37.597c-7.324 0-13.283 5.958-13.283 13.283v95.707h-32.189v-40.073h8.191c4.143 0 7.5-3.358 7.5-7.5s-3.357-7.5-7.5-7.5h-8.191v-57.814h8.191c4.143 0 7.5-3.358 7.5-7.5s-3.357-7.5-7.5-7.5h-8.191v-43.638h8.191c4.143 0 7.5-3.358 7.5-7.5s-3.357-7.5-7.5-7.5h-15.691c-4.143 0-7.5 3.358-7.5 7.5v179.025h-2.334c-4.143 0-7.5 3.358-7.5 7.5s3.357 7.5 7.5 7.5h317.396c4.143 0 7.5-3.358 7.5-7.5s-3.357-7.5-7.5-7.5h-49.354v-141.428c0-4.142-3.357-7.5-7.5-7.5s-7.5 3.358-7.5 7.5v141.427h-35.879v-285.425h35.879v112.036c0 4.142 3.357 7.5 7.5 7.5s7.5-3.358 7.5-7.5v-113.752c0-7.324-5.959-13.283-13.283-13.283h-39.312c-7.324 0-13.283 5.959-13.283 13.283v118.439zm-100.042 74.713h35.88v93.99h-35.88zm50.88-31.968h35.879v125.958h-35.879zm50.879 125.958v-153.703h35.88v153.703z"/></g></g></svg>