<svg id="Capa_1" enable-background="new 0 0 512.871 512.871" height="512" viewBox="0 0 512.871 512.871" width="512" xmlns="http://www.w3.org/2000/svg"><g><g><path d="m483.738 47.16h-165.608v36.38h-88.661v-36.38h-200.336c-11.948 0-21.633 9.685-21.633 21.633v399.286c0 11.948 9.686 21.633 21.633 21.633h454.605c11.948 0 21.633-9.686 21.633-21.633v-399.286c.001-11.948-9.685-21.633-21.633-21.633z" fill="#b3adb5"/><g><g id="XMLID_169_"><g><path d="m252.033 409.143-22.564-47.525h-143.972l-33.711 33.549v42.21c0 3.64 2.95 6.58 6.58 6.58h198.07v-7.62-16.775z" fill="#f2eae7"/><path d="m256.436 422.304v14.033 7.62h-198.071c-3.63 0-6.58-2.94-6.58-6.58v-42.21l33.711-33.549h22.439l-11.953 11.896v20.219c0 15.779 12.792 28.571 28.571 28.571z" fill="#ede2dd"/><path d="m256.436 71.948v364.39c0-22.74-18.43-41.17-41.17-41.17h-163.48v-366.14c0-3.24 2.63-5.87 5.87-5.87h157.61c22.74 0 41.17 18.44 41.17 41.18z" fill="#f8f3f2"/><g id="XMLID_170_"><g><path d="m408.708 361.618-152.273 12.476v62.243 7.62h198.07c3.63 0 6.58-2.94 6.58-6.58v-42.21z" fill="#f8f3f2"/></g></g><path d="m256.436 422.304v21.653h198.07c3.63 0 6.58-2.94 6.58-6.58v-15.073z" fill="#f2eae7"/><path d="m461.086 29.028v366.14h-163.48c-22.74 0-41.17 18.43-41.17 41.17v-364.39-7.61c0-22.74 18.43-41.18 41.17-41.18h157.61c3.24 0 5.87 2.63 5.87 5.87z" fill="#f9f7f7"/></g></g><g><path d="m95.983 23.158h-38.327c-3.24 0-5.87 2.63-5.87 5.87v366.14h44.197z" fill="#f2eae7"/></g><path d="m199.024 172.029h-111.625c-3.156 0-5.714-2.558-5.714-5.714v-98.254c0-3.156 2.558-5.714 5.714-5.714h111.625c3.156 0 5.714 2.558 5.714 5.714v98.255c0 3.155-2.558 5.713-5.714 5.713z" fill="#9de5d1"/><path d="m95.983 62.346h-8.583c-3.156 0-5.714 2.558-5.714 5.714v98.255c0 3.156 2.558 5.714 5.714 5.714h8.583z" fill="#82dec5"/><path d="m367.026 59.808-32.269 37.259 11.252 58.731 65.017 10.24c11.27-11.26 18.23-26.82 18.23-44 0-34.37-27.86-62.23-62.23-62.23z" fill="#ee878a"/><g id="XMLID_168_"><g><path d="m367.026 122.038 44 44c-11.26 11.26-26.81 18.23-44 18.23-34.37 0-62.23-27.86-62.23-62.23s27.86-62.23 62.23-62.23z" fill="#fbe88c"/></g></g><path d="m394.686 175.153c-34.37 0-62.23-27.86-62.23-62.23 0-22.334 11.776-41.929 29.446-52.907-31.968 2.611-57.106 29.381-57.106 62.022 0 34.37 27.86 62.23 62.23 62.23 12.037 0 23.277-3.422 32.796-9.337-1.691.137-3.41.222-5.136.222z" fill="#fbe372"/></g></g><g><path d="m87.399 179.53h14.767c4.143 0 7.5-3.358 7.5-7.5s-3.357-7.5-7.5-7.5h-12.98v-94.684h108.053v94.683h-63.109c-4.143 0-7.5 3.358-7.5 7.5s3.357 7.5 7.5 7.5h64.896c7.286 0 13.214-5.928 13.214-13.214v-98.254c0-7.287-5.928-13.214-13.214-13.214h-111.627c-7.286 0-13.214 5.928-13.214 13.214v98.254c.001 7.287 5.928 13.215 13.214 13.215z"/><path d="m483.738 39.66h-15.156v-10.631c0-7.372-5.998-13.37-13.37-13.37h-157.602c-17.313 0-32.544 9.085-41.175 22.74-8.631-13.655-23.861-22.74-41.175-22.74h-157.601c-7.372 0-13.37 5.998-13.37 13.37v10.631h-15.156c-16.064 0-29.133 13.069-29.133 29.133v399.286c0 16.064 13.069 29.133 29.133 29.133h454.605c16.063 0 29.133-13.069 29.133-29.133v-399.286c0-16.064-13.069-29.133-29.133-29.133zm-186.128-9.001h155.972v357.008h-155.972c-13.055 0-24.925 5.166-33.675 13.56v-57.847c2.348 1.112 4.447 2.746 6.132 4.833 1.482 1.835 3.651 2.788 5.84 2.788 1.654 0 3.32-.545 4.707-1.666 3.223-2.603 3.726-7.325 1.123-10.547-4.598-5.692-10.853-9.58-17.802-11.215v-32.825c2.348 1.111 4.447 2.746 6.132 4.833 1.482 1.835 3.651 2.788 5.84 2.788 1.654 0 3.32-.545 4.707-1.666 3.223-2.603 3.726-7.325 1.123-10.547-4.598-5.692-10.853-9.58-17.802-11.215v-32.825c2.348 1.111 4.447 2.746 6.132 4.833 1.482 1.835 3.651 2.788 5.84 2.788 1.654 0 3.32-.545 4.707-1.666 3.223-2.603 3.726-7.325 1.123-10.547-4.598-5.692-10.853-9.58-17.802-11.215v-32.825c2.348 1.111 4.447 2.746 6.132 4.833 1.482 1.835 3.651 2.788 5.84 2.788 1.654 0 3.32-.545 4.707-1.666 3.223-2.603 3.726-7.325 1.123-10.547-4.598-5.692-10.853-9.58-17.802-11.215v-32.825c2.348 1.111 4.447 2.746 6.132 4.833 1.482 1.835 3.651 2.788 5.84 2.788 1.654 0 3.32-.545 4.707-1.666 3.223-2.603 3.726-7.325 1.123-10.547-4.598-5.692-10.853-9.58-17.802-11.215v-32.825c2.348 1.112 4.447 2.746 6.132 4.833 1.482 1.835 3.651 2.788 5.84 2.788 1.654 0 3.32-.545 4.707-1.666 3.223-2.603 3.726-7.325 1.123-10.547-4.598-5.692-10.853-9.58-17.802-11.215v-20.079c.001-18.568 15.107-33.675 33.675-33.675zm-238.321 372.009h155.972c18.568 0 33.675 15.106 33.675 33.675v.113h-189.647zm0-372.009h155.972c18.568 0 33.675 15.106 33.675 33.675v20.079c-6.948 1.635-13.204 5.523-17.802 11.215-2.603 3.223-2.1 7.945 1.123 10.547 3.224 2.603 7.943 2.099 10.547-1.123 1.685-2.086 3.784-3.721 6.132-4.833v32.825c-6.948 1.635-13.204 5.523-17.802 11.215-2.603 3.223-2.1 7.945 1.123 10.547 3.224 2.603 7.943 2.1 10.547-1.123 1.685-2.086 3.784-3.721 6.132-4.833v32.825c-6.948 1.635-13.204 5.523-17.802 11.215-2.603 3.223-2.1 7.945 1.123 10.547 3.224 2.603 7.943 2.1 10.547-1.123 1.685-2.086 3.784-3.721 6.132-4.833v32.825c-6.948 1.635-13.204 5.523-17.802 11.215-2.603 3.223-2.1 7.945 1.123 10.547 3.224 2.603 7.943 2.1 10.547-1.123 1.685-2.086 3.784-3.721 6.132-4.833v32.825c-6.948 1.635-13.204 5.523-17.802 11.215-2.603 3.223-2.1 7.945 1.123 10.547 3.224 2.603 7.943 2.1 10.547-1.123 1.685-2.086 3.784-3.721 6.132-4.833v32.825c-6.948 1.635-13.204 5.523-17.802 11.215-2.603 3.223-2.1 7.945 1.123 10.547 3.224 2.603 7.943 2.099 10.547-1.123 1.685-2.086 3.784-3.721 6.132-4.833v57.847c-8.75-8.395-20.62-13.56-33.675-13.56h-155.972zm438.582 437.419c0 7.793-6.34 14.133-14.133 14.133h-454.605c-7.793 0-14.133-6.34-14.133-14.133v-399.285c0-7.793 6.34-14.133 14.133-14.133h15.156v382.723c0 7.76 6.313 14.073 14.073 14.073h326.468c4.143 0 7.5-3.358 7.5-7.5s-3.357-7.5-7.5-7.5h-120.894v-.113c0-18.568 15.106-33.675 33.675-33.675h155.972v33.788h-36.79c-4.143 0-7.5 3.358-7.5 7.5s3.357 7.5 7.5 7.5h37.717c7.76 0 14.073-6.313 14.073-14.073v-382.723h15.156c7.793 0 14.133 6.34 14.133 14.133v399.285z"/><path d="m321.833 175.125c3.154 2.687 7.888 2.308 10.572-.844 2.688-3.152 2.31-7.886-.844-10.573-12.244-10.434-19.267-25.621-19.267-41.667 0-27.634 20.59-50.536 47.232-54.205v54.205c0 1.989.79 3.897 2.196 5.303l38.316 38.316c-9.184 6.968-20.622 11.112-33.012 11.112-3.176 0-6.429-.292-9.668-.869-4.067-.725-7.973 1.991-8.698 6.069-.727 4.078 1.991 7.973 6.069 8.699 4.104.731 8.241 1.102 12.297 1.102 18.929 0 36.11-7.592 48.687-19.877.213-.171.42-.352.617-.55.198-.198.38-.405.551-.618 12.285-12.577 19.876-29.758 19.876-48.686 0-38.45-31.281-69.732-69.731-69.732s-69.732 31.282-69.732 69.732c.001 20.446 8.944 39.795 24.539 53.083zm99.926-53.084c0 12.391-4.145 23.828-11.113 33.012l-36.119-36.119v-51.098c26.641 3.669 47.232 26.571 47.232 54.205z"/><path d="m81.686 233.995h123.053c4.143 0 7.5-3.358 7.5-7.5s-3.357-7.5-7.5-7.5h-123.053c-4.143 0-7.5 3.358-7.5 7.5s3.357 7.5 7.5 7.5z"/><path d="m81.686 273.512h123.053c4.143 0 7.5-3.358 7.5-7.5s-3.357-7.5-7.5-7.5h-123.053c-4.143 0-7.5 3.358-7.5 7.5s3.357 7.5 7.5 7.5z"/><path d="m81.686 313.029h123.053c4.143 0 7.5-3.358 7.5-7.5s-3.357-7.5-7.5-7.5h-123.053c-4.143 0-7.5 3.358-7.5 7.5s3.357 7.5 7.5 7.5z"/><path d="m81.686 352.546h123.053c4.143 0 7.5-3.358 7.5-7.5s-3.357-7.5-7.5-7.5h-123.053c-4.143 0-7.5 3.358-7.5 7.5s3.357 7.5 7.5 7.5z"/><path d="m431.186 218.995h-123.053c-4.143 0-7.5 3.358-7.5 7.5s3.357 7.5 7.5 7.5h123.053c4.143 0 7.5-3.358 7.5-7.5s-3.358-7.5-7.5-7.5z"/><path d="m431.186 258.512h-123.053c-4.143 0-7.5 3.358-7.5 7.5s3.357 7.5 7.5 7.5h123.053c4.143 0 7.5-3.358 7.5-7.5s-3.358-7.5-7.5-7.5z"/><path d="m431.186 298.029h-123.053c-4.143 0-7.5 3.358-7.5 7.5s3.357 7.5 7.5 7.5h123.053c4.143 0 7.5-3.358 7.5-7.5s-3.358-7.5-7.5-7.5z"/><path d="m431.186 337.546h-123.053c-4.143 0-7.5 3.358-7.5 7.5s3.357 7.5 7.5 7.5h123.053c4.143 0 7.5-3.358 7.5-7.5s-3.358-7.5-7.5-7.5z"/></g></g></svg>