<svg id="Capa_1" enable-background="new 0 0 513.185 513.185" height="512" viewBox="0 0 513.185 513.185" width="512" xmlns="http://www.w3.org/2000/svg"><g><g><path d="m436.527 41.908c17.315 0 31.352 14.037 31.352 31.352v401.073c0 17.315-14.037 31.352-31.352 31.352h-359.869c-17.315 0-31.352-14.037-31.352-31.352v-401.073c0-17.315 14.037-31.352 31.352-31.352z" fill="#b3adb5"/><path d="m129.125 489.189c-17.315 0-31.352-14.252-31.352-31.832v-407.216c0-2.848.374-5.606 1.065-8.232h-22.18c-17.315 0-31.352 14.037-31.352 31.352v401.073c0 17.315 14.037 31.352 31.352 31.352h359.869c11.94 0 22.319-6.675 27.613-16.496h-335.015z" fill="#a59ca6"/><path d="m158.571 41.908v30.025c0 21.316 17.342 38.659 38.659 38.659h118.727c21.316 0 38.659-17.342 38.659-38.659v-30.025z" fill="#a59ca6"/><path d="m430.981 71.908h-348.787c-3.806 0-6.892 3.086-6.892 6.892v395.538c0 .74.61 1.35 1.36 1.35h359.86c.75 0 1.36-.61 1.36-1.35v-395.528c.001-3.796-3.105-6.902-6.901-6.902z" fill="#f9f7f7"/><g fill="#cfeffc"><path d="m150.397 176.866h-28.469c-5.658 0-10.244-4.586-10.244-10.244v-28.469c0-5.658 4.586-10.244 10.244-10.244h28.469c5.658 0 10.244 4.586 10.244 10.244v28.469c0 5.657-4.587 10.244-10.244 10.244z"/><path d="m150.397 256.698h-28.469c-5.658 0-10.244-4.586-10.244-10.244v-28.469c0-5.658 4.586-10.244 10.244-10.244h28.469c5.658 0 10.244 4.586 10.244 10.244v28.469c0 5.658-4.587 10.244-10.244 10.244z"/><path d="m150.397 336.531h-28.469c-5.658 0-10.244-4.586-10.244-10.244v-28.469c0-5.658 4.586-10.244 10.244-10.244h28.469c5.658 0 10.244 4.586 10.244 10.244v28.469c0 5.657-4.587 10.244-10.244 10.244z"/><path d="m150.397 416.363h-28.469c-5.658 0-10.244-4.586-10.244-10.244v-28.469c0-5.658 4.586-10.244 10.244-10.244h28.469c5.658 0 10.244 4.586 10.244 10.244v28.469c0 5.658-4.587 10.244-10.244 10.244z"/></g><path d="m103.501 475.688c-3.604-5.184-5.728-11.504-5.728-18.332v-385.448h-15.579c-3.806 0-6.892 3.086-6.892 6.892v395.538c0 .74.61 1.35 1.36 1.35z" fill="#f2eae7"/><path d="m197.229 110.592h118.727c21.316 0 38.659-17.342 38.659-38.659v-.025h-196.044v.025c0 21.317 17.342 38.659 38.658 38.659z" fill="#f2eae7"/><path d="m211.52 15.392-5.093 5.093c-1.379 1.379-3.25 2.154-5.201 2.154h-3.997c-10.305 0-18.659 8.354-18.659 18.658v30.636c0 10.305 8.354 18.659 18.659 18.659h118.727c10.305 0 18.659-8.354 18.659-18.659v-30.635c0-10.305-8.354-18.658-18.659-18.658h-3.997c-1.951 0-3.822-.775-5.201-2.154l-5.093-5.093c-5.053-5.053-11.907-7.892-19.054-7.892h-52.037c-7.146-.001-14 2.838-19.054 7.891z" fill="#fbe88c"/><path d="m315.956 70.107h-118.727c-10.305 0-18.659-8.354-18.659-18.659v20.485c0 10.305 8.354 18.659 18.659 18.659h118.727c10.305 0 18.659-8.354 18.659-18.659v-20.485c-.001 10.305-8.354 18.659-18.659 18.659z" fill="#fbe372"/></g><g><path d="m467.879 420.664c-4.142 0-7.5 3.358-7.5 7.5v46.169c0 13.152-10.7 23.852-23.852 23.852h-359.869c-13.152 0-23.852-10.7-23.852-23.852v-401.073c0-13.152 10.7-23.852 23.852-23.852h71.913c4.142 0 7.5-3.358 7.5-7.5s-3.358-7.5-7.5-7.5h-71.913c-21.423 0-38.852 17.429-38.852 38.852v401.073c0 21.423 17.429 38.852 38.852 38.852h359.869c21.423 0 38.852-17.429 38.852-38.852v-46.169c0-4.142-3.358-7.5-7.5-7.5z"/><path d="m436.527 34.408h-71.913c-4.142 0-7.5 3.358-7.5 7.5s3.358 7.5 7.5 7.5h71.913c13.152 0 23.852 10.7 23.852 23.852v322.941c0 4.142 3.358 7.5 7.5 7.5s7.5-3.358 7.5-7.5v-322.941c0-21.423-17.429-38.852-38.852-38.852z"/><path d="m67.806 474.333c0 4.881 3.971 8.852 8.852 8.852h359.869c4.881 0 8.852-3.971 8.852-8.852v-401.073c0-4.881-3.971-8.852-8.852-8.852h-71.913c-4.142 0-7.5 3.383-7.5 7.525s3.358 7.488 7.5 7.488c.146 0 .292-.004.436-.013h65.329v388.776h-347.573v-253.76c0-4.142-3.358-7.5-7.5-7.5s-7.5 3.358-7.5 7.5z"/><path d="m148.571 79.421c4.142 0 7.5-3.371 7.5-7.513s-3.358-7.5-7.5-7.5h-71.913c-4.881 0-8.852 3.971-8.852 8.852v109.202c0 4.142 3.358 7.5 7.5 7.5s7.5-3.358 7.5-7.5v-103.053h65.328c.144.008.29.012.437.012z"/><path d="m197.229 98.092h67.979c4.142 0 7.5-3.358 7.5-7.5s-3.358-7.5-7.5-7.5h-67.979c-6.153 0-11.159-5.006-11.159-11.159v-30.635c0-6.153 5.006-11.158 11.159-11.158h3.997c3.968 0 7.699-1.545 10.505-4.351l5.092-5.093c3.673-3.673 8.557-5.696 13.75-5.696h52.037c5.194 0 10.078 2.023 13.75 5.695l5.093 5.093c2.806 2.806 6.536 4.351 10.504 4.351h3.997c6.153 0 11.159 5.005 11.159 11.158v30.636c0 6.153-5.006 11.159-11.159 11.159h-18.784c-4.142 0-7.5 3.358-7.5 7.5s3.358 7.5 7.5 7.5h18.786c14.424 0 26.159-11.735 26.159-26.159v-30.635c0-14.424-11.735-26.158-26.159-26.158h-3.938l-5.05-5.051c-6.506-6.506-15.157-10.089-24.357-10.089h-52.037c-9.2 0-17.851 3.583-24.357 10.089l-5.05 5.051h-3.938c-14.424 0-26.159 11.734-26.159 26.158v30.636c.001 14.423 11.735 26.158 26.159 26.158z"/><path d="m121.928 120.409c-9.784 0-17.744 7.96-17.744 17.744v28.469c0 9.784 7.96 17.744 17.744 17.744h28.469c9.784 0 17.744-7.96 17.744-17.744v-28.469c0-9.784-7.96-17.744-17.744-17.744zm31.213 17.744v28.469c0 1.513-1.231 2.744-2.744 2.744h-28.469c-1.513 0-2.744-1.231-2.744-2.744v-28.469c0-1.513 1.231-2.744 2.744-2.744h28.469c1.513 0 2.744 1.231 2.744 2.744z"/><path d="m150.397 200.242h-28.469c-9.784 0-17.744 7.96-17.744 17.744v28.469c0 9.784 7.96 17.744 17.744 17.744h28.469c9.784 0 17.744-7.96 17.744-17.744v-28.469c0-9.784-7.96-17.744-17.744-17.744zm2.744 46.213c0 1.513-1.231 2.744-2.744 2.744h-28.469c-1.513 0-2.744-1.231-2.744-2.744v-28.469c0-1.513 1.231-2.744 2.744-2.744h28.469c1.513 0 2.744 1.231 2.744 2.744z"/><path d="m150.397 359.906h-28.469c-9.784 0-17.744 7.96-17.744 17.744v28.469c0 9.784 7.96 17.744 17.744 17.744h28.469c9.784 0 17.744-7.96 17.744-17.744v-28.469c0-9.784-7.96-17.744-17.744-17.744zm2.744 46.213c0 1.513-1.231 2.744-2.744 2.744h-28.469c-1.513 0-2.744-1.231-2.744-2.744v-28.469c0-1.513 1.231-2.744 2.744-2.744h28.469c1.513 0 2.744 1.231 2.744 2.744z"/><path d="m198.144 142.092h204.123c4.142 0 7.5-3.358 7.5-7.5s-3.358-7.5-7.5-7.5h-204.123c-4.142 0-7.5 3.358-7.5 7.5s3.358 7.5 7.5 7.5z"/><path d="m198.144 177.683h204.123c4.142 0 7.5-3.358 7.5-7.5s-3.358-7.5-7.5-7.5h-204.123c-4.142 0-7.5 3.358-7.5 7.5s3.358 7.5 7.5 7.5z"/><path d="m198.144 221.925h204.123c4.142 0 7.5-3.358 7.5-7.5s-3.358-7.5-7.5-7.5h-204.123c-4.142 0-7.5 3.358-7.5 7.5s3.358 7.5 7.5 7.5z"/><path d="m198.144 257.515h204.123c4.142 0 7.5-3.358 7.5-7.5s-3.358-7.5-7.5-7.5h-204.123c-4.142 0-7.5 3.358-7.5 7.5s3.358 7.5 7.5 7.5z"/><path d="m198.144 301.757h204.123c4.142 0 7.5-3.358 7.5-7.5s-3.358-7.5-7.5-7.5h-204.123c-4.142 0-7.5 3.358-7.5 7.5s3.358 7.5 7.5 7.5z"/><path d="m198.144 337.348h204.123c4.142 0 7.5-3.358 7.5-7.5s-3.358-7.5-7.5-7.5h-204.123c-4.142 0-7.5 3.358-7.5 7.5s3.358 7.5 7.5 7.5z"/><path d="m198.144 381.59h204.123c4.142 0 7.5-3.358 7.5-7.5s-3.358-7.5-7.5-7.5h-204.123c-4.142 0-7.5 3.358-7.5 7.5s3.358 7.5 7.5 7.5z"/><path d="m198.144 417.18h204.123c4.142 0 7.5-3.358 7.5-7.5s-3.358-7.5-7.5-7.5h-204.123c-4.142 0-7.5 3.358-7.5 7.5s3.358 7.5 7.5 7.5z"/><path d="m181.803 272.62c-2.929-2.929-7.678-2.929-10.606 0l-10.659 10.659c-2.878-2.013-6.37-3.204-10.141-3.204h-28.469c-9.784 0-17.744 7.96-17.744 17.744v28.469c0 9.784 7.96 17.744 17.744 17.744h28.469c9.784 0 17.744-7.96 17.744-17.744v-28.469c0-.299-.03-.589-.045-.884l13.707-13.707c2.929-2.93 2.929-7.679 0-10.608zm-59.875 22.454h26.814l-13.174 13.174-8.292-6.527c-2.388-1.88-5.56-2.072-8.093-.759v-3.144c.001-1.513 1.232-2.744 2.745-2.744zm31.213 31.213c0 1.513-1.231 2.744-2.744 2.744h-28.469c-1.513 0-2.744-1.231-2.744-2.744v-11.846l12.339 9.713c1.368 1.077 3.005 1.607 4.637 1.607 1.929 0 3.85-.741 5.305-2.197l11.675-11.675v14.398z"/></g></g></svg>