<svg id="Capa_1" enable-background="new 0 0 511.894 511.894" height="512" viewBox="0 0 511.894 511.894" width="512" xmlns="http://www.w3.org/2000/svg"><g><g><path d="m493.94 79.236h-429.23-1v.707l-34.814 24.622-4.657 250.071 3.819 33.233c-12.544 10.308-20.552 25.933-20.558 43.437v.75c.4 30.51 26.53 55.46 57.05 55.46h429.39c5.78 0 10.45-4.68 10.45-10.45v-387.38c0-5.77-4.67-10.45-10.45-10.45z" fill="#f8f3f2"/><g><path d="m504.39 455.392v21.674c0 5.771-4.679 10.45-10.45 10.45h-429.39c-30.52 0-56.65-24.95-57.05-55.46 0-.25 0-.5 0-.75.005-15.804.142-33.181 10.641-43.391l-.276-4.961 11.899-20.293h-4.604l-.922-8.024 4.657-250.071 34.815-24.623v-.707h1 19v293.01c0 12.285-9.608 22.343-21.874 22.899-14.487 0-26.231 11.744-26.231 26.231v4.733c0 14.417 11.634 26.131 26.051 26.231z" fill="#f2eae7"/><path d="m63.71 372.246c0 1.56-1.23 2.85-2.78 2.92-29.76 1.45-53.42 26.03-53.43 56.14v-345.59c0-30.01 23.51-54.53 53.12-56.13 1.68-.09 3.09 1.26 3.09 2.94z" fill="#f9f7f7"/><path d="m408.463 438.478h-59.46c-5.635 0-10.204-4.568-10.204-10.204v-393.693c0-5.635 4.568-10.204 10.204-10.204h59.46c5.635 0 10.204 4.568 10.204 10.204v393.692c0 5.636-4.568 10.205-10.204 10.205z" fill="#cfeffc"/><path d="m395.508 410.32c-12.62 0-22.851-10.231-22.851-22.851v-363.092h-23.655c-5.635 0-10.204 4.568-10.204 10.204v393.693c0 5.635 4.568 10.204 10.204 10.204h59.46c5.635 0 10.204-4.568 10.204-10.204v-17.954z" fill="#a9e4f9"/><g id="XMLID_171_"><g><path d="m293.747 388.908h-32.614l-6.492 8.148v4.89c0 .7.17 1.38.5 1.99l16.87 31.4c1.58 2.95 5.81 2.95 7.4 0l16.87-31.4c.33-.61.5-1.29.5-1.99v-4.89z" fill="#fbe88c"/><path d="m279.47 31.226h-7.53c-9.56 0-17.3 7.75-17.3 17.31v39.34l10.317 18.617h23.744l8.079-18.617v-39.34c0-9.56-7.75-17.31-17.31-17.31z" fill="#cac5cb"/><path d="m274.128 402.638c-.373-.584-.565-1.235-.565-1.905v-11.825h-12.43l-6.492 8.148v4.89c0 .7.17 1.38.5 1.99l16.87 31.4c1.58 2.95 5.81 2.95 7.4 0l7.086-13.189z" fill="#fbe372"/><path d="m292.169 110.29h-28.618l-8.911 12.556v274.21h42.14v-274.21z" fill="#cac5cb"/></g></g></g><path d="m273.563 110.29h-10.012l-8.911 12.556v274.21h18.923z" fill="#b3adb5"/><path d="m273.563 62.431c0-9.151 8.743-16.57 19.542-16.57h3.448c-1.289-8.286-8.435-14.635-17.082-14.635h-7.53c-9.56 0-17.3 7.75-17.3 17.31v39.34l10.317 18.617h8.606v-44.062z" fill="#b3adb5"/><path d="m254.64 87.876h42.14v34.97h-42.14z" fill="#fbe88c"/><path d="m254.64 87.876h18.923v34.97h-18.923z" fill="#fbe372"/></g><g><path d="m493.945 71.736h-44.907c-4.142 0-7.5 3.358-7.5 7.5s3.358 7.5 7.5 7.5h44.907c1.626 0 2.949 1.323 2.949 2.949v387.382c0 1.626-1.323 2.949-2.949 2.949h-429.4c-26.517 0-49.204-22.008-49.541-48.058-.342-26.362 19.99-48.017 46.286-49.298 5.561-.27 9.917-4.844 9.917-10.414v-207.364c0-4.142-3.358-7.5-7.5-7.5s-7.5 3.358-7.5 7.5v203.153c-16.597 1.926-31.091 10.111-41.207 22.089v-304.412c0-24.241 17.744-44.522 41.208-48.135v95.343c0 4.142 3.358 7.5 7.5 7.5s7.5-3.358 7.5-7.5v-46.184h153.1c4.142 0 7.5-3.358 7.5-7.5s-3.358-7.5-7.5-7.5h-153.1v-39.21c0-2.855-1.189-5.62-3.264-7.585-2.069-1.96-4.88-2.992-7.727-2.842-33.766 1.827-60.217 29.769-60.217 63.613v345.596c0 .078.009.154.012.232.001.204-.009.406-.006.611.217 16.72 7.146 32.513 19.512 44.468 12.27 11.863 28.262 18.396 45.028 18.396h429.399c9.897 0 17.949-8.052 17.949-17.949v-387.38c0-9.898-8.052-17.95-17.949-17.95z"/><path d="m349.003 445.978h59.459c9.762 0 17.704-7.942 17.704-17.704v-42.394c0-4.142-3.358-7.5-7.5-7.5s-7.5 3.358-7.5 7.5v42.393c0 1.491-1.213 2.704-2.704 2.704h-59.459c-1.491 0-2.704-1.213-2.704-2.704v-22.239h15.168c4.142 0 7.5-3.358 7.5-7.5s-3.358-7.5-7.5-7.5h-15.168v-32.744h15.168c4.142 0 7.5-3.358 7.5-7.5s-3.358-7.5-7.5-7.5h-15.168v-32.745h15.168c4.142 0 7.5-3.358 7.5-7.5s-3.358-7.5-7.5-7.5h-15.168v-32.745h15.168c4.142 0 7.5-3.358 7.5-7.5s-3.358-7.5-7.5-7.5h-15.168v-32.745h15.168c4.142 0 7.5-3.358 7.5-7.5s-3.358-7.5-7.5-7.5h-15.168v-32.745h15.168c4.142 0 7.5-3.358 7.5-7.5s-3.358-7.5-7.5-7.5h-15.168v-32.745h15.168c4.142 0 7.5-3.358 7.5-7.5s-3.358-7.5-7.5-7.5h-15.168v-32.745h15.168c4.142 0 7.5-3.358 7.5-7.5s-3.358-7.5-7.5-7.5h-15.168v-22.239c0-1.491 1.213-2.704 2.704-2.704h59.459c1.491 0 2.704 1.213 2.704 2.704v319.337c0 4.142 3.358 7.5 7.5 7.5s7.5-3.358 7.5-7.5v-319.337c0-9.762-7.942-17.704-17.704-17.704h-59.459c-9.762 0-17.704 7.942-17.704 17.704v393.692c0 9.763 7.942 17.705 17.704 17.705z"/><path d="m265.4 438.882c2.042 3.801 5.992 6.162 10.308 6.162 4.315 0 8.265-2.361 10.307-6.162l16.87-31.392c.913-1.697 1.395-3.613 1.395-5.54v-353.416c0-13.678-11.127-24.806-24.805-24.806h-7.532c-13.678 0-24.805 11.128-24.805 24.806v112.756c0 4.142 3.358 7.5 7.5 7.5s7.5-3.358 7.5-7.5v-30.949h27.143v259.215h-27.143v-196.304c0-4.142-3.358-7.5-7.5-7.5s-7.5 3.358-7.5 7.5v208.698c0 1.927.482 3.843 1.394 5.539zm10.308-12.507-11.725-21.818h23.45zm-3.766-387.646h7.532c5.407 0 9.805 4.399 9.805 9.806v31.844h-27.143v-31.845c.001-5.407 4.399-9.805 9.806-9.805zm-9.805 76.612v-19.963h27.143v19.962h-27.143z"/></g></g></svg>