<svg id="Capa_1" enable-background="new 0 0 512.955 512.955" height="512" viewBox="0 0 512.955 512.955" width="512" xmlns="http://www.w3.org/2000/svg"><g><g><g><path d="m467.163 49.038h-421.58c-21.09 0-38.19 17.1-38.19 38.19v34.05l33.777 49.689h438.758l25.425-49.689v-34.05c0-21.09-17.1-38.19-38.19-38.19z" fill="#ee878a"/><path d="m52.456 49.038h-6.873c-21.09 0-38.19 17.1-38.19 38.19v34.05l33.777 49.689h11.286z" fill="#ec6e73"/><g id="XMLID_6_"><g><path d="m505.353 121.278v304.11c0 21.09-17.1 38.19-38.19 38.19h-421.58c-21.09 0-38.19-17.1-38.19-38.19v-304.11z" fill="#f9f7f7"/></g></g><g><path d="m351.835 424.608c-5.457 0-9.086-5.602-6.901-10.602 4.369-9.999 6.984-19.849 6.984-29.114 0-52.901-43.039-95.94-95.94-95.94s-95.94 43.039-95.94 95.94c0 9.265 2.614 19.115 6.983 29.114 2.185 5-1.444 10.602-6.901 10.602h-50.336c-31.661 0-57.328-25.667-57.328-57.328v-246.002h-45.063v304.11c0 21.092 17.098 38.19 38.19 38.19h421.58c21.092 0 38.19-17.098 38.19-38.19v-.78zm-95.857-70.606c17.032 0 30.89 13.857 30.89 30.89s-13.857 30.89-30.89 30.89-30.89-13.857-30.89-30.89 13.857-30.89 30.89-30.89z" fill="#f2eae7"/><path d="m255.978 303.952c44.7 0 80.94 36.24 80.94 80.94 0 35.77-51.81 87.31-72.53 106.49-4.74 4.39-12.08 4.39-16.82 0-20.72-19.18-72.53-70.72-72.53-106.49 0-44.7 36.24-80.94 80.94-80.94zm45.89 80.94c0-25.35-20.54-45.89-45.89-45.89s-45.89 20.54-45.89 45.89 20.54 45.89 45.89 45.89 45.89-20.54 45.89-45.89z" fill="#ee878a"/><g><path d="m200.774 384.892c0-40.319 29.497-73.755 68.079-79.921-4.192-.67-8.495-1.019-12.876-1.019-44.7 0-80.94 36.24-80.94 80.94 0 35.77 51.81 87.31 72.53 106.49 4.74 4.39 12.08 4.39 16.82 0 1.359-1.258 2.855-2.659 4.458-4.182-22.838-21.696-68.071-68.885-68.071-102.308z" fill="#ec6e73"/></g></g><g><g><path d="m443.482 204.048h-374.293c-6.435 0-11.652-5.217-11.652-11.652v-26.702c0-6.435 5.217-11.652 11.652-11.652h374.293c6.435 0 11.652 5.217 11.652 11.652v26.702c0 6.436-5.217 11.652-11.652 11.652z" fill="#a9e4f9"/><path d="m89.272 95.477c16.268 0 29.503-13.235 29.503-29.503v-16.936h-59.006v16.936c0 16.268 13.235 29.503 29.503 29.503z" fill="#ec6e73"/><path d="m89.272 80.477c-8.01 0-14.503-6.493-14.503-14.503v-33.862c0-8.01 6.493-14.503 14.503-14.503 8.01 0 14.503 6.493 14.503 14.503v33.862c0 8.01-6.493 14.503-14.503 14.503z" fill="#f2eae7"/><path d="m156.07 95.477c16.268 0 29.503-13.235 29.503-29.503v-16.936h-59.007v16.936c.001 16.268 13.236 29.503 29.504 29.503z" fill="#ec6e73"/><path d="m156.07 80.477c-8.01 0-14.503-6.493-14.503-14.503v-33.862c0-8.01 6.493-14.503 14.503-14.503 8.01 0 14.503 6.493 14.503 14.503v33.862c.001 8.01-6.493 14.503-14.503 14.503z" fill="#f2eae7"/><path d="m222.869 95.477c16.268 0 29.503-13.235 29.503-29.503v-16.936h-59.007v16.936c0 16.268 13.236 29.503 29.504 29.503z" fill="#ec6e73"/><path d="m222.869 80.477c-8.01 0-14.503-6.493-14.503-14.503v-33.862c0-8.01 6.493-14.503 14.503-14.503 8.01 0 14.503 6.493 14.503 14.503v33.862c0 8.01-6.493 14.503-14.503 14.503z" fill="#f2eae7"/><path d="m289.667 95.477c16.269 0 29.504-13.235 29.504-29.503v-16.936h-59.007v16.936c0 16.268 13.235 29.503 29.503 29.503z" fill="#ec6e73"/><path d="m289.667 80.477c-8.01 0-14.503-6.493-14.503-14.503v-33.862c0-8.01 6.493-14.503 14.503-14.503 8.01 0 14.503 6.493 14.503 14.503v33.862c0 8.01-6.493 14.503-14.503 14.503z" fill="#f2eae7"/><path d="m356.466 95.477c16.268 0 29.503-13.235 29.503-29.503v-16.936h-59.006v16.936c0 16.268 13.235 29.503 29.503 29.503z" fill="#ec6e73"/><path d="m356.465 80.477c-8.01 0-14.503-6.493-14.503-14.503v-33.862c0-8.01 6.493-14.503 14.503-14.503 8.01 0 14.503 6.493 14.503 14.503v33.862c.001 8.01-6.493 14.503-14.503 14.503z" fill="#f2eae7"/><path d="m423.263 95.477c16.269 0 29.504-13.235 29.504-29.503v-16.936h-59.007v16.936c0 16.268 13.236 29.503 29.503 29.503z" fill="#ec6e73"/><path d="m423.264 80.477c-8.01 0-14.503-6.493-14.503-14.503v-33.862c0-8.01 6.493-14.503 14.503-14.503 8.01 0 14.503 6.493 14.503 14.503v33.862c0 8.01-6.493 14.503-14.503 14.503z" fill="#f2eae7"/></g><g fill="#ded4cf"><path d="m269.593 275.978h-26.231c-4.376 0-7.923-3.547-7.923-7.923v-19.539c0-4.375 3.547-7.923 7.923-7.923h26.231c4.375 0 7.923 3.547 7.923 7.923v19.539c0 4.376-3.548 7.923-7.923 7.923z"/><path d="m195.245 275.978h-26.231c-4.376 0-7.923-3.547-7.923-7.923v-19.539c0-4.375 3.547-7.923 7.923-7.923h26.231c4.375 0 7.923 3.547 7.923 7.923v19.539c0 4.376-3.547 7.923-7.923 7.923z"/><path d="m120.898 275.978h-26.231c-4.376 0-7.923-3.547-7.923-7.923v-19.539c0-4.375 3.547-7.923 7.923-7.923h26.231c4.376 0 7.923 3.547 7.923 7.923v19.539c-.001 4.376-3.548 7.923-7.923 7.923z"/><path d="m317.71 275.978h26.231c4.375 0 7.923-3.547 7.923-7.923v-19.539c0-4.375-3.547-7.923-7.923-7.923h-26.231c-4.376 0-7.923 3.547-7.923 7.923v19.539c0 4.376 3.547 7.923 7.923 7.923z"/><path d="m392.057 275.978h26.231c4.376 0 7.923-3.547 7.923-7.923v-19.539c0-4.375-3.547-7.923-7.923-7.923h-26.231c-4.375 0-7.923 3.547-7.923 7.923v19.539c.001 4.376 3.548 7.923 7.923 7.923z"/><path d="m120.898 344.422h-26.231c-4.376 0-7.923-3.547-7.923-7.923v-19.539c0-4.375 3.547-7.923 7.923-7.923h26.231c4.376 0 7.923 3.547 7.923 7.923v19.54c-.001 4.375-3.548 7.922-7.923 7.922z"/><path d="m392.057 344.422h26.231c4.376 0 7.923-3.547 7.923-7.923v-19.539c0-4.375-3.547-7.923-7.923-7.923h-26.231c-4.375 0-7.923 3.547-7.923 7.923v19.54c.001 4.375 3.548 7.922 7.923 7.922z"/><path d="m120.898 412.867h-26.231c-4.376 0-7.923-3.547-7.923-7.923v-19.539c0-4.376 3.547-7.923 7.923-7.923h26.231c4.376 0 7.923 3.547 7.923 7.923v19.539c-.001 4.376-3.548 7.923-7.923 7.923z"/><path d="m392.057 412.867h26.231c4.376 0 7.923-3.547 7.923-7.923v-19.539c0-4.376-3.547-7.923-7.923-7.923h-26.231c-4.375 0-7.923 3.547-7.923 7.923v19.539c.001 4.376 3.548 7.923 7.923 7.923z"/></g></g></g></g><g><path d="m467.269 42.247h-21.896v-9.431c0-12.132-9.871-22.003-22.004-22.003s-22.003 9.871-22.003 22.003v9.431h-22.792v-9.431c0-12.132-9.87-22.003-22.003-22.003s-22.003 9.871-22.003 22.003v9.431h-22.792v-9.431c0-12.132-9.871-22.003-22.004-22.003s-22.003 9.871-22.003 22.003v9.431h-22.792v-9.431c0-12.132-9.87-22.003-22.003-22.003s-22.003 9.871-22.003 22.003v9.431h-22.792v-9.431c0-12.132-9.871-22.003-22.004-22.003s-22.003 9.871-22.003 22.003v9.431h-22.792v-9.431c0-12.132-9.87-22.003-22.003-22.003s-22.003 9.871-22.003 22.003v9.431h-21.687c-25.192 0-45.687 20.495-45.687 45.686v338.158c0 25.191 20.495 45.686 45.687 45.686h135.363c2.881 0 5.507-1.65 6.757-4.245s.903-5.677-.892-7.929l-.437-.544c-.21-.261-.42-.522-.627-.786-2.479-3.153-6.979-3.781-10.215-1.495h-129.949c-16.921-.001-30.687-13.767-30.687-30.687v-296.613h63.294c4.143 0 7.5-3.358 7.5-7.5s-3.357-7.5-7.5-7.5h-63.294v-26.545c0-16.92 13.766-30.687 30.687-30.687h21.688v9.431c0 12.133 9.87 22.003 22.003 22.003s22.003-9.871 22.003-22.003v-9.431h22.792v9.431c0 12.133 9.87 22.003 22.003 22.003s22.004-9.871 22.004-22.003v-9.431h22.792v9.431c0 12.133 9.87 22.003 22.003 22.003s22.003-9.871 22.003-22.003v-9.431h22.792v9.431c0 12.133 9.87 22.003 22.003 22.003s22.004-9.871 22.004-22.003v-9.431h22.792v9.431c0 12.133 9.87 22.003 22.003 22.003s22.003-9.871 22.003-22.003v-9.431h22.792v9.431c0 12.133 9.87 22.003 22.003 22.003s22.004-9.871 22.004-22.003v-9.431h21.896c16.921 0 30.687 13.766 30.687 30.687v26.545h-387.701c-4.143 0-7.5 3.358-7.5 7.5s3.357 7.5 7.5 7.5h387.699v296.613c0 16.92-13.766 30.686-30.687 30.686h-130.95c-3.236-2.286-7.736-1.657-10.215 1.495-.207.264-.417.525-.627.786l-.437.544c-1.795 2.252-2.142 5.334-.892 7.929s3.876 4.245 6.757 4.245h136.363c25.191 0 45.687-20.495 45.687-45.686v-338.157c.001-25.191-20.494-45.686-45.685-45.686zm-370.889 24.431c0 3.862-3.142 7.003-7.003 7.003s-7.003-3.142-7.003-7.003v-33.862c0-3.861 3.142-7.003 7.003-7.003s7.003 3.142 7.003 7.003zm66.799 0c0 3.862-3.142 7.003-7.004 7.003-3.861 0-7.003-3.142-7.003-7.003v-33.862c0-3.861 3.142-7.003 7.003-7.003 3.862 0 7.004 3.142 7.004 7.003zm66.798 0c0 3.862-3.142 7.003-7.003 7.003s-7.003-3.142-7.003-7.003v-33.862c0-3.861 3.142-7.003 7.003-7.003s7.003 3.142 7.003 7.003zm66.798 0c0 3.862-3.142 7.003-7.004 7.003-3.861 0-7.003-3.142-7.003-7.003v-33.862c0-3.861 3.142-7.003 7.003-7.003 3.862 0 7.004 3.142 7.004 7.003zm66.798 0c0 3.862-3.142 7.003-7.003 7.003s-7.003-3.142-7.003-7.003v-33.862c0-3.861 3.142-7.003 7.003-7.003s7.003 3.142 7.003 7.003zm66.799 0c0 3.862-3.142 7.003-7.004 7.003-3.861 0-7.003-3.142-7.003-7.003v-33.862c0-3.861 3.142-7.003 7.003-7.003 3.862 0 7.004 3.142 7.004 7.003z"/><path d="m462.776 192.886v-26.702c0-10.561-8.592-19.152-19.152-19.152h-22.471c-4.143 0-7.5 3.358-7.5 7.5s3.357 7.5 7.5 7.5h22.471c2.29 0 4.152 1.862 4.152 4.152v26.702c0 2.289-1.862 4.151-4.152 4.151h-374.293c-2.29 0-4.152-1.862-4.152-4.151v-26.702c0-2.29 1.862-4.152 4.152-4.152h319.86c4.143 0 7.5-3.358 7.5-7.5s-3.357-7.5-7.5-7.5h-319.86c-10.561 0-19.152 8.591-19.152 19.152v26.702c0 10.56 8.592 19.151 19.152 19.151h374.293c10.561 0 19.152-8.591 19.152-19.151z"/><path d="m243.362 233.094c-8.504 0-15.423 6.918-15.423 15.422v19.539c0 8.504 6.919 15.423 15.423 15.423h26.23c8.504 0 15.423-6.918 15.423-15.423v-19.539c0-8.504-6.919-15.422-15.423-15.422zm26.654 15.422v19.539c0 .233-.189.423-.423.423h-26.23c-.233 0-.423-.189-.423-.423v-19.539c0-.233.189-.422.423-.422h26.23c.233 0 .423.189.423.422z"/><path d="m169.015 283.478h26.23c8.504 0 15.423-6.918 15.423-15.423v-19.539c0-8.504-6.919-15.422-15.423-15.422h-26.23c-8.504 0-15.423 6.918-15.423 15.422v19.539c0 8.504 6.919 15.423 15.423 15.423zm-.423-34.962c0-.233.189-.422.423-.422h26.23c.233 0 .423.189.423.422v19.539c0 .233-.189.423-.423.423h-26.23c-.233 0-.423-.189-.423-.423z"/><path d="m136.32 248.516c0-8.504-6.919-15.422-15.423-15.422h-26.23c-8.504 0-15.423 6.918-15.423 15.422v19.539c0 8.504 6.919 15.423 15.423 15.423h26.23c8.504 0 15.423-6.918 15.423-15.423zm-15 19.539c0 .233-.189.423-.423.423h-26.23c-.233 0-.423-.189-.423-.423v-19.539c0-.233.189-.422.423-.422h26.23c.233 0 .423.189.423.422z"/><path d="m317.71 233.094c-8.504 0-15.423 6.918-15.423 15.422v19.539c0 8.504 6.919 15.423 15.423 15.423h26.23c8.504 0 15.423-6.918 15.423-15.423v-19.539c0-8.504-6.919-15.422-15.423-15.422zm26.653 15.422v19.539c0 .233-.189.423-.423.423h-26.23c-.233 0-.423-.189-.423-.423v-19.539c0-.233.189-.422.423-.422h26.23c.234 0 .423.189.423.422z"/><path d="m433.711 248.516c0-8.504-6.919-15.422-15.423-15.422h-26.23c-8.504 0-15.423 6.918-15.423 15.422v19.539c0 8.504 6.919 15.423 15.423 15.423h26.23c8.504 0 15.423-6.918 15.423-15.423zm-15 19.539c0 .233-.189.423-.423.423h-26.23c-.233 0-.423-.189-.423-.423v-19.539c0-.233.189-.422.423-.422h26.23c.233 0 .423.189.423.422z"/><path d="m136.32 316.961c0-8.504-6.919-15.423-15.423-15.423h-26.23c-8.504 0-15.423 6.918-15.423 15.423v19.539c0 8.504 6.919 15.422 15.423 15.422h26.23c8.504 0 15.423-6.918 15.423-15.422zm-15 19.539c0 .233-.189.422-.423.422h-26.23c-.233 0-.423-.189-.423-.422v-19.539c0-.233.189-.423.423-.423h26.23c.233 0 .423.189.423.423z"/><path d="m433.711 316.961c0-8.504-6.919-15.423-15.423-15.423h-26.23c-8.504 0-15.423 6.918-15.423 15.423v19.539c0 8.504 6.919 15.422 15.423 15.422h26.23c8.504 0 15.423-6.918 15.423-15.422zm-15 19.539c0 .233-.189.422-.423.422h-26.23c-.233 0-.423-.189-.423-.422v-19.539c0-.233.189-.423.423-.423h26.23c.233 0 .423.189.423.423z"/><path d="m120.897 369.983h-26.23c-8.504 0-15.423 6.918-15.423 15.422v19.54c0 8.504 6.919 15.422 15.423 15.422h26.23c8.504 0 15.423-6.918 15.423-15.422v-19.54c0-8.504-6.919-15.422-15.423-15.422zm.423 34.962c0 .233-.189.422-.423.422h-26.23c-.233 0-.423-.189-.423-.422v-19.54c0-.233.189-.422.423-.422h26.23c.233 0 .423.189.423.422z"/><path d="m418.288 369.983h-26.23c-8.504 0-15.423 6.918-15.423 15.422v19.54c0 8.504 6.919 15.422 15.423 15.422h26.23c8.504 0 15.423-6.918 15.423-15.422v-19.54c0-8.504-6.919-15.422-15.423-15.422zm.423 34.962c0 .233-.189.422-.423.422h-26.23c-.233 0-.423-.189-.423-.422v-19.54c0-.233.189-.422.423-.422h26.23c.233 0 .423.189.423.422z"/><path d="m255.978 331.498c-29.441 0-53.394 23.952-53.394 53.394s23.952 53.394 53.394 53.394 53.394-23.952 53.394-53.394-23.953-53.394-53.394-53.394zm0 91.787c-21.17 0-38.394-17.223-38.394-38.394s17.224-38.394 38.394-38.394 38.394 17.223 38.394 38.394-17.225 38.394-38.394 38.394z"/><path d="m334.829 344.848c-1.879-3.692-6.396-5.161-10.085-3.284-3.692 1.878-5.162 6.394-3.284 10.085 5.282 10.383 7.961 21.568 7.961 33.242 0 33.465-53.677 85.755-70.129 100.985-1.857 1.72-4.771 1.722-6.63 0-16.451-15.229-70.128-67.519-70.128-100.984 0-40.497 32.946-73.443 73.443-73.443 17.371 0 34.234 6.192 47.481 17.437 3.159 2.681 7.892 2.293 10.571-.865 2.681-3.158 2.293-7.891-.864-10.571-15.956-13.542-36.266-21-57.188-21-48.768 0-88.443 39.676-88.443 88.443 0 17.149 10.128 38.717 30.104 64.103 16.097 20.456 34.999 38.785 44.834 47.889 3.787 3.506 8.646 5.259 13.506 5.259s9.719-1.753 13.505-5.258c9.836-9.104 28.738-27.433 44.835-47.889 19.976-25.386 30.104-46.954 30.104-64.103-.001-14.063-3.229-27.535-9.593-40.046z"/></g></g></svg>