<svg id="Capa_1" enable-background="new 0 0 512.955 512.955" height="512" viewBox="0 0 512.955 512.955" width="512" xmlns="http://www.w3.org/2000/svg"><g><g><g><path d="m467.163 48.799h-421.58c-21.09 0-38.19 17.1-38.19 38.19v34.05l33.777 49.689h438.758l25.425-49.689v-34.05c0-21.09-17.1-38.19-38.19-38.19z" fill="#ee878a"/><path d="m52.456 48.799h-6.873c-21.09 0-38.19 17.1-38.19 38.19v34.05l33.777 49.689h11.286z" fill="#ec6e73"/><g id="XMLID_7_"><g><path d="m505.353 121.039v304.11c0 21.09-17.1 38.19-38.19 38.19h-421.58c-21.09 0-38.19-17.1-38.19-38.19v-304.11z" fill="#f9f7f7"/></g></g><path d="m443.482 203.81h-374.293c-6.435 0-11.652-5.217-11.652-11.652v-26.702c0-6.435 5.217-11.652 11.652-11.652h374.293c6.435 0 11.652 5.217 11.652 11.652v26.702c0 6.435-5.217 11.652-11.652 11.652z" fill="#a9e4f9"/><path d="m89.272 95.238c16.268 0 29.503-13.235 29.503-29.503v-16.936h-59.006v16.936c0 16.268 13.235 29.503 29.503 29.503z" fill="#ec6e73"/><path d="m89.272 80.239c-8.01 0-14.503-6.493-14.503-14.503v-33.863c0-8.01 6.493-14.503 14.503-14.503 8.01 0 14.503 6.493 14.503 14.503v33.862c0 8.01-6.493 14.504-14.503 14.504z" fill="#f2eae7"/><path d="m156.07 95.238c16.268 0 29.503-13.235 29.503-29.503v-16.936h-59.007v16.936c.001 16.268 13.236 29.503 29.504 29.503z" fill="#ec6e73"/><path d="m156.07 80.239c-8.01 0-14.503-6.493-14.503-14.503v-33.863c0-8.01 6.493-14.503 14.503-14.503 8.01 0 14.503 6.493 14.503 14.503v33.862c.001 8.01-6.493 14.504-14.503 14.504z" fill="#f2eae7"/><path d="m222.869 95.238c16.268 0 29.503-13.235 29.503-29.503v-16.936h-59.007v16.936c0 16.268 13.236 29.503 29.504 29.503z" fill="#ec6e73"/><path d="m222.869 80.239c-8.01 0-14.503-6.493-14.503-14.503v-33.863c0-8.01 6.493-14.503 14.503-14.503 8.01 0 14.503 6.493 14.503 14.503v33.862c0 8.01-6.493 14.504-14.503 14.504z" fill="#f2eae7"/><path d="m289.667 95.238c16.269 0 29.504-13.235 29.504-29.503v-16.936h-59.007v16.936c0 16.268 13.235 29.503 29.503 29.503z" fill="#ec6e73"/><path d="m289.667 80.239c-8.01 0-14.503-6.493-14.503-14.503v-33.863c0-8.01 6.493-14.503 14.503-14.503 8.01 0 14.503 6.493 14.503 14.503v33.862c0 8.01-6.493 14.504-14.503 14.504z" fill="#f2eae7"/><path d="m356.466 95.238c16.268 0 29.503-13.235 29.503-29.503v-16.936h-59.006v16.936c0 16.268 13.235 29.503 29.503 29.503z" fill="#ec6e73"/><path d="m356.465 80.239c-8.01 0-14.503-6.493-14.503-14.503v-33.863c0-8.01 6.493-14.503 14.503-14.503 8.01 0 14.503 6.493 14.503 14.503v33.862c.001 8.01-6.493 14.504-14.503 14.504z" fill="#f2eae7"/><path d="m423.263 95.238c16.269 0 29.504-13.235 29.504-29.503v-16.936h-59.007v16.936c0 16.268 13.236 29.503 29.503 29.503z" fill="#ec6e73"/><path d="m423.264 80.239c-8.01 0-14.503-6.493-14.503-14.503v-33.863c0-8.01 6.493-14.503 14.503-14.503 8.01 0 14.503 6.493 14.503 14.503v33.862c0 8.01-6.493 14.504-14.503 14.504z" fill="#f2eae7"/></g><g><g fill="#ded4cf"><path d="m269.593 275.739h-26.231c-4.376 0-7.923-3.547-7.923-7.923v-19.539c0-4.375 3.547-7.923 7.923-7.923h26.231c4.375 0 7.923 3.547 7.923 7.923v19.539c0 4.376-3.548 7.923-7.923 7.923z"/><path d="m195.245 275.739h-26.231c-4.376 0-7.923-3.547-7.923-7.923v-19.539c0-4.375 3.547-7.923 7.923-7.923h26.231c4.375 0 7.923 3.547 7.923 7.923v19.539c0 4.376-3.547 7.923-7.923 7.923z"/><path d="m120.898 275.739h-26.231c-4.376 0-7.923-3.547-7.923-7.923v-19.539c0-4.375 3.547-7.923 7.923-7.923h26.231c4.376 0 7.923 3.547 7.923 7.923v19.539c-.001 4.376-3.548 7.923-7.923 7.923z"/><path d="m317.71 275.739h26.231c4.375 0 7.923-3.547 7.923-7.923v-19.539c0-4.375-3.547-7.923-7.923-7.923h-26.231c-4.376 0-7.923 3.547-7.923 7.923v19.539c0 4.376 3.547 7.923 7.923 7.923z"/><path d="m392.057 275.739h26.231c4.376 0 7.923-3.547 7.923-7.923v-19.539c0-4.375-3.547-7.923-7.923-7.923h-26.231c-4.375 0-7.923 3.547-7.923 7.923v19.539c.001 4.376 3.548 7.923 7.923 7.923z"/><path d="m195.245 344.184h-26.231c-4.376 0-7.923-3.547-7.923-7.923v-19.539c0-4.375 3.547-7.923 7.923-7.923h26.231c4.375 0 7.923 3.547 7.923 7.923v19.539c0 4.376-3.547 7.923-7.923 7.923z"/><path d="m120.898 344.184h-26.231c-4.376 0-7.923-3.547-7.923-7.923v-19.539c0-4.375 3.547-7.923 7.923-7.923h26.231c4.376 0 7.923 3.547 7.923 7.923v19.539c-.001 4.376-3.548 7.923-7.923 7.923z"/><path d="m195.245 412.628h-26.231c-4.376 0-7.923-3.547-7.923-7.923v-19.539c0-4.376 3.547-7.923 7.923-7.923h26.231c4.375 0 7.923 3.547 7.923 7.923v19.539c0 4.376-3.547 7.923-7.923 7.923z"/><path d="m120.898 412.628h-26.231c-4.376 0-7.923-3.547-7.923-7.923v-19.539c0-4.376 3.547-7.923 7.923-7.923h26.231c4.376 0 7.923 3.547 7.923 7.923v19.539c-.001 4.376-3.548 7.923-7.923 7.923z"/></g><path d="m505.353 291.643c-3.501-1.453-7.335-2.26-11.356-2.26h-247.1c-16.414 0-29.72 13.306-29.72 29.72v78.687c0 14.68-11.9 26.58-26.58 26.58h-80.814c-31.661 0-57.328-25.667-57.328-57.328v-246.003h-45.062v304.11c0 21.092 17.098 38.19 38.19 38.19h421.58c20.122 0 36.596-15.565 38.071-35.31.071-.952.119-1.91.119-2.88z" fill="#f2eae7"/><g id="XMLID_8_"><g><path d="m287.188 317.015-44.89-6.872c-4.22 3.91-6.86 9.51-6.86 15.72v147.54c0 5.41 2 10.36 5.31 14.14l98.19-26.771 28.053-96.596z" fill="#fbe88c"/><path d="m498.598 310.143-85.968 26.721-42.177 65.505 29.453 66.918 100.251 18.236c3.31-3.78 5.3-8.72 5.3-14.12v-147.54c.001-6.21-2.639-11.81-6.859-15.72z" fill="#fbe88c"/><path d="m267.931 446.732v-132.665l-25.633-3.924c-4.22 3.91-6.86 9.51-6.86 15.72v147.54c0 5.41 2 10.36 5.31 14.14l51.1-13.932c-13.464-1.562-23.917-12.997-23.917-26.879z" fill="#fbe372"/><path d="m424.714 473.799 75.444 13.724c3.228-3.686 5.186-8.48 5.282-13.724z" fill="#fbe372"/><path d="m401.958 407.083-19.049-20.031h-23.44l-20.531 20.031-98.19 80.46c3.94 4.5 9.72 7.34 16.17 7.34h227.06c6.46 0 12.25-2.85 16.18-7.36z" fill="#fcf0b6"/><path d="m498.598 310.143-103.12 103.43c-13.81 13.86-36.25 13.86-50.06 0l-103.12-103.43c3.84-3.58 8.97-5.76 14.62-5.76h227.06c5.65 0 10.78 2.18 14.62 5.76z" fill="#fdf5cb"/></g></g></g><path d="m294.998 473.799c-9.451 0-17.765-4.846-22.607-12.186l-31.644 25.93c3.94 4.5 9.72 7.34 16.17 7.34h227.06c6.46 0 12.25-2.85 16.18-7.36l-16.754-13.724z" fill="#fbe88c"/><path d="m267.931 304.383h-11.013c-5.65 0-10.78 2.18-14.62 5.76l25.633 25.71z" fill="#fcf0b6"/></g><g><path d="m467.269 42.008h-21.896v-9.431c0-12.132-9.871-22.003-22.004-22.003s-22.003 9.871-22.003 22.003v9.431h-22.792v-9.431c0-12.132-9.87-22.003-22.003-22.003s-22.003 9.871-22.003 22.003v9.431h-22.792v-9.431c0-12.132-9.871-22.003-22.004-22.003s-22.003 9.871-22.003 22.003v9.431h-22.792v-9.431c0-12.132-9.87-22.003-22.003-22.003s-22.003 9.871-22.003 22.003v9.431h-22.792v-9.431c0-12.132-9.871-22.003-22.004-22.003s-22.003 9.871-22.003 22.003v9.431h-22.792v-9.431c0-12.132-9.87-22.003-22.003-22.003s-22.003 9.871-22.003 22.003v9.431h-21.687c-25.192 0-45.687 20.495-45.687 45.687v338.158c0 25.191 20.495 45.686 45.687 45.686h159.753c4.143 0 7.5-3.358 7.5-7.5s-3.357-7.5-7.5-7.5h-159.753c-16.921-.001-30.687-13.766-30.687-30.687v-296.612h51.353c4.143 0 7.5-3.358 7.5-7.5s-3.357-7.5-7.5-7.5h-51.353v-26.545c0-16.92 13.766-30.687 30.687-30.687h21.688v9.431c0 12.133 9.87 22.003 22.003 22.003s22.003-9.871 22.003-22.003v-9.431h22.792v9.431c0 12.133 9.87 22.003 22.003 22.003s22.004-9.871 22.004-22.003v-9.431h22.792v9.431c0 12.133 9.87 22.003 22.003 22.003s22.003-9.871 22.003-22.003v-9.431h22.792v9.431c0 12.133 9.87 22.003 22.003 22.003s22.004-9.871 22.004-22.003v-9.431h22.792v9.431c0 12.133 9.87 22.003 22.003 22.003s22.003-9.871 22.003-22.003v-9.431h22.792v9.431c0 12.133 9.87 22.003 22.003 22.003s22.004-9.871 22.004-22.003v-9.431h21.896c16.921 0 30.687 13.766 30.687 30.687v26.545h-399.643c-4.143 0-7.5 3.358-7.5 7.5s3.357 7.5 7.5 7.5h399.641v149.859c0 4.142 3.357 7.5 7.5 7.5s7.5-3.358 7.5-7.5v-191.404c0-25.192-20.495-45.687-45.686-45.687zm-370.889 24.431c0 3.862-3.142 7.003-7.003 7.003s-7.003-3.142-7.003-7.003v-33.862c0-3.861 3.142-7.003 7.003-7.003s7.003 3.142 7.003 7.003zm66.799 0c0 3.862-3.142 7.003-7.004 7.003-3.861 0-7.003-3.142-7.003-7.003v-33.862c0-3.861 3.142-7.003 7.003-7.003 3.862 0 7.004 3.142 7.004 7.003zm66.798 0c0 3.862-3.142 7.003-7.003 7.003s-7.003-3.142-7.003-7.003v-33.862c0-3.861 3.142-7.003 7.003-7.003s7.003 3.142 7.003 7.003zm66.798 0c0 3.862-3.142 7.003-7.004 7.003-3.861 0-7.003-3.142-7.003-7.003v-33.862c0-3.861 3.142-7.003 7.003-7.003 3.862 0 7.004 3.142 7.004 7.003zm66.798 0c0 3.862-3.142 7.003-7.003 7.003s-7.003-3.142-7.003-7.003v-33.862c0-3.861 3.142-7.003 7.003-7.003s7.003 3.142 7.003 7.003zm66.799 0c0 3.862-3.142 7.003-7.004 7.003-3.861 0-7.003-3.142-7.003-7.003v-33.862c0-3.861 3.142-7.003 7.003-7.003 3.862 0 7.004 3.142 7.004 7.003z"/><path d="m462.776 192.647v-26.702c0-10.561-8.592-19.152-19.152-19.152h-22.471c-4.143 0-7.5 3.358-7.5 7.5s3.357 7.5 7.5 7.5h22.471c2.29 0 4.152 1.862 4.152 4.152v26.702c0 2.289-1.862 4.151-4.152 4.151h-374.293c-2.29 0-4.152-1.862-4.152-4.151v-26.702c0-2.29 1.862-4.152 4.152-4.152h319.86c4.143 0 7.5-3.358 7.5-7.5s-3.357-7.5-7.5-7.5h-319.86c-10.561 0-19.152 8.591-19.152 19.152v26.702c0 10.56 8.592 19.151 19.152 19.151h374.293c10.561.001 19.152-8.591 19.152-19.151z"/><path d="m243.362 232.855c-8.504 0-15.423 6.918-15.423 15.422v19.539c0 8.504 6.919 15.423 15.423 15.423h26.23c8.504 0 15.423-6.918 15.423-15.423v-19.539c0-8.504-6.919-15.422-15.423-15.422zm26.654 15.422v19.539c0 .233-.189.423-.423.423h-26.23c-.233 0-.423-.189-.423-.423v-19.539c0-.233.189-.422.423-.422h26.23c.233 0 .423.189.423.422z"/><path d="m210.668 248.277c0-8.504-6.919-15.422-15.423-15.422h-26.23c-8.504 0-15.423 6.918-15.423 15.422v19.539c0 8.504 6.919 15.423 15.423 15.423h26.23c8.504 0 15.423-6.918 15.423-15.423zm-15 19.539c0 .233-.189.423-.423.423h-26.23c-.233 0-.423-.189-.423-.423v-19.539c0-.233.189-.422.423-.422h26.23c.233 0 .423.189.423.422z"/><path d="m136.32 248.277c0-8.504-6.919-15.422-15.423-15.422h-26.23c-8.504 0-15.423 6.918-15.423 15.422v19.539c0 8.504 6.919 15.423 15.423 15.423h26.23c8.504 0 15.423-6.918 15.423-15.423zm-15 19.539c0 .233-.189.423-.423.423h-26.23c-.233 0-.423-.189-.423-.423v-19.539c0-.233.189-.422.423-.422h26.23c.233 0 .423.189.423.422z"/><path d="m317.71 232.855c-8.504 0-15.423 6.918-15.423 15.422v19.539c0 8.504 6.919 15.423 15.423 15.423h26.23c8.504 0 15.423-6.918 15.423-15.423v-19.539c0-8.504-6.919-15.422-15.423-15.422zm26.653 15.422v19.539c0 .233-.189.423-.423.423h-26.23c-.233 0-.423-.189-.423-.423v-19.539c0-.233.189-.422.423-.422h26.23c.234 0 .423.189.423.422z"/><path d="m392.058 232.855c-8.504 0-15.423 6.918-15.423 15.422v19.539c0 8.504 6.919 15.423 15.423 15.423h26.23c8.504 0 15.423-6.918 15.423-15.423v-19.539c0-8.504-6.919-15.422-15.423-15.422zm26.653 15.422v19.539c0 .233-.189.423-.423.423h-26.23c-.233 0-.423-.189-.423-.423v-19.539c0-.233.189-.422.423-.422h26.23c.233 0 .423.189.423.422z"/><path d="m210.668 316.722c0-8.504-6.919-15.423-15.423-15.423h-26.23c-8.504 0-15.423 6.918-15.423 15.423v19.539c0 8.504 6.919 15.422 15.423 15.422h26.23c8.504 0 15.423-6.918 15.423-15.422zm-15 19.539c0 .233-.189.422-.423.422h-26.23c-.233 0-.423-.189-.423-.422v-19.539c0-.233.189-.423.423-.423h26.23c.233 0 .423.189.423.423z"/><path d="m136.32 316.722c0-8.504-6.919-15.423-15.423-15.423h-26.23c-8.504 0-15.423 6.918-15.423 15.423v19.539c0 8.504 6.919 15.422 15.423 15.422h26.23c8.504 0 15.423-6.918 15.423-15.422zm-15 19.539c0 .233-.189.422-.423.422h-26.23c-.233 0-.423-.189-.423-.422v-19.539c0-.233.189-.423.423-.423h26.23c.233 0 .423.189.423.423z"/><path d="m195.245 369.744h-26.23c-8.504 0-15.423 6.918-15.423 15.422v19.54c0 8.504 6.919 15.422 15.423 15.422h26.23c8.504 0 15.423-6.918 15.423-15.422v-19.54c0-8.504-6.919-15.422-15.423-15.422zm.423 34.962c0 .233-.189.422-.423.422h-26.23c-.233 0-.423-.189-.423-.422v-19.54c0-.233.189-.422.423-.422h26.23c.233 0 .423.189.423.422z"/><path d="m120.897 369.744h-26.23c-8.504 0-15.423 6.918-15.423 15.422v19.54c0 8.504 6.919 15.422 15.423 15.422h26.23c8.504 0 15.423-6.918 15.423-15.422v-19.54c0-8.504-6.919-15.422-15.423-15.422zm.423 34.962c0 .233-.189.422-.423.422h-26.23c-.233 0-.423-.189-.423-.422v-19.54c0-.233.189-.422.423-.422h26.23c.233 0 .423.189.423.422z"/><path d="m483.976 296.885h-35.349c-4.143 0-7.5 3.358-7.5 7.5s3.357 7.5 7.5 7.5h35.349c.722 0 1.426.072 2.119.178l-95.924 96.214c-5.264 5.28-12.269 8.188-19.724 8.188s-14.46-2.908-19.723-8.188l-95.924-96.214c.693-.106 1.397-.178 2.119-.178h159.745c4.143 0 7.5-3.358 7.5-7.5s-3.357-7.5-7.5-7.5h-159.745c-15.979 0-28.979 13-28.979 28.979v147.538c0 15.979 13 28.979 28.979 28.979h227.057c15.979 0 28.979-13 28.979-28.979v-147.538c0-15.979-13-28.979-28.979-28.979zm-70.87 109.633 84.287-84.542c.359 1.236.562 2.538.562 3.888v147.538c0 .81-.084 1.599-.217 2.371zm-169.95 69.255c-.133-.772-.217-1.561-.217-2.371v-147.538c0-1.35.203-2.652.562-3.888l84.288 84.542zm13.763 11.608c-1.265 0-2.485-.184-3.651-.5l85.163-69.689 1.67 1.676c8.099 8.123 18.875 12.597 30.345 12.597h.001c11.47 0 22.248-4.474 30.347-12.597l1.67-1.675 85.162 69.688c-1.166.316-2.386.5-3.651.5z"/></g></g></svg>