<svg id="Capa_1" enable-background="new 0 0 511.684 511.684" height="512" viewBox="0 0 511.684 511.684" width="512" xmlns="http://www.w3.org/2000/svg"><g><g><path d="m320.585 360.284c4.022 0 7.283 3.261 7.283 7.283v129.333c0 4.022-3.261 7.283-7.283 7.283h-129.333c-4.022 0-7.283-3.261-7.283-7.283v-129.333c0-4.022 3.261-7.283 7.283-7.283z" fill="#cfeffc"/><path d="m145.363 360.284c4.022 0 7.283 3.261 7.283 7.283v129.333c0 4.022-3.261 7.283-7.283 7.283h-129.333c-4.022 0-7.283-3.261-7.283-7.283v-129.333c0-4.022 3.261-7.283 7.283-7.283z" fill="#fbe88c"/><path d="m495.654 360.284c4.022 0 7.283 3.261 7.283 7.283v129.333c0 4.022-3.261 7.283-7.283 7.283h-129.333c-4.022 0-7.283-3.261-7.283-7.283v-129.333c0-4.022 3.261-7.283 7.283-7.283z" fill="#fbe88c"/><path d="m234.257 487.6c-13.595 0-24.616-11.021-24.616-24.616v-102.7h-18.389c-4.022 0-7.283 3.261-7.283 7.283v129.333c0 4.022 3.261 7.283 7.283 7.283h129.333c4.022 0 7.283-3.261 7.283-7.283v-9.3z" fill="#a9e4f9"/><path d="m55.42 487.6c-11.598 0-21.001-9.402-21.001-21.001v-106.315h-18.389c-4.022 0-7.283 3.261-7.283 7.283v129.333c0 4.022 3.261 7.283 7.283 7.283h129.333c4.022 0 7.283-3.261 7.283-7.283v-9.3z" fill="#fbe372"/><path d="m407.874 487.6c-12.793 0-23.164-10.371-23.164-23.164v-104.152h-18.389c-4.022 0-7.283 3.261-7.283 7.283v129.333c0 4.022 3.261 7.283 7.283 7.283h129.333c4.022 0 7.283-3.261 7.283-7.283v-9.3z" fill="#fbe372"/><g><path d="m364.346 131.932h-216.855c-4.022 0-7.283-3.261-7.283-7.283v-109.866c0-4.022 3.261-7.283 7.283-7.283h216.856c4.022 0 7.283 3.261 7.283 7.283v109.866c-.001 4.023-3.261 7.283-7.284 7.283z" fill="#ee878a"/><path d="m194.819 109.504c-8.162 0-14.778-6.616-14.778-14.778v-87.226h-32.55c-4.022 0-7.283 3.261-7.283 7.283v109.866c0 4.022 3.261 7.283 7.283 7.283h216.856c4.022 0 7.283-3.261 7.283-7.283v-15.146h-176.811z" fill="#ec6e73"/><path d="m219.799 179.552c4.022 0 7.283 3.261 7.283 7.283v117.547c0 4.022-3.261 7.283-7.283 7.283h-161.354c-4.022 0-7.283-3.261-7.283-7.283v-117.547c0-4.022 3.261-7.283 7.283-7.283z" fill="#9de5d1"/><path d="m453.238 179.552c4.022 0 7.283 3.261 7.283 7.283v117.547c0 4.022-3.261 7.283-7.283 7.283h-161.354c-4.022 0-7.283-3.261-7.283-7.283v-117.547c0-4.022 3.261-7.283 7.283-7.283z" fill="#cfeffc"/><path d="m107.498 283.157c-12.126 0-21.957-9.83-21.957-21.957v-81.649h-27.096c-4.022 0-7.283 3.261-7.283 7.283v117.547c0 4.022 3.261 7.283 7.283 7.283h161.354c4.022 0 7.283-3.261 7.283-7.283v-21.225h-119.584z" fill="#82dec5"/><path d="m340.165 283.157c-11.7 0-21.185-9.485-21.185-21.185v-82.42h-27.096c-4.022 0-7.283 3.261-7.283 7.283v117.547c0 4.022 3.261 7.283 7.283 7.283h161.354c4.022 0 7.283-3.261 7.283-7.283v-21.225z" fill="#a9e4f9"/></g></g><g><path d="m147.491 139.433h16.015v43.554l-1.209-1.209c-2.929-2.93-7.678-2.929-10.606 0-2.929 2.929-2.929 7.678 0 10.606l13.247 13.246c1.621 1.621 3.776 2.514 6.069 2.514s4.448-.893 6.069-2.514l13.247-13.246c2.929-2.929 2.929-7.677 0-10.606-2.928-2.929-7.677-2.929-10.606 0l-1.209 1.209v-43.554h154.672v43.554l-1.209-1.209c-2.929-2.93-7.678-2.929-10.606 0-2.929 2.929-2.929 7.678 0 10.606l13.247 13.246c1.621 1.621 3.776 2.514 6.069 2.514s4.448-.893 6.069-2.514l13.247-13.246c2.929-2.929 2.929-7.677 0-10.606s-7.678-2.929-10.606 0l-1.209 1.209v-43.554h16.168c8.151 0 14.783-6.632 14.783-14.783v-109.867c-.004-8.151-6.635-14.783-14.787-14.783h-48.38c-4.142 0-7.5 3.358-7.5 7.5s3.358 7.5 7.5 7.5h48.164v109.433h-216.422v-109.433h136.295c4.142 0 7.5-3.358 7.5-7.5s-3.358-7.5-7.5-7.5h-136.512c-8.151 0-14.783 6.632-14.783 14.783v109.866c0 8.152 6.631 14.784 14.783 14.784z"/><path d="m58.445 319.165h28.763v41.893l-1.208-1.209c-2.929-2.93-7.678-2.929-10.606 0-2.929 2.929-2.929 7.678 0 10.606l13.247 13.246c1.621 1.621 3.776 2.514 6.069 2.514s4.448-.893 6.069-2.514l13.247-13.246c2.929-2.929 2.929-7.677 0-10.606-2.929-2.93-7.678-2.929-10.606 0l-1.209 1.209v-41.893h34.457c4.142 0 7.5-3.358 7.5-7.5s-3.358-7.5-7.5-7.5h-78.006v-117.113h75.58c4.142 0 7.5-3.358 7.5-7.5s-3.358-7.5-7.5-7.5h-75.797c-8.151 0-14.783 6.631-14.783 14.783v117.547c0 8.151 6.632 14.783 14.783 14.783z"/><path d="m320.585 352.784h-26.902c-4.142 0-7.5 3.358-7.5 7.5s3.358 7.5 7.5 7.5h26.686v128.899h-128.9v-128.899h25.532c4.142 0 7.5-3.358 7.5-7.5s-3.358-7.5-7.5-7.5h-25.749c-8.151 0-14.783 6.632-14.783 14.783v129.333c0 8.151 6.632 14.783 14.783 14.783h129.333c8.151 0 14.783-6.632 14.783-14.783v-129.333c0-8.151-6.632-14.783-14.783-14.783z"/><path d="m248.342 319.165v41.893l-1.209-1.209c-2.929-2.93-7.678-2.929-10.606 0-2.929 2.929-2.929 7.678 0 10.606l13.247 13.246c1.621 1.621 3.776 2.514 6.069 2.514s4.448-.893 6.069-2.514l13.247-13.246c2.929-2.929 2.929-7.677 0-10.606-2.929-2.93-7.678-2.929-10.606 0l-1.209 1.209v-41.893h146.133v41.893l-1.209-1.209c-2.929-2.93-7.678-2.929-10.606 0-2.929 2.929-2.929 7.678 0 10.606l13.247 13.246c1.621 1.621 3.776 2.514 6.069 2.514s4.448-.893 6.069-2.514l13.247-13.246c2.929-2.929 2.929-7.677 0-10.606-2.929-2.93-7.678-2.929-10.606 0l-1.209 1.209v-41.893h28.763c8.151 0 14.783-6.632 14.783-14.783v-117.548c0-8.151-6.632-14.783-14.783-14.783h-75.796c-4.142 0-7.5 3.358-7.5 7.5s3.358 7.5 7.5 7.5h75.58v117.113h-160.92v-117.112h11.812c4.142 0 7.5-3.358 7.5-7.5s-3.358-7.5-7.5-7.5h-12.029c-8.151 0-14.783 6.631-14.783 14.783v117.331h-42.52v-117.332c0-8.151-6.631-14.783-14.783-14.783h-12.033c-4.142 0-7.5 3.358-7.5 7.5s3.358 7.5 7.5 7.5h11.812v117.113h-50.955c-4.142 0-7.5 3.358-7.5 7.5s3.358 7.5 7.5 7.5h79.715z"/><path d="m145.363 352.784h-12.314c-4.142 0-7.5 3.358-7.5 7.5s3.358 7.5 7.5 7.5h12.097v128.899h-128.899v-128.899h40.121c4.142 0 7.5-3.358 7.5-7.5s-3.358-7.5-7.5-7.5h-40.338c-8.151 0-14.783 6.632-14.783 14.783v129.333c0 8.151 6.631 14.783 14.783 14.783h129.333c8.151 0 14.783-6.632 14.783-14.783v-129.333c0-8.151-6.632-14.783-14.783-14.783z"/><path d="m495.653 352.784h-40.337c-4.142 0-7.5 3.358-7.5 7.5s3.358 7.5 7.5 7.5h40.121v128.899h-128.899v-128.899h12.097c4.142 0 7.5-3.358 7.5-7.5s-3.358-7.5-7.5-7.5h-12.314c-8.151 0-14.783 6.632-14.783 14.783v129.333c0 8.151 6.632 14.783 14.783 14.783h129.333c8.151 0 14.783-6.632 14.783-14.783v-129.333c0-8.151-6.632-14.783-14.784-14.783z"/></g></g></svg>