<svg id="Capa_1" enable-background="new 0 0 513.615 513.615" height="512" viewBox="0 0 513.615 513.615" width="512" xmlns="http://www.w3.org/2000/svg"><g><g><path d="m256.308 127.167c-72.151 0-130.64 58.49-130.64 130.64 0 47.49 25.336 89.06 63.233 111.929l32.533-7.748h93.656l10.618 6.52c36.789-23.111 61.24-64.05 61.24-110.702 0-72.149-58.49-130.639-130.64-130.639z" fill="#cfeffc"/><path d="m156.71 280.696c0-74.897 57.109-137.106 132.183-149.432-10.416-2.674-21.334-4.097-32.585-4.097-72.151 0-130.64 58.49-130.64 130.64 0 46.054 23.828 86.538 59.831 109.802-18.138-24.613-28.789-54.578-28.789-86.913z" fill="#a9e4f9"/><circle cx="256.308" cy="257.808" fill="#81d9f8" r="105.525"/><path d="m150.782 257.808c0 12.941 2.326 25.341 6.588 36.798-.438-4.579-.66-9.221-.66-13.909 0-50.649 26.108-95.489 66.235-123.03-41.936 13.958-72.163 53.516-72.163 100.141z" fill="#5ccef6"/><g><g id="XMLID_181_"><g><path d="m325.708 368.51c-20.08 12.4-43.57 19.938-68.9 19.938-24.84 0-48.077-6.751-67.907-18.711l.007-15.209c0-13.78 7.1-26.59 18.78-33.91l25.57-16v-59.23h48.1v59.23l25.57 16c11.68 7.32 18.78 20.13 18.78 33.91z" fill="#f9f7f7"/></g></g><circle cx="257.308" cy="48.945" fill="#fbe88c" r="41.445"/><circle cx="404.142" cy="110.18" fill="#a9e4f9" r="41.445"/><circle cx="464.67" cy="257.308" fill="#fbe88c" r="41.445"/><circle cx="403.435" cy="404.142" fill="#ee878a" r="41.445"/><circle cx="256.308" cy="464.67" fill="#fbe88c" r="41.445"/><circle cx="109.473" cy="403.435" fill="#9de5d1" r="41.445"/><circle cx="48.945" cy="256.308" fill="#a9e4f9" r="41.445"/><circle cx="110.18" cy="109.473" fill="#ee878a" r="41.445"/></g><path d="m233.258 245.388v59.23l-25.57 16c-11.68 7.32-18.78 20.13-18.78 33.91l-.007 15.209c4.767 2.875 9.736 5.441 14.873 7.693l.006-12.482c0-13.78 7.1-26.59 18.78-33.91l19.871-12.434c3.546-2.219 5.699-6.107 5.699-10.289 0-3.096 2.58-5.56 5.673-5.423 1.162.051 2.331.078 3.506.078 8.381 0 16.459-1.315 24.05-3.733v-43.428-10.42h-48.101z" fill="#f2eae7"/><circle cx="257.308" cy="223.568" fill="#f9f7f7" r="68.401"/><path d="m212.737 221.219c0-31.339 21.085-57.737 49.836-65.83-1.74-.133-3.492-.222-5.265-.222-37.777 0-68.401 30.624-68.401 68.401s30.624 68.401 68.401 68.401c6.437 0 12.659-.909 18.564-2.571-35.314-2.692-63.135-32.176-63.135-68.179z" fill="#f2eae7"/></g><path d="m464.67 208.362c-24.438 0-44.75 18.004-48.37 41.445h-20.527c-1.63-32.744-14.638-62.538-35.135-85.516l14.605-14.605c8.569 6.276 18.734 9.416 28.9 9.416 12.533 0 25.067-4.771 34.609-14.313 19.083-19.084 19.083-50.135 0-69.219-19.085-19.084-50.137-19.083-69.22 0-17.28 17.281-18.911 44.374-4.896 63.509l-14.563 14.563c-22.844-20.672-52.561-33.877-85.265-35.74v-20.586c23.441-3.62 41.445-23.931 41.445-48.37 0-26.989-21.957-48.946-48.945-48.946-26.989 0-48.945 21.957-48.945 48.945 0 24.439 18.004 44.75 41.445 48.37v20.541c-8.859.444-17.661 1.714-26.249 3.821-4.023.987-6.484 5.048-5.498 9.071.987 4.023 5.048 6.481 9.071 5.498 9.679-2.375 19.664-3.578 29.676-3.578 68.451 0 124.141 55.689 124.141 124.14 0 39.662-18.698 75.037-47.74 97.779v-.058c0-5.902-1.087-11.614-3.103-16.926 22.847-20.716 35.842-49.84 35.842-80.796 0-60.18-48.96-109.14-109.14-109.14s-109.14 48.96-109.14 109.14c0 6.411.569 12.861 1.693 19.171.726 4.078 4.62 6.793 8.698 6.07 4.078-.726 6.796-4.62 6.07-8.698-.969-5.446-1.46-11.012-1.46-16.543 0-24.785 9.636-47.355 25.348-64.183-4.24 9.456-6.609 19.926-6.609 30.943 0 30.597 18.208 57.004 44.348 69.005v7.895l-22.047 13.797c-4.612 2.886-8.595 6.473-11.882 10.56-7.058-6.738-13.014-14.462-17.713-23.073-1.984-3.636-6.54-4.975-10.177-2.99-3.636 1.985-4.975 6.541-2.99 10.177 6.058 11.099 13.903 20.939 23.323 29.328-1.857 5.124-2.862 10.605-2.862 16.263v.825c-29.61-22.709-48.74-58.433-48.74-98.546 0-46.11 25.343-88.173 66.139-109.776 3.661-1.938 5.057-6.477 3.118-10.138-1.938-3.661-6.477-5.058-10.138-3.118-10.068 5.331-19.293 11.777-27.562 19.135l-14.537-14.537c14.016-19.135 12.384-46.229-4.897-63.51-19.083-19.083-50.135-19.084-69.219 0s-19.084 50.135 0 69.219c9.542 9.542 22.076 14.312 34.609 14.312 10.166 0 20.331-3.14 28.9-9.416l14.5 14.5c-21.036 23.241-33.835 53.199-35.667 85.328h-20.598c-3.62-23.441-23.931-41.445-48.37-41.445-26.989 0-48.946 21.957-48.946 48.946s21.957 48.945 48.945 48.945c24.439 0 44.75-18.004 48.37-41.445h20.528c1.63 32.744 14.638 62.538 35.135 85.516l-14.605 14.605c-19.135-14.016-46.229-12.384-63.51 4.897-19.084 19.084-19.084 50.135 0 69.219 9.542 9.542 22.076 14.313 34.609 14.313 12.534 0 25.068-4.771 34.61-14.313 17.281-17.281 18.912-44.374 4.896-63.509l14.563-14.563c22.844 20.672 52.561 33.877 85.265 35.74v20.587c-23.441 3.62-41.445 23.931-41.445 48.37 0 26.989 21.957 48.945 48.945 48.945s48.945-21.957 48.945-48.945c0-24.439-18.005-44.75-41.445-48.37v-20.528c32.744-1.63 62.538-14.638 85.516-35.135l14.605 14.605c-14.015 19.135-12.384 46.228 4.896 63.509 9.244 9.245 21.535 14.336 34.609 14.336s25.365-5.091 34.61-14.336c19.083-19.084 19.083-50.135-.001-69.219-9.244-9.245-21.535-14.335-34.609-14.335-10.539 0-20.565 3.312-28.901 9.437l-14.561-14.561c20.672-22.844 33.877-52.561 35.74-85.265h20.59c3.62 23.441 23.932 41.445 48.37 41.445 26.988 0 48.945-21.957 48.945-48.945s-21.957-48.946-48.945-48.946zm-84.53-122.185c6.617-6.618 15.31-9.926 24.003-9.926 8.692 0 17.385 3.309 24.002 9.926 13.235 13.235 13.235 34.771 0 48.006-13.235 13.236-34.771 13.235-48.005 0-13.236-13.235-13.236-34.77 0-48.006zm-156.778-37.232c0-18.717 15.228-33.945 33.946-33.945s33.945 15.228 33.945 33.945-15.228 33.945-33.945 33.945c-18.718.001-33.946-15.227-33.946-33.945zm-137.185 84.532c-13.235-13.235-13.235-34.771 0-48.006 6.618-6.618 15.311-9.926 24.003-9.926 8.693 0 17.386 3.309 24.003 9.926 13.235 13.235 13.235 34.771 0 48.006-13.235 13.234-34.771 13.235-48.006 0zm-37.232 156.776c-18.717 0-33.945-15.228-33.945-33.945s15.228-33.945 33.945-33.945 33.945 15.228 33.945 33.945-15.227 33.945-33.945 33.945zm84.532 137.185c-13.236 13.236-34.771 13.235-48.006 0s-13.235-34.771 0-48.006c6.619-6.618 15.31-9.926 24.003-9.926 8.691 0 17.386 3.31 24.003 9.926 13.234 13.235 13.234 34.771 0 48.006zm62.93-203.87c0-33.581 27.32-60.9 60.9-60.9 33.581 0 60.9 27.32 60.9 60.9 0 6.895-1.157 13.687-3.439 20.187-1.373 3.908.683 8.189 4.591 9.561 3.909 1.374 8.189-.684 9.562-4.591 2.845-8.101 4.287-16.564 4.287-25.156 0-10.191-2.023-19.916-5.682-28.802 14.565 16.579 23.422 38.29 23.422 62.041 0 25.615-10.323 49.781-28.573 67.487-3.204-3.87-7.052-7.267-11.467-10.029l-22.047-13.798v-7.87c7.296-3.341 14.085-7.845 20.095-13.43 3.034-2.819 3.208-7.565.389-10.599s-7.564-3.209-10.6-.388c-11.303 10.504-26.019 16.289-41.437 16.289-33.581-.001-60.901-27.321-60.901-60.902zm0 130.961c0-11.271 5.704-21.57 15.258-27.549l25.569-16.001c2.191-1.371 3.521-3.773 3.521-6.357v-6.992c5.332 1.191 10.866 1.84 16.552 1.84 5.622 0 11.165-.634 16.553-1.835v6.988c0 2.584 1.33 4.987 3.521 6.357l25.568 16.002c9.554 5.979 15.258 16.277 15.258 27.549v10.139c-18.118 10.354-39.08 16.279-61.4 16.279-21.912 0-42.512-5.714-60.4-15.719zm93.846 110.141c0 18.717-15.228 33.945-33.945 33.945s-33.945-15.228-33.945-33.945 15.228-33.945 33.945-33.945 33.945 15.228 33.945 33.945zm137.185-84.531c13.235 13.235 13.235 34.771 0 48.006-6.411 6.412-14.936 9.942-24.003 9.942s-17.591-3.531-24.002-9.942c-13.235-13.235-13.235-34.771 0-48.006 6.411-6.411 14.935-9.942 24.002-9.942s17.591 3.531 24.003 9.942zm37.232-88.886c-18.718 0-33.945-15.228-33.945-33.945s15.228-33.945 33.945-33.945 33.945 15.228 33.945 33.945-15.227 33.945-33.945 33.945z"/></g></svg>