<svg id="Capa_1" enable-background="new 0 0 511.701 511.701" height="512" viewBox="0 0 511.701 511.701" width="512" xmlns="http://www.w3.org/2000/svg"><g><g><path d="m455.9 122.704c0-6.869-5.569-12.438-12.438-12.438h-144.452v266.844h156.89z" fill="#f9f7f7"/><path d="m70.238 149.113c-6.869 0-12.438 5.569-12.438 12.438v186.879h156.385v-199.317z" fill="#f2eae7"/><path d="m418.896 20.002c0-6.905-5.597-12.502-12.502-12.502h-300.26c-6.905 0-12.502 5.597-12.502 12.502v324.52h325.268z" fill="#f9f7f7"/><g><path d="m149.238 85.647v-2.478h269.659l-.001-40c-3.754-1.925-8.002-3.019-12.503-3.019h-244.141c-7.188 0-13.015-5.827-13.015-13.015v-15.943c0-1.286.195-2.525.556-3.693h-43.659c-6.905 0-12.502 5.597-12.502 12.502v65.645h55.606z" fill="#f2eae7"/><path d="m78.633 149.113h135.553v199.316h-135.553z" fill="#ded4cf"/><path d="m299.01 110.266h134.886v244.663h-134.886z" fill="#f8f3f2"/><path d="m418.896 67.652c0-6.905-5.597-12.502-12.502-12.502h-300.26c-6.905 0-12.502 5.597-12.502 12.502v272.277h325.263v-272.277z" fill="#f9f7f7"/><g><path d="m367.891 95.11c-4.353-4.352-10.256-6.797-16.411-6.797h-187.361c-8.218 0-14.88-6.662-14.88-14.88v-18.283h-43.105c-6.905 0-12.502 5.597-12.502 12.502v272.277h325.263v-193.822z" fill="#f8f3f2"/><path d="m418.9 170.733v213.93h-325.27v-269.2c0-6.71 5.44-12.15 12.15-12.15h245.7c2.18 0 4.27.87 5.81 2.41l59.2 59.19c1.54 1.55 2.41 3.64 2.41 5.82z" fill="#f9f7f7"/></g><path d="m254.689 244.341-35.867-28.918c-5.719-4.611-12.845-7.126-20.192-7.126h-23.603c-14.246 0-25.795-11.549-25.795-25.795v-76.105c0-1.067.151-2.097.41-3.083h-43.862c-6.71 0-12.15 5.44-12.15 12.15v269.2h42.363 282.907v-9.067-124.628h-145.432c-6.833 0-13.46-2.339-18.779-6.628z" fill="#f2eae7"/><path d="m448.542 504.2h-385.384c-14.337 0-25.96-11.623-25.96-25.96v-236.281c0-7.546 6.117-13.663 13.663-13.663h147.77c2.779 0 5.475.951 7.638 2.696l46.238 37.281c2.163 1.744 4.859 2.696 7.638 2.696h200.695c7.546 0 13.663 6.117 13.663 13.663v193.608c-.001 14.338-11.623 25.96-25.961 25.96z" fill="#fbe88c"/><path d="m152.64 462.663c-27.57 0-49.921-22.35-49.921-49.921v-184.446h-51.858c-7.546 0-13.663 6.117-13.663 13.663v236.281c0 14.337 11.623 25.96 25.96 25.96h385.384c14.337 0 25.96-11.623 25.96-25.96v-15.578h-321.862z" fill="#fbe372"/><g><g><g id="XMLID_182_"><g><path d="m357.29 105.723c-1.54-1.54-3.63-2.41-5.81-2.41h-11.39v60.82c0 10.146 8.259 18.4 18.41 18.4h60.4v-11.8c0-2.18-.87-4.27-2.41-5.82z" fill="#f2eae7"/><path d="m416.49 164.913c.64.65 1.16 1.38 1.55 2.18l-59.54.44c-1.88 0-3.41-1.52-3.41-3.4l.95-59.44c.45.3.87.64 1.25 1.03z" fill="#f9f7f7"/></g></g></g></g></g></g><path d="m463.4 263.639v-140.935c0-10.994-8.944-19.938-19.938-19.938h-17.067v-82.765c0-11.028-8.972-20.001-20.002-20.001h-300.258c-11.03 0-20.002 8.973-20.002 20.001v121.611h-15.895c-10.993 0-19.938 8.944-19.938 19.938v59.274c-11.408.301-20.603 9.655-20.603 21.134v236.282c0 18.45 15.01 33.46 33.46 33.46h385.385c18.45 0 33.46-15.01 33.46-33.46v-193.609c.001-10.801-8.138-19.722-18.602-20.992zm-19.937-145.873c2.723 0 4.938 2.215 4.938 4.938v140.765h-22.005v-145.703zm-80.869 3.867 38.406 38.405h-38.406zm-292.356 34.98h15.895v64.184h-20.832v-59.247c0-2.722 2.214-4.937 4.937-4.937zm396.765 321.627c0 10.179-8.281 18.46-18.46 18.46h-385.385c-10.179 0-18.46-8.281-18.46-18.46v-236.281c0-3.398 2.765-6.163 6.163-6.163h147.77c1.062 0 2.104.367 2.93 1.034l46.24 37.282c3.484 2.809 7.869 4.356 12.345 4.356h78.968c4.143 0 7.5-3.358 7.5-7.5s-3.357-7.5-7.5-7.5h-78.968c-1.062 0-2.104-.368-2.931-1.034l-46.238-37.281c-3.484-2.81-7.869-4.357-12.346-4.357h-97.498v-105.333c0-2.562 2.085-4.647 4.647-4.647h62.955c4.143 0 7.5-3.358 7.5-7.5s-3.357-7.5-7.5-7.5h-62.955c-1.604 0-3.155.214-4.647.578v-28.742c0-2.758 2.243-5.002 5.001-5.002h216.998c4.143 0 7.5-3.358 7.5-7.5s-3.357-7.5-7.5-7.5h-216.998c-1.729 0-3.399.244-5.001.658v-28.307c0-2.758 2.244-5.001 5.002-5.001h300.259c2.758 0 5.002 2.244 5.002 5.001v28.307c-1.602-.415-3.272-.659-5.002-.659h-51.299c-4.143 0-7.5 3.358-7.5 7.5s3.357 7.5 7.5 7.5h51.299c2.758 0 5.002 2.244 5.002 5.002v81.569l-48.798-48.798c-2.971-2.971-6.921-4.607-11.122-4.607h-150.778c-4.143 0-7.5 3.358-7.5 7.5s3.357 7.5 7.5 7.5h146.896v53.316c0 6.014 4.893 10.906 10.906 10.906h52.896v88.43h-40.32c-4.143 0-7.5 3.358-7.5 7.5s3.357 7.5 7.5 7.5h89.765c3.398 0 6.163 2.765 6.163 6.163v193.61z"/></g></svg>