<svg id="Capa_1" enable-background="new 0 0 512.396 512.396" height="512" viewBox="0 0 512.396 512.396" width="512" xmlns="http://www.w3.org/2000/svg"><g><g><g><path d="m333.213 430.496-35.642 35.642v32.543l49.81 5.092 9.302.713 8.211.309c.909.061 1.823.103 2.746.103.23 0 .46-.01.7-.01 22.38-.37 40.11-19.09 40.11-41.47v-32.921h-75.237z" fill="#f8f3f2"/><g><g id="XMLID_183_"><g><path d="m449.961 7.508c-.23 0-.46-.01-.69-.01-2.105 0-4.172.16-6.191.467l-7.395.557-13.063 1.833-72.423 5.5v48.322h134.132c3.17 0 5.75-2.58 5.75-5.75v-9.45c0-22.379-17.74-41.099-40.12-41.469z" fill="#f2eae7"/></g></g></g><path d="m502.771 435.348-35.24-18.36c-.52-.27-1.11-.41-1.7-.41h-6.12l-22.17 9.862v23.532l22.17 9.726h6.12c.59 0 1.18-.14 1.7-.42l35.24-18.35c2.36-1.22 2.36-4.36 0-5.58z" fill="#fbe88c"/><path d="m94.931 7.498h354.34c-22.55 0-40.82 18.27-40.82 40.81v15.87 395.52h-354.33v-411.39c0-22.54 18.27-40.81 40.81-40.81z" fill="#f9f7f7"/><g fill="#f2eae7"><path d="m407.615 430.496v17.885c0 22.38-17.73 41.1-40.11 41.47l-.009.043c-14.166-.089-25.665-11.632-25.665-25.806v-13.1c0-7.866-5.14-14.545-12.232-16.877l-32.027 32.027v32.543l49.81 5.092 9.302.713 8.211.309c.909.061 1.823.103 2.746.103h.003l1.583-.047c21.958-.844 39.223-19.35 39.223-41.432v-32.921h-.835z"/><path d="m297.572 466.138v3.56h110.406c.31-2.052.473-4.149.473-6.28v-32.921h-75.237z"/><path d="m127.378 401.578c-18.093 0-32.761-14.668-32.761-32.761v-325.927c0-14.873 7.516-27.929 18.845-35.393h-18.531c-22.539 0-40.81 18.271-40.81 40.81v411.39h40.496 313.834v-58.12h-281.073z"/></g><path d="m502.771 435.348-14.116-7.354-27.477 14.307c-.52.28-1.11.42-1.7.42h-21.937v7.251l22.17 9.726h6.12c.59 0 1.18-.14 1.7-.42l35.24-18.35c2.36-1.22 2.36-4.36 0-5.58z" fill="#fbe372"/><path d="m105.381 416.578-5.174 11.143h-18.867l-7.049-11.143h-52.81c-7.52 0-13.63 5.64-13.63 12.59v17.94c0 6.95 6.11 12.59 13.63 12.59h438.23v-43.12z" fill="#cac5cb"/><g><path d="m459.478 442.721h-113.834c-3.213 0-6.309-1.308-8.469-3.686-3.243-3.57-7.912-5.817-13.105-5.817h-284.189c-5.325 0-10.097 2.363-13.348 6.091-1.844 2.115-4.45 3.412-7.256 3.412h-4.149c-2.678 0-5.169-.725-7.277-1.96v6.347c0 6.95 6.11 12.59 13.63 12.59h438.23v-17.005c-.079.005-.155.028-.233.028z" fill="#b3adb5"/><g id="XMLID_184_"><g><g id="XMLID_186_"><g><path d="m74.291 416.578h31.09v43.12h-31.09z" fill="#fbe88c"/></g></g></g></g><path d="m74.291 433.218h31.09v26.48h-31.09z" fill="#fbe372"/><g id="XMLID_185_"><path d="m326.831 464.088c0 22.54 18.26 40.8 40.81 40.81h-289.71c-22.54 0-40.81-18.27-40.81-40.81v-13.1c0-1.53 1.24-2.77 2.76-2.77h284.19c1.52 0 2.76 1.24 2.76 2.77z" fill="#f9f7f7"/></g><path d="m332.343 484.563h-233.132c-21.031 0-38.338-15.907-40.562-36.346h-18.768c-1.52 0-2.76 1.24-2.76 2.77v13.1c0 22.54 18.27 40.81 40.81 40.81h289.71c-15.081-.006-28.233-8.181-35.298-20.334z" fill="#f8f3f2"/><path d="m142.691 200.648h-39.59c-4.314 0-7.811-3.497-7.811-7.811v-39.59c0-4.314 3.497-7.811 7.811-7.811h39.59c4.314 0 7.811 3.497 7.811 7.811v39.59c0 4.314-3.497 7.811-7.811 7.811z" fill="#cfeffc"/></g></g><g fill="#cfeffc"><path d="m142.691 110.859h-39.59c-4.314 0-7.811-3.497-7.811-7.811v-39.59c0-4.314 3.497-7.811 7.811-7.811h39.59c4.314 0 7.811 3.497 7.811 7.811v39.59c0 4.314-3.497 7.811-7.811 7.811z"/><path d="m142.691 290.438h-39.59c-4.314 0-7.811-3.497-7.811-7.811v-39.59c0-4.314 3.497-7.811 7.811-7.811h39.59c4.314 0 7.811 3.497 7.811 7.811v39.59c0 4.314-3.497 7.811-7.811 7.811z"/><path d="m142.691 380.227h-39.59c-4.314 0-7.811-3.497-7.811-7.811v-39.59c0-4.314 3.497-7.811 7.811-7.811h39.59c4.314 0 7.811 3.497 7.811 7.811v39.59c0 4.314-3.497 7.811-7.811 7.811z"/></g></g><g><path d="m54.116 128.355c4.143 0 7.5-3.358 7.5-7.5v-72.544c0-18.368 14.944-33.311 33.311-33.311h319.365c-8.607 9.021-13.338 20.783-13.338 33.311v250.833c0 4.142 3.357 7.5 7.5 7.5s7.5-3.358 7.5-7.5v-227.471h68.38c7.301 0 13.241-5.94 13.241-13.242v-9.449c0-26.564-21.297-48.532-47.477-48.976-.045 0-.089-.006-.135-.006h-355.036c-26.639 0-48.311 21.672-48.311 48.311v72.545c0 4.142 3.358 7.499 7.5 7.499zm428.459-79.373v7.69h-66.621v-8.362c0-9.003 3.535-17.438 9.955-23.751 6.418-6.312 14.914-9.713 23.928-9.555 18.052.302 32.738 15.544 32.738 33.978z"/><path d="m506.238 428.693-35.242-18.353c-1.585-.825-3.372-1.261-5.169-1.261h-49.849l.248-77.95c.006-1.993-.781-3.907-2.188-5.319s-3.318-2.205-5.312-2.205h-.271c-4.143 0-7.5 3.358-7.5 7.5v77.974h-190.809c-4.143 0-7.5 3.358-7.5 7.5s3.357 7.5 7.5 7.5h242.062v28.116h-117.876v-1.208c0-5.66-4.605-10.265-10.266-10.265h-211.189v-16.642h65.308c4.143 0 7.5-3.358 7.5-7.5s-3.357-7.5-7.5-7.5h-116.569v-255.833c0-4.142-3.357-7.5-7.5-7.5s-7.5 3.358-7.5 7.5v255.833h-25.132c-11.651 0-21.13 9.013-21.13 20.092v17.931c0 11.079 9.479 20.093 21.13 20.093h8.247c1.61 25.193 22.607 45.2 48.2 45.2h289.702c.277 0 .556-.002.833-.007 24.93-.416 45.42-20.354 47.328-45.193h50.033c1.794 0 3.58-.435 5.169-1.261l35.241-18.352c3.58-1.864 5.804-5.483 5.804-9.445 0-3.963-2.224-7.583-5.803-9.445zm-408.361 12.03h-16.088v-16.643h16.088zm-57.991 0c-5.66 0-10.266 4.605-10.266 10.265v1.208h-8.136c-3.38 0-6.13-2.285-6.13-5.093v-17.931c0-2.808 2.75-5.092 6.13-5.092h45.305v16.643zm38.045 56.673c-18.367 0-33.311-14.943-33.311-33.311v-8.362h274.712v8.362c0 12.524 4.718 24.291 13.319 33.311zm290.285-.005c-9.036.164-17.51-3.242-23.929-9.554-5.674-5.581-9.09-12.819-9.808-20.641h66.26c-1.845 16.691-15.723 29.914-32.523 30.195zm98.992-46.395v-25.716l24.691 12.858z"/><path d="m103.101 118.359h39.59c8.442 0 15.312-6.869 15.312-15.311v-39.59c0-8.442-6.869-15.311-15.312-15.311h-39.59c-8.442 0-15.311 6.869-15.311 15.311v39.59c0 8.442 6.868 15.311 15.311 15.311zm-.311-54.901c0-.171.14-.311.311-.311h39.59c.172 0 .312.14.312.311v39.59c0 .171-.14.311-.312.311h-39.59c-.171 0-.311-.14-.311-.311z"/><path d="m158.002 156.347 18.835-17.558c3.029-2.824 3.196-7.57.372-10.6-2.825-3.03-7.57-3.196-10.601-.372l-14.42 13.443c-2.613-2.075-5.91-3.324-9.498-3.324h-39.59c-8.442 0-15.311 6.869-15.311 15.311v39.59c0 8.442 6.868 15.311 15.311 15.311h39.59c8.442 0 15.312-6.869 15.312-15.311zm-15.312 36.801h-39.59c-.171 0-.311-.14-.311-.311v-39.59c0-.171.14-.311.311-.311h36.562l-16.544 15.423-2.447-2.485c-2.907-2.953-7.656-2.988-10.606-.082-2.951 2.906-2.987 7.655-.081 10.606l7.567 7.685c1.466 1.489 3.403 2.238 5.345 2.238 1.833 0 3.67-.668 5.113-2.014l14.992-13.976v22.507c.001.171-.139.31-.311.31z"/><path d="m158.002 243.037c0-8.442-6.869-15.311-15.312-15.311h-39.59c-8.442 0-15.311 6.869-15.311 15.311v39.59c0 8.442 6.868 15.311 15.311 15.311h39.59c8.442 0 15.312-6.869 15.312-15.311zm-15 39.59c0 .171-.14.311-.312.311h-39.59c-.171 0-.311-.14-.311-.311v-39.59c0-.171.14-.311.311-.311h39.59c.172 0 .312.14.312.311z"/><path d="m142.69 317.515h-39.59c-8.442 0-15.311 6.869-15.311 15.311v39.59c0 8.442 6.868 15.311 15.311 15.311h39.59c8.442 0 15.312-6.869 15.312-15.311v-39.59c0-8.442-6.869-15.311-15.312-15.311zm.312 54.902c0 .171-.14.311-.312.311h-39.59c-.171 0-.311-.14-.311-.311v-39.59c0-.171.14-.311.311-.311h39.59c.172 0 .312.14.312.311z"/><path d="m374.036 55.958h-185.124c-4.143 0-7.5 3.358-7.5 7.5s3.357 7.5 7.5 7.5h185.124c4.143 0 7.5-3.358 7.5-7.5s-3.357-7.5-7.5-7.5z"/><path d="m374.036 95.548h-185.124c-4.143 0-7.5 3.358-7.5 7.5s3.357 7.5 7.5 7.5h185.124c4.143 0 7.5-3.358 7.5-7.5s-3.357-7.5-7.5-7.5z"/><path d="m374.036 145.747h-185.124c-4.143 0-7.5 3.358-7.5 7.5s3.357 7.5 7.5 7.5h185.124c4.143 0 7.5-3.358 7.5-7.5s-3.357-7.5-7.5-7.5z"/><path d="m374.036 185.337h-185.124c-4.143 0-7.5 3.358-7.5 7.5s3.357 7.5 7.5 7.5h185.124c4.143 0 7.5-3.358 7.5-7.5s-3.357-7.5-7.5-7.5z"/><path d="m374.036 235.537h-185.124c-4.143 0-7.5 3.358-7.5 7.5s3.357 7.5 7.5 7.5h185.124c4.143 0 7.5-3.358 7.5-7.5s-3.357-7.5-7.5-7.5z"/><path d="m374.036 275.127h-185.124c-4.143 0-7.5 3.358-7.5 7.5s3.357 7.5 7.5 7.5h185.124c4.143 0 7.5-3.358 7.5-7.5s-3.357-7.5-7.5-7.5z"/><path d="m374.036 325.326h-185.124c-4.143 0-7.5 3.358-7.5 7.5s3.357 7.5 7.5 7.5h185.124c4.143 0 7.5-3.358 7.5-7.5s-3.357-7.5-7.5-7.5z"/><path d="m374.036 364.917h-185.124c-4.143 0-7.5 3.358-7.5 7.5s3.357 7.5 7.5 7.5h185.124c4.143 0 7.5-3.358 7.5-7.5s-3.357-7.5-7.5-7.5z"/></g></g></svg>