<svg id="Capa_1" enable-background="new 0 0 512.375 512.375" height="512" viewBox="0 0 512.375 512.375" width="512" xmlns="http://www.w3.org/2000/svg"><g><g><path d="m34.817 21.633h442.741v333.419h-442.741z" fill="#f9f7f7"/><path d="m477.558 62.633v-41h-393.111-49.63v333.419h442.741v-2.331-38.668h-366.053c-14.944 0-27.058-12.114-27.058-27.058v-197.304c0-14.944 12.114-27.058 27.058-27.058z" fill="#f2eae7"/><path d="m418.323 497.302-32.173-128.118-7.71-23.9-36.57 1.64 6.011 22.26 32.918 131.084c.68 2.708 3.114 4.607 5.906 4.607h25.711c3.965 0 6.872-3.728 5.907-7.573z" fill="#e1dee2"/><path d="m133.347 343.482-6.122 25.702-32.172 128.118c-.966 3.845 1.942 7.573 5.907 7.573h25.711c2.792 0 5.227-1.899 5.906-4.607l32.918-131.084 9.278-25.702z" fill="#e1dee2"/><g><path d="m386.15 369.184-7.71-23.9-36.57 1.64 6.011 22.26 3.767 15h38.269z" fill="#cac5cb"/><path d="m127.225 369.184-3.766 15h38.269l3.767-15 9.277-25.702h-41.425z" fill="#cac5cb"/><path d="m484.923 334.052h-457.47c-4.247 0-7.691 3.443-7.691 7.691v19.751c0 4.247 3.443 7.691 7.691 7.691h457.47c4.247 0 7.691-3.443 7.691-7.691v-19.751c0-4.248-3.444-7.691-7.691-7.691z" fill="#b3adb5"/><path d="m484.923 7.5h-457.47c-4.247 0-7.691 3.443-7.691 7.691v19.751c0 4.247 3.443 7.691 7.691 7.691h457.47c4.247 0 7.691-3.443 7.691-7.691v-19.751c0-4.248-3.444-7.691-7.691-7.691z" fill="#b3adb5"/><path d="m135.476 229.827h-28.263c-2.728 0-4.94 2.212-4.94 4.94v60.556h38.144v-60.556c-.001-2.729-2.213-4.94-4.941-4.94z" fill="#9de5d1"/><path d="m203.324 138.736h-28.263c-2.728 0-4.94 2.212-4.94 4.94v151.647h38.144v-151.647c-.001-2.729-2.213-4.94-4.941-4.94z" fill="#fbe88c"/><path d="m271.172 200.235h-28.263c-2.728 0-4.94 2.212-4.94 4.94v90.147h38.144v-90.147c-.001-2.728-2.212-4.94-4.941-4.94z" fill="#9de5d1"/><path d="m339.021 76.699h-28.263c-2.728 0-4.94 2.212-4.94 4.94v213.683h38.144v-213.683c-.001-2.728-2.213-4.94-4.941-4.94z" fill="#fbe88c"/><path d="m406.869 148.466h-28.263c-2.728 0-4.94 2.212-4.94 4.94v141.916h38.144v-141.915c-.001-2.729-2.213-4.941-4.941-4.941z" fill="#9de5d1"/></g></g><g><path d="m500.114 34.942v-19.751c0-8.377-6.815-15.191-15.191-15.191h-457.47c-8.376 0-15.191 6.814-15.191 15.191v19.751c0 8.331 6.742 15.11 15.056 15.184v276.432c-8.313.073-15.056 6.853-15.056 15.184v19.751c0 8.376 6.814 15.191 15.19 15.191h90.157l-29.831 118.792c-1.026 4.09-.128 8.342 2.465 11.667s6.499 5.232 10.716 5.232h25.711c6.24 0 11.661-4.227 13.181-10.28l16.246-64.693h201.182l16.246 64.693c1.52 6.053 6.94 10.28 13.181 10.28h25.711c4.217 0 8.123-1.907 10.716-5.232s3.492-7.578 2.465-11.668l-29.831-118.792h89.157c8.376 0 15.19-6.814 15.19-15.191v-19.751c0-8.331-6.742-15.111-15.056-15.184v-276.431c8.314-.074 15.056-6.853 15.056-15.184zm-30.056 291.609h-427.74v-276.418h427.74zm-442.796-311.36c0-.105.085-.191.191-.191h457.47c.105 0 .191.085.191.191v19.751c0 .105-.085.191-.191.191h-457.47c-.105 0-.191-.085-.191-.191zm98.309 482.184h-22.804l30.308-120.691h22.804zm285.038 0h-22.804l-30.308-120.691h22.804zm74.505-135.882c0 .105-.085.191-.19.191h-179.107c-4.142 0-7.5 3.358-7.5 7.5s3.358 7.5 7.5 7.5h36.214l11.481 45.718h-193.649l11.481-45.718h102.511c4.142 0 7.5-3.358 7.5-7.5s-3.358-7.5-7.5-7.5h-246.403c-.105 0-.19-.085-.19-.191v-19.751c0-.105.085-.191.19-.191h457.471c.105 0 .19.085.19.191v19.751z"/><path d="m73.408 314.86c1.44 1.322 3.257 1.974 5.069 1.974 2.027 0 4.049-.817 5.528-2.429 2.801-3.052 2.597-7.796-.455-10.597l-1.075-.986h348.425l-1.075.986c-3.052 2.801-3.256 7.545-.455 10.597 1.479 1.612 3.5 2.429 5.528 2.429 1.812 0 3.629-.653 5.069-1.974l14.437-13.248c1.763-1.619 2.773-3.913 2.772-6.292s-1.012-4.672-2.775-6.289l-14.435-13.246c-3.051-2.8-7.796-2.597-10.597.455s-2.597 7.796.455 10.597l1.074.986h-11.591v-134.416c0-6.86-5.581-12.44-12.44-12.44h-28.263c-6.86 0-12.44 5.581-12.44 12.44v134.416h-14.705v-134.858c0-4.142-3.358-7.5-7.5-7.5s-7.5 3.358-7.5 7.5v134.857h-23.144v-203.623h23.144v36.804c0 4.142 3.358 7.5 7.5 7.5s7.5-3.358 7.5-7.5v-39.364c0-6.86-5.581-12.44-12.44-12.44h-28.264c-6.859 0-12.44 5.581-12.44 12.44v206.183h-14.705v-82.647c0-6.859-5.581-12.44-12.44-12.44h-28.263c-6.859 0-12.44 5.581-12.44 12.44v82.647h-14.705v-144.146c0-6.859-5.581-12.44-12.44-12.44h-28.263c-6.86 0-12.44 5.581-12.44 12.44v86.592c0 4.142 3.358 7.5 7.5 7.5s7.5-3.358 7.5-7.5v-84.032h23.144v141.586h-23.143v-25.592c0-4.142-3.358-7.5-7.5-7.5s-7.5 3.358-7.5 7.5v25.592h-14.705v-53.056c0-6.859-5.581-12.44-12.44-12.44h-28.264c-6.859 0-12.44 5.581-12.44 12.44v53.056h-12.295l1.074-.986c3.052-2.801 3.256-7.545.455-10.597s-7.545-3.256-10.597-.455l-14.433 13.246c-1.764 1.618-2.775 3.91-2.776 6.29s1.01 4.673 2.775 6.294zm307.757-158.894h23.144v131.856h-23.144zm-135.696 51.769h23.144v80.087h-23.144zm-135.697 29.592h23.144v50.496h-23.144z"/></g></g></svg>