<svg id="Capa_1" enable-background="new 0 0 511.109 511.109" height="512" viewBox="0 0 511.109 511.109" width="512" xmlns="http://www.w3.org/2000/svg"><g><g><path d="m454.748 123.922c18 0 32.593 14.592 32.593 32.593v304.465h-463.573v-304.466c0-18 14.592-32.593 32.593-32.593h398.387z" fill="#b3adb5"/><path d="m379.664 48.574h-249.22c-12.71 0-23.01 10.3-23.01 23.01v26.05l31.705 38.61h238.681l24.854-38.61v-26.05c0-12.71-10.3-23.01-23.01-23.01z" fill="#ee878a"/><g><path d="m130.444 315.954h249.22c23.716 0 43.01-19.294 43.01-43.01v-149.022h-335.24v149.023c0 23.715 19.295 43.009 43.01 43.009z" fill="#a59ca6"/><path d="m107.206 421.98c-18.052 0-32.687-14.634-32.687-32.687v-247.956c0-6.407 1.856-12.377 5.049-17.416h-23.207c-18.001 0-32.593 14.592-32.593 32.593v304.466h463.572v-15.177-23.823z" fill="#a59ca6"/><path d="m454.748 153.921c1.432 0 2.593 1.161 2.593 2.593v247.459c0 4.422-3.585 8.007-8.007 8.007h-387.558c-4.422 0-8.007-3.585-8.007-8.007v-247.458c0-1.432 1.161-2.593 2.593-2.593h398.386z" fill="#cfeffc"/><path d="m61.776 411.98h21.911c-5.672-5.879-9.167-13.872-9.167-22.687v-235.372h-18.159c-1.432 0-2.593 1.161-2.593 2.593v247.458c0 4.424 3.585 8.008 8.008 8.008z" fill="#a9e4f9"/><path d="m87.434 153.921v119.023c0 23.716 19.294 43.01 43.01 43.01h249.22c23.716 0 43.01-19.294 43.01-43.01v-119.023z" fill="#a9e4f9"/><path d="m473.54 483.094h-435.972c-16.606 0-30.068-13.462-30.068-30.068v-7.001c0-2.234 1.811-4.044 4.044-4.044h488.02c2.234 0 4.044 1.811 4.044 4.044v7.001c.001 16.606-13.461 30.068-30.068 30.068z" fill="#b3adb5"/><g><path d="m239.131 48.574v14.308c0 9.098 7.402 16.5 16.5 16.5s16.5-7.402 16.5-16.5v-14.308z" fill="#ec6e73"/></g><g><path d="m201.398 48.574v14.308c0 9.098 7.402 16.5 16.5 16.5s16.5-7.402 16.5-16.5v-14.308z" fill="#ec6e73"/></g><g><path d="m163.666 48.574v14.308c0 9.098 7.402 16.5 16.5 16.5s16.5-7.402 16.5-16.5v-14.308z" fill="#ec6e73"/></g><g><path d="m130.444 48.574c-12.708 0-23.01 10.302-23.01 23.01v26.05l29.035 35.359v-50.231c0-2.162 1.915-3.746 4.062-3.492 1.551.183 3.168.147 4.826-.149 7.94-1.419 13.576-8.571 13.576-16.637v-13.91z" fill="#ec6e73"/></g><g><path d="m276.863 48.574v14.308c0 9.098 7.402 16.5 16.5 16.5s16.5-7.402 16.5-16.5v-14.308z" fill="#ec6e73"/></g><g><path d="m314.596 48.574v14.308c0 9.098 7.402 16.5 16.5 16.5s16.5-7.402 16.5-16.5v-14.308z" fill="#ec6e73"/></g><g><path d="m385.329 62.882-.006-13.611c-1.812-.459-3.704-.697-5.658-.697h-27.336v14.308c0 9.098 7.402 16.5 16.5 16.5s16.5-7.402 16.5-16.5z" fill="#ec6e73"/></g><g id="XMLID_187_"><g><path d="m402.674 97.634v175.31c0 12.71-10.3 23.01-23.01 23.01h-249.22c-12.71 0-23.01-10.3-23.01-23.01v-175.31z" fill="#f9f7f7"/></g></g><path d="m169.951 274.611c-18.491 0-33.482-14.99-33.482-33.482v-143.495h-29.035v175.31c0 12.708 10.302 23.01 23.01 23.01h249.22c12.149 0 22.091-9.421 22.946-21.352z" fill="#f2eae7"/><g fill="#ded4cf"><circle cx="164.527" cy="136.244" r="15.535"/><circle cx="285.089" cy="136.244" r="15.535"/><circle cx="345.371" cy="136.244" r="15.535"/><circle cx="164.527" cy="193.056" r="15.535"/><circle cx="285.089" cy="193.056" r="15.535"/><circle cx="345.371" cy="193.056" r="15.535"/><circle cx="164.527" cy="249.868" r="15.535"/><circle cx="285.089" cy="249.868" r="15.535"/><circle cx="345.371" cy="249.868" r="15.535"/></g></g><g fill="#ded4cf"><circle cx="224.808" cy="136.244" r="15.535"/><circle cx="224.808" cy="193.056" r="15.535"/><circle cx="224.808" cy="249.868" r="15.535"/></g></g><g><path d="m499.564 434.48h-4.724v-277.965c0-22.107-17.985-40.093-40.093-40.093h-44.572v-44.838c0-16.822-13.686-30.508-30.508-30.508h-3.339v-13.061c0-4.142-3.358-7.5-7.5-7.5s-7.5 3.358-7.5 7.5v13.062h-22.732v-13.062c0-4.142-3.358-7.5-7.5-7.5s-7.5 3.358-7.5 7.5v13.062h-22.733v-13.062c0-4.142-3.358-7.5-7.5-7.5s-7.5 3.358-7.5 7.5v13.062h-22.732v-13.062c0-4.142-3.358-7.5-7.5-7.5s-7.5 3.358-7.5 7.5v13.062h-22.732v-13.062c0-4.142-3.358-7.5-7.5-7.5s-7.5 3.358-7.5 7.5v13.062h-22.733v-13.062c0-4.142-3.358-7.5-7.5-7.5s-7.5 3.358-7.5 7.5v13.062h-22.732v-13.062c0-4.142-3.358-7.5-7.5-7.5s-7.5 3.358-7.5 7.5v13.062h-4.492c-16.822 0-30.508 13.686-30.508 30.508v44.838h-43.573c-22.107 0-40.093 17.985-40.093 40.093v277.964h-4.724c-6.365 0-11.544 5.179-11.544 11.545v7.001c0 20.715 16.853 37.568 37.568 37.568h435.973c20.715 0 37.568-16.853 37.568-37.568v-7.001c0-6.366-5.179-11.545-11.545-11.545zm-369.123-378.404h4.492v6.806c0 4.142 3.358 7.5 7.5 7.5s7.5-3.358 7.5-7.5v-6.806h22.732v6.806c0 4.142 3.358 7.5 7.5 7.5s7.5-3.358 7.5-7.5v-6.806h22.733v6.806c0 4.142 3.358 7.5 7.5 7.5s7.5-3.358 7.5-7.5v-6.806h22.732v6.806c0 4.142 3.358 7.5 7.5 7.5s7.5-3.358 7.5-7.5v-6.806h22.732v6.806c0 4.142 3.358 7.5 7.5 7.5s7.5-3.358 7.5-7.5v-6.806h22.733v6.806c0 4.142 3.358 7.5 7.5 7.5s7.5-3.358 7.5-7.5v-6.806h22.732v6.806c0 4.142 3.358 7.5 7.5 7.5s7.5-3.358 7.5-7.5v-6.806h3.339c8.551 0 15.508 6.957 15.508 15.508v18.55h-280.241v-18.55c0-8.551 6.957-15.508 15.508-15.508zm365.668 396.95c0 12.444-10.124 22.568-22.568 22.568h-435.973c-12.444 0-22.568-10.124-22.568-22.568v-3.545h341.292c4.142 0 7.5-3.358 7.5-7.5s-3.358-7.5-7.5-7.5h-325.024v-277.966c0-13.836 11.256-25.093 25.093-25.093h43.572v15h-43.572c-5.565 0-10.093 4.528-10.093 10.093v255.465c0 4.142 3.358 7.5 7.5 7.5h72.684c4.142 0 7.5-3.358 7.5-7.5s-3.358-7.5-7.5-7.5h-65.184v-243.059h38.665v111.527c0 16.822 13.686 30.508 30.508 30.508h177.02c4.142 0 7.5-3.358 7.5-7.5s-3.358-7.5-7.5-7.5h-177.02c-8.551 0-15.508-6.957-15.508-15.508v-167.814h280.242v167.814c0 8.551-6.957 15.508-15.508 15.508h-40.245c-4.142 0-7.5 3.358-7.5 7.5s3.358 7.5 7.5 7.5h40.245c16.822 0 30.508-13.686 30.508-30.508v-111.527h39.665v243.059h-291.426c-4.142 0-7.5 3.358-7.5 7.5s3.358 7.5 7.5 7.5h298.926c4.142 0 7.5-3.358 7.5-7.5v-255.465c0-5.565-4.528-10.093-10.093-10.093h-44.572v-15h44.572c13.836 0 25.093 11.256 25.093 25.093v277.965h-91.585c-4.142 0-7.5 3.358-7.5 7.5s3.358 7.5 7.5 7.5h107.854z"/><path d="m164.527 113.209c-12.702 0-23.035 10.334-23.035 23.036s10.333 23.035 23.035 23.035 23.035-10.333 23.035-23.035-10.333-23.036-23.035-23.036zm0 31.071c-4.431 0-8.035-3.604-8.035-8.035s3.604-8.036 8.035-8.036 8.035 3.605 8.035 8.036-3.604 8.035-8.035 8.035z"/><path d="m224.808 113.209c-12.702 0-23.035 10.334-23.035 23.036s10.333 23.035 23.035 23.035 23.036-10.333 23.036-23.035-10.334-23.036-23.036-23.036zm0 31.071c-4.431 0-8.035-3.604-8.035-8.035s3.604-8.036 8.035-8.036 8.036 3.605 8.036 8.036-3.605 8.035-8.036 8.035z"/><path d="m285.089 113.209c-12.702 0-23.035 10.334-23.035 23.036s10.333 23.035 23.035 23.035 23.035-10.333 23.035-23.035-10.333-23.036-23.035-23.036zm0 31.071c-4.431 0-8.035-3.604-8.035-8.035s3.604-8.036 8.035-8.036 8.035 3.605 8.035 8.036-3.604 8.035-8.035 8.035z"/><path d="m345.371 159.28c12.702 0 23.035-10.333 23.035-23.035s-10.333-23.036-23.035-23.036-23.035 10.334-23.035 23.036 10.333 23.035 23.035 23.035zm0-31.071c4.431 0 8.035 3.605 8.035 8.036s-3.604 8.035-8.035 8.035-8.035-3.604-8.035-8.035 3.604-8.036 8.035-8.036z"/><path d="m164.527 170.021c-12.702 0-23.035 10.334-23.035 23.036s10.333 23.035 23.035 23.035 23.035-10.333 23.035-23.035-10.333-23.036-23.035-23.036zm0 31.07c-4.431 0-8.035-3.604-8.035-8.035s3.604-8.036 8.035-8.036 8.035 3.605 8.035 8.036-3.604 8.035-8.035 8.035z"/><path d="m224.808 170.021c-12.702 0-23.035 10.334-23.035 23.036s10.333 23.035 23.035 23.035 23.036-10.333 23.036-23.035-10.334-23.036-23.036-23.036zm0 31.07c-4.431 0-8.035-3.604-8.035-8.035s3.604-8.036 8.035-8.036 8.036 3.605 8.036 8.036-3.605 8.035-8.036 8.035z"/><path d="m285.089 170.021c-12.702 0-23.035 10.334-23.035 23.036s10.333 23.035 23.035 23.035 23.035-10.333 23.035-23.035-10.333-23.036-23.035-23.036zm0 31.07c-4.431 0-8.035-3.604-8.035-8.035s3.604-8.036 8.035-8.036 8.035 3.605 8.035 8.036-3.604 8.035-8.035 8.035z"/><path d="m345.371 216.091c12.702 0 23.035-10.333 23.035-23.035s-10.333-23.036-23.035-23.036-23.035 10.334-23.035 23.036 10.333 23.035 23.035 23.035zm0-31.07c4.431 0 8.035 3.605 8.035 8.036s-3.604 8.035-8.035 8.035-8.035-3.604-8.035-8.035 3.604-8.036 8.035-8.036z"/><path d="m164.527 226.833c-12.702 0-23.035 10.333-23.035 23.035s10.333 23.035 23.035 23.035 23.035-10.333 23.035-23.035-10.333-23.035-23.035-23.035zm0 31.07c-4.431 0-8.035-3.604-8.035-8.035s3.604-8.035 8.035-8.035 8.035 3.604 8.035 8.035-3.604 8.035-8.035 8.035z"/><path d="m224.808 226.833c-12.702 0-23.035 10.333-23.035 23.035s10.333 23.035 23.035 23.035 23.036-10.333 23.036-23.035-10.334-23.035-23.036-23.035zm0 31.07c-4.431 0-8.035-3.604-8.035-8.035s3.604-8.035 8.035-8.035 8.036 3.604 8.036 8.035-3.605 8.035-8.036 8.035z"/><path d="m285.089 226.833c-12.702 0-23.035 10.333-23.035 23.035s10.333 23.035 23.035 23.035 23.035-10.333 23.035-23.035-10.333-23.035-23.035-23.035zm0 31.07c-4.431 0-8.035-3.604-8.035-8.035s3.604-8.035 8.035-8.035 8.035 3.604 8.035 8.035-3.604 8.035-8.035 8.035z"/><path d="m345.371 272.903c12.702 0 23.035-10.333 23.035-23.035s-10.333-23.035-23.035-23.035-23.035 10.333-23.035 23.035 10.333 23.035 23.035 23.035zm0-31.07c4.431 0 8.035 3.604 8.035 8.035s-3.604 8.035-8.035 8.035-8.035-3.604-8.035-8.035 3.604-8.035 8.035-8.035z"/></g></g></svg>