<svg id="Capa_1" enable-background="new 0 0 511.828 511.828" height="512" viewBox="0 0 511.828 511.828" width="512" xmlns="http://www.w3.org/2000/svg"><g><g><g id="XMLID_193_"><path d="m88.443 43.538v450.825c0 5.504 4.462 9.965 9.965 9.965h336.395 16.99 36c2.612 0 4.73-2.118 4.73-4.73v-444.017c0-6.651-5.392-12.043-12.043-12.043z" fill="#f8f3f2"/><g><path d="m451.793 43.538v460.79h-16.99-341.63c-2.61 0-4.73-2.12-4.73-4.73v-50.5-405.56z" fill="#f2eae7"/></g></g><path d="m88.443 43.538v405.56 20h285.25c31.64 0 57.38-25.741 57.38-57.38v-368.18z" fill="#ede2dd"/><path d="m47.723 43.538v368.18l25.141 37.38h300.828c20.64 0 37.38-16.74 37.38-37.38v-368.18z" fill="#f8f3f2"/><path d="m356.541 414.562c-2.158-13.236-13.398-22.844-26.727-22.844h-202.919c-9.603 0-17.388-7.785-17.388-17.388v-20.217c0-17.809 14.437-32.246 32.246-32.246h118.059c21.744 0 39.37-17.627 39.37-39.37v-164.27c0-10.442-4.149-20.457-11.533-27.84l-46.857-46.849h-131.284-61.785v368.18l25.141 37.38h33.387 28.398 239.043c-8.563 0-15.777-26.114-17.151-34.536z" fill="#f2eae7"/><path d="m264.183 118.228v164.28c0 2.41-1.96 4.36-4.37 4.36h-227.23c-2.41 0-4.36-1.95-4.36-4.36v-234.61c0-2.41 1.95-4.36 4.36-4.36h156.9c1.16 0 2.27.46 3.09 1.28l70.33 70.32c.82.82 1.28 1.93 1.28 3.09z" fill="#f9f7f7"/><path d="m86.687 258.967c-15.56 0-28.174-12.614-28.174-28.174v-187.255h-25.93c-2.408 0-4.36 1.952-4.36 4.36v234.61c0 2.408 1.952 4.36 4.36 4.36h227.23c2.413 0 4.37-1.956 4.37-4.37v-23.532h-177.496z" fill="#f8f3f2"/><g><g id="XMLID_192_"><g><path d="m329.815 411.718c3.513 0 6.422 2.595 6.987 6.062 2.898 17.758 18.315 31.318 36.891 31.318h-317.01c-20.64 0-37.38-16.74-37.38-37.38h28.42z" fill="#f9f7f7"/></g></g><g><g id="XMLID_191_"><g><path d="m264.183 118.228c0-1.159-.46-2.271-1.28-3.09l-70.33-70.32c-.82-.82-1.931-1.28-3.091-1.28h-12.99v67.56c0 11.333 9.187 20.52 20.52 20.52h67.17v-13.39z" fill="#f8f3f2"/><path d="m263.873 116.618h-72.38v-72.59c.39.2.76.47 1.08.79l70.33 70.32c.43.43.75.93.97 1.48z" fill="#f9f7f7"/></g></g></g></g></g><g><path d="m492.521 36.035h-262.581c-4.143 0-7.5 3.358-7.5 7.5s3.357 7.5 7.5 7.5h173.634v79.913c0 4.142 3.357 7.5 7.5 7.5s7.5-3.358 7.5-7.5v-79.914h25.724v349.781c0 4.142 3.357 7.5 7.5 7.5s7.5-3.358 7.5-7.5v-349.78h25.724v445.793h-25.724v-64.049c0-4.142-3.357-7.5-7.5-7.5s-7.5 3.358-7.5 7.5v64.049h-348.351v-40.234h277.747c24.747 0 44.88-20.133 44.88-44.88v-246.511c0-4.142-3.357-7.5-7.5-7.5s-7.5 3.358-7.5 7.5v246.511c0 16.476-13.404 29.88-29.88 29.88-16.477 0-29.881-13.404-29.881-29.88 0-4.142-3.357-7.5-7.5-7.5h-281.09v-88.684c0-4.142-3.357-7.5-7.5-7.5s-7.5 3.358-7.5 7.5v88.684h-20.916c-4.143 0-7.5 3.358-7.5 7.5 0 24.747 20.133 44.88 44.88 44.88h24.26v43.005c0 6.743 5.485 12.229 12.229 12.229h394.616c6.743 0 12.229-5.486 12.229-12.229v-456.064c0-4.142-3.358-7.5-7.5-7.5zm-464.761 383.178h301.68c1.437 8.508 5.276 16.208 10.793 22.38h-283.546c-13.887.001-25.591-9.522-28.927-22.38z"/><path d="m32.587 294.371h227.226c6.544 0 11.868-5.324 11.868-11.868v-52.344c0-4.142-3.357-7.5-7.5-7.5s-7.5 3.358-7.5 7.5v49.212h-220.961v-228.337h17.27v58.563c0 13.809 11.234 25.043 25.043 25.043 13.81 0 25.044-11.234 25.044-25.043v-37.856c0-4.142-3.357-7.5-7.5-7.5s-7.5 3.358-7.5 7.5v37.856c0 5.538-4.506 10.043-10.044 10.043s-10.043-4.505-10.043-10.043v-58.563h116.006v65.589c0 4.142 3.357 7.5 7.5 7.5h65.185v74.073c0 4.142 3.357 7.5 7.5 7.5s7.5-3.358 7.5-7.5v-79.966c0-3.167-1.233-6.147-3.476-8.392l-70.33-70.33c-2.242-2.241-5.222-3.475-8.391-3.475h-71.173v-3.374c.001-18.008-14.651-32.659-32.659-32.659-18.01 0-32.662 14.651-32.662 32.661v3.374h-20.403c-6.544 0-11.867 5.324-11.867 11.868v234.601c0 6.543 5.323 11.867 11.867 11.867zm166.409-232.528 47.28 47.28h-47.28zm-131.006-29.182c0-9.739 7.923-17.661 17.662-17.661s17.66 7.922 17.66 17.661v3.374h-35.322z"/><path d="m80.012 154.771h-5.044c-4.143 0-7.5 3.358-7.5 7.5s3.357 7.5 7.5 7.5h5.044c4.143 0 7.5-3.358 7.5-7.5s-3.357-7.5-7.5-7.5z"/><path d="m80.012 193.742h-5.044c-4.143 0-7.5 3.358-7.5 7.5s3.357 7.5 7.5 7.5h5.044c4.143 0 7.5-3.358 7.5-7.5s-3.357-7.5-7.5-7.5z"/><path d="m80.012 232.712h-5.044c-4.143 0-7.5 3.358-7.5 7.5s3.357 7.5 7.5 7.5h5.044c4.143 0 7.5-3.358 7.5-7.5s-3.357-7.5-7.5-7.5z"/><path d="m300.718 119.148h68.638c4.143 0 7.5-3.358 7.5-7.5s-3.357-7.5-7.5-7.5h-68.638c-4.143 0-7.5 3.358-7.5 7.5s3.357 7.5 7.5 7.5z"/><path d="m300.718 177.692h68.638c4.143 0 7.5-3.358 7.5-7.5s-3.357-7.5-7.5-7.5h-68.638c-4.143 0-7.5 3.358-7.5 7.5s3.357 7.5 7.5 7.5z"/><path d="m300.718 236.237h68.638c4.143 0 7.5-3.358 7.5-7.5s-3.357-7.5-7.5-7.5h-68.638c-4.143 0-7.5 3.358-7.5 7.5s3.357 7.5 7.5 7.5z"/><path d="m300.718 294.781h68.638c4.143 0 7.5-3.358 7.5-7.5s-3.357-7.5-7.5-7.5h-68.638c-4.143 0-7.5 3.358-7.5 7.5s3.357 7.5 7.5 7.5z"/><path d="m78.152 345.825c0 4.142 3.357 7.5 7.5 7.5h283.704c4.143 0 7.5-3.358 7.5-7.5s-3.357-7.5-7.5-7.5h-283.704c-4.143 0-7.5 3.358-7.5 7.5z"/></g></g></svg>