<svg id="Capa_1" enable-background="new 0 0 512 512" height="512" viewBox="0 0 512 512" width="512" xmlns="http://www.w3.org/2000/svg"><g><path d="m351.812 329.558 141.738 130.315c7.79 7.163 8.094 19.356.669 26.897l-10.732 10.9c-7.425 7.541-19.622 7.428-26.904-.25l-132.5-139.686-51.549-58.452 26.378-22.715z" fill="#e1dee2"/><path d="m351.812 329.558-52.899-52.991-26.378 22.715 51.549 58.452 13.751 14.496c4.776-4.014 9.412-8.242 13.875-12.706 5.256-5.256 10.197-10.743 14.827-16.429z" fill="#cac5cb"/><circle cx="200.865" cy="208.68" fill="#b3adb5" r="193.388"/><path d="m64.926 213.74c0-93.082 61.259-171.852 145.658-198.204-3.22-.16-6.46-.243-9.72-.243-106.804 0-193.387 86.583-193.387 193.387 0 100.91 77.272 183.767 175.882 192.606-70.041-33.358-118.433-104.801-118.433-187.546z" fill="#a59ca6"/><path d="m247.792 21.028.014 60.785c0 15.924 12.955 28.878 28.878 28.878h90.94c-25.957-44.075-68.913-76.966-119.832-89.663z" fill="#a59ca6"/><ellipse cx="200.862" cy="208.68" fill="#cfeffc" rx="163.478" ry="163.479" transform="matrix(.707 -.707 .707 .707 -88.728 203.152)"/><path d="m133.117 59.913c-56.427 25.798-95.732 82.777-95.732 148.768 0 57.728 30.077 108.564 75.385 137.66-29.879-35.966-47.844-82.185-47.844-132.6 0-60.997 26.306-115.846 68.191-153.828z" fill="#a9e4f9"/><path d="m247.799 52.078.007 29.735c0 15.924 12.955 28.878 28.878 28.878h54.957c-20.737-27.606-50-48.451-83.842-58.613z" fill="#a9e4f9"/><circle cx="90.133" cy="185.463" fill="#ee878a" r="17.923"/><circle cx="160.852" cy="283.418" fill="#fbe88c" r="17.923"/><circle cx="213.993" cy="190.757" fill="#ee878a" r="17.923"/><path d="m276.685 8.746h218.899c4.938 0 8.939 4.003 8.939 8.939v64.126c0 4.938-4.003 8.94-8.939 8.94h-218.899c-4.938 0-8.94-4.003-8.94-8.94v-64.124c-.001-4.938 4.002-8.941 8.94-8.941z" fill="#ee878a"/><circle cx="278.385" cy="240.007" fill="#fbe88c" r="17.923"/><g><path d="m200.864 52.678c11.906 0 23.777 1.354 35.282 4.024 4.023.937 8.04-1.57 8.973-5.593.934-4.023-1.57-8.04-5.593-8.973-12.611-2.927-25.619-4.411-38.662-4.411-94.266 0-170.957 76.69-170.957 170.957 0 28.637 7.26 56.998 20.994 82.016 1.361 2.478 3.92 3.88 6.561 3.88 1.216 0 2.45-.297 3.592-.924 3.62-1.987 4.943-6.533 2.956-10.153-12.527-22.819-19.149-48.691-19.149-74.819.001-86.022 69.984-156.004 156.003-156.004z"/><path d="m495.582 1.269h-218.897c-9.053 0-16.417 7.364-16.417 16.417v64.126c0 9.052 7.364 16.417 16.417 16.417h65.519c4.129 0 7.477-3.348 7.477-7.477s-3.348-7.477-7.477-7.477h-65.519c-.807 0-1.464-.656-1.464-1.463v-64.125c0-.807.656-1.464 1.464-1.464h218.898c.808 0 1.464.657 1.464 1.464v64.126c0 .807-.656 1.463-1.464 1.463h-121.515c-4.129 0-7.477 3.348-7.477 7.477s3.348 7.477 7.477 7.477h38.416l-28.474 27.882c-1.347-2.975-2.751-5.932-4.249-8.859-1.882-3.676-6.387-5.129-10.063-3.247s-5.129 6.387-3.247 10.063c2.23 4.355 4.26 8.773 6.125 13.24l-11.63 11.388c-4.194-11.167-9.566-21.918-16.08-32.072-2.228-3.475-6.854-4.486-10.33-2.257-3.475 2.229-4.486 6.854-2.257 10.33 7.155 11.156 12.801 23.099 16.874 35.547l-58.659 57.439c-3.602-1.962-7.727-3.078-12.11-3.078-5.487 0-10.568 1.755-14.726 4.724l-25.842-19.765c1.018-2.746 1.577-5.712 1.577-8.808 0-14.006-11.395-25.401-25.401-25.401s-25.401 11.395-25.401 25.401c0 6.69 2.604 12.781 6.847 17.322l-28.999 50.566c-1.799-.406-3.668-.627-5.589-.627-2.848 0-5.585.479-8.143 1.347l-42.312-58.608c3.221-4.258 5.136-9.556 5.136-15.294 0-14.006-11.394-25.401-25.4-25.401s-25.401 11.395-25.401 25.401 11.395 25.401 25.401 25.401c2.848 0 5.585-.479 8.144-1.347l42.311 58.608c-3.221 4.258-5.136 9.556-5.136 15.294 0 14.006 11.395 25.401 25.401 25.401s25.401-11.395 25.401-25.401c0-6.69-2.604-12.781-6.847-17.322l28.999-50.566c1.799.406 3.668.627 5.589.627 5.487 0 10.568-1.755 14.726-4.724l25.843 19.765c-1.018 2.746-1.577 5.712-1.577 8.808 0 14.006 11.395 25.401 25.401 25.401s25.401-11.395 25.401-25.401c0-4.192-1.027-8.145-2.832-11.634l52.623-51.529c2.168 10.409 3.292 21.068 3.292 31.838 0 86.02-69.983 156.002-156.003 156.002-46.247 0-89.864-20.427-119.667-56.043-2.65-3.167-7.365-3.586-10.533-.936-3.167 2.65-3.586 7.365-.936 10.533 32.652 39.021 80.448 61.4 131.136 61.4 94.266 0 170.957-76.691 170.957-170.956 0-14.981-1.975-29.766-5.783-44.041l12.18-11.926c5.677 17.954 8.559 36.677 8.559 55.966 0 102.512-83.399 185.911-185.911 185.911-102.514 0-185.913-83.399-185.913-185.911s83.397-185.911 185.908-185.911c11.908 0 23.87 1.146 35.551 3.409 4.052.782 7.977-1.865 8.762-5.92.786-4.054-1.865-7.976-5.92-8.762-12.616-2.443-25.534-3.682-38.394-3.682-110.755.001-200.863 90.108-200.863 200.865s90.108 200.865 200.864 200.865c46.054 0 88.53-15.59 122.45-41.757l127.843 134.777c4.93 5.197 11.59 8.097 18.754 8.163.085 0 .167.001.252.001 7.068 0 13.684-2.77 18.651-7.814l10.732-10.9c5.026-5.104 7.696-11.86 7.518-19.021-.178-7.162-3.18-13.777-8.454-18.626l-88.592-81.453c-3.041-2.794-7.77-2.596-10.565.444s-2.596 7.77.444 10.565l88.592 81.453c2.262 2.08 3.55 4.917 3.626 7.989.077 3.072-1.069 5.969-3.224 8.159l-10.733 10.9c-2.155 2.189-5.047 3.411-8.107 3.351-3.073-.029-5.929-1.272-8.043-3.501l-127.174-134.07c6.238-5.595 12.13-11.566 17.628-17.891l23.609 21.706c1.437 1.321 3.25 1.973 5.058 1.973 2.019 0 4.032-.813 5.506-2.417 2.795-3.04 2.596-7.77-.444-10.564l-24.322-22.362c25.025-33.499 39.858-75.034 39.858-119.97 0-23.398-3.923-46.031-11.65-67.582l43.778-42.868h61.724c9.053 0 16.417-7.364 16.417-16.417v-64.126c.004-9.054-7.36-16.418-16.414-16.418zm-405.425 194.596c-5.753 0-10.418-4.664-10.418-10.418s4.664-10.418 10.418-10.418 10.418 4.664 10.418 10.418-4.665 10.418-10.418 10.418zm70.673 97.987c-5.753 0-10.418-4.664-10.418-10.418s4.664-10.418 10.418-10.418 10.418 4.664 10.418 10.418-4.665 10.418-10.418 10.418zm53.093-92.72c-5.753 0-10.418-4.664-10.418-10.418s4.664-10.418 10.418-10.418 10.418 4.664 10.418 10.418-4.664 10.418-10.418 10.418zm64.434 49.368c-5.753 0-10.418-4.664-10.418-10.418s4.664-10.418 10.418-10.418c5.753 0 10.418 4.664 10.418 10.418s-4.664 10.418-10.418 10.418z"/></g></g></svg>