<svg id="Capa_1" enable-background="new 0 0 512.646 512.646" height="512" viewBox="0 0 512.646 512.646" width="512" xmlns="http://www.w3.org/2000/svg"><g><g><path d="m413.49 165.969c-50.43 0-91.31 40.88-91.31 91.31 0 33.2 17.72 62.26 44.21 78.24l19.041-5.289h66.581l9.387 4.789c26.04-16.08 43.4-44.88 43.4-77.74.001-50.429-40.879-91.31-91.309-91.31z" fill="#9de5d1"/><path d="m255.823 7.809c-50.43 0-91.31 40.88-91.31 91.31 0 33.2 17.72 62.26 44.21 78.24l14.282-8.806 66.921.89 13.807 7.417c26.04-16.08 43.4-44.88 43.4-77.74 0-50.431-40.88-91.311-91.31-91.311z" fill="#cfeffc"/><ellipse cx="256.228" cy="99.119" fill="#a9e4f9" rx="62.166" ry="63.714"/><g><g><path d="m303.733 176.859c-13.93 8.61-30.34 13.57-47.91 13.57-17.24 0-33.35-4.77-47.1-13.07v-10.46c0-9.56 4.92-18.45 13.03-23.52l17.73-11.1v-43.08h33.37v43.08l17.74 11.1c8.1 5.07 13.02 13.96 13.02 23.52z" fill="#f9f7f7"/></g><path d="m272.853 97.893v-8.694h-33.37v43.08l-17.73 11.1c-8.11 5.07-13.03 13.96-13.03 23.52v10.46c4.245 2.562 8.716 4.786 13.375 6.639v-8.405c0-9.56 4.92-18.45 13.03-23.52l11.868-7.43c3.647-2.283 5.862-6.283 5.862-10.586 0-1.097.899-1.986 1.995-1.954.437.013.876.02 1.317.02 5.834 0 11.441-.977 16.683-2.752v-18.711h-19.995v-12.767z" fill="#f2eae7"/><circle cx="256.17" cy="79.966" fill="#f9f7f7" r="42.156"/><path d="m231.605 79.966c0-19.399 12.512-35.879 29.897-41.822-1.746-.22-3.527-.334-5.333-.334-23.282 0-42.156 18.874-42.156 42.156s18.874 42.156 42.156 42.156c1.806 0 3.587-.114 5.333-.334-17.385-5.944-29.897-22.423-29.897-41.822z" fill="#f2eae7"/><path d="m97.155 165.677c-50.43 0-91.31 40.88-91.31 91.31 0 33.2 17.72 62.26 44.21 78.24l17.198-8.961h69.889l7.923 8.461c26.04-16.08 43.4-44.88 43.4-77.74 0-50.43-40.88-91.31-91.31-91.31z" fill="#fcf0b6"/><ellipse cx="97.56" cy="256.987" fill="#fbe372" rx="62.166" ry="63.714"/><g><path d="m145.065 334.727c-13.93 8.61-30.34 13.57-47.91 13.57-17.24 0-33.35-4.77-47.1-13.07v-10.46c0-9.56 4.92-18.45 13.03-23.52l17.73-11.1v-43.08h33.37v43.08l17.74 11.1c8.1 5.07 13.02 13.96 13.02 23.52z" fill="#f9f7f7"/></g><path d="m114.185 255.76v-8.694h-33.37v43.08l-17.73 11.1c-8.11 5.07-13.03 13.96-13.03 23.52v10.46c4.245 2.562 8.716 4.786 13.375 6.639v-8.405c0-9.56 4.92-18.45 13.03-23.52l11.868-7.43c3.647-2.283 5.862-6.283 5.862-10.586 0-1.097.899-1.986 1.995-1.954.437.013.876.02 1.317.02 5.834 0 11.441-.977 16.683-2.752v-18.709h-19.995v-12.769z" fill="#f2eae7"/><circle cx="97.502" cy="237.833" fill="#f9f7f7" r="42.156"/><path d="m72.938 237.833c0-19.399 12.512-35.879 29.897-41.822-1.746-.22-3.527-.334-5.333-.334-23.282 0-42.156 18.874-42.156 42.156s18.874 42.156 42.156 42.156c1.806 0 3.587-.114 5.333-.334-17.386-5.943-29.897-22.423-29.897-41.822z" fill="#f2eae7"/><g id="XMLID_198_"><g><path d="m208.723 492.962c-26.49-15.98-44.21-45.04-44.21-78.24 0-50.43 40.88-91.31 91.31-91.31s91.31 40.88 91.31 91.31c0 32.86-17.36 61.66-43.4 77.74-13.93 8.61-30.34 13.57-47.91 13.57-17.24 0-33.35-4.77-47.1-13.07z" fill="#f09ea2"/></g></g><ellipse cx="256.228" cy="414.722" fill="#ee878a" rx="62.166" ry="63.714"/><g><path d="m303.733 492.462c-13.93 8.61-30.34 13.57-47.91 13.57-17.24 0-33.35-4.77-47.1-13.07v-10.46c0-9.56 4.92-18.45 13.03-23.52l17.73-11.1v-43.08h33.37v43.08l17.74 11.1c8.1 5.07 13.02 13.96 13.02 23.52z" fill="#f9f7f7"/></g><path d="m272.853 413.496v-8.694h-33.37v43.08l-17.73 11.1c-8.11 5.07-13.03 13.96-13.03 23.52v10.46c4.245 2.562 8.716 4.786 13.375 6.639v-8.405c0-9.56 4.92-18.45 13.03-23.52l11.868-7.43c3.647-2.283 5.862-6.283 5.862-10.586 0-1.097.899-1.986 1.995-1.954.437.013.876.02 1.317.02 5.834 0 11.441-.977 16.683-2.752v-18.709h-19.995v-12.768h19.995z" fill="#f2eae7"/><circle cx="256.17" cy="395.569" fill="#f9f7f7" r="42.156"/><path d="m231.605 395.569c0-19.399 12.512-35.879 29.897-41.822-1.746-.22-3.527-.334-5.333-.334-23.282 0-42.156 18.874-42.156 42.156s18.874 42.156 42.156 42.156c1.806 0 3.587-.114 5.333-.334-17.385-5.943-29.897-22.423-29.897-41.822z" fill="#f2eae7"/><ellipse cx="413.895" cy="257.28" fill="#82dec5" rx="62.166" ry="63.714"/><g><path d="m461.4 335.02c-13.93 8.61-30.34 13.57-47.91 13.57-17.24 0-33.35-4.77-47.1-13.07v-10.46c0-9.56 4.92-18.45 13.03-23.52l17.73-11.1v-43.08h33.37v43.08l17.74 11.1c8.1 5.07 13.02 13.96 13.02 23.52z" fill="#f9f7f7"/></g><path d="m430.52 256.053v-8.694h-33.37v43.08l-17.73 11.1c-8.11 5.07-13.03 13.96-13.03 23.52v10.46c4.245 2.562 8.716 4.786 13.375 6.639v-8.405c0-9.56 4.92-18.45 13.03-23.52l11.868-7.43c3.647-2.283 5.862-6.283 5.862-10.586 0-1.097.899-1.986 1.995-1.954.437.013.876.02 1.317.02 5.834 0 11.441-.977 16.683-2.752v-18.709h-19.995v-12.768h19.995z" fill="#f2eae7"/><circle cx="413.837" cy="238.126" fill="#f9f7f7" r="42.156"/><path d="m389.273 238.126c0-19.399 12.512-35.879 29.897-41.822-1.746-.22-3.527-.334-5.333-.334-23.282 0-42.156 18.874-42.156 42.156s18.874 42.156 42.156 42.156c1.806 0 3.587-.114 5.333-.334-17.386-5.943-29.897-22.423-29.897-41.822z" fill="#f2eae7"/></g></g><path d="m512.646 257.741c0-47.517-33.717-87.303-78.482-96.702-18.807-34.641-46.873-62.726-81.503-81.556-2.262-11.194-6.447-21.943-12.431-31.753-2.157-3.536-6.772-4.652-10.309-2.497-3.536 2.157-4.654 6.772-2.497 10.309 7.985 13.09 12.206 28.159 12.206 43.576 0 25.182-11.18 47.788-28.818 63.164-.714-5.493-2.703-10.653-5.748-15.141 12.515-12.809 19.566-29.929 19.566-48.022 0-37.941-30.867-68.809-68.809-68.809s-68.809 30.867-68.809 68.809c0 18.316 7.201 35.588 19.976 48.437-2.985 4.541-4.891 9.751-5.522 15.278-18.006-15.384-29.454-38.231-29.454-63.715 0-46.212 37.596-83.809 83.809-83.809 19.089 0 37.072 6.254 52.003 18.085 3.246 2.572 7.963 2.025 10.536-1.221 2.572-3.246 2.026-7.963-1.221-10.536-17.607-13.954-38.81-21.329-61.316-21.329-47.764 0-87.718 34.067-96.847 79.179-34.715 18.878-62.826 47.048-81.629 81.799-44.199 9.828-77.347 49.339-77.347 96.454 0 47.106 33.137 86.613 77.324 96.449 18.943 35.031 47.314 63.353 82.374 82.236 10.356 43.479 49.521 75.911 96.125 75.911s85.769-32.433 96.125-75.911c34.971-18.834 63.294-47.071 82.239-81.988 44.753-9.407 78.459-49.188 78.459-96.697zm-218.449-120.949-13.844-8.664v-4.816c15.182-8.504 25.473-24.742 25.473-43.347 0-.247-.01-.492-.013-.738 2.459 6.156 3.819 12.866 3.819 19.89-.001 14.204-5.567 27.642-15.435 37.675zm-72.684-56.826c0-19.109 15.547-34.656 34.656-34.656s34.656 15.547 34.656 34.656-15.547 34.656-34.656 34.656-34.656-15.547-34.656-34.656zm-19.499 19.152c0-7.711 1.635-15.046 4.57-21.682-.042.838-.071 1.68-.071 2.529 0 18.604 10.291 34.843 25.473 43.347v4.816l-14.214 8.895c-.02.012-.038.027-.058.039-10.038-10.059-15.7-23.593-15.7-37.944zm14.212 67.782c0-7.021 3.553-13.436 9.504-17.161l17.735-11.098c2.191-1.371 3.521-3.773 3.521-6.358v-3.526c2.978.559 6.045.865 9.183.865s6.205-.306 9.184-.865v3.526c0 2.584 1.331 4.987 3.521 6.358l17.734 11.098c5.952 3.725 9.505 10.14 9.505 17.161v5.68c-11.964 6.588-25.695 10.346-40.291 10.346-14.314 0-27.798-3.614-39.597-9.967v-6.059zm-201.226 90.841c0-46.212 37.596-83.809 83.809-83.809s83.809 37.596 83.809 83.809c0 25.182-11.18 47.788-28.818 63.164-.714-5.493-2.703-10.654-5.748-15.142 12.515-12.809 19.566-29.929 19.566-48.022 0-37.941-30.867-68.809-68.809-68.809s-68.809 30.868-68.809 68.809c0 18.316 7.201 35.588 19.976 48.436-2.986 4.541-4.891 9.751-5.522 15.278-18.007-15.383-29.454-38.23-29.454-63.714zm44.211 73.842v-6.06c0-7.021 3.553-13.436 9.504-17.161l17.735-11.099c2.191-1.371 3.521-3.773 3.521-6.357v-3.526c2.978.559 6.045.865 9.183.865s6.205-.306 9.183-.865v3.526c0 2.584 1.331 4.987 3.521 6.357l17.735 11.1c5.952 3.724 9.505 10.139 9.505 17.16v5.681c-11.964 6.588-25.695 10.346-40.291 10.346-14.313 0-27.796-3.614-39.596-9.967zm77.971-36.167-13.844-8.664v-4.816c15.182-8.504 25.473-24.742 25.473-43.347 0-.246-.01-.49-.013-.736 2.458 6.156 3.819 12.865 3.819 19.888 0 14.203-5.566 27.641-15.435 37.675zm-72.683-56.827c0-19.109 15.547-34.656 34.656-34.656s34.656 15.547 34.656 34.656-15.547 34.656-34.656 34.656-34.656-15.547-34.656-34.656zm10.473 43.347v4.816l-14.214 8.895c-.02.012-.038.027-.058.039-10.038-10.06-15.7-23.594-15.7-37.945 0-7.709 1.636-15.039 4.57-21.673-.042.836-.071 1.675-.071 2.521 0 18.604 10.291 34.842 25.473 43.347zm141.254 205.434v-6.06c0-7.021 3.553-13.436 9.505-17.161l17.735-11.099c2.19-1.371 3.521-3.773 3.521-6.357v-3.526c2.978.559 6.045.865 9.183.865s6.205-.306 9.184-.865v3.526c0 2.584 1.331 4.987 3.521 6.357l17.735 11.1c5.951 3.724 9.504 10.139 9.504 17.16v5.681c-11.964 6.588-25.695 10.346-40.291 10.346-14.314 0-27.798-3.614-39.597-9.967zm77.971-36.167-13.844-8.664v-4.816c15.182-8.504 25.473-24.742 25.473-43.347 0-.253-.01-.504-.014-.756 2.463 6.16 3.82 12.878 3.82 19.908-.001 14.203-5.567 27.641-15.435 37.675zm-38.028-91.483c19.109 0 34.656 15.547 34.656 34.656s-15.547 34.656-34.656 34.656-34.656-15.547-34.656-34.656 15.547-34.656 34.656-34.656zm54.644 116.973c-.714-5.493-2.703-10.654-5.748-15.142 12.515-12.808 19.566-29.929 19.566-48.022 0-37.941-30.867-68.809-68.809-68.809s-68.809 30.867-68.809 68.809c0 1.396.049 2.839.149 4.41.264 4.134 3.825 7.27 7.962 7.007 4.134-.264 7.271-3.829 7.007-7.962-.08-1.25-.119-2.38-.119-3.455 0-7.71 1.637-15.043 4.57-21.68-.042.838-.071 1.679-.071 2.528 0 18.604 10.291 34.843 25.473 43.347v4.816l-14.213 8.895c-.008.005-.015.01-.023.016-2.177-2.184-4.194-4.535-5.981-7.079-2.381-3.389-7.06-4.207-10.448-1.826-3.39 2.381-4.207 7.059-1.826 10.448 2.252 3.205 4.762 6.201 7.501 8.963-2.989 4.543-4.896 9.756-5.528 15.287-18.006-15.384-29.454-38.231-29.454-63.715 0-46.212 37.596-83.809 83.809-83.809s83.809 37.596 83.809 83.809c.001 25.182-11.178 47.788-28.817 63.164zm141.104-181.026c-.01-.006-.02-.014-.03-.02l-14.214-8.896v-4.816c15.182-8.504 25.473-24.742 25.473-43.347 0-.846-.029-1.686-.071-2.522 2.934 6.634 4.57 13.965 4.57 21.674.001 14.353-5.686 27.87-15.728 37.927zm-73.083-57.078c0-19.109 15.547-34.656 34.656-34.656s34.656 15.547 34.656 34.656-15.547 34.656-34.656 34.656-34.656-15.547-34.656-34.656zm10.473 43.347v4.816l-13.844 8.664c-9.868-10.034-15.435-23.472-15.435-37.675 0-7.031 1.357-13.75 3.821-19.912-.004.253-.015.505-.015.76 0 18.604 10.291 34.842 25.473 43.347zm-15.761 43.587c0-7.021 3.553-13.436 9.505-17.161l17.735-11.099c2.19-1.371 3.521-3.773 3.521-6.357v-3.526c2.978.559 6.045.865 9.183.865s6.205-.306 9.183-.865v3.526c0 2.584 1.331 4.987 3.521 6.357l17.735 11.1c5.951 3.724 9.504 10.139 9.504 17.16v6.06c-11.8 6.353-25.283 9.967-39.598 9.967-14.446 0-28.218-3.662-40.291-10.265v-5.762zm94.646-4.067c-.631-5.527-2.537-10.738-5.522-15.279 12.774-12.848 19.976-30.12 19.976-48.436 0-37.941-30.867-68.809-68.809-68.809s-68.809 30.867-68.809 68.809c0 18.093 7.051 35.214 19.566 48.022-3.069 4.524-5.067 9.731-5.766 15.272-9.683-8.426-17.5-19.142-22.595-31.604-1.567-3.833-5.943-5.67-9.781-4.104-3.834 1.568-5.671 5.947-4.104 9.781 15.26 37.324 51.171 61.44 91.489 61.44.593 0 1.183-.012 1.773-.022-15.383 24.904-36.167 45.682-61.068 61.049.054-1.343.09-2.691.09-4.047 0-54.483-44.325-98.809-98.809-98.809s-98.809 44.325-98.809 98.809c0 1.35.035 2.692.089 4.03-24.648-15.311-45.74-36.4-61.055-61.049.917.025 1.837.041 2.76.041 54.483 0 98.809-44.325 98.809-98.809s-44.325-98.809-98.809-98.809c-.923 0-1.843.015-2.76.041 15.362-24.866 36.108-45.645 60.98-61.011-.004.385-.015.769-.015 1.155 0 54.483 44.325 98.809 98.809 98.809s98.809-44.325 98.809-98.809c0-.378-.015-.754-.019-1.132 24.857 15.361 45.615 36.112 60.973 60.969-.582-.01-1.164-.022-1.748-.022-54.483 0-98.809 44.325-98.809 98.809 0 1.125.025 2.245.063 3.361.139 4.14 3.589 7.39 7.748 7.244 4.14-.139 7.383-3.607 7.244-7.748-.032-.948-.054-1.9-.054-2.857 0-46.212 37.596-83.809 83.809-83.809s83.809 37.596 83.809 83.809c-.001 25.484-11.449 48.331-29.455 63.715z"/></g></svg>