<svg id="Capa_1" enable-background="new 0 0 512.955 512.955" height="512" viewBox="0 0 512.955 512.955" width="512" xmlns="http://www.w3.org/2000/svg"><g><g><g><path d="m467.163 48.829h-421.58c-21.09 0-38.19 17.1-38.19 38.19v34.05l33.777 49.689h438.758l25.425-49.689v-34.05c0-21.09-17.1-38.19-38.19-38.19z" fill="#ee878a"/><path d="m52.456 48.829h-6.873c-21.09 0-38.19 17.1-38.19 38.19v34.05l33.777 49.689h11.286z" fill="#ec6e73"/><g id="XMLID_5_"><g><path d="m505.353 121.069v304.11c0 21.09-17.1 38.19-38.19 38.19h-421.58c-21.09 0-38.19-17.1-38.19-38.19v-304.11z" fill="#f9f7f7"/></g></g><path d="m443.482 203.839h-374.293c-6.435 0-11.652-5.217-11.652-11.652v-26.702c0-6.435 5.217-11.652 11.652-11.652h374.293c6.435 0 11.652 5.217 11.652 11.652v26.702c0 6.436-5.217 11.652-11.652 11.652z" fill="#a9e4f9"/><path d="m89.272 95.268c16.268 0 29.503-13.235 29.503-29.503v-16.936h-59.006v16.936c0 16.268 13.235 29.503 29.503 29.503z" fill="#ec6e73"/><path d="m89.272 80.268c-8.01 0-14.503-6.493-14.503-14.503v-33.862c0-8.01 6.493-14.503 14.503-14.503 8.01 0 14.503 6.493 14.503 14.503v33.862c0 8.01-6.493 14.503-14.503 14.503z" fill="#f2eae7"/><path d="m156.07 95.268c16.268 0 29.503-13.235 29.503-29.503v-16.936h-59.007v16.936c.001 16.268 13.236 29.503 29.504 29.503z" fill="#ec6e73"/><path d="m156.07 80.268c-8.01 0-14.503-6.493-14.503-14.503v-33.862c0-8.01 6.493-14.503 14.503-14.503 8.01 0 14.503 6.493 14.503 14.503v33.862c.001 8.01-6.493 14.503-14.503 14.503z" fill="#f2eae7"/><path d="m222.869 95.268c16.268 0 29.503-13.235 29.503-29.503v-16.936h-59.007v16.936c0 16.268 13.236 29.503 29.504 29.503z" fill="#ec6e73"/><path d="m222.869 80.268c-8.01 0-14.503-6.493-14.503-14.503v-33.862c0-8.01 6.493-14.503 14.503-14.503 8.01 0 14.503 6.493 14.503 14.503v33.862c0 8.01-6.493 14.503-14.503 14.503z" fill="#f2eae7"/><path d="m289.667 95.268c16.269 0 29.504-13.235 29.504-29.503v-16.936h-59.007v16.936c0 16.268 13.235 29.503 29.503 29.503z" fill="#ec6e73"/><path d="m289.667 80.268c-8.01 0-14.503-6.493-14.503-14.503v-33.862c0-8.01 6.493-14.503 14.503-14.503 8.01 0 14.503 6.493 14.503 14.503v33.862c0 8.01-6.493 14.503-14.503 14.503z" fill="#f2eae7"/><path d="m356.466 95.268c16.268 0 29.503-13.235 29.503-29.503v-16.936h-59.006v16.936c0 16.268 13.235 29.503 29.503 29.503z" fill="#ec6e73"/><path d="m356.465 80.268c-8.01 0-14.503-6.493-14.503-14.503v-33.862c0-8.01 6.493-14.503 14.503-14.503 8.01 0 14.503 6.493 14.503 14.503v33.862c.001 8.01-6.493 14.503-14.503 14.503z" fill="#f2eae7"/><path d="m423.263 95.268c16.269 0 29.504-13.235 29.504-29.503v-16.936h-59.007v16.936c0 16.268 13.236 29.503 29.503 29.503z" fill="#ec6e73"/><path d="m423.264 80.268c-8.01 0-14.503-6.493-14.503-14.503v-33.862c0-8.01 6.493-14.503 14.503-14.503 8.01 0 14.503 6.493 14.503 14.503v33.862c0 8.01-6.493 14.503-14.503 14.503z" fill="#f2eae7"/></g><g fill="#ded4cf"><path d="m269.593 275.769h-26.231c-4.376 0-7.923-3.547-7.923-7.923v-19.539c0-4.375 3.547-7.923 7.923-7.923h26.231c4.375 0 7.923 3.547 7.923 7.923v19.539c0 4.376-3.548 7.923-7.923 7.923z"/><path d="m195.245 275.769h-26.231c-4.376 0-7.923-3.547-7.923-7.923v-19.539c0-4.375 3.547-7.923 7.923-7.923h26.231c4.375 0 7.923 3.547 7.923 7.923v19.539c0 4.376-3.547 7.923-7.923 7.923z"/><path d="m120.898 275.769h-26.231c-4.376 0-7.923-3.547-7.923-7.923v-19.539c0-4.375 3.547-7.923 7.923-7.923h26.231c4.376 0 7.923 3.547 7.923 7.923v19.539c-.001 4.376-3.548 7.923-7.923 7.923z"/><path d="m317.71 275.769h26.231c4.375 0 7.923-3.547 7.923-7.923v-19.539c0-4.375-3.547-7.923-7.923-7.923h-26.231c-4.376 0-7.923 3.547-7.923 7.923v19.539c0 4.376 3.547 7.923 7.923 7.923z"/><path d="m392.057 275.769h26.231c4.376 0 7.923-3.547 7.923-7.923v-19.539c0-4.375-3.547-7.923-7.923-7.923h-26.231c-4.375 0-7.923 3.547-7.923 7.923v19.539c.001 4.376 3.548 7.923 7.923 7.923z"/><path d="m120.898 344.213h-26.231c-4.376 0-7.923-3.547-7.923-7.923v-19.539c0-4.375 3.547-7.923 7.923-7.923h26.231c4.376 0 7.923 3.547 7.923 7.923v19.539c-.001 4.376-3.548 7.923-7.923 7.923z"/><path d="m392.057 344.213h26.231c4.376 0 7.923-3.547 7.923-7.923v-19.539c0-4.375-3.547-7.923-7.923-7.923h-26.231c-4.375 0-7.923 3.547-7.923 7.923v19.539c.001 4.376 3.548 7.923 7.923 7.923z"/><path d="m120.898 412.658h-26.231c-4.376 0-7.923-3.547-7.923-7.923v-19.539c0-4.376 3.547-7.923 7.923-7.923h26.231c4.376 0 7.923 3.547 7.923 7.923v19.539c-.001 4.376-3.548 7.923-7.923 7.923z"/><path d="m392.057 412.658h26.231c4.376 0 7.923-3.547 7.923-7.923v-19.539c0-4.376-3.547-7.923-7.923-7.923h-26.231c-4.375 0-7.923 3.547-7.923 7.923v19.539c.001 4.376 3.548 7.923 7.923 7.923z"/></g><g><path d="m373.518 424.399c-4.883 0-8.59-4.348-7.867-9.178.794-5.305 1.213-10.731 1.213-16.255 0-61.143-49.743-110.886-110.886-110.886s-110.886 49.743-110.886 110.886c0 5.524.418 10.95 1.213 16.255.723 4.829-2.984 9.178-7.867 9.178h-28.654c-31.661 0-57.328-25.667-57.328-57.328v-246.002h-45.063v304.11c0 21.092 17.098 38.19 38.19 38.19h421.58c21.092 0 38.19-17.098 38.19-38.19v-.78z" fill="#f2eae7"/><circle cx="255.978" cy="398.966" fill="#ee878a" r="95.886"/><path d="m185.116 398.964c0-48.713 36.316-88.945 83.357-95.079-4.094-.533-8.257-.805-12.496-.805-52.956 0-95.885 42.929-95.885 95.885s42.929 95.885 95.885 95.885c4.243 0 8.421-.279 12.518-.813-47.046-6.127-83.379-46.356-83.379-95.073z" fill="#ec6e73"/><circle cx="255.978" cy="398.966" fill="#f9f7f7" r="65.886"/></g><circle cx="255.978" cy="398.966" fill="#ee878a" r="14.886"/></g><g><path d="m505.455 355.86c-4.143 0-7.5 3.358-7.5 7.5v62.522c0 16.92-13.766 30.686-30.687 30.686h-103.581c-4.143 0-7.5 3.358-7.5 7.5s3.357 7.5 7.5 7.5h103.582c25.191 0 45.687-20.495 45.687-45.686v-62.522c-.001-4.142-3.358-7.5-7.501-7.5z"/><path d="m467.269 42.038h-21.896v-9.431c0-12.132-9.871-22.003-22.004-22.003s-22.003 9.871-22.003 22.003v9.431h-22.792v-9.431c0-12.132-9.87-22.003-22.003-22.003s-22.003 9.871-22.003 22.003v9.431h-22.792v-9.431c0-12.132-9.871-22.003-22.004-22.003s-22.003 9.871-22.003 22.003v9.431h-22.792v-9.431c0-12.132-9.87-22.003-22.003-22.003s-22.003 9.871-22.003 22.003v9.431h-22.792v-9.431c0-12.132-9.871-22.003-22.004-22.003s-22.003 9.871-22.003 22.003v9.431h-22.792v-9.431c0-12.132-9.87-22.003-22.003-22.003s-22.003 9.871-22.003 22.003v9.431h-21.687c-25.192 0-45.687 20.495-45.687 45.686v338.158c0 25.191 20.495 45.686 45.687 45.686h102.582c4.143 0 7.5-3.358 7.5-7.5s-3.357-7.5-7.5-7.5h-102.582c-16.921 0-30.687-13.766-30.687-30.686v-296.613h482.955v202.127c0 4.142 3.357 7.5 7.5 7.5s7.5-3.358 7.5-7.5v-243.672c0-25.191-20.495-45.686-45.686-45.686zm-50.904-9.431c0-3.861 3.142-7.003 7.003-7.003 3.862 0 7.004 3.142 7.004 7.003v33.862c0 3.862-3.142 7.003-7.004 7.003-3.861 0-7.003-3.142-7.003-7.003zm-66.798 0c0-3.861 3.142-7.003 7.003-7.003s7.003 3.142 7.003 7.003v33.862c0 3.862-3.142 7.003-7.003 7.003s-7.003-3.142-7.003-7.003zm-66.798 0c0-3.861 3.142-7.003 7.003-7.003 3.862 0 7.004 3.142 7.004 7.003v33.862c0 3.862-3.142 7.003-7.004 7.003-3.861 0-7.003-3.142-7.003-7.003zm-66.798 0c0-3.861 3.142-7.003 7.003-7.003s7.003 3.142 7.003 7.003v33.862c0 3.862-3.142 7.003-7.003 7.003s-7.003-3.142-7.003-7.003zm-66.799 0c0-3.861 3.142-7.003 7.003-7.003 3.862 0 7.004 3.142 7.004 7.003v33.862c0 3.862-3.142 7.003-7.004 7.003-3.861 0-7.003-3.142-7.003-7.003zm-66.798 0c0-3.861 3.142-7.003 7.003-7.003s7.003 3.142 7.003 7.003v33.862c0 3.862-3.142 7.003-7.003 7.003s-7.003-3.142-7.003-7.003zm415.581 81.662h-482.955v-26.545c0-16.92 13.766-30.687 30.687-30.687h21.688v9.431c0 12.133 9.87 22.003 22.003 22.003s22.003-9.871 22.003-22.003v-9.431h22.792v9.431c0 12.133 9.87 22.003 22.003 22.003s22.004-9.871 22.004-22.003v-9.431h22.792v9.431c0 12.133 9.87 22.003 22.003 22.003s22.003-9.871 22.003-22.003v-9.431h22.792v9.431c0 12.133 9.87 22.003 22.003 22.003s22.004-9.871 22.004-22.003v-9.431h22.792v9.431c0 12.133 9.87 22.003 22.003 22.003s22.003-9.871 22.003-22.003v-9.431h22.792v9.431c0 12.133 9.87 22.003 22.003 22.003s22.004-9.871 22.004-22.003v-9.431h21.896c16.921 0 30.687 13.766 30.687 30.687v26.545z"/><path d="m243.362 232.885c-8.504 0-15.423 6.918-15.423 15.422v19.539c0 8.504 6.919 15.423 15.423 15.423h26.23c8.504 0 15.423-6.918 15.423-15.423v-19.539c0-8.504-6.919-15.422-15.423-15.422zm26.654 15.422v19.539c0 .233-.189.423-.423.423h-26.23c-.233 0-.423-.189-.423-.423v-19.539c0-.233.189-.422.423-.422h26.23c.233 0 .423.189.423.422z"/><path d="m169.015 232.885c-8.504 0-15.423 6.918-15.423 15.422v19.539c0 8.504 6.919 15.423 15.423 15.423h26.23c8.504 0 15.423-6.918 15.423-15.423v-19.539c0-8.504-6.919-15.422-15.423-15.422zm26.653 15.422v19.539c0 .233-.189.423-.423.423h-26.23c-.233 0-.423-.189-.423-.423v-19.539c0-.233.189-.422.423-.422h26.23c.234 0 .423.189.423.422z"/><path d="m136.32 248.307c0-8.504-6.919-15.422-15.423-15.422h-26.23c-8.504 0-15.423 6.918-15.423 15.422v19.539c0 8.504 6.919 15.423 15.423 15.423h26.23c8.504 0 15.423-6.918 15.423-15.423zm-15 19.539c0 .233-.189.423-.423.423h-26.23c-.233 0-.423-.189-.423-.423v-19.539c0-.233.189-.422.423-.422h26.23c.233 0 .423.189.423.422z"/><path d="m317.71 232.885c-8.504 0-15.423 6.918-15.423 15.422v19.539c0 8.504 6.919 15.423 15.423 15.423h26.23c8.504 0 15.423-6.918 15.423-15.423v-19.539c0-8.504-6.919-15.422-15.423-15.422zm26.653 15.422v19.539c0 .233-.189.423-.423.423h-26.23c-.233 0-.423-.189-.423-.423v-19.539c0-.233.189-.422.423-.422h26.23c.234 0 .423.189.423.422z"/><path d="m433.711 248.307c0-8.504-6.919-15.422-15.423-15.422h-26.23c-8.504 0-15.423 6.918-15.423 15.422v19.539c0 8.504 6.919 15.423 15.423 15.423h26.23c8.504 0 15.423-6.918 15.423-15.423zm-15 19.539c0 .233-.189.423-.423.423h-26.23c-.233 0-.423-.189-.423-.423v-19.539c0-.233.189-.422.423-.422h26.23c.233 0 .423.189.423.422z"/><path d="m136.32 316.752c0-8.504-6.919-15.423-15.423-15.423h-26.23c-8.504 0-15.423 6.918-15.423 15.423v19.539c0 8.504 6.919 15.422 15.423 15.422h26.23c8.504 0 15.423-6.918 15.423-15.422zm-15 19.539c0 .233-.189.422-.423.422h-26.23c-.233 0-.423-.189-.423-.422v-19.539c0-.233.189-.423.423-.423h26.23c.233 0 .423.189.423.423z"/><path d="m433.711 316.752c0-8.504-6.919-15.423-15.423-15.423h-26.23c-8.504 0-15.423 6.918-15.423 15.423v19.539c0 8.504 6.919 15.422 15.423 15.422h26.23c8.504 0 15.423-6.918 15.423-15.422zm-15 19.539c0 .233-.189.422-.423.422h-26.23c-.233 0-.423-.189-.423-.422v-19.539c0-.233.189-.423.423-.423h26.23c.233 0 .423.189.423.423z"/><path d="m120.897 369.774h-26.23c-8.504 0-15.423 6.918-15.423 15.422v19.54c0 8.504 6.919 15.422 15.423 15.422h26.23c8.504 0 15.423-6.918 15.423-15.422v-19.54c0-8.504-6.919-15.422-15.423-15.422zm.423 34.962c0 .233-.189.422-.423.422h-26.23c-.233 0-.423-.189-.423-.422v-19.54c0-.233.189-.422.423-.422h26.23c.233 0 .423.189.423.422z"/><path d="m418.288 369.774h-26.23c-8.504 0-15.423 6.918-15.423 15.422v19.54c0 8.504 6.919 15.422 15.423 15.422h26.23c8.504 0 15.423-6.918 15.423-15.422v-19.54c0-8.504-6.919-15.422-15.423-15.422zm.423 34.962c0 .233-.189.422-.423.422h-26.23c-.233 0-.423-.189-.423-.422v-19.54c0-.233.189-.422.423-.422h26.23c.233 0 .423.189.423.422z"/><path d="m255.978 295.58c-17.481 0-34.767 4.452-49.987 12.875-3.624 2.005-4.936 6.569-2.931 10.193 2.006 3.624 6.567 4.937 10.194 2.931 13.002-7.195 27.776-10.999 42.724-10.999 48.736 0 88.386 39.65 88.386 88.386s-39.649 88.385-88.386 88.385-88.386-39.649-88.386-88.385c0-21.828 8.026-42.789 22.601-59.022 2.767-3.082 2.512-7.824-.57-10.591-3.084-2.769-7.824-2.512-10.592.571-17.049 18.99-26.438 43.51-26.438 69.042 0 57.007 46.379 103.385 103.386 103.385s103.386-46.378 103.386-103.385c-.002-57.007-46.381-103.386-103.387-103.386z"/><path d="m255.978 472.351c40.465 0 73.386-32.92 73.386-73.385s-32.921-73.386-73.386-73.386-73.386 32.921-73.386 73.386 32.921 73.385 73.386 73.385zm-46.22-108.998.695.695c1.465 1.464 3.384 2.197 5.304 2.197 1.919 0 3.839-.732 5.303-2.196 2.93-2.929 2.93-7.678.001-10.607l-.696-.696c7.992-6.172 17.619-10.315 28.113-11.668v1.007c0 4.142 3.357 7.5 7.5 7.5s7.5-3.358 7.5-7.5v-1.007c10.494 1.353 20.121 5.496 28.113 11.668l-.696.696c-2.929 2.929-2.929 7.678.001 10.607 1.464 1.464 3.384 2.196 5.303 2.196s3.839-.732 5.304-2.197l.695-.695c6.172 7.992 10.315 17.619 11.668 28.113h-1.007c-4.143 0-7.5 3.358-7.5 7.5s3.357 7.5 7.5 7.5h1.007c-1.353 10.494-5.495 20.12-11.668 28.112l-.695-.695c-2.929-2.928-7.678-2.929-10.606 0-2.93 2.929-2.93 7.678-.001 10.607l.696.696c-7.992 6.172-17.619 10.315-28.113 11.668v-1.007c0-4.142-3.357-7.5-7.5-7.5s-7.5 3.358-7.5 7.5v1.007c-10.494-1.353-20.121-5.496-28.113-11.668l.696-.696c2.929-2.929 2.929-7.678-.001-10.607-2.928-2.929-7.677-2.928-10.606 0l-.695.695c-6.172-7.992-10.315-17.618-11.668-28.112h1.007c4.143 0 7.5-3.358 7.5-7.5s-3.357-7.5-7.5-7.5h-1.007c1.351-10.494 5.493-20.121 11.666-28.113z"/><path d="m255.978 421.352c3.437 0 6.695-.781 9.608-2.171l7.469 7.469c1.465 1.464 3.385 2.197 5.304 2.197s3.839-.732 5.304-2.197c2.929-2.929 2.929-7.678 0-10.606l-7.469-7.469c1.39-2.913 2.171-6.171 2.171-9.608 0-9.714-6.22-17.999-14.886-21.089v-9.949c0-4.142-3.357-7.5-7.5-7.5s-7.5 3.358-7.5 7.5v9.949c-8.665 3.091-14.886 11.375-14.886 21.089-.001 12.343 10.041 22.385 22.385 22.385zm0-29.772c4.072 0 7.386 3.313 7.386 7.386s-3.313 7.386-7.386 7.386-7.386-3.313-7.386-7.386 3.313-7.386 7.386-7.386z"/><path d="m462.776 192.677v-26.702c0-10.561-8.592-19.152-19.152-19.152h-26.96c-4.143 0-7.5 3.358-7.5 7.5s3.357 7.5 7.5 7.5h26.96c2.29 0 4.152 1.862 4.152 4.152v26.702c0 2.289-1.862 4.151-4.152 4.151h-374.293c-2.29 0-4.152-1.862-4.152-4.151v-26.702c0-2.29 1.862-4.152 4.152-4.152h315.371c4.143 0 7.5-3.358 7.5-7.5s-3.357-7.5-7.5-7.5h-315.371c-10.561 0-19.152 8.591-19.152 19.152v26.702c0 10.56 8.592 19.151 19.152 19.151h374.293c10.561 0 19.152-8.591 19.152-19.151z"/></g></g></svg>