<svg id="Capa_1" enable-background="new 0 0 511.833 511.833" height="512" viewBox="0 0 511.833 511.833" width="512" xmlns="http://www.w3.org/2000/svg"><g><g><path d="m380.066 7.498h-150.029l-31.452 28.823 86.72 59.939h84.016l38.485-76.01z" fill="#b3adb5"/><path d="m455.677 38.068v435.7c0 16.88-13.69 30.57-30.57 30.57h-232.23c-21.23 0-38.45-17.22-38.45-38.45v-427.82c0-16.88 13.69-30.57 30.57-30.57h45.04l8.74 25.17c2.55 7.33 9.47 12.25 17.24 12.25h98.07c7.77 0 14.69-4.92 17.24-12.25l8.74-25.17h45.04c16.88-.001 30.57 13.69 30.57 30.57z" fill="#cfeffc"/><g><path d="m256.466 320.138h-16.625c-17.664 0-31.984-14.32-31.984-31.984v-280.656h-22.86c-16.883 0-30.57 13.687-30.57 30.57v427.82c0 21.235 17.215 38.45 38.45 38.45h57.732 38.625c2.615-5.059 4.103-10.792 4.103-16.87v-130.46c-.001-20.363-16.508-36.87-36.871-36.87z" fill="#a9e4f9"/><path d="m256.467 340.137h-183.441c-9.31 0-16.87 7.55-16.87 16.87v23.43l27.539 33.928h169.798l19.843-33.928v-23.43c0-9.319-7.549-16.87-16.869-16.87z" fill="#ee878a"/><g><path d="m148.25 340.137v12.451c0 9.098 7.402 16.5 16.5 16.5s16.5-7.402 16.5-16.5v-12.451z" fill="#ec6e73"/></g><g><path d="m113.363 340.137v12.451c0 9.098 7.402 16.5 16.5 16.5s16.5-7.402 16.5-16.5v-12.451z" fill="#ec6e73"/></g><path d="m73.026 340.137c-9.31 0-16.87 7.55-16.87 16.87v23.43l27.389 33.743v-43.233c0-2.489 2.549-4.251 4.827-3.247 2.11.93 4.451 1.43 6.912 1.384 9.063-.167 16.192-7.862 16.192-16.927v-12.022h-38.45z" fill="#ec6e73"/><g><path d="m183.135 340.137v12.451c0 9.098 7.402 16.5 16.5 16.5s16.5-7.402 16.5-16.5v-12.451z" fill="#ec6e73"/></g><g><path d="m218.022 340.137v12.451c0 9.098 7.402 16.5 16.5 16.5s16.5-7.402 16.5-16.5v-12.451z" fill="#ec6e73"/></g><g id="XMLID_221_"><g><path d="m273.337 380.438v107.03c0 9.31-7.55 16.87-16.87 16.87h-183.44c-9.31 0-16.87-7.56-16.87-16.87v-107.03z" fill="#f9f7f7"/></g></g><path d="m100.415 484.487c-9.31 0-16.87-7.56-16.87-16.87v-87.179h-27.389v107.03c0 9.31 7.56 16.87 16.87 16.87h183.44c9.32 0 16.87-7.56 16.87-16.87v-2.981z" fill="#f2eae7"/><path d="m335.084 273.933c0 16.586-13.446 30.032-30.032 30.032-16.586 0-30.032-13.446-30.032-30.032v-52.438h58.304z" fill="#fbe88c"/><path d="m335.084 273.934-1.76-52.438h-58.304v52.438c0 1.997.199 3.947.571 5.835h58.921c.373-1.888.572-3.838.572-5.835z" fill="#fbe372"/><path d="m226.331 248.404 8.991-12.096 4.556-58.528c2.649-34.033 31.038-60.298 65.174-60.298 34.136 0 62.525 26.265 65.174 60.298l4.556 58.528 8.991 12.096c5.027 6.763.2 16.365-8.227 16.365h-140.988c-8.426 0-13.254-9.602-8.227-16.365z" fill="#fbe88c"/><path d="m254.324 259.232 8.99-12.096 4.556-58.528c2.649-34.033 31.038-60.298 65.174-60.298 3.034 0 6.03.21 8.959.613-10.54-7.231-23.287-11.442-36.952-11.442-34.136 0-62.525 26.265-65.174 60.298l-4.556 58.528-8.99 12.096c-5.027 6.763-.2 16.365 8.227 16.365h17.742c.101-1.892.738-3.806 2.024-5.536z" fill="#fbe372"/></g></g><g><path d="m455.673 367.655c-4.143 0-7.5 3.358-7.5 7.5v98.609c0 12.72-10.349 23.068-23.068 23.068h-124.92c-4.143 0-7.5 3.358-7.5 7.5s3.357 7.5 7.5 7.5h124.92c20.991 0 38.068-17.078 38.068-38.068v-98.609c0-4.142-3.357-7.5-7.5-7.5z"/><path d="m425.105 0h-240.106c-20.991 0-38.068 17.077-38.068 38.068v265.664c0 4.142 3.357 7.5 7.5 7.5s7.5-3.358 7.5-7.5v-265.664c0-12.72 10.349-23.068 23.068-23.068h39.706l6.992 20.125c3.595 10.346 13.369 17.297 24.321 17.297h98.069c10.952 0 20.727-6.951 24.321-17.297l6.991-20.125h39.706c12.72 0 23.068 10.349 23.068 23.068v304.927c0 4.142 3.357 7.5 7.5 7.5s7.5-3.358 7.5-7.5v-304.927c0-20.991-17.077-38.068-38.068-38.068zm-60.867 30.202c-1.5 4.319-5.58 7.22-10.151 7.22h-98.069c-4.571 0-8.651-2.901-10.151-7.22l-5.283-15.202h128.935z"/><path d="m256.468 332.635h-14.446v-2.42c0-4.142-3.357-7.5-7.5-7.5s-7.5 3.358-7.5 7.5v2.42h-19.887v-2.42c0-4.142-3.357-7.5-7.5-7.5s-7.5 3.358-7.5 7.5v2.42h-19.885v-2.42c0-4.142-3.357-7.5-7.5-7.5s-7.5 3.358-7.5 7.5v2.42h-19.887v-2.42c0-4.142-3.357-7.5-7.5-7.5s-7.5 3.358-7.5 7.5v2.42h-19.886v-2.42c0-4.142-3.357-7.5-7.5-7.5s-7.5 3.358-7.5 7.5v2.42h-14.447c-13.438 0-24.37 10.933-24.37 24.371v130.458c0 13.438 10.933 24.37 24.37 24.37h183.438c13.438 0 24.37-10.933 24.37-24.37v-25.348c0-4.142-3.357-7.5-7.5-7.5s-7.5 3.358-7.5 7.5v25.348c0 5.167-4.203 9.37-9.37 9.37h-183.438c-5.167 0-9.37-4.204-9.37-9.37v-99.522h202.179v42.015c0 4.142 3.357 7.5 7.5 7.5s7.5-3.358 7.5-7.5v-72.951c-.001-13.439-10.933-24.371-24.371-24.371zm-192.808 40.306v-15.936c0-5.167 4.203-9.371 9.37-9.371h14.447v4.954c0 4.142 3.357 7.5 7.5 7.5s7.5-3.358 7.5-7.5v-4.954h19.886v4.954c0 4.142 3.357 7.5 7.5 7.5s7.5-3.358 7.5-7.5v-4.954h19.887v4.954c0 4.142 3.357 7.5 7.5 7.5s7.5-3.358 7.5-7.5v-4.954h19.886v4.954c0 4.142 3.357 7.5 7.5 7.5s7.5-3.358 7.5-7.5v-4.954h19.887v4.954c0 4.142 3.357 7.5 7.5 7.5s7.5-3.358 7.5-7.5v-4.954h14.446c5.167 0 9.37 4.204 9.37 9.371v15.936z"/><path d="m104.137 404.636h-4.887c-4.143 0-7.5 3.358-7.5 7.5s3.357 7.5 7.5 7.5h4.887c4.143 0 7.5-3.358 7.5-7.5s-3.357-7.5-7.5-7.5z"/><path d="m146.174 404.636h-4.888c-4.143 0-7.5 3.358-7.5 7.5s3.357 7.5 7.5 7.5h4.888c4.143 0 7.5-3.358 7.5-7.5s-3.357-7.5-7.5-7.5z"/><path d="m188.211 404.636h-4.888c-4.143 0-7.5 3.358-7.5 7.5s3.357 7.5 7.5 7.5h4.888c4.143 0 7.5-3.358 7.5-7.5s-3.357-7.5-7.5-7.5z"/><path d="m230.249 404.636h-4.888c-4.143 0-7.5 3.358-7.5 7.5s3.357 7.5 7.5 7.5h4.888c4.143 0 7.5-3.358 7.5-7.5s-3.358-7.5-7.5-7.5z"/><path d="m104.137 433.111h-4.887c-4.143 0-7.5 3.358-7.5 7.5s3.357 7.5 7.5 7.5h4.887c4.143 0 7.5-3.358 7.5-7.5s-3.357-7.5-7.5-7.5z"/><path d="m146.174 433.111h-4.888c-4.143 0-7.5 3.358-7.5 7.5s3.357 7.5 7.5 7.5h4.888c4.143 0 7.5-3.358 7.5-7.5s-3.357-7.5-7.5-7.5z"/><path d="m188.211 433.111h-4.888c-4.143 0-7.5 3.358-7.5 7.5s3.357 7.5 7.5 7.5h4.888c4.143 0 7.5-3.358 7.5-7.5s-3.357-7.5-7.5-7.5z"/><path d="m230.249 433.111h-4.888c-4.143 0-7.5 3.358-7.5 7.5s3.357 7.5 7.5 7.5h4.888c4.143 0 7.5-3.358 7.5-7.5s-3.358-7.5-7.5-7.5z"/><path d="m104.137 461.586h-4.887c-4.143 0-7.5 3.358-7.5 7.5s3.357 7.5 7.5 7.5h4.887c4.143 0 7.5-3.358 7.5-7.5s-3.357-7.5-7.5-7.5z"/><path d="m146.174 461.586h-4.888c-4.143 0-7.5 3.358-7.5 7.5s3.357 7.5 7.5 7.5h4.888c4.143 0 7.5-3.358 7.5-7.5s-3.357-7.5-7.5-7.5z"/><path d="m188.211 461.586h-4.888c-4.143 0-7.5 3.358-7.5 7.5s3.357 7.5 7.5 7.5h4.888c4.143 0 7.5-3.358 7.5-7.5s-3.357-7.5-7.5-7.5z"/><path d="m230.249 461.586h-4.888c-4.143 0-7.5 3.358-7.5 7.5s3.357 7.5 7.5 7.5h4.888c4.143 0 7.5-3.358 7.5-7.5s-3.358-7.5-7.5-7.5z"/><path d="m241.341 240.782c.843-1.134 1.349-2.483 1.458-3.892l4.556-58.526c.173-2.221.501-4.549.975-6.919.812-4.062-1.823-8.013-5.885-8.824-4.062-.812-8.012 1.823-8.824 5.885-.591 2.954-1.001 5.878-1.221 8.693l-4.388 56.372-7.7 10.36c-4.027 5.417-4.646 12.53-1.613 18.562 3.031 6.032 9.108 9.778 15.859 9.778h32.962v1.665c0 20.695 16.837 37.532 37.532 37.532 20.694 0 37.531-16.837 37.531-37.532v-1.665h32.962c6.75 0 12.827-3.747 15.859-9.778s2.414-13.144-1.612-18.562l-7.701-10.36-4.388-56.372c-1.429-18.348-9.655-35.336-23.164-47.834s-31.084-19.381-49.488-19.381c-21.647 0-42.037 9.543-55.94 26.184-2.655 3.178-2.231 7.908.947 10.564 3.18 2.655 7.909 2.232 10.564-.947 11.045-13.219 27.238-20.801 44.43-20.801 30.022 0 55.366 23.447 57.696 53.38l4.556 58.528c.109 1.409.615 2.758 1.458 3.892l8.991 12.095c.88 1.185.534 2.311.25 2.877-.285.566-.982 1.515-2.458 1.515h-140.987c-1.476 0-2.173-.949-2.458-1.515-.284-.566-.63-1.692.251-2.876zm86.242 33.152c0 12.424-10.107 22.532-22.531 22.532-12.425 0-22.532-10.108-22.532-22.532v-1.665h45.063z"/><path d="m422.971 131.192c4.143 0 7.5-3.358 7.5-7.5v-2.094c0-29.583-24.067-53.651-53.65-53.651-4.143 0-7.5 3.358-7.5 7.5s3.357 7.5 7.5 7.5c21.312 0 38.65 17.339 38.65 38.651v2.094c0 4.142 3.358 7.5 7.5 7.5z"/><path d="m376.821 112.947c4.77 0 8.65 3.881 8.65 8.651v2.094c0 4.142 3.357 7.5 7.5 7.5s7.5-3.358 7.5-7.5v-2.094c0-13.041-10.609-23.651-23.65-23.651-4.143 0-7.5 3.358-7.5 7.5s3.357 7.5 7.5 7.5z"/><path d="m233.283 67.947c-29.583 0-53.65 24.068-53.65 53.651v2.094c0 4.142 3.357 7.5 7.5 7.5s7.5-3.358 7.5-7.5v-2.094c0-21.312 17.339-38.651 38.65-38.651 4.143 0 7.5-3.358 7.5-7.5s-3.358-7.5-7.5-7.5z"/><path d="m233.284 97.947c-13.041 0-23.651 10.61-23.651 23.651v2.094c0 4.142 3.357 7.5 7.5 7.5s7.5-3.358 7.5-7.5v-2.094c0-4.77 3.881-8.651 8.651-8.651 4.143 0 7.5-3.358 7.5-7.5s-3.358-7.5-7.5-7.5z"/></g></g></svg>