<svg id="Capa_1" enable-background="new 0 0 508.944 508.944" height="512" viewBox="0 0 508.944 508.944" width="512" xmlns="http://www.w3.org/2000/svg"><g><g><g><g id="XMLID_222_"><g><path d="m446.03 7.496h-358.46c-2.36 0-4.27 1.92-4.27 4.27v452.3l44.492 37.38h285.108.02c20.71-.01 37.38-17.32 37.38-38.12v-367.44-84.12c0-2.35-1.91-4.27-4.27-4.27z" fill="#f9f7f7"/></g></g><path d="m423.955 477.852c-8.643 3.191-18.513 1.109-24.776-5.648-2.02-2.179-3.479-4.624-3.615-7.199-.592-11.751-10.257-20.94-22.054-20.94h-194.434c-22.568 0-40.863-18.295-40.863-40.863v-395.706h-50.643c-2.358 0-4.27 1.912-4.27 4.27v452.3l44.492 37.38h283.203 1.905.02c20.71-.01 37.38-17.32 37.38-38.12v-2.219c-3.848 7.283-16.763 13.207-26.345 16.745z" fill="#f2eae7"/><path d="m408.544 108.322h-283.483c-4.357 0-7.89-3.532-7.89-7.89v-34.632c0-4.357 3.532-7.89 7.89-7.89h283.483c4.357 0 7.89 3.532 7.89 7.89v34.632c0 4.357-3.533 7.89-7.89 7.89z" fill="#9de5d1"/><path d="m138.213 57.911h-13.152c-4.357 0-7.89 3.532-7.89 7.89v34.632c0 4.357 3.532 7.89 7.89 7.89h13.152z" fill="#82dec5"/><path d="m271.688 299.945 131.355-66.006c6.358-3.195 6.358-12.272 0-15.467l-131.355-66.006c-2.445-1.229-5.327-1.229-7.772 0l-131.355 66.006c-6.358 3.195-6.358 12.272 0 15.467l131.355 66.006c2.445 1.229 5.327 1.229 7.772 0z" fill="#ee878a"/><path d="m340.122 403.79h-176.021c-1.305 0-2.093-1.444-1.386-2.541l30.875-47.908c.303-.471.825-.755 1.386-.755h176.021c1.305 0 2.093 1.444 1.386 2.541l-30.875 47.908c-.304.47-.826.755-1.386.755z" fill="#9de5d1"/></g><path d="m412.9 501.446h-316.98c-19.66 0-35.77-15.17-37.27-34.45-.12-1.59 1.17-2.93 2.76-2.93h21.89 290.21c1.11 0 2.03.86 2.08 1.96 1.01 19.49 16.95 35.04 36.6 35.41.24 0 .47.01.71.01z" fill="#f9f7f7"/></g><g><path d="m446.032 0h-358.46c-6.49 0-11.77 5.279-11.77 11.77v444.794h-14.389c-2.858 0-5.612 1.203-7.553 3.302-1.927 2.083-2.907 4.895-2.688 7.714 1.801 23.195 21.455 41.365 44.744 41.365h317.006c.043 0 .086 0 .129-.001 11.607-.036 22.575-4.562 30.981-12.808 8.75-8.585 13.77-20.544 13.77-32.811v-451.555c0-6.491-5.279-11.77-11.77-11.77zm-350.116 493.944c-13.734 0-25.569-9.486-28.927-22.381h301.681c1.442 8.511 5.299 16.211 10.826 22.381zm346.886-30.619c0 8.265-3.38 16.32-9.274 22.103-5.749 5.64-13.274 8.682-21.191 8.51-15.598-.298-28.448-12.728-29.254-28.296-.263-5.091-4.467-9.078-9.569-9.078h-282.712v-441.564h352z"/><path d="m125.061 115.821h36.804c4.142 0 7.5-3.357 7.5-7.5s-3.358-7.5-7.5-7.5h-36.804c-.215 0-.39-.175-.39-.389v-34.631c0-.215.175-.39.39-.39h283.483c.215 0 .39.175.39.39v34.632c0 .214-.175.389-.39.389h-214.717c-4.142 0-7.5 3.357-7.5 7.5s3.358 7.5 7.5 7.5h66.052v30.281l-130.686 65.669c-5.491 2.759-8.902 8.289-8.902 14.435 0 6.145 3.41 11.677 8.901 14.436l130.688 65.667v38.775h-64.903c-3.121 0-5.995 1.566-7.69 4.193l-30.875 47.906c-1.815 2.816-1.947 6.394-.343 9.336 1.604 2.941 4.682 4.77 8.032 4.77h42.096c4.142 0 7.5-3.357 7.5-7.5s-3.358-7.5-7.5-7.5h-31.363l23.333-36.205h162.097l-23.333 36.205h-98.417c-4.142 0-7.5 3.357-7.5 7.5s3.358 7.5 7.5 7.5h101.607c3.124 0 5.999-1.568 7.689-4.193l30.875-47.907c1.815-2.815 1.947-6.393.343-9.335-1.604-2.941-4.682-4.77-8.033-4.77h-96.115v-38.364c.058-.028.118-.047.176-.076l46.749-23.49c3.701-1.859 5.194-6.367 3.334-10.068-1.86-3.702-6.37-5.194-10.069-3.334l-46.751 23.491c-.324.163-.71.162-1.035-.001l-131.355-66.005c-.157-.079-.637-.32-.636-1.032 0-.712.478-.952.636-1.032l131.355-66.005c.325-.164.713-.163 1.037-.001l131.356 66.007c.157.079.635.319.635 1.031s-.479.953-.636 1.032l-54.522 27.397c-3.701 1.859-5.194 6.367-3.334 10.068s6.366 5.194 10.069 3.334l54.522-27.397c5.491-2.759 8.901-8.291 8.901-14.436 0-6.146-3.411-11.676-8.901-14.434l-131.355-66.006c-.057-.029-.119-.048-.176-.076v-29.868h133.665c8.486 0 15.39-6.903 15.39-15.389v-34.63c0-8.486-6.904-15.39-15.39-15.39h-283.484c-8.486 0-15.39 6.903-15.39 15.39v34.632c0 8.485 6.904 15.388 15.39 15.388z"/></g></g></svg>