<svg id="Capa_1" enable-background="new 0 0 512.955 512.955" height="512" viewBox="0 0 512.955 512.955" width="512" xmlns="http://www.w3.org/2000/svg"><g><g><path d="m467.268 64.925h-421.58c-21.09 0-38.19 17.1-38.19 38.19v34.05l33.777 49.689h438.758l25.425-49.689v-34.05c0-21.09-17.1-38.19-38.19-38.19z" fill="#ee878a"/><g><path d="m52.56 64.925h-6.873c-21.09 0-38.19 17.1-38.19 38.19v34.05l33.777 49.689h11.286z" fill="#ec6e73"/><g id="XMLID_223_"><g><path d="m505.458 137.165v304.11c0 21.09-17.1 38.19-38.19 38.19h-421.58c-21.09 0-38.19-17.1-38.19-38.19v-304.11z" fill="#f9f7f7"/></g></g><path d="m89.377 111.364c16.268 0 29.503-13.235 29.503-29.503v-16.936h-59.006v16.936c0 16.267 13.235 29.503 29.503 29.503z" fill="#ec6e73"/><path d="m89.377 96.364c-8.01 0-14.503-6.493-14.503-14.503v-33.862c0-8.01 6.493-14.503 14.503-14.503 8.01 0 14.503 6.493 14.503 14.503v33.862c0 8.01-6.493 14.503-14.503 14.503z" fill="#f2eae7"/><path d="m156.175 111.364c16.268 0 29.503-13.235 29.503-29.503v-16.936h-59.007v16.936c.001 16.267 13.236 29.503 29.504 29.503z" fill="#ec6e73"/><path d="m156.175 96.364c-8.01 0-14.503-6.493-14.503-14.503v-33.862c0-8.01 6.493-14.503 14.503-14.503 8.01 0 14.503 6.493 14.503 14.503v33.862c0 8.01-6.493 14.503-14.503 14.503z" fill="#f2eae7"/><path d="m222.974 111.364c16.268 0 29.503-13.235 29.503-29.503v-16.936h-59.007v16.936c0 16.267 13.236 29.503 29.504 29.503z" fill="#ec6e73"/><path d="m222.974 96.364c-8.01 0-14.503-6.493-14.503-14.503v-33.862c0-8.01 6.493-14.503 14.503-14.503 8.01 0 14.503 6.493 14.503 14.503v33.862c0 8.01-6.493 14.503-14.503 14.503z" fill="#f2eae7"/><path d="m289.771 111.364c16.269 0 29.504-13.235 29.504-29.503v-16.936h-59.007v16.936c.001 16.267 13.236 29.503 29.503 29.503z" fill="#ec6e73"/><path d="m289.772 96.364c-8.01 0-14.503-6.493-14.503-14.503v-33.862c0-8.01 6.493-14.503 14.503-14.503 8.01 0 14.503 6.493 14.503 14.503v33.862c0 8.01-6.493 14.503-14.503 14.503z" fill="#f2eae7"/><path d="m356.57 111.364c16.268 0 29.503-13.235 29.503-29.503v-16.936h-59.006v16.936c0 16.267 13.236 29.503 29.503 29.503z" fill="#ec6e73"/><path d="m356.57 96.364c-8.01 0-14.503-6.493-14.503-14.503v-33.862c0-8.01 6.493-14.503 14.503-14.503 8.01 0 14.503 6.493 14.503 14.503v33.862c.001 8.01-6.493 14.503-14.503 14.503z" fill="#f2eae7"/><path d="m423.368 111.364c16.269 0 29.504-13.235 29.504-29.503v-16.936h-59.007v16.936c0 16.267 13.236 29.503 29.503 29.503z" fill="#ec6e73"/><path d="m423.369 96.364c-8.01 0-14.503-6.493-14.503-14.503v-33.862c0-8.01 6.493-14.503 14.503-14.503 8.01 0 14.503 6.493 14.503 14.503v33.862c0 8.01-6.493 14.503-14.503 14.503z" fill="#f2eae7"/><path d="m443.624 219.72h-374.293c-6.435 0-11.652-5.217-11.652-11.652v-26.702c0-6.435 5.217-11.652 11.652-11.652h374.293c6.435 0 11.652 5.217 11.652 11.652v26.702c0 6.436-5.217 11.652-11.652 11.652z" fill="#a9e4f9"/><g fill="#ded4cf"><path d="m269.593 291.161h-26.231c-4.376 0-7.923-3.547-7.923-7.923v-19.539c0-4.376 3.547-7.923 7.923-7.923h26.231c4.375 0 7.923 3.547 7.923 7.923v19.539c0 4.375-3.548 7.923-7.923 7.923z"/><path d="m195.245 291.161h-26.231c-4.376 0-7.923-3.547-7.923-7.923v-19.539c0-4.376 3.547-7.923 7.923-7.923h26.231c4.375 0 7.923 3.547 7.923 7.923v19.539c0 4.375-3.547 7.923-7.923 7.923z"/><path d="m120.898 291.161h-26.231c-4.376 0-7.923-3.547-7.923-7.923v-19.539c0-4.376 3.547-7.923 7.923-7.923h26.231c4.376 0 7.923 3.547 7.923 7.923v19.539c-.001 4.375-3.548 7.923-7.923 7.923z"/><path d="m317.71 291.161h26.231c4.375 0 7.923-3.547 7.923-7.923v-19.539c0-4.376-3.547-7.923-7.923-7.923h-26.231c-4.376 0-7.923 3.547-7.923 7.923v19.539c0 4.375 3.547 7.923 7.923 7.923z"/><path d="m392.057 291.161h26.231c4.376 0 7.923-3.547 7.923-7.923v-19.539c0-4.376-3.547-7.923-7.923-7.923h-26.231c-4.375 0-7.923 3.547-7.923 7.923v19.539c.001 4.375 3.548 7.923 7.923 7.923z"/><path d="m269.593 359.605h-26.231c-4.376 0-7.923-3.547-7.923-7.923v-19.539c0-4.375 3.547-7.923 7.923-7.923h26.231c4.375 0 7.923 3.547 7.923 7.923v19.539c0 4.376-3.548 7.923-7.923 7.923z"/><path d="m195.245 359.605h-26.231c-4.376 0-7.923-3.547-7.923-7.923v-19.539c0-4.375 3.547-7.923 7.923-7.923h26.231c4.375 0 7.923 3.547 7.923 7.923v19.539c0 4.376-3.547 7.923-7.923 7.923z"/><path d="m120.898 359.605h-26.231c-4.376 0-7.923-3.547-7.923-7.923v-19.539c0-4.375 3.547-7.923 7.923-7.923h26.231c4.376 0 7.923 3.547 7.923 7.923v19.539c-.001 4.376-3.548 7.923-7.923 7.923z"/><path d="m317.71 359.605h26.231c4.375 0 7.923-3.547 7.923-7.923v-19.539c0-4.375-3.547-7.923-7.923-7.923h-26.231c-4.376 0-7.923 3.547-7.923 7.923v19.539c0 4.376 3.547 7.923 7.923 7.923z"/><path d="m392.057 359.605h26.231c4.376 0 7.923-3.547 7.923-7.923v-19.539c0-4.375-3.547-7.923-7.923-7.923h-26.231c-4.375 0-7.923 3.547-7.923 7.923v19.539c.001 4.376 3.548 7.923 7.923 7.923z"/><path d="m269.593 428.05h-26.231c-4.376 0-7.923-3.547-7.923-7.923v-19.539c0-4.376 3.547-7.923 7.923-7.923h26.231c4.375 0 7.923 3.547 7.923 7.923v19.539c0 4.376-3.548 7.923-7.923 7.923z"/><path d="m195.245 428.05h-26.231c-4.376 0-7.923-3.547-7.923-7.923v-19.539c0-4.376 3.547-7.923 7.923-7.923h26.231c4.375 0 7.923 3.547 7.923 7.923v19.539c0 4.376-3.547 7.923-7.923 7.923z"/><path d="m120.898 428.05h-26.231c-4.376 0-7.923-3.547-7.923-7.923v-19.539c0-4.376 3.547-7.923 7.923-7.923h26.231c4.376 0 7.923 3.547 7.923 7.923v19.539c-.001 4.376-3.548 7.923-7.923 7.923z"/><path d="m317.71 428.05h26.231c4.375 0 7.923-3.547 7.923-7.923v-19.539c0-4.376-3.547-7.923-7.923-7.923h-26.231c-4.376 0-7.923 3.547-7.923 7.923v19.539c0 4.376 3.547 7.923 7.923 7.923z"/><path d="m392.057 428.05h26.231c4.376 0 7.923-3.547 7.923-7.923v-19.539c0-4.376-3.547-7.923-7.923-7.923h-26.231c-4.375 0-7.923 3.547-7.923 7.923v19.539c.001 4.376 3.548 7.923 7.923 7.923z"/></g></g><path d="m109.888 440.495c-31.661 0-57.328-25.667-57.328-57.328v-246.002h-45.062v304.11c0 21.092 17.098 38.19 38.19 38.19h421.58c21.092 0 38.19-17.098 38.19-38.19v-.78z" fill="#f2eae7"/></g><g><path d="m505.455 270.15c-4.143 0-7.5 3.357-7.5 7.5v163.624c0 16.92-13.766 30.686-30.687 30.686h-94.562c-4.143 0-7.5 3.357-7.5 7.5s3.357 7.5 7.5 7.5h94.562c25.191 0 45.687-20.494 45.687-45.686v-163.624c0-4.143-3.357-7.5-7.5-7.5z"/><path d="m467.269 57.43h-21.896v-9.432c0-12.133-9.871-22.003-22.004-22.003s-22.003 9.87-22.003 22.003v9.432h-22.792v-9.432c0-12.133-9.87-22.003-22.003-22.003s-22.003 9.87-22.003 22.003v9.432h-22.792v-9.432c0-12.133-9.871-22.003-22.004-22.003s-22.003 9.87-22.003 22.003v9.432h-22.792v-9.432c0-12.133-9.871-22.003-22.003-22.003s-22.003 9.87-22.003 22.003v9.432h-22.792v-9.432c0-12.133-9.871-22.003-22.003-22.003s-22.003 9.87-22.003 22.003v9.432h-22.793v-9.432c0-12.133-9.871-22.003-22.003-22.003s-22.003 9.87-22.003 22.003v9.432h-21.687c-25.192 0-45.687 20.494-45.687 45.686v338.158c0 25.191 20.495 45.686 45.687 45.686h295.023c4.143 0 7.5-3.357 7.5-7.5s-3.357-7.5-7.5-7.5h-295.023c-16.92 0-30.687-13.766-30.687-30.686v-296.612h482.955v100.67c0 4.143 3.357 7.5 7.5 7.5s7.5-3.357 7.5-7.5v-142.216c0-25.192-20.495-45.686-45.686-45.686zm-50.904-9.431c0-3.861 3.142-7.003 7.003-7.003 3.862 0 7.004 3.142 7.004 7.003v33.862c0 3.861-3.142 7.003-7.004 7.003-3.861 0-7.003-3.142-7.003-7.003zm-66.798 0c0-3.861 3.142-7.003 7.003-7.003s7.003 3.142 7.003 7.003v33.862c0 3.861-3.142 7.003-7.003 7.003s-7.003-3.142-7.003-7.003zm-66.798 0c0-3.861 3.142-7.003 7.003-7.003 3.862 0 7.004 3.142 7.004 7.003v33.862c0 3.861-3.142 7.003-7.004 7.003-3.861 0-7.003-3.142-7.003-7.003zm-66.799 0c0-3.861 3.142-7.003 7.003-7.003s7.003 3.142 7.003 7.003v16.921.01s0 .006 0 .01v16.921c0 3.861-3.142 7.003-7.003 7.003s-7.003-3.142-7.003-7.003zm-66.798 0c0-3.861 3.142-7.003 7.003-7.003s7.003 3.142 7.003 7.003v33.862c0 3.861-3.142 7.003-7.003 7.003s-7.003-3.142-7.003-7.003zm-66.798 0c0-3.861 3.142-7.003 7.003-7.003s7.003 3.142 7.003 7.003v16.921.01s0 .006 0 .01v16.921c0 3.861-3.142 7.003-7.003 7.003s-7.003-3.142-7.003-7.003zm-67.374 81.663v-26.546c0-16.92 13.766-30.686 30.687-30.686h21.687v9.431c0 12.133 9.871 22.003 22.003 22.003s22.003-9.87 22.003-22.003v-9.431h22.792v9.431c0 12.133 9.871 22.003 22.003 22.003s22.003-9.87 22.003-22.003v-9.431h22.792v9.431c0 12.133 9.871 22.003 22.003 22.003s22.003-9.87 22.003-22.003v-9.431h22.792v9.431c0 12.133 9.87 22.003 22.003 22.003s22.004-9.87 22.004-22.003v-9.431h22.792v9.431c0 12.133 9.87 22.003 22.003 22.003s22.003-9.87 22.003-22.003v-9.431h22.792v9.431c0 12.133 9.87 22.003 22.003 22.003s22.004-9.87 22.004-22.003v-9.431h21.896c16.921 0 30.687 13.766 30.687 30.686v26.546z"/><path d="m462.776 208.069v-26.702c0-10.561-8.592-19.151-19.152-19.151h-291.475c-4.142 0-7.5 3.357-7.5 7.5s3.358 7.5 7.5 7.5h291.475c2.29 0 4.152 1.862 4.152 4.151v26.702c0 2.289-1.862 4.151-4.152 4.151h-374.293c-2.29 0-4.152-1.862-4.152-4.151v-26.702c0-2.289 1.862-4.151 4.152-4.151h50.821c4.142 0 7.5-3.357 7.5-7.5s-3.358-7.5-7.5-7.5h-50.821c-10.561 0-19.152 8.591-19.152 19.151v26.702c0 10.561 8.591 19.151 19.152 19.151h374.293c10.561 0 19.152-8.591 19.152-19.151z"/><path d="m285.016 263.699c0-8.504-6.919-15.423-15.423-15.423h-26.23c-8.504 0-15.423 6.919-15.423 15.423v19.539c0 8.504 6.918 15.423 15.423 15.423h26.23c8.504 0 15.423-6.919 15.423-15.423zm-15 19.539c0 .233-.189.423-.423.423h-26.23c-.233 0-.423-.189-.423-.423v-19.539c0-.233.189-.423.423-.423h26.23c.233 0 .423.189.423.423z"/><path d="m210.668 263.699c0-8.504-6.918-15.423-15.422-15.423h-26.231c-8.504 0-15.423 6.919-15.423 15.423v19.539c0 8.504 6.918 15.423 15.423 15.423h26.231c8.504 0 15.422-6.919 15.422-15.423zm-15 19.539c0 .233-.189.423-.422.423h-26.231c-.233 0-.423-.189-.423-.423v-19.539c0-.233.189-.423.423-.423h26.231c.233 0 .422.189.422.423z"/><path d="m136.32 263.699c0-8.504-6.918-15.423-15.422-15.423h-26.231c-8.504 0-15.422 6.919-15.422 15.423v19.539c0 8.504 6.918 15.423 15.422 15.423h26.231c8.504 0 15.422-6.919 15.422-15.423zm-15 19.539c0 .233-.189.423-.422.423h-26.231c-.233 0-.422-.189-.422-.423v-19.539c0-.233.189-.423.422-.423h26.231c.233 0 .422.189.422.423z"/><path d="m343.94 248.276h-26.23c-8.504 0-15.423 6.919-15.423 15.423v19.539c0 8.504 6.919 15.423 15.423 15.423h26.23c8.504 0 15.423-6.919 15.423-15.423v-19.539c0-8.504-6.919-15.423-15.423-15.423zm.423 34.962c0 .233-.189.423-.423.423h-26.23c-.233 0-.423-.189-.423-.423v-19.539c0-.233.189-.423.423-.423h26.23c.233 0 .423.189.423.423z"/><path d="m433.711 263.699c0-8.504-6.919-15.423-15.423-15.423h-26.23c-8.504 0-15.423 6.919-15.423 15.423v19.539c0 8.504 6.919 15.423 15.423 15.423h26.23c8.504 0 15.423-6.919 15.423-15.423zm-15 19.539c0 .233-.189.423-.423.423h-26.23c-.233 0-.423-.189-.423-.423v-19.539c0-.233.189-.423.423-.423h26.23c.233 0 .423.189.423.423z"/><path d="m285.016 332.143c0-8.504-6.919-15.422-15.423-15.422h-26.23c-8.504 0-15.423 6.918-15.423 15.422v19.54c0 8.504 6.918 15.422 15.423 15.422h26.23c8.504 0 15.423-6.918 15.423-15.422zm-15 19.54c0 .232-.189.422-.423.422h-26.23c-.233 0-.423-.189-.423-.422v-19.54c0-.232.189-.422.423-.422h26.23c.233 0 .423.189.423.422z"/><path d="m210.668 332.143c0-8.504-6.918-15.422-15.422-15.422h-26.231c-8.504 0-15.423 6.918-15.423 15.422v19.54c0 8.504 6.918 15.422 15.423 15.422h26.231c8.504 0 15.422-6.918 15.422-15.422zm-15 19.54c0 .232-.189.422-.422.422h-26.231c-.233 0-.423-.189-.423-.422v-19.54c0-.232.189-.422.423-.422h26.231c.233 0 .422.189.422.422z"/><path d="m136.32 332.143c0-8.504-6.918-15.422-15.422-15.422h-26.231c-8.504 0-15.422 6.918-15.422 15.422v19.54c0 8.504 6.918 15.422 15.422 15.422h26.231c8.504 0 15.422-6.918 15.422-15.422zm-15 19.54c0 .232-.189.422-.422.422h-26.231c-.233 0-.422-.189-.422-.422v-19.54c0-.232.189-.422.422-.422h26.231c.233 0 .422.189.422.422z"/><path d="m343.94 316.721h-26.23c-8.504 0-15.423 6.918-15.423 15.422v19.54c0 8.504 6.919 15.422 15.423 15.422h26.23c8.504 0 15.423-6.918 15.423-15.422v-19.54c0-8.504-6.919-15.422-15.423-15.422zm.423 34.962c0 .232-.189.422-.423.422h-26.23c-.233 0-.423-.189-.423-.422v-19.54c0-.232.189-.422.423-.422h26.23c.233 0 .423.189.423.422z"/><path d="m433.711 332.143c0-8.504-6.919-15.422-15.423-15.422h-26.23c-8.504 0-15.423 6.918-15.423 15.422v19.54c0 8.504 6.919 15.422 15.423 15.422h26.23c8.504 0 15.423-6.918 15.423-15.422zm-15 19.54c0 .232-.189.422-.423.422h-26.23c-.233 0-.423-.189-.423-.422v-19.54c0-.232.189-.422.423-.422h26.23c.233 0 .423.189.423.422z"/><path d="m269.593 385.166h-26.23c-8.504 0-15.423 6.919-15.423 15.423v19.539c0 8.504 6.918 15.423 15.423 15.423h26.23c8.504 0 15.423-6.919 15.423-15.423v-19.539c0-8.505-6.919-15.423-15.423-15.423zm.423 34.961c0 .233-.189.423-.423.423h-26.23c-.233 0-.423-.189-.423-.423v-19.539c0-.233.189-.423.423-.423h26.23c.233 0 .423.189.423.423z"/><path d="m195.246 385.166h-26.231c-8.504 0-15.423 6.919-15.423 15.423v19.539c0 8.504 6.918 15.423 15.423 15.423h26.231c8.504 0 15.422-6.919 15.422-15.423v-19.539c0-8.505-6.918-15.423-15.422-15.423zm.422 34.961c0 .233-.189.423-.422.423h-26.231c-.233 0-.423-.189-.423-.423v-19.539c0-.233.189-.423.423-.423h26.231c.233 0 .422.189.422.423z"/><path d="m120.898 385.166h-26.231c-8.504 0-15.422 6.919-15.422 15.423v19.539c0 8.504 6.918 15.423 15.422 15.423h26.231c8.504 0 15.422-6.919 15.422-15.423v-19.539c0-8.505-6.918-15.423-15.422-15.423zm.422 34.961c0 .233-.189.423-.422.423h-26.231c-.233 0-.422-.189-.422-.423v-19.539c0-.233.189-.423.422-.423h26.231c.233 0 .422.189.422.423z"/><path d="m343.94 385.166h-26.23c-8.504 0-15.423 6.919-15.423 15.423v19.539c0 8.504 6.919 15.423 15.423 15.423h26.23c8.504 0 15.423-6.919 15.423-15.423v-19.539c0-8.505-6.919-15.423-15.423-15.423zm.423 34.961c0 .233-.189.423-.423.423h-26.23c-.233 0-.423-.189-.423-.423v-19.539c0-.233.189-.423.423-.423h26.23c.233 0 .423.189.423.423z"/><path d="m418.288 385.166h-26.23c-8.504 0-15.423 6.919-15.423 15.423v19.539c0 8.504 6.919 15.423 15.423 15.423h26.23c8.504 0 15.423-6.919 15.423-15.423v-19.539c0-8.505-6.919-15.423-15.423-15.423zm.423 34.961c0 .233-.189.423-.423.423h-26.23c-.233 0-.423-.189-.423-.423v-19.539c0-.233.189-.423.423-.423h26.23c.233 0 .423.189.423.423z"/></g></g></svg>