<svg id="Capa_1" enable-background="new 0 0 512.955 512.955" height="512" viewBox="0 0 512.955 512.955" width="512" xmlns="http://www.w3.org/2000/svg"><g><g><path d="m466.426 49.38h-421.58c-21.09 0-38.19 17.1-38.19 38.19v34.05l33.777 49.689h438.757l25.425-49.689v-34.05c.001-21.091-17.099-38.19-38.189-38.19z" fill="#ee878a"/><path d="m51.718 49.38h-6.873c-21.09 0-38.19 17.1-38.19 38.19v34.05l33.777 49.689h11.286z" fill="#ec6e73"/><g id="XMLID_225_"><g><path d="m504.616 121.619v304.11c0 21.09-17.1 38.19-38.19 38.19h-421.58c-21.09 0-38.19-17.1-38.19-38.19v-304.11z" fill="#f9f7f7"/></g></g><path d="m88.535 95.818c16.268 0 29.503-13.235 29.503-29.503v-16.935h-59.006v16.936c0 16.267 13.235 29.502 29.503 29.502z" fill="#ec6e73"/><path d="m88.535 80.819c-8.01 0-14.503-6.493-14.503-14.503v-33.863c0-8.01 6.493-14.503 14.503-14.503 8.01 0 14.503 6.493 14.503 14.503v33.862c0 8.011-6.493 14.504-14.503 14.504z" fill="#f2eae7"/><path d="m155.333 95.818c16.268 0 29.503-13.235 29.503-29.503v-16.935h-59.006v16.936c0 16.267 13.235 29.502 29.503 29.502z" fill="#ec6e73"/><path d="m155.333 80.819c-8.01 0-14.503-6.493-14.503-14.503v-33.863c0-8.01 6.493-14.503 14.503-14.503 8.01 0 14.503 6.493 14.503 14.503v33.862c.001 8.011-6.493 14.504-14.503 14.504z" fill="#f2eae7"/><path d="m222.132 95.818c16.268 0 29.503-13.235 29.503-29.503v-16.935h-59.007v16.936c0 16.267 13.236 29.502 29.504 29.502z" fill="#ec6e73"/><path d="m222.132 80.819c-8.01 0-14.503-6.493-14.503-14.503v-33.863c0-8.01 6.493-14.503 14.503-14.503 8.01 0 14.503 6.493 14.503 14.503v33.862c0 8.011-6.493 14.504-14.503 14.504z" fill="#f2eae7"/><path d="m288.93 95.818c16.269 0 29.504-13.235 29.504-29.503v-16.935h-59.007v16.936c0 16.267 13.235 29.502 29.503 29.502z" fill="#ec6e73"/><path d="m288.93 80.819c-8.01 0-14.503-6.493-14.503-14.503v-33.863c0-8.01 6.493-14.503 14.503-14.503 8.01 0 14.503 6.493 14.503 14.503v33.862c0 8.011-6.493 14.504-14.503 14.504z" fill="#f2eae7"/><path d="m355.728 95.818c16.268 0 29.503-13.235 29.503-29.503v-16.935h-59.006v16.936c0 16.267 13.236 29.502 29.503 29.502z" fill="#ec6e73"/><path d="m355.728 80.819c-8.01 0-14.503-6.493-14.503-14.503v-33.863c0-8.01 6.493-14.503 14.503-14.503 8.01 0 14.503 6.493 14.503 14.503v33.862c.001 8.011-6.493 14.504-14.503 14.504z" fill="#f2eae7"/><path d="m422.526 95.818c16.269 0 29.504-13.235 29.504-29.503v-16.935h-59.007v16.936c0 16.267 13.236 29.502 29.503 29.502z" fill="#ec6e73"/><path d="m422.527 80.819c-8.01 0-14.503-6.493-14.503-14.503v-33.863c0-8.01 6.493-14.503 14.503-14.503 8.01 0 14.503 6.493 14.503 14.503v33.862c0 8.011-6.493 14.504-14.503 14.504z" fill="#f2eae7"/><path d="m109.047 424.95c-31.661 0-57.328-25.667-57.328-57.328v-246.003h-45.063v304.11c0 21.092 17.098 38.19 38.19 38.19h421.58c21.092 0 38.19-17.098 38.19-38.19v-.78h-395.569z" fill="#f2eae7"/><g><path d="m443.624 204.879c6.435 0 11.652-5.217 11.652-11.652v-26.702c0-6.435-5.217-11.652-11.652-11.652h-374.293c-6.435 0-11.652 5.217-11.652 11.652v26.702c0 6.435 5.217 11.652 11.652 11.652z" fill="#a9e4f9"/><path d="m329.765 407.813 78.47 82.727c4.696 4.95 12.559 5.023 17.346.161l11.678-11.861c4.787-4.862 4.591-12.723-.431-17.341l-83.968-77.201-50.415-46.559-21.612 21.264z" fill="#e1dee2"/><path d="m352.86 384.297-50.415-46.559-21.612 21.264 48.932 48.811 10.335 10.896c8.925-7.041 16.929-15.197 23.812-24.25z" fill="#cac5cb"/><circle cx="257.449" cy="313.716" fill="#b3adb5" r="118.678"/><path d="m191.167 313.716c0-56.541 39.537-103.849 92.474-115.777-8.429-1.899-17.19-2.9-26.192-2.9-65.544 0-118.677 53.134-118.677 118.677 0 65.544 53.134 118.677 118.677 118.677 9.003 0 17.783-1.005 26.212-2.904-52.937-11.928-92.494-59.231-92.494-115.773z" fill="#a59ca6"/><ellipse cx="257.449" cy="313.717" fill="#cfeffc" rx="88.677" ry="88.678" transform="matrix(.707 -.707 .707 .707 -146.426 273.929)"/><path d="m224.311 395.971c-20.517-21.331-33.144-50.324-33.144-82.255 0-31.925 12.61-60.912 33.115-82.243-32.511 13.161-55.51 45.069-55.51 82.244-.001 37.183 23.015 69.099 55.539 82.254z" fill="#a9e4f9"/></g></g><g><path d="m462.776 166.525c0-10.561-8.592-19.151-19.152-19.151h-374.293c-10.561 0-19.152 8.591-19.152 19.151v26.702c0 10.561 8.592 19.151 19.152 19.151h86.945c4.143 0 7.5-3.357 7.5-7.5s-3.357-7.5-7.5-7.5h-86.945c-2.29 0-4.152-1.862-4.152-4.151v-26.702c0-2.289 1.862-4.151 4.152-4.151h374.293c2.29 0 4.152 1.862 4.152 4.151v26.702c0 2.289-1.862 4.151-4.152 4.151h-85.003c-4.143 0-7.5 3.357-7.5 7.5s3.357 7.5 7.5 7.5h85.003c10.561 0 19.152-8.591 19.152-19.151z"/><path d="m257.449 232.539c17.363 0 33.939 5.433 47.936 15.712 3.339 2.452 8.032 1.732 10.484-1.605 2.452-3.339 1.733-8.032-1.605-10.484-16.589-12.183-36.234-18.622-56.814-18.622-53.032 0-96.178 43.146-96.178 96.178s43.146 96.177 96.178 96.177 96.177-43.145 96.177-96.177c0-18.511-5.298-36.503-15.321-52.03-2.246-3.481-6.888-4.481-10.368-2.233-3.48 2.246-4.48 6.888-2.234 10.368 8.455 13.098 12.924 28.276 12.924 43.896 0 44.761-36.416 81.177-81.177 81.177-44.762 0-81.178-36.416-81.178-81.177-.002-44.764 36.415-81.18 81.176-81.18z"/><path d="m413.731 430.075c-3.049-2.803-7.794-2.604-10.598.445-2.803 3.049-2.604 7.794.445 10.598l28.173 25.902c.919.844 1.441 1.996 1.473 3.243.031 1.248-.435 2.425-1.311 3.314l-11.678 11.861c-.865.879-2.017 1.361-3.248 1.361-.015 0-.029 0-.044-.001-1.248-.011-2.409-.517-3.268-1.421l-72.975-76.932c4.639-4.082 8.975-8.498 12.974-13.211l25.758 23.683c1.44 1.324 3.26 1.979 5.074 1.979 2.025 0 4.044-.815 5.523-2.424 2.803-3.049 2.604-7.794-.445-10.598l-26.857-24.693c13.199-19.937 20.898-43.817 20.898-69.465 0-69.574-56.604-126.177-126.178-126.177s-126.177 56.603-126.177 126.177c0 31.808 11.879 62.193 33.448 85.56 2.81 3.043 7.556 3.234 10.598.424 3.044-2.81 3.233-7.554.424-10.598-19.004-20.588-29.47-47.36-29.47-75.386 0-61.303 49.874-111.177 111.177-111.177 61.304 0 111.178 49.874 111.178 111.177 0 61.304-49.874 111.178-111.178 111.178-20.347 0-40.248-5.545-57.552-16.036-3.542-2.148-8.154-1.018-10.302 2.524s-1.018 8.154 2.524 10.302c19.649 11.913 42.24 18.21 65.329 18.21 26.469 0 51.056-8.199 71.368-22.182l73.978 77.991c3.684 3.883 8.659 6.048 14.011 6.098.063 0 .125.001.188.001 5.28 0 10.222-2.069 13.933-5.838l11.678-11.861c3.755-3.814 5.749-8.861 5.616-14.212-.133-5.35-2.376-10.29-6.315-13.912z"/><path d="m467.269 42.589h-21.896v-9.432c0-12.133-9.871-22.003-22.004-22.003s-22.003 9.87-22.003 22.003v9.432h-22.792v-9.432c0-12.133-9.87-22.003-22.003-22.003s-22.003 9.87-22.003 22.003v9.432h-22.792v-9.432c0-12.133-9.871-22.003-22.004-22.003s-22.003 9.87-22.003 22.003v9.432h-22.792v-9.432c0-12.133-9.87-22.003-22.003-22.003s-22.003 9.87-22.003 22.003v9.432h-22.792v-9.432c0-12.133-9.871-22.003-22.004-22.003s-22.003 9.87-22.003 22.003v9.432h-22.792v-9.432c0-12.133-9.87-22.003-22.003-22.003s-22.003 9.87-22.003 22.003v9.432h-21.687c-25.192 0-45.687 20.494-45.687 45.685v338.158c0 25.191 20.495 45.686 45.687 45.686h300.439c4.143 0 7.5-3.357 7.5-7.5s-3.357-7.5-7.5-7.5h-300.439c-16.921 0-30.687-13.765-30.687-30.685v-296.613h482.955v296.612c0 16.92-13.766 30.686-30.687 30.686-4.143 0-7.5 3.357-7.5 7.5s3.357 7.5 7.5 7.5c25.191 0 45.687-20.494 45.687-45.686v-338.158c0-25.191-20.495-45.685-45.686-45.685zm-50.904-9.432c0-3.861 3.142-7.003 7.003-7.003 3.862 0 7.004 3.142 7.004 7.003v33.863c0 3.861-3.142 7.003-7.004 7.003-3.861 0-7.003-3.142-7.003-7.003zm-66.798 0c0-3.861 3.142-7.003 7.003-7.003s7.003 3.142 7.003 7.003v33.863c0 3.861-3.142 7.003-7.003 7.003s-7.003-3.142-7.003-7.003zm-66.798 0c0-3.861 3.142-7.003 7.003-7.003 3.862 0 7.004 3.142 7.004 7.003v33.863c0 3.861-3.142 7.003-7.004 7.003-3.861 0-7.003-3.142-7.003-7.003zm-66.798 0c0-3.861 3.142-7.003 7.003-7.003s7.003 3.142 7.003 7.003v33.863c0 3.861-3.142 7.003-7.003 7.003s-7.003-3.142-7.003-7.003zm-66.799 0c0-3.861 3.142-7.003 7.003-7.003 3.862 0 7.004 3.142 7.004 7.003v33.863c0 3.861-3.142 7.003-7.004 7.003-3.861 0-7.003-3.142-7.003-7.003zm-66.798 0c0-3.861 3.142-7.003 7.003-7.003s7.003 3.142 7.003 7.003v33.863c0 3.861-3.142 7.003-7.003 7.003s-7.003-3.142-7.003-7.003zm-67.374 81.663v-26.546c0-16.92 13.766-30.686 30.687-30.686h21.688v9.431c0 12.133 9.87 22.003 22.003 22.003s22.003-9.87 22.003-22.003v-9.431h22.792v9.431c0 12.133 9.87 22.003 22.003 22.003s22.004-9.87 22.004-22.003v-9.431h22.792v9.431c0 12.133 9.87 22.003 22.003 22.003s22.003-9.87 22.003-22.003v-9.431h22.792v9.431c0 12.133 9.87 22.003 22.003 22.003s22.004-9.87 22.004-22.003v-9.431h22.792v9.431c0 12.133 9.87 22.003 22.003 22.003s22.003-9.87 22.003-22.003v-9.431h22.792v9.431c0 12.133 9.87 22.003 22.003 22.003s22.004-9.87 22.004-22.003v-9.431h21.896c16.921 0 30.687 13.766 30.687 30.686v26.546z"/></g></g></svg>