<svg id="Capa_1" enable-background="new 0 0 512.955 512.955" height="512" viewBox="0 0 512.955 512.955" width="512" xmlns="http://www.w3.org/2000/svg"><g><g><path d="m465.584 48.578h-421.58c-21.09 0-38.19 17.1-38.19 38.19v34.05l33.777 49.689h438.758l25.425-49.689v-34.05c0-21.09-17.1-38.19-38.19-38.19z" fill="#ee878a"/><g><path d="m50.876 48.578h-6.873c-21.09 0-38.19 17.1-38.19 38.19v34.05l33.777 49.689h11.286z" fill="#ec6e73"/><g id="XMLID_224_"><g><path d="m503.774 120.818v304.11c0 21.09-17.1 38.19-38.19 38.19h-421.58c-21.09 0-38.19-17.1-38.19-38.19v-304.11z" fill="#f9f7f7"/></g></g><g fill="#ded4cf"><path d="m269.593 275.518h-26.231c-4.376 0-7.923-3.547-7.923-7.923v-19.539c0-4.375 3.547-7.923 7.923-7.923h26.231c4.375 0 7.923 3.547 7.923 7.923v19.539c0 4.376-3.548 7.923-7.923 7.923z"/><path d="m195.245 275.518h-26.231c-4.376 0-7.923-3.547-7.923-7.923v-19.539c0-4.375 3.547-7.923 7.923-7.923h26.231c4.375 0 7.923 3.547 7.923 7.923v19.539c0 4.376-3.547 7.923-7.923 7.923z"/><path d="m120.898 275.518h-26.231c-4.376 0-7.923-3.547-7.923-7.923v-19.539c0-4.375 3.547-7.923 7.923-7.923h26.231c4.376 0 7.923 3.547 7.923 7.923v19.539c-.001 4.376-3.548 7.923-7.923 7.923z"/><path d="m269.593 343.963h-26.231c-4.376 0-7.923-3.547-7.923-7.923v-19.539c0-4.375 3.547-7.923 7.923-7.923h26.231c4.375 0 7.923 3.547 7.923 7.923v19.539c0 4.376-3.548 7.923-7.923 7.923z"/><path d="m195.245 343.963h-26.231c-4.376 0-7.923-3.547-7.923-7.923v-19.539c0-4.375 3.547-7.923 7.923-7.923h26.231c4.375 0 7.923 3.547 7.923 7.923v19.539c0 4.376-3.547 7.923-7.923 7.923z"/><path d="m120.898 343.963h-26.231c-4.376 0-7.923-3.547-7.923-7.923v-19.539c0-4.375 3.547-7.923 7.923-7.923h26.231c4.376 0 7.923 3.547 7.923 7.923v19.539c-.001 4.376-3.548 7.923-7.923 7.923z"/><path d="m269.593 412.407h-26.231c-4.376 0-7.923-3.547-7.923-7.923v-19.539c0-4.376 3.547-7.923 7.923-7.923h26.231c4.375 0 7.923 3.547 7.923 7.923v19.539c0 4.376-3.548 7.923-7.923 7.923z"/><path d="m195.245 412.407h-26.231c-4.376 0-7.923-3.547-7.923-7.923v-19.539c0-4.376 3.547-7.923 7.923-7.923h26.231c4.375 0 7.923 3.547 7.923 7.923v19.539c0 4.376-3.547 7.923-7.923 7.923z"/><path d="m120.898 412.407h-26.231c-4.376 0-7.923-3.547-7.923-7.923v-19.539c0-4.376 3.547-7.923 7.923-7.923h26.231c4.376 0 7.923 3.547 7.923 7.923v19.539c-.001 4.376-3.548 7.923-7.923 7.923z"/></g><path d="m439.208 424.148c-2.241 0-4.216-1.47-4.859-3.617l-.013-.043c-.757-2.543-3.072-7.565-4.769-11.108-1.34-2.797-2.853-5.507-4.626-8.052-3.995-5.733-8.642-10.994-13.914-15.719l-.002-.002c-2.225-2.225-2.156-5.87.181-7.975 19.171-17.267 30.121-41.858 30.121-67.666 0-.905.439-1.761 1.193-2.261 6.33-4.197 10.515-11.382 10.515-19.53v-11.445c0-12.937-10.488-23.425-23.425-23.425h-119.651c-12.937 0-23.425 10.488-23.425 23.425v11.445c0 8.15 4.187 15.336 10.52 19.533.754.5 1.193 1.357 1.193 2.261v.057c0 25.843 10.994 50.466 30.236 67.717 2.333 2.092 2.36 5.738.057 7.864l-.003.003c-4.722 4.231-11.492 13.035-14.837 17.527-1.472 1.977-2.774 4.072-3.862 6.283-1.277 2.596-2.877 6.868-4.045 10.144-.98 2.75-3.582 4.584-6.501 4.584h-191.087c-31.661 0-57.328-25.667-57.328-57.328v-246.002h-45.063v304.11c0 21.092 17.098 38.19 38.19 38.19h421.58c21.092 0 38.19-17.098 38.19-38.19v-.78z" fill="#f2eae7"/><path d="m313.248 276.512v20.09 13.39c0 21.62 9.2 42.21 25.3 56.63l16.83 15.08-16.83 15.08c-7.5 6.72-13.5 14.78-17.78 23.65l14.107 32.11h77.325l6.597-32.11c-4.27-8.87-10.28-16.93-17.78-23.65l-16.83-15.08 16.83-15.08c16.1-14.42 25.31-35.01 25.31-56.63v-13.39-20.09z" fill="#fdf5cb"/><path d="m333.432 276.512h-3.104-17.081v20.09 13.39c0 21.62 9.2 42.21 25.3 56.63l16.83 15.08-16.83 15.08c-7.5 6.72-13.5 14.78-17.78 23.65l12.77 29.066c.525-10.166 3.079-20.041 7.415-29.066 4.28-8.87 10.28-16.93 17.78-23.65l8.633-7.736c4.374-3.919 4.374-10.769 0-14.688l-8.633-7.736c-11.867-10.629-19.971-24.611-23.412-39.886-1.751-7.771 4.265-15.136 12.23-15.136h78.76c.012-.536.017-14.998.017-14.998v-20.09z" fill="#fcf0b6"/><g id="XMLID_226_"><g><path d="m426.328 453.412v31.24h-113.08v-31.24c0-11.54 2.63-22.8 7.52-32.98h98.03c4.9 10.18 7.53 21.44 7.53 32.98z" fill="#fbe88c"/></g></g></g><path d="m442.782 204.078c6.435 0 11.652-5.217 11.652-11.652v-26.702c0-6.435-5.217-11.652-11.652-11.652h-374.293c-6.435 0-11.652 5.217-11.652 11.652v26.702c0 6.435 5.217 11.652 11.652 11.652z" fill="#a9e4f9"/><path d="m221.29 95.017c16.268 0 29.503-13.235 29.503-29.503v-16.936h-59.007v16.936c0 16.268 13.236 29.503 29.504 29.503z" fill="#ec6e73"/><path d="m288.088 95.017c16.269 0 29.504-13.235 29.504-29.503v-16.936h-59.007v16.936c0 16.268 13.235 29.503 29.503 29.503z" fill="#ec6e73"/><path d="m354.887 95.017c16.268 0 29.503-13.235 29.503-29.503v-16.936h-59.006v16.936c0 16.268 13.235 29.503 29.503 29.503z" fill="#ec6e73"/><path d="m421.684 95.017c16.269 0 29.504-13.235 29.504-29.503v-16.936h-59.007v16.936c0 16.268 13.236 29.503 29.503 29.503z" fill="#ec6e73"/><path d="m423.685 80.018c-8.01 0-14.503-6.493-14.503-14.503v-33.863c0-8.01 6.493-14.503 14.503-14.503 8.01 0 14.503 6.493 14.503 14.503v33.862c0 8.01-6.493 14.504-14.503 14.504z" fill="#f2eae7"/><path d="m87.693 95.017c16.268 0 29.503-13.235 29.503-29.503v-16.936h-59.006v16.936c0 16.268 13.235 29.503 29.503 29.503z" fill="#ec6e73"/><path d="m154.491 95.017c16.268 0 29.503-13.235 29.503-29.503v-16.936h-59.007v16.936c.001 16.268 13.236 29.503 29.504 29.503z" fill="#ec6e73"/><g fill="#f2eae7"><path d="m89.693 80.018c-8.01 0-14.503-6.493-14.503-14.503v-33.863c0-8.01 6.493-14.503 14.503-14.503 8.01 0 14.503 6.493 14.503 14.503v33.862c0 8.01-6.493 14.504-14.503 14.504z"/><path d="m156.491 80.018c-8.01 0-14.503-6.493-14.503-14.503v-33.863c0-8.01 6.493-14.503 14.503-14.503 8.01 0 14.503 6.493 14.503 14.503v33.862c.001 8.01-6.493 14.504-14.503 14.504z"/><path d="m223.29 80.018c-8.01 0-14.503-6.493-14.503-14.503v-33.863c0-8.01 6.493-14.503 14.503-14.503 8.01 0 14.503 6.493 14.503 14.503v33.862c0 8.01-6.493 14.504-14.503 14.504z"/><path d="m290.088 80.018c-8.01 0-14.503-6.493-14.503-14.503v-33.863c0-8.01 6.493-14.503 14.503-14.503 8.01 0 14.503 6.493 14.503 14.503v33.862c0 8.01-6.493 14.504-14.503 14.504z"/><path d="m356.886 80.018c-8.01 0-14.503-6.493-14.503-14.503v-33.863c0-8.01 6.493-14.503 14.503-14.503 8.01 0 14.503 6.493 14.503 14.503v33.862c.001 8.01-6.493 14.504-14.503 14.504z"/></g><path d="m426.305 451.807h-65.607c-15.984 0-26.745-16.646-19.885-31.083.046-.097.093-.194.139-.292h-20.185c-4.89 10.18-7.52 21.44-7.52 32.98v31.24h12.623 7.562 92.895v-31.24c.001-.536-.011-1.07-.022-1.605z" fill="#fbe372"/><path d="m429.61 466.807h-119.651c-4.653 0-8.425 3.772-8.425 8.425v11.446c0 4.653 3.772 8.425 8.425 8.425h119.651c4.653 0 8.425-3.772 8.425-8.425v-11.446c0-4.653-3.772-8.425-8.425-8.425z" fill="#cac5cb"/><path d="m429.61 296.6h-119.651c-4.653 0-8.425-3.772-8.425-8.425v-11.445c0-4.653 3.772-8.425 8.425-8.425h119.651c4.653 0 8.425 3.772 8.425 8.425v11.446c0 4.652-3.772 8.424-8.425 8.424z" fill="#cac5cb"/></g><g><path d="m467.269 41.788h-21.896v-9.432c0-12.133-9.871-22.003-22.004-22.003s-22.003 9.87-22.003 22.003v9.432h-22.792v-9.432c0-12.133-9.87-22.003-22.003-22.003s-22.003 9.87-22.003 22.003v9.432h-22.792v-9.432c0-12.133-9.871-22.003-22.004-22.003s-22.003 9.87-22.003 22.003v9.432h-22.792v-9.432c0-12.133-9.87-22.003-22.003-22.003s-22.003 9.87-22.003 22.003v9.432h-22.792v-9.432c0-12.133-9.871-22.003-22.004-22.003s-22.003 9.87-22.003 22.003v9.432h-22.792v-9.432c0-12.133-9.87-22.003-22.003-22.003s-22.003 9.87-22.003 22.003v9.432h-21.687c-25.192 0-45.687 20.494-45.687 45.685v338.158c0 25.191 20.495 45.686 45.687 45.686h39.988c4.143 0 7.5-3.357 7.5-7.5s-3.357-7.5-7.5-7.5h-39.988c-16.921 0-30.687-13.766-30.687-30.686v-296.612h482.955v296.612c0 16.92-13.766 30.686-30.687 30.686h-5.309c-4.143 0-7.5 3.357-7.5 7.5s3.357 7.5 7.5 7.5h5.309c25.191 0 45.687-20.494 45.687-45.686v-338.158c0-25.191-20.495-45.685-45.686-45.685zm-50.904-9.432c0-3.861 3.142-7.003 7.003-7.003 3.862 0 7.004 3.142 7.004 7.003v33.862c0 3.861-3.142 7.003-7.004 7.003-3.861 0-7.003-3.142-7.003-7.003zm-66.798 0c0-3.861 3.142-7.003 7.003-7.003s7.003 3.142 7.003 7.003v33.862c0 3.861-3.142 7.003-7.003 7.003s-7.003-3.142-7.003-7.003zm-66.798 0c0-3.861 3.142-7.003 7.003-7.003 3.862 0 7.004 3.142 7.004 7.003v33.862c0 3.861-3.142 7.003-7.004 7.003-3.861 0-7.003-3.142-7.003-7.003zm-66.798 0c0-3.861 3.142-7.003 7.003-7.003s7.003 3.142 7.003 7.003v33.862c0 3.861-3.142 7.003-7.003 7.003s-7.003-3.142-7.003-7.003zm-66.799 0c0-3.861 3.142-7.003 7.003-7.003 3.862 0 7.004 3.142 7.004 7.003v33.862c0 3.861-3.142 7.003-7.004 7.003-3.861 0-7.003-3.142-7.003-7.003zm-66.798 0c0-3.861 3.142-7.003 7.003-7.003s7.003 3.142 7.003 7.003v33.862c0 3.861-3.142 7.003-7.003 7.003s-7.003-3.142-7.003-7.003zm-67.374 81.663v-26.546c0-16.92 13.766-30.686 30.687-30.686h21.688v9.431c0 12.133 9.87 22.003 22.003 22.003s22.003-9.87 22.003-22.003v-9.431h22.792v9.431c0 12.133 9.87 22.003 22.003 22.003s22.004-9.87 22.004-22.003v-9.431h22.792v9.431c0 12.133 9.87 22.003 22.003 22.003s22.003-9.87 22.003-22.003v-9.431h22.792v9.431c0 12.133 9.87 22.003 22.003 22.003s22.004-9.87 22.004-22.003v-9.431h22.792v9.431c0 12.133 9.87 22.003 22.003 22.003s22.003-9.87 22.003-22.003v-9.431h22.792v9.431c0 12.133 9.87 22.003 22.003 22.003s22.004-9.87 22.004-22.003v-9.431h21.896c16.921 0 30.687 13.766 30.687 30.686v26.546z"/><path d="m275.974 456.317h-158.139c-4.143 0-7.5 3.357-7.5 7.5s3.357 7.5 7.5 7.5h158.139c4.143 0 7.5-3.357 7.5-7.5s-3.358-7.5-7.5-7.5z"/><path d="m462.776 192.426v-26.702c0-10.561-8.592-19.151-19.152-19.151h-374.293c-10.561 0-19.152 8.591-19.152 19.151v26.702c0 10.561 8.592 19.151 19.152 19.151h37.365c4.143 0 7.5-3.357 7.5-7.5s-3.357-7.5-7.5-7.5h-37.365c-2.29 0-4.152-1.862-4.152-4.151v-26.702c0-2.289 1.862-4.151 4.152-4.151h374.293c2.29 0 4.152 1.862 4.152 4.151v26.702c0 2.289-1.862 4.151-4.152 4.151h-304.768c-4.143 0-7.5 3.357-7.5 7.5s3.357 7.5 7.5 7.5h304.768c10.561.001 19.152-8.59 19.152-19.151z"/><path d="m269.593 232.633h-26.23c-8.504 0-15.423 6.919-15.423 15.423v19.539c0 8.504 6.919 15.423 15.423 15.423h26.23c8.504 0 15.423-6.919 15.423-15.423v-19.539c0-8.504-6.919-15.423-15.423-15.423zm.423 34.962c0 .233-.189.423-.423.423h-26.23c-.233 0-.423-.189-.423-.423v-19.539c0-.233.189-.423.423-.423h26.23c.233 0 .423.189.423.423z"/><path d="m210.668 248.056c0-8.504-6.919-15.423-15.423-15.423h-26.23c-8.504 0-15.423 6.919-15.423 15.423v19.539c0 8.504 6.919 15.423 15.423 15.423h26.23c8.504 0 15.423-6.919 15.423-15.423zm-15 19.539c0 .233-.189.423-.423.423h-26.23c-.233 0-.423-.189-.423-.423v-19.539c0-.233.189-.423.423-.423h26.23c.233 0 .423.189.423.423z"/><path d="m136.32 248.056c0-8.504-6.919-15.423-15.423-15.423h-26.23c-8.504 0-15.423 6.919-15.423 15.423v19.539c0 8.504 6.919 15.423 15.423 15.423h26.23c8.504 0 15.423-6.919 15.423-15.423zm-15 19.539c0 .233-.189.423-.423.423h-26.23c-.233 0-.423-.189-.423-.423v-19.539c0-.233.189-.423.423-.423h26.23c.233 0 .423.189.423.423z"/><path d="m269.593 301.079h-26.23c-8.504 0-15.423 6.918-15.423 15.422v19.54c0 8.504 6.919 15.422 15.423 15.422h26.23c8.504 0 15.423-6.918 15.423-15.422v-19.541c0-8.503-6.919-15.421-15.423-15.421zm.423 34.962c0 .232-.189.422-.423.422h-26.23c-.233 0-.423-.189-.423-.422v-19.541c0-.232.189-.422.423-.422h26.23c.233 0 .423.189.423.422z"/><path d="m210.668 316.5c0-8.504-6.919-15.422-15.423-15.422h-26.23c-8.504 0-15.423 6.918-15.423 15.422v19.54c0 8.504 6.919 15.422 15.423 15.422h26.23c8.504 0 15.423-6.918 15.423-15.422zm-15 19.541c0 .232-.189.422-.423.422h-26.23c-.233 0-.423-.189-.423-.422v-19.541c0-.232.189-.422.423-.422h26.23c.233 0 .423.189.423.422z"/><path d="m120.897 301.079h-26.23c-8.504 0-15.423 6.918-15.423 15.422v19.54c0 8.504 6.919 15.422 15.423 15.422h26.23c8.504 0 15.423-6.918 15.423-15.422v-19.541c0-8.503-6.919-15.421-15.423-15.421zm.423 34.962c0 .232-.189.422-.423.422h-26.23c-.233 0-.423-.189-.423-.422v-19.541c0-.232.189-.422.423-.422h26.23c.233 0 .423.189.423.422z"/><path d="m269.593 369.523h-26.23c-8.504 0-15.423 6.919-15.423 15.423v19.539c0 8.504 6.919 15.423 15.423 15.423h26.23c8.504 0 15.423-6.919 15.423-15.423v-19.539c0-8.504-6.919-15.423-15.423-15.423zm.423 34.962c0 .233-.189.423-.423.423h-26.23c-.233 0-.423-.189-.423-.423v-19.539c0-.233.189-.423.423-.423h26.23c.233 0 .423.189.423.423z"/><path d="m195.245 369.523h-26.23c-8.504 0-15.423 6.919-15.423 15.423v19.539c0 8.504 6.919 15.423 15.423 15.423h26.23c8.504 0 15.423-6.919 15.423-15.423v-19.539c0-8.504-6.919-15.423-15.423-15.423zm.423 34.962c0 .233-.189.423-.423.423h-26.23c-.233 0-.423-.189-.423-.423v-19.539c0-.233.189-.423.423-.423h26.23c.233 0 .423.189.423.423z"/><path d="m94.667 419.908h26.23c8.504 0 15.423-6.919 15.423-15.423v-19.539c0-8.504-6.919-15.423-15.423-15.423h-26.23c-8.504 0-15.423 6.919-15.423 15.423v19.539c0 8.504 6.919 15.423 15.423 15.423zm-.423-34.962c0-.233.189-.423.423-.423h26.23c.233 0 .423.189.423.423v19.539c0 .233-.189.423-.423.423h-26.23c-.233 0-.423-.189-.423-.423z"/><path d="m429.61 260.805h-119.651c-8.781 0-15.925 7.144-15.925 15.925v11.445c0 7.321 4.972 13.487 11.712 15.341v6.476c0 23.719 10.133 46.397 27.8 62.221l10.596 9.49-10.596 9.49c-8.115 7.268-14.634 15.984-19.318 25.581-.145.258-.275.525-.389.801-5.266 11.087-8.093 23.317-8.093 35.839v6.476c-6.74 1.854-11.712 8.02-11.712 15.341v11.445c0 8.781 7.144 15.925 15.925 15.925h119.651c8.781 0 15.925-7.144 15.925-15.925v-11.445c0-7.321-4.972-13.487-11.712-15.341v-6.476c0-12.531-2.831-24.772-8.105-35.865-.108-.259-.231-.509-.366-.752-4.685-9.605-11.208-18.33-19.329-25.604l-10.596-9.49 10.595-9.49c2.844-2.546 5.603-5.403 8.199-8.493 2.664-3.171 2.254-7.902-.917-10.567-3.173-2.664-7.903-2.256-10.567.917-2.142 2.549-4.403 4.894-6.722 6.97l-16.833 15.077c-1.589 1.423-2.496 3.454-2.496 5.587s.907 4.164 2.496 5.587l16.833 15.077c3.576 3.203 6.771 6.751 9.563 10.566h-71.588c2.792-3.816 5.988-7.364 9.564-10.566l16.833-15.077c1.589-1.423 2.496-3.454 2.496-5.587s-.907-4.164-2.496-5.587l-16.833-15.077c-14.495-12.981-22.808-31.588-22.808-51.047v-5.893h98.077v5.893c0 5.549-.698 11.15-2.077 16.648-1.007 4.018 1.434 8.091 5.452 9.099.612.153 1.225.227 1.829.227 3.358 0 6.415-2.273 7.27-5.679 1.676-6.689 2.526-13.518 2.526-20.295v-6.476c6.74-1.854 11.712-8.02 11.712-15.341v-11.446c0-8.781-7.143-15.925-15.925-15.925zm.925 225.872c0 .51-.415.925-.925.925h-119.651c-.51 0-.925-.415-.925-.925v-11.445c0-.51.415-.925.925-.925h119.651c.51 0 .925.415.925.925zm-16.652-58.743c3.217 8.024 4.94 16.661 4.94 25.48v5.893h-98.077v-5.893c0-8.819 1.724-17.456 4.94-25.48zm-104.849-151.204c0-.51.415-.925.925-.925h119.651c.51 0 .925.415.925.925v11.445c0 .51-.415.925-.925.925h-119.651c-.51 0-.925-.415-.925-.925z"/></g></g></svg>