<svg id="Capa_1" enable-background="new 0 0 512.955 512.955" height="512" viewBox="0 0 512.955 512.955" width="512" xmlns="http://www.w3.org/2000/svg"><g><g><path d="m468.594 51.203h-421.58c-21.09 0-38.19 17.1-38.19 38.19v34.05l33.777 49.689h438.758l25.425-49.689v-34.05c0-21.09-17.1-38.19-38.19-38.19z" fill="#ee878a"/><path d="m53.887 51.203h-6.873c-21.09 0-38.19 17.1-38.19 38.19v34.05l33.777 49.689h11.286z" fill="#ec6e73"/><g id="XMLID_227_"><g><path d="m506.784 123.443v304.11c0 21.09-17.1 38.19-38.19 38.19h-421.58c-21.09 0-38.19-17.1-38.19-38.19v-304.11z" fill="#f9f7f7"/></g></g><g><path d="m90.703 97.642c16.268 0 29.503-13.235 29.503-29.503v-16.936h-59.006v16.936c0 16.268 13.235 29.503 29.503 29.503z" fill="#ec6e73"/><path d="m90.703 82.643c-8.01 0-14.503-6.493-14.503-14.503v-33.863c0-8.01 6.493-14.503 14.503-14.503 8.01 0 14.503 6.493 14.503 14.503v33.862c.001 8.01-6.493 14.504-14.503 14.504z" fill="#f2eae7"/><path d="m157.502 97.642c16.268 0 29.503-13.235 29.503-29.503v-16.936h-59.007v16.936c0 16.268 13.236 29.503 29.504 29.503z" fill="#ec6e73"/><path d="m157.502 82.643c-8.01 0-14.503-6.493-14.503-14.503v-33.863c0-8.01 6.493-14.503 14.503-14.503 8.01 0 14.503 6.493 14.503 14.503v33.862c0 8.01-6.493 14.504-14.503 14.504z" fill="#f2eae7"/><path d="m224.3 97.642c16.268 0 29.503-13.235 29.503-29.503v-16.936h-59.007v16.936c.001 16.268 13.236 29.503 29.504 29.503z" fill="#ec6e73"/><path d="m224.3 82.643c-8.01 0-14.503-6.493-14.503-14.503v-33.863c0-8.01 6.493-14.503 14.503-14.503 8.01 0 14.503 6.493 14.503 14.503v33.862c0 8.01-6.493 14.504-14.503 14.504z" fill="#f2eae7"/><path d="m291.098 97.642c16.269 0 29.504-13.235 29.504-29.503v-16.936h-59.007v16.936c0 16.268 13.235 29.503 29.503 29.503z" fill="#ec6e73"/><path d="m291.098 82.643c-8.01 0-14.503-6.493-14.503-14.503v-33.863c0-8.01 6.493-14.503 14.503-14.503 8.01 0 14.503 6.493 14.503 14.503v33.862c.001 8.01-6.493 14.504-14.503 14.504z" fill="#f2eae7"/><path d="m357.897 97.642c16.268 0 29.503-13.235 29.503-29.503v-16.936h-59.006v16.936c0 16.268 13.235 29.503 29.503 29.503z" fill="#ec6e73"/><path d="m357.897 82.643c-8.01 0-14.503-6.493-14.503-14.503v-33.863c0-8.01 6.493-14.503 14.503-14.503 8.01 0 14.503 6.493 14.503 14.503v33.862c0 8.01-6.493 14.504-14.503 14.504z" fill="#f2eae7"/><path d="m424.695 97.642c16.269 0 29.504-13.235 29.504-29.503v-16.936h-59.007v16.936c0 16.268 13.235 29.503 29.503 29.503z" fill="#ec6e73"/><path d="m424.695 82.643c-8.01 0-14.503-6.493-14.503-14.503v-33.863c0-8.01 6.493-14.503 14.503-14.503 8.01 0 14.503 6.493 14.503 14.503v33.862c0 8.01-6.493 14.504-14.503 14.504z" fill="#f2eae7"/><path d="m413.244 404.965c7.388-19.891 11.11-41.547 10.318-64.152-3.086-88.084-74.76-159.216-162.864-161.649-94.61-2.612-172.409 73.592-172.409 167.624 0 20.407 3.674 39.968 10.383 58.069 1.695 4.573-1.622 9.443-6.5 9.443h-.095c-21.092 0-38.19-17.098-38.19-38.19v-252.667h-45.063v304.11c0 21.092 17.098 38.19 38.19 38.19h421.58c21.092 0 38.19-17.098 38.19-38.19v-13.253h-87.004c-4.83 0-8.218-4.808-6.536-9.335z" fill="#f2eae7"/><path d="m444.951 205.999h-374.294c-6.435 0-11.652-5.217-11.652-11.652v-26.702c0-6.435 5.217-11.652 11.652-11.652h374.293c6.435 0 11.652 5.217 11.652 11.652v26.702c0 6.435-5.216 11.652-11.651 11.652z" fill="#a9e4f9"/><path d="m346.893 205.999c-24.997-16.216-54.535-25.961-86.196-26.836-35.304-.975-68.265 9.03-95.719 26.836z" fill="#5ccef6"/><circle cx="255.978" cy="346.788" fill="#9de5d1" r="147.689"/><path d="m143.312 343.923c0-66.031 41.549-122.362 99.922-144.283-75.596 6.465-134.945 69.877-134.945 147.147 0 81.566 66.123 147.689 147.689 147.689 2.577 0 5.137-.067 7.682-.198-68.87-15.377-120.348-76.85-120.348-150.355z" fill="#82dec5"/><circle cx="255.978" cy="346.788" fill="#fbe88c" r="104.432"/><circle cx="255.978" cy="346.788" fill="#a9e4f9" r="50.235"/></g><path d="m476.973 366.268h-32.469c-1.113 0-2.166-.501-2.868-1.364l-11.19-13.747c-2.072-2.545-2.072-6.194 0-8.739l11.19-13.747c.702-.863 1.756-1.364 2.868-1.364h32.286c1.906 0 3.151 2.001 2.308 3.711l-7.77 15.77 7.851 15.934c.806 1.634-.384 3.546-2.206 3.546z" fill="#f09ea2"/></g><g><path d="m467.269 42.413h-21.896v-9.432c0-12.133-9.871-22.003-22.003-22.003s-22.003 9.87-22.003 22.003v9.432h-22.792v-9.432c0-12.133-9.871-22.003-22.003-22.003s-22.003 9.87-22.003 22.003v9.432h-22.792v-9.432c0-12.133-9.871-22.003-22.003-22.003s-22.003 9.87-22.003 22.003v9.432h-22.792v-9.432c0-12.133-9.871-22.003-22.003-22.003s-22.003 9.87-22.003 22.003v9.432h-22.792v-9.432c0-12.133-9.871-22.003-22.003-22.003s-22.003 9.87-22.003 22.003v9.432h-22.795v-9.432c0-12.133-9.871-22.003-22.003-22.003s-22.003 9.87-22.003 22.003v9.432h-21.687c-25.192 0-45.687 20.494-45.687 45.685v338.158c0 25.191 20.495 45.686 45.687 45.686h77.258c4.142 0 7.5-3.357 7.5-7.5s-3.358-7.5-7.5-7.5h-77.258c-16.92 0-30.687-13.766-30.687-30.686v-296.612h482.955v296.612c0 16.92-13.766 30.686-30.687 30.686h-78.258c-4.142 0-7.5 3.357-7.5 7.5s3.358 7.5 7.5 7.5h78.258c25.192 0 45.687-20.494 45.687-45.686v-338.158c0-25.191-20.495-45.685-45.686-45.685zm-50.904-9.432c0-3.861 3.142-7.003 7.003-7.003s7.003 3.142 7.003 7.003v33.862c0 3.861-3.142 7.003-7.003 7.003s-7.003-3.142-7.003-7.003zm-66.798 0c0-3.861 3.142-7.003 7.003-7.003s7.003 3.142 7.003 7.003v33.862c0 3.861-3.142 7.003-7.003 7.003s-7.003-3.142-7.003-7.003zm-66.798 0c0-3.861 3.142-7.003 7.003-7.003s7.003 3.142 7.003 7.003v33.862c0 3.861-3.142 7.003-7.003 7.003s-7.003-3.142-7.003-7.003zm-66.799 0c0-3.861 3.142-7.003 7.003-7.003s7.003 3.142 7.003 7.003v33.862c0 3.861-3.142 7.003-7.003 7.003s-7.003-3.142-7.003-7.003zm-66.798 0c0-3.861 3.142-7.003 7.003-7.003s7.003 3.142 7.003 7.003v33.862c0 3.861-3.142 7.003-7.003 7.003s-7.003-3.142-7.003-7.003zm-66.798 0c0-3.861 3.142-7.003 7.003-7.003s7.003 3.142 7.003 7.003v33.862c0 3.861-3.142 7.003-7.003 7.003s-7.003-3.142-7.003-7.003zm-67.374 81.663v-26.546c0-16.92 13.766-30.686 30.687-30.686h21.687v9.431c0 12.133 9.871 22.003 22.003 22.003s22.003-9.87 22.003-22.003v-9.431h22.792v9.431c0 12.133 9.871 22.003 22.003 22.003s22.003-9.87 22.003-22.003v-9.431h22.792v9.431c0 12.133 9.871 22.003 22.003 22.003s22.003-9.87 22.003-22.003v-9.431h22.792v9.431c0 12.133 9.871 22.003 22.003 22.003s22.003-9.87 22.003-22.003v-9.431h22.792v9.431c0 12.133 9.871 22.003 22.003 22.003s22.003-9.87 22.003-22.003v-9.431h22.792v9.431c0 12.133 9.871 22.003 22.003 22.003s22.003-9.87 22.003-22.003v-9.431h21.896c16.92 0 30.687 13.766 30.687 30.686v26.546z"/><path d="m443.624 197.203h-81.063c-4.142 0-7.5 3.357-7.5 7.5s3.358 7.5 7.5 7.5h81.063c10.561 0 19.152-8.591 19.152-19.151v-26.702c0-10.561-8.591-19.151-19.152-19.151h-256.945c-4.142 0-7.5 3.357-7.5 7.5s3.358 7.5 7.5 7.5h256.945c2.29 0 4.152 1.862 4.152 4.151v26.702c0 2.288-1.862 4.151-4.152 4.151z"/><path d="m69.331 162.198h85.347c4.142 0 7.5-3.357 7.5-7.5s-3.358-7.5-7.5-7.5h-85.347c-10.561 0-19.152 8.591-19.152 19.151v26.702c0 10.561 8.591 19.151 19.152 19.151h80.063c4.142 0 7.5-3.357 7.5-7.5s-3.358-7.5-7.5-7.5h-80.063c-2.29 0-4.152-1.862-4.152-4.151v-26.702c0-2.289 1.863-4.151 4.152-4.151z"/><path d="m423.323 354.288 12.497 15.353c2.136 2.623 5.301 4.128 8.684 4.128h36.423c2.591 0 5-1.338 6.368-3.538 1.369-2.201 1.505-4.952.359-7.276l-7.965-16.166 7.965-16.166c1.146-2.324 1.01-5.075-.359-7.276-1.369-2.2-3.777-3.538-6.368-3.538h-36.423c-3.383 0-6.548 1.505-8.685 4.129l-12.496 15.352h-12.341c-3.926-82.103-71.948-147.689-155.005-147.689-85.571 0-155.189 69.617-155.189 155.189 0 34.2 10.916 66.64 31.568 93.813 2.507 3.298 7.213 3.938 10.509 1.434 3.298-2.507 3.939-7.212 1.433-10.51-18.651-24.542-28.51-53.843-28.51-84.737 0-77.301 62.889-140.189 140.189-140.189 74.784 0 136.076 58.862 139.987 132.689h-28.309c-1.704-25.634-12.112-49.811-29.746-68.751-2.823-3.032-7.569-3.2-10.6-.379-3.031 2.822-3.201 7.568-.378 10.6 15.039 16.153 23.987 36.708 25.665 58.53h-39.388c-3.69-28.302-27.94-50.235-57.232-50.235-31.835 0-57.735 25.9-57.735 57.735s25.9 57.735 57.735 57.735c29.292 0 53.542-21.933 57.232-50.235h39.412c-3.841 49.957-45.719 89.432-96.644 89.432-53.448 0-96.932-43.483-96.932-96.932s43.483-96.932 96.932-96.932c16.712 0 33.189 4.325 47.652 12.508 3.605 2.039 8.182.771 10.221-2.834s.771-8.182-2.834-10.221c-16.711-9.455-35.744-14.453-55.039-14.453-61.719 0-111.932 50.212-111.932 111.932s50.212 111.932 111.932 111.932c59.198 0 107.802-46.196 111.674-104.432h28.313c-3.911 73.827-65.203 132.689-139.987 132.689-33.187 0-65.385-11.816-90.662-33.272-3.158-2.682-7.891-2.294-10.571.864-2.681 3.158-2.293 7.891.864 10.571 27.985 23.755 63.63 36.837 100.369 36.837 83.057 0 151.078-65.587 155.005-147.689h12.342zm22.988-19.481h22.56l-4.27 8.666c-1.03 2.09-1.03 4.539 0 6.629l4.27 8.666h-22.56l-9.752-11.98zm-190.333 54.716c-23.564 0-42.735-19.171-42.735-42.735s19.171-42.735 42.735-42.735c21.004 0 38.505 15.237 42.062 35.235h-42.062c-4.142 0-7.5 3.357-7.5 7.5s3.358 7.5 7.5 7.5h42.062c-3.557 19.998-21.058 35.235-42.062 35.235z"/></g></g></svg>