<svg id="Capa_1" enable-background="new 0 0 512.955 512.955" height="512" viewBox="0 0 512.955 512.955" width="512" xmlns="http://www.w3.org/2000/svg"><g><g><path d="m466.68 48.534h-421.58c-21.09 0-38.19 17.1-38.19 38.19v34.05l33.777 49.689h438.758l25.425-49.689v-34.05c0-21.09-17.1-38.19-38.19-38.19z" fill="#ee878a"/><path d="m51.973 48.534h-6.873c-21.09 0-38.19 17.1-38.19 38.19v34.05l33.777 49.689h11.286z" fill="#ec6e73"/><path d="m88.79 94.973c16.268 0 29.503-13.235 29.503-29.503v-16.936h-59.007v16.936c0 16.267 13.236 29.503 29.504 29.503z" fill="#ec6e73"/><path d="m88.79 79.973c-8.01 0-14.503-6.493-14.503-14.503v-33.862c0-8.01 6.493-14.503 14.503-14.503 8.01 0 14.503 6.493 14.503 14.503v33.862c0 8.01-6.493 14.503-14.503 14.503z" fill="#f2eae7"/><path d="m155.588 94.973c16.268 0 29.503-13.235 29.503-29.503v-16.936h-59.007v16.936c.001 16.267 13.236 29.503 29.504 29.503z" fill="#ec6e73"/><path d="m155.588 79.973c-8.01 0-14.503-6.493-14.503-14.503v-33.862c0-8.01 6.493-14.503 14.503-14.503 8.01 0 14.503 6.493 14.503 14.503v33.862c0 8.01-6.493 14.503-14.503 14.503z" fill="#f2eae7"/><path d="m222.387 94.973c16.268 0 29.503-13.235 29.503-29.503v-16.936h-59.007v16.936c0 16.267 13.235 29.503 29.504 29.503z" fill="#ec6e73"/><path d="m222.386 79.973c-8.01 0-14.503-6.493-14.503-14.503v-33.862c0-8.01 6.493-14.503 14.503-14.503 8.01 0 14.503 6.493 14.503 14.503v33.862c.001 8.01-6.493 14.503-14.503 14.503z" fill="#f2eae7"/><path d="m289.184 94.973c16.269 0 29.504-13.235 29.504-29.503v-16.936h-59.007v16.936c0 16.267 13.236 29.503 29.503 29.503z" fill="#ec6e73"/><path d="m289.185 79.973c-8.01 0-14.503-6.493-14.503-14.503v-33.862c0-8.01 6.493-14.503 14.503-14.503 8.01 0 14.503 6.493 14.503 14.503v33.862c0 8.01-6.493 14.503-14.503 14.503z" fill="#f2eae7"/><path d="m355.983 94.973c16.268 0 29.503-13.235 29.503-29.503v-16.936h-59.006v16.936c0 16.267 13.236 29.503 29.503 29.503z" fill="#ec6e73"/><path d="m355.983 79.973c-8.01 0-14.503-6.493-14.503-14.503v-33.862c0-8.01 6.493-14.503 14.503-14.503 8.01 0 14.503 6.493 14.503 14.503v33.862c0 8.01-6.493 14.503-14.503 14.503z" fill="#f2eae7"/><path d="m422.781 94.973c16.269 0 29.504-13.235 29.504-29.503v-16.936h-59.007v16.936c0 16.267 13.235 29.503 29.503 29.503z" fill="#ec6e73"/><path d="m422.781 79.973c-8.01 0-14.503-6.493-14.503-14.503v-33.862c0-8.01 6.493-14.503 14.503-14.503 8.01 0 14.503 6.493 14.503 14.503v33.862c.001 8.01-6.493 14.503-14.503 14.503z" fill="#f2eae7"/><g><g id="XMLID_229_"><g><path d="m504.87 120.774v304.11c0 21.09-17.1 38.19-38.19 38.19h-421.58c-21.09 0-38.19-17.1-38.19-38.19v-304.11z" fill="#f9f7f7"/></g></g><path d="m443.624 204.033h-374.293c-6.435 0-11.652-5.217-11.652-11.652v-26.701c0-6.435 5.217-11.652 11.652-11.652h374.293c6.435 0 11.652 5.217 11.652 11.652v26.702c0 6.435-5.217 11.651-11.652 11.651z" fill="#a9e4f9"/><g fill="#ded4cf"><path d="m269.593 275.474h-26.231c-4.376 0-7.923-3.547-7.923-7.923v-19.539c0-4.375 3.547-7.923 7.923-7.923h26.231c4.375 0 7.923 3.547 7.923 7.923v19.539c0 4.375-3.548 7.923-7.923 7.923z"/><path d="m195.245 275.474h-26.231c-4.376 0-7.923-3.547-7.923-7.923v-19.539c0-4.375 3.547-7.923 7.923-7.923h26.231c4.375 0 7.923 3.547 7.923 7.923v19.539c0 4.375-3.547 7.923-7.923 7.923z"/><path d="m120.898 275.474h-26.231c-4.376 0-7.923-3.547-7.923-7.923v-19.539c0-4.375 3.547-7.923 7.923-7.923h26.231c4.376 0 7.923 3.547 7.923 7.923v19.539c-.001 4.375-3.548 7.923-7.923 7.923z"/><path d="m317.71 275.474h26.231c4.375 0 7.923-3.547 7.923-7.923v-19.539c0-4.375-3.547-7.923-7.923-7.923h-26.231c-4.376 0-7.923 3.547-7.923 7.923v19.539c0 4.375 3.547 7.923 7.923 7.923z"/><path d="m392.057 275.474h26.231c4.376 0 7.923-3.547 7.923-7.923v-19.539c0-4.375-3.547-7.923-7.923-7.923h-26.231c-4.375 0-7.923 3.547-7.923 7.923v19.539c.001 4.375 3.548 7.923 7.923 7.923z"/><path d="m120.898 343.918h-26.231c-4.376 0-7.923-3.547-7.923-7.923v-19.539c0-4.375 3.547-7.923 7.923-7.923h26.231c4.376 0 7.923 3.547 7.923 7.923v19.539c-.001 4.376-3.548 7.923-7.923 7.923z"/><path d="m392.057 343.918h26.231c4.376 0 7.923-3.547 7.923-7.923v-19.539c0-4.375-3.547-7.923-7.923-7.923h-26.231c-4.375 0-7.923 3.547-7.923 7.923v19.539c.001 4.376 3.548 7.923 7.923 7.923z"/><path d="m120.898 412.363h-26.231c-4.376 0-7.923-3.547-7.923-7.923v-19.539c0-4.376 3.547-7.923 7.923-7.923h26.231c4.376 0 7.923 3.547 7.923 7.923v19.539c-.001 4.376-3.548 7.923-7.923 7.923z"/><path d="m392.057 412.363h26.231c4.376 0 7.923-3.547 7.923-7.923v-19.539c0-4.376-3.547-7.923-7.923-7.923h-26.231c-4.375 0-7.923 3.547-7.923 7.923v19.539c.001 4.376 3.548 7.923 7.923 7.923z"/></g><path d="m279.087 450.773h-46.218v21.264c0 12.763 10.346 23.109 23.109 23.109 12.763 0 23.109-10.346 23.109-23.109z" fill="#fdf5cb"/><path d="m335.983 406.931-1.957-4.213v-34.647c0-42.694-34.091-78.12-76.784-78.534-43.11-.418-78.314 34.53-78.314 77.545v35.636l-1.957 4.212c-2.65 5.704-8.368 9.353-14.658 9.353h-72.165c-21.092 0-38.19-17.098-38.19-38.19v-257.319h-45.048v304.11c0 21.092 17.098 38.19 38.19 38.19h421.58c21.092 0 38.19-17.098 38.19-38.19v-8.599h-154.229c-6.289 0-12.008-3.649-14.658-9.354z" fill="#f2eae7"/><path d="m179.996 436.027 13.933-29.995v-38.949c0-34.545 28.004-62.549 62.549-62.549 34.545 0 62.549 28.004 62.549 62.549v38.949l13.933 29.995c6.227 13.406-3.561 28.746-18.343 28.746h-116.278c-14.782 0-24.57-15.34-18.343-28.746z" fill="#fbe88c"/><path d="m216.203 440.742 13.933-31.071v-40.346c0-29.323 18.807-54.093 44.607-62.083-5.78-1.763-11.909-2.709-18.266-2.709-34.545 0-62.549 28.004-62.549 62.549v38.949l-13.933 29.995c-6.227 13.406 3.562 28.746 18.343 28.746h22.282c-5.94-5.874-8.312-15.344-4.417-24.03z" fill="#fbe372"/></g></g><g><path d="m467.269 41.743h-21.896v-9.432c0-12.133-9.871-22.003-22.004-22.003s-22.003 9.87-22.003 22.003v9.432h-22.792v-9.432c0-12.133-9.87-22.003-22.003-22.003s-22.003 9.87-22.003 22.003v9.432h-22.792v-9.432c0-12.133-9.871-22.003-22.004-22.003s-22.003 9.87-22.003 22.003v9.432h-22.792v-9.432c0-12.133-9.871-22.003-22.003-22.003s-22.003 9.87-22.003 22.003v9.432h-22.792v-9.432c0-12.133-9.871-22.003-22.003-22.003s-22.003 9.87-22.003 22.003v9.432h-22.793v-9.432c0-12.133-9.871-22.003-22.003-22.003s-22.003 9.87-22.003 22.003v9.432h-21.687c-25.192 0-45.687 20.494-45.687 45.686v179.201c0 4.143 3.358 7.5 7.5 7.5s7.5-3.357 7.5-7.5v-137.655h482.955v296.612c0 16.92-13.766 30.686-30.687 30.686h-104.78c-4.143 0-7.5 3.357-7.5 7.5s3.357 7.5 7.5 7.5h104.78c25.191 0 45.687-20.494 45.687-45.686v-338.158c0-25.192-20.495-45.686-45.686-45.686zm-50.904-9.431c0-3.861 3.142-7.003 7.003-7.003 3.862 0 7.004 3.142 7.004 7.003v33.862c0 3.861-3.142 7.003-7.004 7.003-3.861 0-7.003-3.142-7.003-7.003zm-66.798 0c0-3.861 3.142-7.003 7.003-7.003s7.003 3.142 7.003 7.003v33.862c0 3.861-3.142 7.003-7.003 7.003s-7.003-3.142-7.003-7.003zm-66.798 0c0-3.861 3.142-7.003 7.003-7.003 3.862 0 7.004 3.142 7.004 7.003v33.862c0 3.861-3.142 7.003-7.004 7.003-3.861 0-7.003-3.142-7.003-7.003zm-66.799 0c0-3.861 3.142-7.003 7.003-7.003s7.003 3.142 7.003 7.003v33.862c0 3.861-3.142 7.003-7.003 7.003s-7.003-3.142-7.003-7.003zm-66.798 0c0-3.861 3.142-7.003 7.003-7.003s7.003 3.142 7.003 7.003v33.862c0 3.861-3.142 7.003-7.003 7.003s-7.003-3.142-7.003-7.003zm-66.798 0c0-3.861 3.142-7.003 7.003-7.003s7.003 3.142 7.003 7.003v33.862c0 3.861-3.142 7.003-7.003 7.003s-7.003-3.142-7.003-7.003zm-67.374 81.663v-26.546c0-16.92 13.766-30.686 30.687-30.686h21.687v9.431c0 12.133 9.871 22.003 22.003 22.003s22.003-9.87 22.003-22.003v-9.431h22.792v9.431c0 12.133 9.871 22.003 22.003 22.003s22.003-9.87 22.003-22.003v-9.431h22.792v9.431c0 12.133 9.871 22.003 22.003 22.003s22.003-9.87 22.003-22.003v-9.431h22.792v9.431c0 12.133 9.87 22.003 22.003 22.003s22.004-9.87 22.004-22.003v-9.431h22.792v9.431c0 12.133 9.87 22.003 22.003 22.003s22.003-9.87 22.003-22.003v-9.431h22.792v9.431c0 12.133 9.87 22.003 22.003 22.003s22.004-9.87 22.004-22.003v-9.431h21.896c16.921 0 30.687 13.766 30.687 30.686v26.546z"/><path d="m150.467 456.272h-104.78c-16.92 0-30.687-13.766-30.687-30.686v-126.96c0-4.143-3.358-7.5-7.5-7.5s-7.5 3.357-7.5 7.5v126.961c0 25.191 20.495 45.686 45.687 45.686h104.78c4.142 0 7.5-3.357 7.5-7.5s-3.358-7.501-7.5-7.501z"/><path d="m462.776 192.382v-26.702c0-10.561-8.592-19.151-19.152-19.151h-374.293c-10.561 0-19.152 8.591-19.152 19.151v26.702c0 10.561 8.591 19.151 19.152 19.151h298.375c4.143 0 7.5-3.357 7.5-7.5s-3.357-7.5-7.5-7.5h-298.375c-2.29 0-4.152-1.862-4.152-4.151v-26.702c0-2.289 1.862-4.151 4.152-4.151h374.293c2.29 0 4.152 1.862 4.152 4.151v26.702c0 2.289-1.862 4.151-4.152 4.151h-43.549c-4.143 0-7.5 3.357-7.5 7.5s3.357 7.5 7.5 7.5h43.549c10.561 0 19.152-8.591 19.152-19.151z"/><path d="m243.362 232.589c-8.504 0-15.423 6.919-15.423 15.423v19.539c0 8.504 6.918 15.423 15.423 15.423h26.23c8.504 0 15.423-6.919 15.423-15.423v-19.539c0-8.504-6.919-15.423-15.423-15.423zm26.654 15.423v19.539c0 .233-.189.423-.423.423h-26.23c-.233 0-.423-.189-.423-.423v-19.539c0-.233.189-.423.423-.423h26.23c.233 0 .423.189.423.423z"/><path d="m210.668 267.551v-19.539c0-8.504-6.918-15.423-15.422-15.423h-26.231c-8.504 0-15.423 6.919-15.423 15.423v19.539c0 8.504 6.918 15.423 15.423 15.423h26.231c8.504 0 15.422-6.919 15.422-15.423zm-42.076 0v-19.539c0-.233.189-.423.423-.423h26.231c.233 0 .422.189.422.423v19.539c0 .233-.189.423-.422.423h-26.231c-.234 0-.423-.19-.423-.423z"/><path d="m136.32 248.012c0-8.504-6.918-15.423-15.422-15.423h-26.231c-8.504 0-15.422 6.919-15.422 15.423v19.539c0 8.504 6.918 15.423 15.422 15.423h26.231c8.504 0 15.422-6.919 15.422-15.423zm-15 19.539c0 .233-.189.423-.422.423h-26.231c-.233 0-.422-.189-.422-.423v-19.539c0-.233.189-.423.422-.423h26.231c.233 0 .422.189.422.423z"/><path d="m359.363 248.012c0-8.504-6.919-15.423-15.423-15.423h-26.23c-8.504 0-15.423 6.919-15.423 15.423v19.539c0 8.504 6.919 15.423 15.423 15.423h26.23c8.504 0 15.423-6.919 15.423-15.423zm-15 19.539c0 .233-.189.423-.423.423h-26.23c-.233 0-.423-.189-.423-.423v-19.539c0-.233.189-.423.423-.423h26.23c.233 0 .423.189.423.423z"/><path d="m433.711 248.012c0-8.504-6.919-15.423-15.423-15.423h-26.23c-8.504 0-15.423 6.919-15.423 15.423v19.539c0 8.504 6.919 15.423 15.423 15.423h26.23c8.504 0 15.423-6.919 15.423-15.423zm-15 19.539c0 .233-.189.423-.423.423h-26.23c-.233 0-.423-.189-.423-.423v-19.539c0-.233.189-.423.423-.423h26.23c.233 0 .423.189.423.423z"/><path d="m136.32 316.456c0-8.504-6.918-15.422-15.422-15.422h-26.231c-8.504 0-15.422 6.918-15.422 15.422v19.54c0 8.504 6.918 15.422 15.422 15.422h26.231c8.504 0 15.422-6.918 15.422-15.422zm-15 19.54c0 .232-.189.422-.422.422h-26.231c-.233 0-.422-.189-.422-.422v-19.54c0-.232.189-.422.422-.422h26.231c.233 0 .422.189.422.422z"/><path d="m433.711 316.456c0-8.504-6.919-15.422-15.423-15.422h-26.23c-8.504 0-15.423 6.918-15.423 15.422v19.54c0 8.504 6.919 15.422 15.423 15.422h26.23c8.504 0 15.423-6.918 15.423-15.422zm-15 19.54c0 .232-.189.422-.423.422h-26.23c-.233 0-.423-.189-.423-.422v-19.54c0-.232.189-.422.423-.422h26.23c.233 0 .423.189.423.422z"/><path d="m120.898 369.479h-26.231c-8.504 0-15.422 6.919-15.422 15.423v19.539c0 8.504 6.918 15.423 15.422 15.423h26.231c8.504 0 15.422-6.919 15.422-15.423v-19.539c0-8.505-6.918-15.423-15.422-15.423zm.422 34.961c0 .233-.189.423-.422.423h-26.231c-.233 0-.422-.189-.422-.423v-19.539c0-.233.189-.423.422-.423h26.231c.233 0 .422.189.422.423z"/><path d="m418.288 369.479h-26.23c-8.504 0-15.423 6.919-15.423 15.423v19.539c0 8.504 6.919 15.423 15.423 15.423h26.23c8.504 0 15.423-6.919 15.423-15.423v-19.539c0-8.505-6.919-15.423-15.423-15.423zm.423 34.961c0 .233-.189.423-.423.423h-26.23c-.233 0-.423-.189-.423-.423v-19.539c0-.233.189-.423.423-.423h26.23c.233 0 .423.189.423.423z"/><path d="m326.526 404.375v-37.292c0-38.625-31.424-70.049-70.049-70.049-28.124 0-53.425 16.72-64.458 42.596-1.625 3.81.147 8.216 3.957 9.841 3.811 1.626 8.217-.147 9.841-3.958 8.672-20.337 28.557-33.479 50.661-33.479 30.354 0 55.049 24.694 55.049 55.049v38.949c0 1.092.238 2.17.698 3.16l13.934 29.994c1.867 4.021 1.57 8.469-.814 12.206-2.385 3.736-6.295 5.88-10.728 5.88h-116.278c-4.433 0-8.343-2.144-10.728-5.88s-2.681-8.186-.813-12.206l13.933-29.995c.459-.989.698-2.067.698-3.159v-30.594c0-4.143-3.358-7.5-7.5-7.5s-7.5 3.357-7.5 7.5v28.937l-13.235 28.493c-4.008 8.63-3.346 18.571 1.773 26.594 5.119 8.021 13.856 12.811 23.373 12.811h27.035c.128 16.77 13.804 30.374 30.603 30.374s30.476-13.604 30.603-30.374h28.035c9.516 0 18.253-4.789 23.372-12.811s5.782-17.964 1.773-26.595zm-70.548 83.271c-8.528 0-15.481-6.874-15.607-15.373h31.215c-.127 8.499-7.08 15.373-15.608 15.373z"/></g></g></svg>