<svg id="Capa_1" enable-background="new 0 0 511.873 511.873" height="512" viewBox="0 0 511.873 511.873" width="512" xmlns="http://www.w3.org/2000/svg"><g><g><path d="m447.221 333.652-149.221 63.06 33.863 107.663h123.24c4.32 0 7.83-3.51 7.83-7.83v-123.23z" fill="#f2eae7"/><g><g><g id="XMLID_235_"><g><path d="m462.933 87.274v286.04l-131.07 131.06h-275.09c-4.32 0-7.83-3.51-7.83-7.83v-409.27c0-4.32 3.51-7.83 7.83-7.83h398.33c4.32 0 7.83 3.51 7.83 7.83z" fill="#f9f7f7"/></g></g></g><g id="XMLID_239_"><g><path d="m462.933 373.314-5.916-14.935-70.146.777-71.304 30.132.81 65.852 15.486 49.234h21.214l109.856-109.846z" fill="#ede2dd"/><path d="m338.167 354.694c-15.278.079-27.684 12.533-27.684 27.83l.856 69.544c.136 11.077-8.806 20.131-19.884 20.131h-154.528c-17.317 0-31.355-14.038-31.355-31.355v-361.4h-48.799c-4.324 0-7.83 3.506-7.83 7.83v409.27c0 4.324 3.506 7.83 7.83 7.83h255.21 19.88l131.07-131.06v-20.001z" fill="#f2eae7"/><path d="m462.933 373.314-130.95 130.94-1.5-121.73c0-4.33 3.51-7.83 7.83-7.83z" fill="#f9f7f7"/></g></g><g fill="#ee878a"><circle cx="112.309" cy="258.734" r="17.889"/><circle cx="112.309" cy="326.153" r="17.889"/><circle cx="112.309" cy="393.571" r="17.889"/></g></g></g><g><path d="m462.929 293.919c-4.143 0-7.5 3.357-7.5 7.5v65.775h-117.116c-8.452 0-15.328 6.877-15.328 15.329v36.601c0 4.143 3.357 7.5 7.5 7.5s7.5-3.357 7.5-7.5v-36.601c0-.182.147-.329.328-.329h105.125l-105.453 105.453v-36.363c0-4.143-3.357-7.5-7.5-7.5s-7.5 3.357-7.5 7.5v45.589h-266.211c-.182 0-.33-.147-.33-.329v-281.777c0-4.143-3.357-7.5-7.5-7.5s-7.5 3.357-7.5 7.5v281.777c0 8.452 6.877 15.329 15.33 15.329h398.326c8.452 0 15.328-6.877 15.328-15.329v-195.125c.001-4.143-3.357-7.5-7.499-7.5zm-7.828 202.954h-105.126l105.454-105.454v105.125c0 .182-.148.329-.328.329z"/><path d="m455.101 71.945h-268.871v-35.123c0-20.303-16.518-36.822-36.822-36.822s-36.822 16.519-36.822 36.822v35.123h-55.812c-8.453 0-15.33 6.877-15.33 15.329v95.332c0 4.143 3.357 7.5 7.5 7.5s7.5-3.357 7.5-7.5v-95.332c0-.182.148-.329.33-.329h55.812v62.999c0 14.973 12.181 27.153 27.153 27.153s27.152-12.181 27.152-27.153v-37.484c0-4.143-3.357-7.5-7.5-7.5s-7.5 3.357-7.5 7.5v37.484c0 6.701-5.452 12.153-12.153 12.153s-12.152-5.452-12.152-12.153v-62.999h327.515c.181 0 .328.147.328.329v181.986c0 4.143 3.357 7.5 7.5 7.5s7.5-3.357 7.5-7.5v-181.986c0-8.452-6.876-15.329-15.328-15.329zm-327.515-35.123c0-12.033 9.789-21.822 21.822-21.822s21.822 9.789 21.822 21.822v35.123h-43.645v-35.123z"/><path d="m112.309 284.123c13.999 0 25.389-11.39 25.389-25.389s-11.39-25.389-25.389-25.389-25.389 11.39-25.389 25.389 11.39 25.389 25.389 25.389zm0-35.777c5.729 0 10.389 4.66 10.389 10.389s-4.66 10.389-10.389 10.389-10.389-4.66-10.389-10.389 4.66-10.389 10.389-10.389z"/><path d="m112.309 351.542c13.999 0 25.389-11.39 25.389-25.39 0-13.999-11.39-25.389-25.389-25.389s-25.389 11.39-25.389 25.389c0 14 11.39 25.39 25.389 25.39zm0-35.778c5.729 0 10.389 4.66 10.389 10.389s-4.66 10.39-10.389 10.39-10.389-4.661-10.389-10.39 4.66-10.389 10.389-10.389z"/><path d="m112.309 418.96c13.999 0 25.389-11.39 25.389-25.389 0-14-11.39-25.39-25.389-25.39s-25.389 11.39-25.389 25.39c0 13.999 11.39 25.389 25.389 25.389zm0-35.778c5.729 0 10.389 4.661 10.389 10.39s-4.66 10.389-10.389 10.389-10.389-4.66-10.389-10.389 4.66-10.39 10.389-10.39z"/><path d="m159.776 266.234h216.084c4.143 0 7.5-3.357 7.5-7.5s-3.357-7.5-7.5-7.5h-216.084c-4.143 0-7.5 3.357-7.5 7.5s3.358 7.5 7.5 7.5z"/><path d="m159.776 333.652h199.958c4.143 0 7.5-3.357 7.5-7.5s-3.357-7.5-7.5-7.5h-199.958c-4.143 0-7.5 3.357-7.5 7.5s3.358 7.5 7.5 7.5z"/><path d="m159.776 401.071h127.197c4.143 0 7.5-3.357 7.5-7.5s-3.357-7.5-7.5-7.5h-127.197c-4.143 0-7.5 3.357-7.5 7.5s3.358 7.5 7.5 7.5z"/></g></g></svg>