<svg id="Capa_1" enable-background="new 0 0 513.399 513.399" height="512" viewBox="0 0 513.399 513.399" width="512" xmlns="http://www.w3.org/2000/svg"><g><g><path d="m503.809 63.449-22.6-52.51c-1.97-4.58-8.47-4.58-10.44 0l-22.6 52.51c-.31.71-.46 1.47-.46 2.24l8.867 9.065h41.195s6.498-9.065 6.498-9.065c0-.77-.16-1.53-.46-2.24z" fill="#fbe88c"/><path d="m470.21 66.212c0-.778.15-1.547.46-2.265l16.585-38.961-6.046-14.047c-1.97-4.58-8.47-4.58-10.44 0l-22.6 52.51c-.31.71-.46 1.47-.46 2.24l8.867 9.065h13.634z" fill="#fbe372"/><path d="m447.709 65.689v319.12l8.909 12.439h37.926l9.725-12.439v-319.12z" fill="#b3adb5"/><g><path d="m405.299 103.459v392.17c0 5.67-4.6 10.27-10.27 10.27h-375.63c-5.67 0-10.27-4.6-10.27-10.27v-477.1c0-5.67 4.6-10.27 10.27-10.27h290.7c2.72 0 5.33 1.08 7.26 3.01l84.93 84.93c1.93 1.92 3.01 4.54 3.01 7.26z" fill="#f9f7f7"/></g><path d="m110.888 462.719c-20.281 0-36.723-16.441-36.723-36.723v-417.737h-54.766c-5.672 0-10.27 4.598-10.27 10.27v477.1c0 5.672 4.598 10.27 10.27 10.27h375.63c5.672 0 10.27-4.598 10.27-10.27v-32.91z" fill="#f2eae7"/><g><g><g id="XMLID_242_"><g><path d="m405.299 103.459c0-2.72-1.08-5.34-3.01-7.26l-84.93-84.93c-1.93-1.93-4.54-3.01-7.26-3.01h-16.198l-.212 75.23c0 19.851 16.149 36 36 36h.043l75.567-.324z" fill="#f2eae7"/><path d="m313.899 8.989c1.28.51 2.46 1.28 3.46 2.28l84.93 84.93c.87.87 1.57 1.88 2.07 2.97l-74.67.32c-8.84 0-16-7.16-16-16z" fill="#f9f7f7"/></g></g></g><path d="m283.189 184.528h-151.951c-4.324 0-7.829-3.505-7.829-7.829v-62.709c0-4.324 3.505-7.829 7.829-7.829h151.951c4.324 0 7.829 3.505 7.829 7.829v62.709c.001 4.324-3.505 7.829-7.829 7.829z" fill="#ee878a"/><path d="m239.582 312.83h-64.736c-4.324 0-7.829-3.505-7.829-7.829v-47.051c0-4.324 3.505-7.829 7.829-7.829h64.736c4.324 0 7.829 3.505 7.829 7.829v47.051c0 4.324-3.505 7.829-7.829 7.829z" fill="#cfeffc"/><path d="m121.917 312.83h-64.736c-4.324 0-7.829-3.505-7.829-7.829v-47.051c0-4.324 3.505-7.829 7.829-7.829h64.736c4.324 0 7.829 3.505 7.829 7.829v47.051c.001 4.324-3.505 7.829-7.829 7.829z" fill="#cfeffc"/><path d="m57.181 312.83h16.984v-62.709h-16.984c-4.324 0-7.829 3.505-7.829 7.829v47.051c0 4.324 3.505 7.829 7.829 7.829z" fill="#a9e4f9"/><path d="m292.51 312.83h64.736c4.324 0 7.829-3.505 7.829-7.829v-47.051c0-4.324-3.505-7.829-7.829-7.829h-64.736c-4.324 0-7.829 3.505-7.829 7.829v47.051c0 4.324 3.505 7.829 7.829 7.829z" fill="#cfeffc"/><path d="m352.063 438.178h-289.698c-4.848 0-8.778-3.93-8.778-8.778v-35.81c0-4.848 3.93-8.778 8.778-8.778h289.698c4.848 0 8.778 3.93 8.778 8.778v35.81c0 4.848-3.93 8.778-8.778 8.778z" fill="#fbe88c"/><path d="m62.365 438.178h13.878c-1.341-3.813-2.078-7.911-2.078-12.182v-41.184h-11.8c-4.848 0-8.778 3.93-8.778 8.778v35.81c0 4.848 3.93 8.778 8.778 8.778z" fill="#fbe372"/><g id="XMLID_243_"><g><path d="m498.189 405.175h-39.253l-11.228 9.684v68.03c0 12.16 9.85 22.01 22 22.01h12.55c12.16 0 22.01-9.85 22.01-22.01v-68.03z" fill="#b3adb5"/><path d="m470.21 66.212c0-.175.01-.35.025-.523h-22.527v319.12l8.909 12.439h13.593z" fill="#a59ca6"/><path d="m470.21 488.045v-82.87h-11.274l-11.228 9.684v68.03c0 12.16 9.85 22.01 22 22.01h8.142c-4.676-4.08-7.64-10.114-7.64-16.854z" fill="#a59ca6"/><path d="m447.709 384.809h56.56v30.05h-56.56z" fill="#fbe88c"/></g></g><path d="m447.709 384.809h22.501v30.05h-22.501z" fill="#fbe372"/></g></g><g><path d="m322.663 5.965c-3.356-3.357-7.819-5.206-12.566-5.206h-290.697c-9.798 0-17.77 7.972-17.77 17.771v477.1c0 9.799 7.972 17.771 17.77 17.771h375.627c9.798 0 17.77-7.972 17.77-17.771v-392.17c0-4.745-1.848-9.207-5.205-12.565zm64.811 86.023h-57.785c-4.687 0-8.5-3.813-8.5-8.5v-57.783zm7.553 406.411h-375.627c-1.527 0-2.77-1.243-2.77-2.771v-477.1c0-1.527 1.243-2.771 2.77-2.771h286.789v67.729c0 12.958 10.542 23.5 23.5 23.5h68.108v388.641c0 1.529-1.242 2.772-2.77 2.772z"/><path d="m357.247 242.621h-24.868v-21.989c0-4.143-3.358-7.5-7.5-7.5h-110.165v-21.104h68.476c8.453 0 15.329-6.877 15.329-15.33v-62.709c0-8.452-6.876-15.329-15.329-15.329h-151.952c-8.453 0-15.33 6.877-15.33 15.329v62.709c0 8.453 6.877 15.33 15.33 15.33h19.382c4.142 0 7.5-3.357 7.5-7.5s-3.358-7.5-7.5-7.5h-19.382c-.182 0-.33-.148-.33-.33v-62.709c0-.182.148-.329.33-.329h151.951c.182 0 .329.147.329.329v62.709c0 .182-.147.33-.329.33h-99.777c-4.142 0-7.5 3.357-7.5 7.5s3.358 7.5 7.5 7.5h16.301v21.104h-110.164c-4.142 0-7.5 3.357-7.5 7.5v21.989h-24.868c-8.453 0-15.33 6.877-15.33 15.329v47.051c0 8.452 6.877 15.329 15.33 15.329h64.736c8.453 0 15.33-6.877 15.33-15.329v-47.051c0-8.452-6.877-15.329-15.33-15.329h-24.868v-14.489h102.665v14.489h-24.868c-8.453 0-15.329 6.877-15.329 15.329v47.051c0 8.452 6.876 15.329 15.329 15.329h64.736c8.453 0 15.329-6.877 15.329-15.329v-47.051c0-8.452-6.876-15.329-15.329-15.329h-24.868v-14.489h102.665v14.489h-24.869c-8.453 0-15.329 6.877-15.329 15.329v47.051c0 8.452 6.876 15.329 15.329 15.329h64.736c8.453 0 15.329-6.877 15.329-15.329v-47.051c.001-8.452-6.876-15.329-15.328-15.329zm-235 15.329v47.051c0 .182-.148.329-.33.329h-64.736c-.182 0-.33-.147-.33-.329v-47.051c0-.182.148-.329.33-.329h64.736c.182 0 .33.148.33.329zm117.664 0v47.051c0 .182-.147.329-.329.329h-64.736c-.182 0-.329-.147-.329-.329v-47.051c0-.182.147-.329.329-.329h64.736c.182 0 .329.148.329.329zm117.665 47.051c0 .182-.147.329-.329.329h-64.737c-.182 0-.329-.147-.329-.329v-47.051c0-.182.147-.329.329-.329h64.736c.182 0 .329.147.329.329v47.051z"/><path d="m352.063 377.312h-289.698c-8.976 0-16.278 7.303-16.278 16.279v35.809c0 8.977 7.302 16.279 16.278 16.279h191.387c4.142 0 7.5-3.357 7.5-7.5s-3.358-7.5-7.5-7.5h-191.387c-.705 0-1.278-.574-1.278-1.279v-35.809c0-.705.573-1.279 1.278-1.279h289.698c.705 0 1.278.574 1.278 1.279v35.809c0 .705-.573 1.279-1.278 1.279h-65.52c-4.142 0-7.5 3.357-7.5 7.5s3.358 7.5 7.5 7.5h65.52c8.976 0 16.278-7.303 16.278-16.279v-35.809c0-8.977-7.302-16.279-16.278-16.279z"/><path d="m510.695 60.481-22.599-52.51c-2.085-4.842-6.838-7.971-12.11-7.971s-10.025 3.129-12.109 7.972l-22.599 52.508c-.713 1.655-1.074 3.409-1.074 5.213v126.697c0 4.143 3.358 7.5 7.5 7.5s7.5-3.357 7.5-7.5v-119.197h41.565v304.118h-41.565v-152.921c0-4.143-3.358-7.5-7.5-7.5s-7.5 3.357-7.5 7.5v258.5c0 16.271 13.237 29.51 29.509 29.51h12.547c16.271 0 29.509-13.238 29.509-29.51v-417.197c0-1.802-.361-3.556-1.074-5.212zm-34.709-42.702 17.393 40.414h-34.787zm20.783 374.533v15.046h-41.565v-15.046zm-14.509 105.087h-12.547c-8 0-14.509-6.509-14.509-14.51v-60.532h41.565v60.532c0 8.002-6.509 14.51-14.509 14.51z"/></g></g></svg>