<svg id="Capa_1" enable-background="new 0 0 513.098 513.098" height="512" viewBox="0 0 513.098 513.098" width="512" xmlns="http://www.w3.org/2000/svg"><g><g><path d="m445.371 52.543h-401.5c-20.09 0-36.37 16.28-36.37 36.36v32.43l28.872 39.667h425.017l20.35-39.667v-32.42c.001-20.09-16.279-36.37-36.369-36.37z" fill="#ee878a"/><path d="m52.257 52.543h-8.386c-20.09 0-36.37 16.28-36.37 36.36v32.43l28.872 39.667h15.411c.001 0 .166-106.557.473-108.457z" fill="#ec6e73"/><g id="XMLID_228_"><g><path d="m481.741 121.333v281.33c0 24.67-20 44.67-44.66 44.67h-393.21c-20.09 0-36.37-16.29-36.37-36.37v-289.63z" fill="#f9f7f7"/></g></g><g><path d="m85.478 97.478c15.887 0 28.812-12.926 28.812-28.813v-16.122h-57.625v16.122c0 15.887 12.925 28.813 28.813 28.813z" fill="#ec6e73"/><path d="m85.478 82.478c-7.628 0-13.813-6.184-13.813-13.813v-32.249c0-7.628 6.184-13.813 13.813-13.813 7.628 0 13.813 6.184 13.813 13.813v32.249c-.001 7.629-6.185 13.813-13.813 13.813z" fill="#f2eae7"/><path d="m149.095 97.478c15.887 0 28.812-12.926 28.812-28.813v-16.122h-57.625v16.122c0 15.887 12.926 28.813 28.813 28.813z" fill="#ec6e73"/><path d="m149.095 82.478c-7.628 0-13.813-6.184-13.813-13.813v-32.249c0-7.628 6.184-13.813 13.813-13.813 7.628 0 13.813 6.184 13.813 13.813v32.249c0 7.629-6.184 13.813-13.813 13.813z" fill="#f2eae7"/><path d="m212.712 97.478c15.887 0 28.812-12.926 28.812-28.813v-16.122h-57.625v16.122c0 15.887 12.926 28.813 28.813 28.813z" fill="#ec6e73"/><path d="m212.712 82.478c-7.628 0-13.813-6.184-13.813-13.813v-32.249c0-7.628 6.184-13.813 13.813-13.813 7.628 0 13.813 6.184 13.813 13.813v32.249c0 7.629-6.184 13.813-13.813 13.813z" fill="#f2eae7"/><path d="m276.33 97.478c15.887 0 28.812-12.926 28.812-28.813v-16.122h-57.625v16.122c0 15.887 12.925 28.813 28.813 28.813z" fill="#ec6e73"/><path d="m276.329 82.478c-7.628 0-13.813-6.184-13.813-13.813v-32.249c0-7.628 6.184-13.813 13.813-13.813 7.628 0 13.813 6.184 13.813 13.813v32.249c0 7.629-6.184 13.813-13.813 13.813z" fill="#f2eae7"/><path d="m339.947 97.478c15.887 0 28.812-12.926 28.812-28.813v-16.122h-57.625v16.122c0 15.887 12.925 28.813 28.813 28.813z" fill="#ec6e73"/><path d="m339.947 82.478c-7.628 0-13.813-6.184-13.813-13.813v-32.249c0-7.628 6.184-13.813 13.813-13.813 7.628 0 13.813 6.184 13.813 13.813v32.249c-.001 7.629-6.185 13.813-13.813 13.813z" fill="#f2eae7"/><path d="m403.564 97.478c15.887 0 28.812-12.926 28.812-28.813v-16.122h-57.625v16.122c0 15.887 12.925 28.813 28.813 28.813z" fill="#ec6e73"/><path d="m403.564 82.478c-7.628 0-13.813-6.184-13.813-13.813v-32.249c0-7.628 6.184-13.813 13.813-13.813 7.628 0 13.813 6.184 13.813 13.813v32.249c-.001 7.629-6.185 13.813-13.813 13.813z" fill="#f2eae7"/><path d="m422.3 199.959h-355.359c-6.435 0-11.652-5.217-11.652-11.652v-24.321c0-6.435 5.217-11.652 11.652-11.652h355.359c6.435 0 11.652 5.217 11.652 11.652v24.321c0 6.436-5.217 11.652-11.652 11.652z" fill="#a9e4f9"/><g fill="#ded4cf"><path d="m256.734 267.997h-24.227c-4.375 0-7.923-3.547-7.923-7.923v-17.854c0-4.376 3.547-7.923 7.923-7.923h24.227c4.375 0 7.923 3.547 7.923 7.923v17.854c0 4.376-3.547 7.923-7.923 7.923z"/><path d="m185.927 267.997h-24.227c-4.376 0-7.923-3.547-7.923-7.923v-17.854c0-4.376 3.547-7.923 7.923-7.923h24.227c4.375 0 7.923 3.547 7.923 7.923v17.854c0 4.376-3.547 7.923-7.923 7.923z"/><path d="m115.12 267.997h-24.227c-4.375 0-7.923-3.547-7.923-7.923v-17.854c0-4.376 3.547-7.923 7.923-7.923h24.227c4.375 0 7.923 3.547 7.923 7.923v17.854c0 4.376-3.547 7.923-7.923 7.923z"/><path d="m256.734 333.182h-24.227c-4.375 0-7.923-3.547-7.923-7.923v-17.854c0-4.376 3.547-7.923 7.923-7.923h24.227c4.375 0 7.923 3.547 7.923 7.923v17.854c0 4.376-3.547 7.923-7.923 7.923z"/><path d="m185.927 333.182h-24.227c-4.376 0-7.923-3.547-7.923-7.923v-17.854c0-4.376 3.547-7.923 7.923-7.923h24.227c4.375 0 7.923 3.547 7.923 7.923v17.854c0 4.376-3.547 7.923-7.923 7.923z"/><path d="m115.12 333.182h-24.227c-4.375 0-7.923-3.547-7.923-7.923v-17.854c0-4.376 3.547-7.923 7.923-7.923h24.227c4.375 0 7.923 3.547 7.923 7.923v17.854c0 4.376-3.547 7.923-7.923 7.923z"/><path d="m256.734 398.368h-24.227c-4.375 0-7.923-3.547-7.923-7.923v-17.854c0-4.375 3.547-7.923 7.923-7.923h24.227c4.375 0 7.923 3.547 7.923 7.923v17.854c0 4.375-3.547 7.923-7.923 7.923z"/><path d="m185.927 398.368h-24.227c-4.376 0-7.923-3.547-7.923-7.923v-17.854c0-4.375 3.547-7.923 7.923-7.923h24.227c4.375 0 7.923 3.547 7.923 7.923v17.854c0 4.375-3.547 7.923-7.923 7.923z"/><path d="m115.12 398.368h-24.227c-4.375 0-7.923-3.547-7.923-7.923v-17.854c0-4.375 3.547-7.923 7.923-7.923h24.227c4.375 0 7.923 3.547 7.923 7.923v17.854c0 4.375-3.547 7.923-7.923 7.923z"/></g><path d="m417.424 271.193c-1.899 0-3.471-1.526-3.469-3.426.024-24.867-20.319-45.656-45.178-45.231-24.131.413-43.635 20.172-43.635 44.4v.787c0 1.916-1.553 3.469-3.469 3.469h-7.481c-12.57 0-22.76 10.19-22.76 22.76v93.727c0 16.086-13.04 29.126-29.126 29.126h-174.151c-20.09 0-36.37-16.29-36.37-36.37v-259.102h-44.284v289.63c0 20.087 16.283 36.37 36.37 36.37h393.21c24.665 0 44.66-19.995 44.66-44.66v-131.48z" fill="#f2eae7"/><g><g id="XMLID_245_"><g><path d="m505.601 293.963v135.06l-61.47 61.47h-129.94c-1.52 0-2.76-1.23-2.76-2.76v-193.77c0-1.53 1.24-2.77 2.76-2.77h188.65c1.52 0 2.76 1.24 2.76 2.77z" fill="#fbe88c"/></g></g></g><g id="XMLID_246_"><g><path d="m446.241 414.674c-9.809 0-17.76 7.952-17.76 17.76v25.35c0 5.621-4.557 10.177-10.177 10.177h-50.715c-12.214 0-22.115-9.901-22.115-22.115v-154.653h-31.282c-1.524 0-2.76 1.236-2.76 2.76v193.78c0 1.53 1.24 2.76 2.76 2.76h129.94l61.47-61.47v-14.35h-59.361z" fill="#fbe372"/><path d="m443.481 489.733v-57.3c0-1.52 1.24-2.76 2.76-2.76h58.71l-60.82 60.82h-.65z" fill="#fbe88c"/></g></g></g></g><g><path d="m183.303 439.829h-139.435c-15.918 0-28.868-12.95-28.868-28.867v-282.13h459.241v132.366c0 4.143 3.358 7.5 7.5 7.5s7.5-3.357 7.5-7.5v-172.289c0-24.189-19.679-43.869-43.868-43.869h-20.497v-8.624c0-11.752-9.561-21.312-21.312-21.312s-21.313 9.561-21.313 21.312v8.625h-20.992v-8.625c0-11.752-9.561-21.312-21.312-21.312s-21.313 9.561-21.313 21.312v8.625h-20.992v-8.625c0-11.752-9.561-21.312-21.312-21.312s-21.313 9.561-21.313 21.312v8.625h-20.992v-8.625c0-11.752-9.561-21.312-21.312-21.312s-21.313 9.561-21.313 21.312v8.625h-20.992v-8.625c0-11.752-9.561-21.312-21.312-21.312s-21.313 9.561-21.313 21.312v8.625h-20.992v-8.625c0-11.752-9.561-21.312-21.312-21.312s-21.313 9.561-21.313 21.312v8.624h-20.298c-24.189 0-43.868 19.679-43.868 43.869v322.053c0 24.188 19.679 43.867 43.868 43.867h139.436c4.142 0 7.5-3.357 7.5-7.5s-3.359-7.5-7.501-7.5zm213.948-403.413c0-3.48 2.832-6.312 6.313-6.312s6.312 2.832 6.312 6.312v32.249c0 3.481-2.832 6.313-6.312 6.313s-6.313-2.832-6.313-6.313zm-57.304-6.313c3.481 0 6.312 2.832 6.312 6.312v32.249c0 3.481-2.832 6.313-6.312 6.313s-6.313-2.832-6.313-6.313v-32.248c0-3.481 2.832-6.313 6.313-6.313zm-63.617 0c3.481 0 6.312 2.832 6.312 6.312v32.249c0 3.481-2.832 6.313-6.312 6.313s-6.313-2.832-6.313-6.313v-32.248c0-3.481 2.832-6.313 6.313-6.313zm-63.618 0c3.481 0 6.312 2.832 6.312 6.312v32.249c0 3.481-2.832 6.313-6.312 6.313s-6.313-2.832-6.313-6.313v-32.248c0-3.481 2.832-6.313 6.313-6.313zm-63.617 0c3.481 0 6.312 2.832 6.312 6.312v32.249c0 3.481-2.832 6.313-6.312 6.313s-6.313-2.832-6.313-6.313v-32.248c0-3.481 2.832-6.313 6.313-6.313zm-63.617 0c3.481 0 6.312 2.832 6.312 6.312v32.249c0 3.481-2.832 6.313-6.312 6.313s-6.313-2.832-6.313-6.313v-32.248c0-3.481 2.832-6.313 6.313-6.313zm-41.61 29.937h20.297v8.625c0 11.752 9.561 21.313 21.313 21.313s21.312-9.562 21.312-21.313v-8.624h20.992v8.624c0 11.752 9.561 21.313 21.313 21.313s21.312-9.562 21.312-21.313v-8.624h20.992v8.624c0 11.752 9.561 21.313 21.313 21.313s21.312-9.562 21.312-21.313v-8.624h20.992v8.624c0 11.752 9.561 21.313 21.313 21.313s21.312-9.562 21.312-21.313v-8.624h20.992v8.624c0 11.752 9.561 21.313 21.313 21.313s21.312-9.562 21.312-21.313v-8.624h20.992v8.624c0 11.752 9.561 21.313 21.313 21.313s21.312-9.562 21.312-21.313v-8.625h20.497c15.917 0 28.868 12.95 28.868 28.869v24.923h-459.24v-24.923c0-15.919 12.95-28.869 28.868-28.869z"/><path d="m281.435 439.829h-66.131c-4.142 0-7.5 3.357-7.5 7.5s3.358 7.5 7.5 7.5h66.131c4.142 0 7.5-3.357 7.5-7.5s-3.358-7.5-7.5-7.5z"/><path d="m441.452 188.307v-24.32c0-10.561-8.591-19.152-19.152-19.152h-355.359c-10.561 0-19.152 8.592-19.152 19.152v24.32c0 10.561 8.591 19.152 19.152 19.152h34.381c4.142 0 7.5-3.357 7.5-7.5s-3.358-7.5-7.5-7.5h-34.381c-2.29 0-4.152-1.862-4.152-4.152v-24.32c0-2.29 1.862-4.152 4.152-4.152h355.359c2.29 0 4.152 1.862 4.152 4.152v24.32c0 2.29-1.862 4.152-4.152 4.152h-288.977c-4.142 0-7.5 3.357-7.5 7.5s3.358 7.5 7.5 7.5h288.977c10.56.001 19.152-8.591 19.152-19.152z"/><path d="m272.157 242.22c0-8.504-6.918-15.422-15.422-15.422h-24.228c-8.504 0-15.422 6.918-15.422 15.422v17.854c0 8.504 6.918 15.423 15.422 15.423h24.228c8.504 0 15.422-6.919 15.422-15.423zm-15 17.855c0 .233-.189.423-.422.423h-24.228c-.233 0-.422-.189-.422-.423v-17.855c0-.232.189-.422.422-.422h24.228c.233 0 .422.189.422.422z"/><path d="m185.927 226.799h-24.227c-8.504 0-15.422 6.918-15.422 15.422v17.854c0 8.504 6.918 15.423 15.422 15.423h24.227c8.504 0 15.422-6.919 15.422-15.423v-17.855c.001-8.503-6.918-15.421-15.422-15.421zm.423 33.276c0 .233-.189.423-.422.423h-24.228c-.233 0-.422-.189-.422-.423v-17.855c0-.232.189-.422.422-.422h24.227c.233 0 .422.189.422.422v17.855z"/><path d="m130.543 242.22c0-8.504-6.918-15.422-15.422-15.422h-24.228c-8.504 0-15.422 6.918-15.422 15.422v17.854c0 8.504 6.918 15.423 15.422 15.423h24.228c8.504 0 15.422-6.919 15.422-15.423zm-15 17.855c0 .233-.189.423-.422.423h-24.228c-.233 0-.422-.189-.422-.423v-17.855c0-.232.189-.422.422-.422h24.228c.233 0 .422.189.422.422z"/><path d="m272.157 307.406c0-8.504-6.918-15.423-15.422-15.423h-24.228c-8.504 0-15.422 6.919-15.422 15.423v17.854c0 8.504 6.918 15.423 15.422 15.423h24.228c8.504 0 15.422-6.919 15.422-15.423zm-15 17.854c0 .233-.189.423-.422.423h-24.228c-.233 0-.422-.189-.422-.423v-17.854c0-.233.189-.423.422-.423h24.228c.233 0 .422.189.422.423z"/><path d="m185.927 291.983h-24.227c-8.504 0-15.422 6.919-15.422 15.423v17.854c0 8.504 6.918 15.423 15.422 15.423h24.227c8.504 0 15.422-6.919 15.422-15.423v-17.854c.001-8.504-6.918-15.423-15.422-15.423zm.423 33.277c0 .233-.189.423-.422.423h-24.228c-.233 0-.422-.189-.422-.423v-17.854c0-.233.189-.423.422-.423h24.227c.233 0 .422.189.422.423v17.854z"/><path d="m130.543 307.406c0-8.504-6.918-15.423-15.422-15.423h-24.228c-8.504 0-15.422 6.919-15.422 15.423v17.854c0 8.504 6.918 15.423 15.422 15.423h24.228c8.504 0 15.422-6.919 15.422-15.423zm-15 17.854c0 .233-.189.423-.422.423h-24.228c-.233 0-.422-.189-.422-.423v-17.854c0-.233.189-.423.422-.423h24.228c.233 0 .422.189.422.423z"/><path d="m256.734 357.169h-24.228c-8.504 0-15.422 6.918-15.422 15.422v17.854c0 8.504 6.918 15.423 15.422 15.423h24.228c8.504 0 15.422-6.919 15.422-15.423v-17.854c.001-8.504-6.918-15.422-15.422-15.422zm.423 33.276c0 .233-.189.423-.422.423h-24.228c-.233 0-.422-.189-.422-.423v-17.854c0-.232.189-.422.422-.422h24.228c.233 0 .422.189.422.422z"/><path d="m185.927 357.169h-24.227c-8.504 0-15.422 6.918-15.422 15.422v17.854c0 8.504 6.918 15.423 15.422 15.423h24.227c8.504 0 15.422-6.919 15.422-15.423v-17.854c.001-8.504-6.918-15.422-15.422-15.422zm.423 33.276c0 .233-.189.423-.422.423h-24.228c-.233 0-.422-.189-.422-.423v-17.854c0-.232.189-.422.422-.422h24.227c.233 0 .422.189.422.422v17.854z"/><path d="m115.121 357.169h-24.228c-8.504 0-15.422 6.918-15.422 15.422v17.854c0 8.504 6.918 15.423 15.422 15.423h24.228c8.504 0 15.422-6.919 15.422-15.423v-17.854c0-8.504-6.918-15.422-15.422-15.422zm.422 33.276c0 .233-.189.423-.422.423h-24.228c-.233 0-.422-.189-.422-.423v-17.854c0-.232.189-.422.422-.422h24.228c.233 0 .422.189.422.422z"/><path d="m513.098 293.959c0-5.658-4.603-10.261-10.261-10.261h-45.182c-4.142 0-7.5 3.357-7.5 7.5s3.358 7.5 7.5 7.5h40.443v123.476h-51.857c-5.658 0-10.261 4.603-10.261 10.261v50.561h-117.045v-184.298h21.207v41.174c0 12.406 10.093 22.499 22.5 22.499 12.406 0 22.499-10.093 22.499-22.499v-19.461c0-4.143-3.358-7.5-7.5-7.5s-7.5 3.357-7.5 7.5v19.461c0 4.135-3.364 7.499-7.499 7.499s-7.5-3.364-7.5-7.499v-41.174h70.514c4.142 0 7.5-3.357 7.5-7.5s-3.358-7.5-7.5-7.5h-26.701v-16.762c0-16.215-13.191-29.406-29.406-29.406s-29.407 13.191-29.407 29.406v16.762h-25.946c-5.658 0-10.261 4.603-10.261 10.261v193.774c0 5.658 4.603 10.262 10.261 10.262h126.614c4.143 0 8.039-1.614 10.969-4.544l56.777-56.776c.341-.341.66-.698.964-1.063 1.633-1.259 2.731-3.172 2.9-5.35.445-1.458.678-2.988.678-4.555zm-157.957-27.023c0-7.943 6.463-14.406 14.407-14.406s14.406 6.463 14.406 14.406v16.762h-28.813zm95.839 206.1v-35.862h35.863z"/></g></g></svg>