<svg id="Capa_1" enable-background="new 0 0 512.955 512.955" height="512" viewBox="0 0 512.955 512.955" width="512" xmlns="http://www.w3.org/2000/svg"><g><g><path d="m467.305 64.71h-421.58c-21.09 0-38.19 17.1-38.19 38.19v34.05l33.777 49.689h438.758l25.425-49.689v-34.05c0-21.09-17.1-38.19-38.19-38.19z" fill="#ee878a"/><path d="m52.598 64.71h-6.873c-21.09 0-38.19 17.1-38.19 38.19v34.05l33.777 49.689h11.286z" fill="#ec6e73"/><path d="m89.414 111.149c16.268 0 29.503-13.235 29.503-29.503v-16.936h-59.006v16.936c0 16.268 13.235 29.503 29.503 29.503z" fill="#ec6e73"/><path d="m89.414 96.149c-8.01 0-14.503-6.493-14.503-14.503v-33.862c0-8.01 6.493-14.503 14.503-14.503 8.01 0 14.503 6.493 14.503 14.503v33.862c.001 8.01-6.493 14.503-14.503 14.503z" fill="#f2eae7"/><path d="m156.213 111.149c16.268 0 29.503-13.235 29.503-29.503v-16.936h-59.007v16.936c0 16.268 13.236 29.503 29.504 29.503z" fill="#ec6e73"/><path d="m156.213 96.149c-8.01 0-14.503-6.493-14.503-14.503v-33.862c0-8.01 6.493-14.503 14.503-14.503 8.01 0 14.503 6.493 14.503 14.503v33.862c0 8.01-6.493 14.503-14.503 14.503z" fill="#f2eae7"/><path d="m223.011 111.149c16.268 0 29.503-13.235 29.503-29.503v-16.936h-59.007v16.936c.001 16.268 13.236 29.503 29.504 29.503z" fill="#ec6e73"/><path d="m223.011 96.149c-8.01 0-14.503-6.493-14.503-14.503v-33.862c0-8.01 6.493-14.503 14.503-14.503 8.01 0 14.503 6.493 14.503 14.503v33.862c0 8.01-6.493 14.503-14.503 14.503z" fill="#f2eae7"/><path d="m289.809 111.149c16.269 0 29.504-13.235 29.504-29.503v-16.936h-59.007v16.936c0 16.268 13.235 29.503 29.503 29.503z" fill="#ec6e73"/><path d="m289.809 96.149c-8.01 0-14.503-6.493-14.503-14.503v-33.862c0-8.01 6.493-14.503 14.503-14.503 8.01 0 14.503 6.493 14.503 14.503v33.862c.001 8.01-6.493 14.503-14.503 14.503z" fill="#f2eae7"/><path d="m356.608 111.149c16.268 0 29.503-13.235 29.503-29.503v-16.936h-59.006v16.936c0 16.268 13.235 29.503 29.503 29.503z" fill="#ec6e73"/><path d="m356.608 96.149c-8.01 0-14.503-6.493-14.503-14.503v-33.862c0-8.01 6.493-14.503 14.503-14.503 8.01 0 14.503 6.493 14.503 14.503v33.862c0 8.01-6.493 14.503-14.503 14.503z" fill="#f2eae7"/><path d="m423.406 111.149c16.269 0 29.504-13.235 29.504-29.503v-16.936h-59.007v16.936c0 16.268 13.235 29.503 29.503 29.503z" fill="#ec6e73"/><path d="m423.406 96.149c-8.01 0-14.503-6.493-14.503-14.503v-33.862c0-8.01 6.493-14.503 14.503-14.503 8.01 0 14.503 6.493 14.503 14.503v33.862c0 8.01-6.493 14.503-14.503 14.503z" fill="#f2eae7"/><g id="XMLID_247_"><g><path d="m505.495 136.95v304.11c0 21.09-17.1 38.19-38.19 38.19h-421.58c-21.09 0-38.19-17.1-38.19-38.19v-304.11z" fill="#f9f7f7"/></g></g><path d="m109.926 440.28c-31.661 0-57.328-25.667-57.328-57.328v-246.002h-45.063v304.11c0 21.092 17.098 38.19 38.19 38.19h421.58c21.092 0 38.19-17.098 38.19-38.19v-.78z" fill="#f2eae7"/><g><path d="m443.624 219.72h-374.293c-6.435 0-11.652-5.217-11.652-11.652v-26.702c0-6.435 5.217-11.652 11.652-11.652h374.293c6.435 0 11.652 5.217 11.652 11.652v26.702c0 6.436-5.217 11.652-11.652 11.652z" fill="#a9e4f9"/><g fill="#ee878a"><path d="m269.593 291.161h-26.231c-4.376 0-7.923-3.547-7.923-7.923v-19.539c0-4.376 3.547-7.923 7.923-7.923h26.231c4.375 0 7.923 3.547 7.923 7.923v19.539c0 4.375-3.548 7.923-7.923 7.923z"/><path d="m195.245 291.161h-26.231c-4.376 0-7.923-3.547-7.923-7.923v-19.539c0-4.376 3.547-7.923 7.923-7.923h26.231c4.375 0 7.923 3.547 7.923 7.923v19.539c0 4.375-3.547 7.923-7.923 7.923z"/><path d="m120.898 291.161h-26.231c-4.376 0-7.923-3.547-7.923-7.923v-19.539c0-4.376 3.547-7.923 7.923-7.923h26.231c4.376 0 7.923 3.547 7.923 7.923v19.539c-.001 4.375-3.548 7.923-7.923 7.923z"/><path d="m317.71 291.161h26.231c4.375 0 7.923-3.547 7.923-7.923v-19.539c0-4.376-3.547-7.923-7.923-7.923h-26.231c-4.376 0-7.923 3.547-7.923 7.923v19.539c0 4.375 3.547 7.923 7.923 7.923z"/><path d="m392.057 291.161h26.231c4.376 0 7.923-3.547 7.923-7.923v-19.539c0-4.376-3.547-7.923-7.923-7.923h-26.231c-4.375 0-7.923 3.547-7.923 7.923v19.539c.001 4.375 3.548 7.923 7.923 7.923z"/><path d="m269.593 359.605h-26.231c-4.376 0-7.923-3.547-7.923-7.923v-19.539c0-4.375 3.547-7.923 7.923-7.923h26.231c4.375 0 7.923 3.547 7.923 7.923v19.539c0 4.376-3.548 7.923-7.923 7.923z"/><path d="m195.245 359.605h-26.231c-4.376 0-7.923-3.547-7.923-7.923v-19.539c0-4.375 3.547-7.923 7.923-7.923h26.231c4.375 0 7.923 3.547 7.923 7.923v19.539c0 4.376-3.547 7.923-7.923 7.923z"/><path d="m120.898 359.605h-26.231c-4.376 0-7.923-3.547-7.923-7.923v-19.539c0-4.375 3.547-7.923 7.923-7.923h26.231c4.376 0 7.923 3.547 7.923 7.923v19.539c-.001 4.376-3.548 7.923-7.923 7.923z"/></g><path d="m269.593 428.05h-26.231c-4.376 0-7.923-3.547-7.923-7.923v-19.539c0-4.376 3.547-7.923 7.923-7.923h26.231c4.375 0 7.923 3.547 7.923 7.923v19.539c0 4.376-3.548 7.923-7.923 7.923z" fill="#9de5d1"/><path d="m195.245 428.05h-26.231c-4.376 0-7.923-3.547-7.923-7.923v-19.539c0-4.376 3.547-7.923 7.923-7.923h26.231c4.375 0 7.923 3.547 7.923 7.923v19.539c0 4.376-3.547 7.923-7.923 7.923z" fill="#9de5d1"/><path d="m120.898 428.05h-26.231c-4.376 0-7.923-3.547-7.923-7.923v-19.539c0-4.376 3.547-7.923 7.923-7.923h26.231c4.376 0 7.923 3.547 7.923 7.923v19.539c-.001 4.376-3.548 7.923-7.923 7.923z" fill="#ee878a"/></g><path d="m420.394 365.237-3.368 3.368c-.976.976-2.295 1.53-3.675 1.543l-15.463.148-14.933 14.933-8.118 31.189c-.973 3.737-5.637 5.005-8.368 2.274l-43.007-43.007c-2.731-2.731-1.463-7.395 2.274-8.368l31.189-8.118 14.933-14.933.148-15.463c.013-1.38.567-2.699 1.543-3.675l3.368-3.368c2.057-2.057 5.393-2.057 7.451 0l36.027 36.027c2.057 2.057 2.057 5.392-.001 7.45z" fill="#9de5d1"/></g><g><path d="m467.269 57.43h-21.896v-9.432c0-12.133-9.871-22.003-22.004-22.003s-22.003 9.87-22.003 22.003v9.432h-22.792v-9.432c0-12.133-9.87-22.003-22.003-22.003s-22.003 9.87-22.003 22.003v9.432h-22.792v-9.432c0-12.133-9.871-22.003-22.004-22.003s-22.003 9.87-22.003 22.003v9.432h-22.792v-9.432c0-12.133-9.871-22.003-22.003-22.003s-22.003 9.87-22.003 22.003v9.432h-22.792v-9.432c0-12.133-9.871-22.003-22.003-22.003s-22.003 9.87-22.003 22.003v9.432h-22.793v-9.432c0-12.133-9.871-22.003-22.003-22.003s-22.003 9.87-22.003 22.003v9.432h-21.687c-25.192 0-45.687 20.494-45.687 45.686v338.158c0 25.191 20.495 45.686 45.687 45.686h421.582c25.191 0 45.687-20.494 45.687-45.686v-55.105c0-4.143-3.357-7.5-7.5-7.5s-7.5 3.357-7.5 7.5v55.105c0 16.92-13.766 30.686-30.687 30.686h-421.582c-16.92 0-30.687-13.766-30.687-30.686v-296.613h48.002c4.142 0 7.5-3.357 7.5-7.5s-3.358-7.5-7.5-7.5h-48.002v-26.545c0-16.92 13.766-30.686 30.687-30.686h21.687v9.431c0 12.133 9.871 22.003 22.003 22.003s22.003-9.87 22.003-22.003v-9.431h22.792v9.431c0 12.133 9.871 22.003 22.003 22.003s22.003-9.87 22.003-22.003v-9.431h22.792v9.431c0 12.133 9.871 22.003 22.003 22.003s22.003-9.87 22.003-22.003v-9.431h22.792v9.431c0 12.133 9.87 22.003 22.003 22.003s22.004-9.87 22.004-22.003v-9.431h22.792v9.431c0 12.133 9.87 22.003 22.003 22.003s22.003-9.87 22.003-22.003v-9.431h22.792v9.431c0 12.133 9.87 22.003 22.003 22.003s22.004-9.87 22.004-22.003v-9.431h21.896c16.921 0 30.687 13.766 30.687 30.686v26.545h-402.991c-4.142 0-7.5 3.357-7.5 7.5s3.358 7.5 7.5 7.5h402.991v209.545c0 4.143 3.357 7.5 7.5 7.5s7.5-3.357 7.5-7.5v-251.09c0-25.192-20.495-45.686-45.686-45.686zm-370.889 24.431c0 3.861-3.142 7.003-7.003 7.003s-7.003-3.142-7.003-7.003v-33.862c0-3.861 3.142-7.003 7.003-7.003s7.003 3.142 7.003 7.003zm66.799 0c0 3.861-3.142 7.003-7.003 7.003s-7.003-3.142-7.003-7.003v-33.862c0-3.861 3.142-7.003 7.003-7.003s7.003 3.142 7.003 7.003zm66.798 0c0 3.861-3.142 7.003-7.003 7.003s-7.003-3.142-7.003-7.003v-33.862c0-3.861 3.142-7.003 7.003-7.003s7.003 3.142 7.003 7.003zm66.798 0c0 3.861-3.142 7.003-7.004 7.003-3.861 0-7.003-3.142-7.003-7.003v-33.862c0-3.861 3.142-7.003 7.003-7.003 3.862 0 7.004 3.142 7.004 7.003zm66.798 0c0 3.861-3.142 7.003-7.003 7.003s-7.003-3.142-7.003-7.003v-33.862c0-3.861 3.142-7.003 7.003-7.003s7.003 3.142 7.003 7.003zm66.799 0c0 3.861-3.142 7.003-7.004 7.003-3.861 0-7.003-3.142-7.003-7.003v-33.862c0-3.861 3.142-7.003 7.003-7.003 3.862 0 7.004 3.142 7.004 7.003z"/><g><path d="m443.624 227.22h-374.293c-10.561 0-19.152-8.591-19.152-19.151v-26.702c0-10.561 8.591-19.151 19.152-19.151h310.171c4.143 0 7.5 3.357 7.5 7.5s-3.357 7.5-7.5 7.5h-310.171c-2.29 0-4.152 1.862-4.152 4.151v26.702c0 2.289 1.862 4.151 4.152 4.151h374.293c2.29 0 4.152-1.862 4.152-4.151v-26.702c0-2.289-1.862-4.151-4.152-4.151h-32.159c-4.143 0-7.5-3.357-7.5-7.5s3.357-7.5 7.5-7.5h32.159c10.561 0 19.152 8.591 19.152 19.151v26.702c0 10.56-8.591 19.151-19.152 19.151z"/></g><g><path d="m269.593 298.661h-26.23c-8.504 0-15.423-6.919-15.423-15.423v-19.539c0-8.504 6.918-15.423 15.423-15.423h26.23c8.504 0 15.423 6.919 15.423 15.423v19.539c0 8.504-6.919 15.423-15.423 15.423zm-26.231-35.385c-.233 0-.423.189-.423.423v19.539c0 .233.189.423.423.423h26.23c.233 0 .423-.189.423-.423v-19.539c0-.233-.189-.423-.423-.423z"/></g><g><path d="m195.246 298.661h-26.231c-8.504 0-15.423-6.919-15.423-15.423v-19.539c0-8.504 6.918-15.423 15.423-15.423h26.231c8.504 0 15.422 6.919 15.422 15.423v19.539c0 8.504-6.918 15.423-15.422 15.423zm-26.231-35.385c-.233 0-.423.189-.423.423v19.539c0 .233.189.423.423.423h26.231c.233 0 .422-.189.422-.423v-19.539c0-.233-.189-.423-.422-.423z"/></g><g><path d="m120.898 298.661h-26.231c-8.504 0-15.422-6.919-15.422-15.423v-19.539c0-8.504 6.918-15.423 15.422-15.423h26.231c8.504 0 15.422 6.919 15.422 15.423v19.539c0 8.504-6.918 15.423-15.422 15.423zm-26.231-35.385c-.233 0-.422.189-.422.423v19.539c0 .233.189.423.422.423h26.231c.233 0 .422-.189.422-.423v-19.539c0-.233-.189-.423-.422-.423z"/></g><g><path d="m343.94 298.661h-26.23c-8.504 0-15.423-6.919-15.423-15.423v-19.539c0-8.504 6.919-15.423 15.423-15.423h26.23c8.504 0 15.423 6.919 15.423 15.423v19.539c0 8.504-6.919 15.423-15.423 15.423zm-26.23-35.385c-.233 0-.423.189-.423.423v19.539c0 .233.189.423.423.423h26.23c.233 0 .423-.189.423-.423v-19.539c0-.233-.189-.423-.423-.423z"/></g><g><path d="m418.288 298.661h-26.23c-8.504 0-15.423-6.919-15.423-15.423v-19.539c0-8.504 6.919-15.423 15.423-15.423h26.23c8.504 0 15.423 6.919 15.423 15.423v19.539c0 8.504-6.919 15.423-15.423 15.423zm-26.23-35.385c-.233 0-.423.189-.423.423v19.539c0 .233.189.423.423.423h26.23c.233 0 .423-.189.423-.423v-19.539c0-.233-.189-.423-.423-.423z"/></g><g><path d="m269.593 367.105h-26.23c-8.504 0-15.423-6.918-15.423-15.422v-19.54c0-8.504 6.918-15.422 15.423-15.422h26.23c8.504 0 15.423 6.918 15.423 15.422v19.54c0 8.504-6.919 15.422-15.423 15.422zm-26.231-35.384c-.233 0-.423.189-.423.422v19.54c0 .232.189.422.423.422h26.23c.233 0 .423-.189.423-.422v-19.54c0-.232-.189-.422-.423-.422z"/></g><g><path d="m195.246 367.105h-26.231c-8.504 0-15.423-6.918-15.423-15.422v-19.54c0-8.504 6.918-15.422 15.423-15.422h26.231c8.504 0 15.422 6.918 15.422 15.422v19.54c0 8.504-6.918 15.422-15.422 15.422zm-26.231-35.384c-.233 0-.423.189-.423.422v19.54c0 .232.189.422.423.422h26.231c.233 0 .422-.189.422-.422v-19.54c0-.232-.189-.422-.422-.422z"/></g><g><path d="m120.898 367.105h-26.231c-8.504 0-15.422-6.918-15.422-15.422v-19.54c0-8.504 6.918-15.422 15.422-15.422h26.231c8.504 0 15.422 6.918 15.422 15.422v19.54c0 8.504-6.918 15.422-15.422 15.422zm-26.231-35.384c-.233 0-.422.189-.422.422v19.54c0 .232.189.422.422.422h26.231c.233 0 .422-.189.422-.422v-19.54c0-.232-.189-.422-.422-.422z"/></g><g><path d="m269.593 435.55h-26.23c-8.504 0-15.423-6.919-15.423-15.423v-19.539c0-8.504 6.918-15.423 15.423-15.423h26.23c8.504 0 15.423 6.919 15.423 15.423v19.539c0 8.504-6.919 15.423-15.423 15.423zm-26.231-35.384c-.233 0-.423.189-.423.423v19.539c0 .233.189.423.423.423h26.23c.233 0 .423-.189.423-.423v-19.539c0-.233-.189-.423-.423-.423z"/></g><g><path d="m195.246 435.55h-26.231c-8.504 0-15.423-6.919-15.423-15.423v-19.539c0-8.504 6.918-15.423 15.423-15.423h26.231c8.504 0 15.422 6.919 15.422 15.423v19.539c0 8.504-6.918 15.423-15.422 15.423zm-26.231-35.384c-.233 0-.423.189-.423.423v19.539c0 .233.189.423.423.423h26.231c.233 0 .422-.189.422-.423v-19.539c0-.233-.189-.423-.422-.423z"/></g><g><path d="m120.898 435.55h-26.231c-8.504 0-15.422-6.919-15.422-15.423v-19.539c0-8.504 6.918-15.423 15.422-15.423h26.231c8.504 0 15.422 6.919 15.422 15.423v19.539c0 8.504-6.918 15.423-15.422 15.423zm-26.231-35.384c-.233 0-.422.189-.422.423v19.539c0 .233.189.423.422.423h26.231c.233 0 .422-.189.422-.423v-19.539c0-.233-.189-.423-.422-.423z"/></g><g><path d="m370.016 427.653c-3.273 0-6.479-1.287-8.85-3.656l-43.008-43.009c-3.159-3.16-4.394-7.802-3.222-12.113 1.172-4.312 4.586-7.69 8.911-8.815l29.215-7.605 11.324-11.324.119-12.399c.034-3.366 1.361-6.528 3.739-8.906l3.368-3.368c2.412-2.411 5.618-3.739 9.029-3.739 3.41 0 6.616 1.328 9.028 3.739l36.027 36.026c4.977 4.979 4.977 13.079.001 18.057-.001.001-.001.001-.001.002l-3.368 3.368c-2.38 2.379-5.544 3.707-8.909 3.738l-12.396.119-11.323 11.322-7.605 29.217c-1.125 4.323-4.502 7.737-8.814 8.91-1.078.293-2.176.436-3.265.436zm-38.159-54.18 36.823 36.823 7.017-26.957c.336-1.291 1.011-2.47 1.954-3.413l14.933-14.934c1.389-1.39 3.268-2.178 5.231-2.197l14.554-.14 1.145-1.145-32.871-32.87-1.146 1.145-.14 14.552c-.02 1.964-.808 3.842-2.196 5.23l-14.933 14.934c-.944.944-2.123 1.619-3.414 1.955zm88.538-8.236h.01zm-5.305-5.302h.01z"/></g><g><path d="m328.324 421.33c-1.919 0-3.839-.732-5.304-2.196-2.929-2.93-2.929-7.678 0-10.607l16.642-16.642c2.93-2.928 7.678-2.928 10.607 0 2.929 2.93 2.929 7.678 0 10.607l-16.642 16.642c-1.464 1.463-3.384 2.196-5.303 2.196z"/></g></g></g></svg>