<svg id="Capa_1" enable-background="new 0 0 512.41 512.41" height="512" viewBox="0 0 512.41 512.41" width="512" xmlns="http://www.w3.org/2000/svg"><g><g><g id="XMLID_196_"><g><path d="m51.716 335.304c-26.5-15.97-44.22-45.04-44.22-78.24 0-50.43 40.88-91.31 91.31-91.31s91.31 40.88 91.31 91.31c0 32.86-17.36 61.66-43.4 77.74-13.93 8.61-30.34 13.57-47.91 13.57-17.23 0-33.34-4.77-47.09-13.07z" fill="#cfeffc"/></g></g><path d="m75.86 333.434c-26.5-15.97-44.22-45.04-44.22-78.24 0-43.874 30.944-80.513 72.197-89.3-1.666-.09-3.342-.14-5.031-.14-50.43 0-91.31 40.88-91.31 91.31 0 33.2 17.72 62.27 44.22 78.24 13.75 8.3 29.86 13.07 47.09 13.07 6.577 0 12.99-.696 19.173-2.017-15.355-.824-29.701-5.427-42.119-12.923z" fill="#a9e4f9"/><circle cx="98.809" cy="257.064" fill="#a9e4f9" r="65.303"/><path d="m435.766 186.924c-38.19 0-69.15 30.95-69.15 69.14 0 25.909 14.259 48.476 35.348 60.32l6.183-7.869h54.928l6.991 7.609c20.819-11.916 34.84-34.35 34.84-60.06 0-38.19-30.95-69.14-69.14-69.14z" fill="#9de5d1"/><path d="m435.766 8.044c-38.19 0-69.15 30.96-69.15 69.14 0 25.816 14.158 48.312 35.123 60.191l10.292-7.74h49.857l8.519 7.409c20.632-11.965 34.5-34.291 34.5-59.86-.001-38.18-30.951-69.14-69.141-69.14z" fill="#ee878a"/><g><g><path d="m146.596 334.614.12.19c-13.93 8.61-30.34 13.57-47.91 13.57-17.23 0-33.34-4.77-47.09-13.07v-10.46c0-9.56 4.92-18.44 13.02-23.51l17.74-11.1v-43.57h33.36v43.57l17.74 11.1c8.1 5.07 13.02 13.95 13.02 23.51z" fill="#f9f7f7"/></g><path d="m82.476 274.356v15.878l-17.74 11.1c-8.1 5.07-13.02 13.95-13.02 23.51v10.46c4.02 2.427 8.247 4.542 12.64 6.334v-8.598c0-9.56 4.92-18.44 13.02-23.51l13.984-8.75c2.337-1.462 3.756-4.024 3.756-6.781 0-2.198 1.801-3.932 3.999-3.93h.041c5.833 0 11.439-.977 16.68-2.752v-12.962h-33.36z" fill="#f2eae7"/><circle cx="99.155" cy="237.913" fill="#f9f7f7" r="42.156"/><path d="m76.362 237.913c0-19.949 13.842-36.673 32.455-41.049-3.11-.731-6.329-1.107-9.662-1.107-23.282 0-42.156 18.874-42.156 42.156s18.874 42.156 42.156 42.156c3.333 0 6.561-.384 9.671-1.115-18.613-4.376-32.464-21.092-32.464-41.041z" fill="#f2eae7"/><path d="m409.424 303.586c-11.191-12.281-18.025-28.599-18.025-46.525 0-34.914 25.881-63.781 59.501-68.476-4.873-1.088-9.933-1.661-15.134-1.661-38.19 0-69.15 30.95-69.15 69.14 0 25.906 14.247 48.486 35.333 60.33z" fill="#82dec5"/><g><path d="m470.066 308.344v7.78c-10.11 5.78-21.81 9.09-34.3 9.09-12.28 0-23.82-3.2-33.81-8.82v-8.05c0-6.87 3.54-13.25 9.35-16.89l12.73-7.96v-8.47-33.1h25.14l-1.19 33.1v8.47l12.73 7.96c5.82 3.64 9.35 10.02 9.35 16.89z" fill="#f9f7f7"/></g><path d="m431.89 271.152h-7.854v12.342l-12.73 7.96c-5.81 3.64-9.35 10.02-9.35 16.89l-.008 8.051c2.523 1.42 5.154 2.683 7.862 3.781v-5.918c0-6.87 3.54-13.25 9.35-16.89l9.934-6.212c1.74-1.088 2.796-2.995 2.796-5.046v-.893c0-1.703 1.398-3.085 3.101-3.034.34.01.681.016 1.023.016 4.194 0 8.221-.724 11.971-2.04v-5.134l.139-3.872h-16.234z" fill="#f2eae7"/><circle cx="436.014" cy="245.938" fill="#f9f7f7" r="30.26"/><path d="m417.982 244.565c0-13.419 8.738-24.79 20.831-28.754-.922-.084-1.855-.134-2.799-.134-16.712 0-30.26 13.548-30.26 30.26s13.548 30.26 30.26 30.26c3.293 0 6.453-.523 9.421-1.495-15.399-1.413-27.453-14.369-27.453-30.137z" fill="#f2eae7"/><path d="m434.65 365.509c-38.19 0-69.15 30.95-69.15 69.14 0 25.909 14.259 48.476 35.348 60.32l6.183-7.869h54.928l6.991 7.609c20.819-11.916 34.84-34.35 34.84-60.06 0-38.19-30.95-69.14-69.14-69.14z" fill="#fbe88c"/><path d="m408.308 482.171c-11.191-12.281-18.025-28.599-18.025-46.525 0-34.914 25.881-63.781 59.501-68.476-4.873-1.088-9.933-1.661-15.134-1.661-38.19 0-69.15 30.95-69.15 69.14 0 25.906 14.247 48.486 35.333 60.33z" fill="#fbe372"/><g><path d="m468.95 486.929v7.78c-10.11 5.78-21.81 9.09-34.3 9.09-12.28 0-23.82-3.2-33.81-8.82v-8.05c0-6.87 3.54-13.25 9.35-16.89l12.73-7.96v-8.47-33.1h25.14l-1.19 33.1v8.47l12.73 7.96c5.82 3.64 9.35 10.02 9.35 16.89z" fill="#f9f7f7"/></g><path d="m430.774 449.737h-7.854v12.342l-12.73 7.96c-5.81 3.64-9.35 10.02-9.35 16.89l-.008 8.051c2.523 1.42 5.154 2.683 7.862 3.781v-5.918c0-6.87 3.54-13.25 9.35-16.89l9.934-6.211c1.74-1.088 2.796-2.995 2.796-5.046v-.893c0-1.703 1.398-3.085 3.101-3.034.34.01.681.015 1.023.015 4.194 0 8.221-.724 11.971-2.04v-5.134l.139-3.872h-16.234z" fill="#f2eae7"/><circle cx="434.898" cy="424.523" fill="#f9f7f7" r="30.26"/><path d="m416.866 423.15c0-13.419 8.738-24.79 20.831-28.754-.922-.084-1.855-.134-2.799-.134-16.712 0-30.26 13.548-30.26 30.26s13.548 30.26 30.26 30.26c3.293 0 6.453-.523 9.421-1.495-15.399-1.413-27.453-14.369-27.453-30.137z" fill="#f2eae7"/><path d="m412.41 127.152c-13.173-12.584-21.39-30.309-21.39-49.968 0-34.015 24.587-62.304 56.954-68.07-3.963-.706-8.042-1.07-12.208-1.07-38.19 0-69.15 30.96-69.15 69.14 0 25.815 14.146 48.322 35.11 60.2z" fill="#ec6e73"/><g id="XMLID_249_"><g><path d="m470.406 137.044c-10.18 5.91-22.01 9.29-34.64 9.29-12.38 0-23.99-3.25-34.04-8.95l.23-7.92c0-6.87 3.54-13.24 9.35-16.88l12.73-7.97v-34.5h23.95v34.5l12.73 7.97c5.82 3.64 9.35 10.01 9.35 16.88z" fill="#f9f7f7"/></g></g><path d="m429.021 87.563v4.245h-4.986v12.805l-12.73 7.97c-5.81 3.64-9.35 10.01-9.35 16.88l-.23 7.92c3.273 1.856 8.96 4.37 8.323 4.008l.267-8.226c0-6.87 3.54-13.24 9.35-16.88l11.216-7.022c.942-.59 1.514-1.623 1.514-2.735 0-1.799 1.474-3.231 3.273-3.213.115.001.231.002.346.002 4.194 0 8.221-.724 11.971-2.04v-13.714z" fill="#f2eae7"/><circle cx="436.014" cy="67.059" fill="#f9f7f7" r="30.26"/><path d="m416.649 67.059c0-14.851 10.72-27.201 24.831-29.768-1.768-.322-3.605-.492-5.466-.492-16.712 0-30.26 13.548-30.26 30.26s13.548 30.26 30.26 30.26c1.861 0 3.688-.169 5.455-.49-14.11-2.567-24.82-14.919-24.82-29.77z" fill="#f2eae7"/></g></g><path d="m296.989 263.566h62.503c3.782 38.754 36.542 69.145 76.273 69.145 42.262 0 76.645-34.383 76.645-76.645 0-42.263-34.383-76.646-76.645-76.646-39.731 0-72.491 30.39-76.273 69.146h-62.503v-163.879h62.503c3.782 38.754 36.542 69.145 76.273 69.145 42.262 0 76.645-34.383 76.645-76.645 0-9.6-1.774-18.998-5.273-27.933-1.509-3.856-5.861-5.761-9.718-4.249-3.857 1.51-5.76 5.861-4.249 9.718 2.813 7.186 4.24 14.743 4.24 22.464 0 18.232-7.962 34.634-20.585 45.93-1.632-6.936-5.906-13.003-12.127-16.896l-9.209-5.764v-1.061c10.949-6.618 18.285-18.636 18.285-32.338 0-20.821-16.938-37.76-37.76-37.76s-37.761 16.938-37.761 37.76c0 13.701 7.336 25.719 18.285 32.337v1.061l-9.209 5.764c-6.328 3.96-10.641 10.171-12.207 17.257-12.861-11.306-21.002-27.861-21.002-46.291 0-33.991 27.653-61.646 61.645-61.646 15.087 0 29.612 5.52 40.9 15.542 3.098 2.75 7.838 2.468 10.588-.629 2.75-3.098 2.469-7.838-.629-10.588-14.035-12.46-32.098-19.323-50.858-19.323-39.731 0-72.491 30.39-76.273 69.146h-70.003c-4.143 0-7.5 3.357-7.5 7.5v171.379h-84.745c-1.466-17.226-7.372-33.65-17.323-47.931-2.368-3.397-7.043-4.234-10.441-1.865-3.398 2.368-4.233 7.043-1.865 10.441 9.815 14.084 15.003 30.632 15.003 47.854 0 25.182-11.18 47.788-28.818 63.164-.714-5.492-2.703-10.653-5.747-15.141 12.515-12.809 19.565-29.93 19.565-48.022 0-37.941-30.867-68.809-68.809-68.809s-68.81 30.867-68.81 68.808c0 18.314 7.202 35.587 19.976 48.436-2.986 4.541-4.892 9.751-5.523 15.278-18.006-15.384-29.453-38.232-29.453-63.715 0-46.212 37.597-83.809 83.809-83.809 17.298 0 33.905 5.229 48.026 15.123 3.393 2.378 8.069 1.553 10.446-1.839 2.377-3.393 1.554-8.069-1.839-10.446-16.656-11.67-36.24-17.838-56.634-17.838-54.483 0-98.808 44.326-98.808 98.809s44.325 98.809 98.809 98.809c52.299 0 95.23-40.844 98.589-92.308h84.591v171.658c0 4.143 3.357 7.5 7.5 7.5h70.003c3.782 38.754 36.542 69.145 76.273 69.145 42.262 0 76.645-34.383 76.645-76.645s-34.383-76.645-76.645-76.645c-11.282 0-22.171 2.411-32.363 7.167-3.754 1.752-5.377 6.215-3.626 9.968 1.753 3.755 6.215 5.379 9.968 3.626 8.192-3.822 16.947-5.761 26.021-5.761 33.991 0 61.645 27.653 61.645 61.645 0 18.232-7.962 34.634-20.585 45.93-1.632-6.935-5.906-13.002-12.127-16.895l-9.209-5.764v-1.061c10.949-6.619 18.285-18.637 18.285-32.338 0-20.821-16.938-37.76-37.76-37.76s-37.761 16.938-37.761 37.76c0 13.701 7.336 25.719 18.285 32.338v1.062l-9.209 5.764c-6.328 3.96-10.64 10.17-12.207 17.256-12.861-11.306-21.002-27.861-21.002-46.291 0-13.931 4.55-27.084 13.157-38.038 2.559-3.257 1.993-7.972-1.264-10.531-3.256-2.558-7.972-1.994-10.531 1.264-9.145 11.639-14.593 25.277-15.99 39.806h-62.505v-164.16zm112.47 48.235v-3.462c0-4.306 2.179-8.24 5.828-10.524l12.73-7.967c2.191-1.371 3.521-3.773 3.521-6.357v-.067c1.469.174 2.96.274 4.476.274 1.515 0 3.006-.1 4.475-.274v.067c0 2.584 1.33 4.986 3.521 6.357l12.73 7.967c3.65 2.284 5.829 6.219 5.829 10.524v3.23c-8.109 3.932-17.204 6.141-26.805 6.141-9.405 0-18.321-2.125-26.305-5.909zm26.556-43.103c-12.551 0-22.761-10.21-22.761-22.76s10.21-22.76 22.761-22.76c12.55 0 22.76 10.21 22.76 22.76s-10.211 22.76-22.76 22.76zm-.249-74.278c33.991 0 61.645 27.654 61.645 61.646 0 18.232-7.962 34.634-20.585 45.93-1.632-6.936-5.906-13.003-12.127-16.896l-9.209-5.764v-1.061c10.949-6.618 18.285-18.636 18.285-32.338 0-20.821-16.938-37.76-37.76-37.76s-37.761 16.938-37.761 37.76c0 13.701 7.336 25.719 18.285 32.337v1.061l-9.209 5.764c-6.328 3.96-10.641 10.171-12.207 17.257-12.861-11.306-21.002-27.861-21.002-46.291 0-33.99 27.653-61.645 61.645-61.645zm.249-150.121c12.55 0 22.76 10.21 22.76 22.76s-10.21 22.76-22.76 22.76c-12.551 0-22.761-10.21-22.761-22.76s10.21-22.76 22.761-22.76zm-26.556 85.161c0-4.306 2.179-8.24 5.828-10.524l12.73-7.967c2.191-1.371 3.521-3.773 3.521-6.357v-.067c1.469.174 2.96.274 4.476.274 1.515 0 3.006-.1 4.475-.274v.067c0 2.584 1.33 4.986 3.521 6.357l12.73 7.967c3.65 2.284 5.829 6.219 5.829 10.524v3.23c-8.109 3.932-17.204 6.141-26.805 6.141-9.406 0-18.323-2.125-26.307-5.909v-3.462zm-272.276 165.28-13.844-8.665v-4.815c15.182-8.504 25.473-24.742 25.473-43.347 0-.254-.01-.506-.013-.759 2.463 6.162 3.819 12.881 3.819 19.911-.001 14.203-5.567 27.642-15.435 37.675zm-72.684-56.826c0-19.109 15.547-34.656 34.656-34.656s34.656 15.547 34.656 34.656-15.547 34.656-34.656 34.656-34.656-15.547-34.656-34.656zm-19.499 19.152c0-7.715 1.642-15.05 4.58-21.688-.043.842-.081 1.684-.081 2.536 0 18.605 10.29 34.843 25.473 43.347v4.815l-14.213 8.896c-.02.012-.038.027-.058.039-10.039-10.06-15.701-23.595-15.701-37.945zm14.211 73.84v-6.059c0-5.609 2.274-10.827 6.221-14.6.082-.077.164-.155.243-.236.927-.857 1.943-1.638 3.041-2.325l17.734-11.099c2.191-1.371 3.521-3.773 3.521-6.357v-3.525c2.978.559 6.045.865 9.184.865s6.205-.306 9.184-.865v3.525c0 2.584 1.33 4.986 3.521 6.357l17.734 11.099c1.103.69 2.122 1.474 3.052 2.335.015.013.029.026.044.039 4.066 3.786 6.409 9.087 6.409 14.786v5.68c-11.964 6.588-25.695 10.346-40.291 10.346-14.314.002-27.797-3.612-39.597-9.966zm376.804 71.43c12.55 0 22.76 10.21 22.76 22.76 0 12.551-10.21 22.761-22.76 22.761-12.551 0-22.761-10.21-22.761-22.761 0-12.55 10.21-22.76 22.761-22.76zm-26.556 85.163c0-4.306 2.179-8.24 5.828-10.524l12.73-7.967c2.191-1.371 3.521-3.773 3.521-6.357v-.067c1.469.174 2.96.274 4.476.274 1.515 0 3.006-.1 4.475-.274v.067c0 2.584 1.33 4.986 3.521 6.357l12.73 7.967c3.65 2.284 5.829 6.219 5.829 10.524v3.229c-8.109 3.932-17.204 6.141-26.805 6.141-9.406 0-18.323-2.125-26.307-5.909v-3.461z"/></g></svg>