<svg id="Capa_1" enable-background="new 0 0 512.955 512.955" height="512" viewBox="0 0 512.955 512.955" width="512" xmlns="http://www.w3.org/2000/svg"><g><g><path d="m467.163 64.221h-421.58c-21.09 0-38.19 17.1-38.19 38.19v34.05l33.777 49.689h438.758l25.425-49.689v-34.05c0-21.09-17.1-38.19-38.19-38.19z" fill="#ee878a"/><path d="m52.456 64.221h-6.873c-21.09 0-38.19 17.1-38.19 38.19v34.05l33.777 49.689h11.286z" fill="#ec6e73"/><g id="XMLID_1_"><g><path d="m505.353 136.461v304.11c0 21.09-17.1 38.19-38.19 38.19h-421.58c-21.09 0-38.19-17.1-38.19-38.19v-304.11z" fill="#f9f7f7"/></g></g><path d="m109.784 439.791c-31.661 0-57.328-25.667-57.328-57.328v-246.002h-45.063v304.11c0 21.092 17.098 38.19 38.19 38.19h421.58c21.092 0 38.19-17.098 38.19-38.19v-.78z" fill="#f2eae7"/><g fill="#ded4cf"><path d="m269.593 284.161h-26.231c-4.376 0-7.923-3.547-7.923-7.923v-19.539c0-4.376 3.547-7.923 7.923-7.923h26.231c4.375 0 7.923 3.547 7.923 7.923v19.539c0 4.375-3.548 7.923-7.923 7.923z"/><path d="m195.245 284.161h-26.231c-4.376 0-7.923-3.547-7.923-7.923v-19.539c0-4.376 3.547-7.923 7.923-7.923h26.231c4.375 0 7.923 3.547 7.923 7.923v19.539c0 4.375-3.547 7.923-7.923 7.923z"/><path d="m120.898 284.161h-26.231c-4.376 0-7.923-3.547-7.923-7.923v-19.539c0-4.376 3.547-7.923 7.923-7.923h26.231c4.376 0 7.923 3.547 7.923 7.923v19.539c-.001 4.375-3.548 7.923-7.923 7.923z"/><path d="m317.71 284.161h26.231c4.375 0 7.923-3.547 7.923-7.923v-19.539c0-4.376-3.547-7.923-7.923-7.923h-26.231c-4.376 0-7.923 3.547-7.923 7.923v19.539c0 4.375 3.547 7.923 7.923 7.923z"/><path d="m392.057 284.161h26.231c4.376 0 7.923-3.547 7.923-7.923v-19.539c0-4.376-3.547-7.923-7.923-7.923h-26.231c-4.375 0-7.923 3.547-7.923 7.923v19.539c.001 4.375 3.548 7.923 7.923 7.923z"/><path d="m269.593 352.605h-26.231c-4.376 0-7.923-3.547-7.923-7.923v-19.539c0-4.375 3.547-7.923 7.923-7.923h26.231c4.375 0 7.923 3.547 7.923 7.923v19.539c0 4.376-3.548 7.923-7.923 7.923z"/><path d="m195.245 352.605h-26.231c-4.376 0-7.923-3.547-7.923-7.923v-19.539c0-4.375 3.547-7.923 7.923-7.923h26.231c4.375 0 7.923 3.547 7.923 7.923v19.539c0 4.376-3.547 7.923-7.923 7.923z"/><path d="m120.898 352.605h-26.231c-4.376 0-7.923-3.547-7.923-7.923v-19.539c0-4.375 3.547-7.923 7.923-7.923h26.231c4.376 0 7.923 3.547 7.923 7.923v19.539c-.001 4.376-3.548 7.923-7.923 7.923z"/><path d="m269.593 421.05h-26.231c-4.376 0-7.923-3.547-7.923-7.923v-19.539c0-4.376 3.547-7.923 7.923-7.923h26.231c4.375 0 7.923 3.547 7.923 7.923v19.539c0 4.376-3.548 7.923-7.923 7.923z"/><path d="m195.245 421.05h-26.231c-4.376 0-7.923-3.547-7.923-7.923v-19.539c0-4.376 3.547-7.923 7.923-7.923h26.231c4.375 0 7.923 3.547 7.923 7.923v19.539c0 4.376-3.547 7.923-7.923 7.923z"/><path d="m120.898 421.05h-26.231c-4.376 0-7.923-3.547-7.923-7.923v-19.539c0-4.376 3.547-7.923 7.923-7.923h26.231c4.376 0 7.923 3.547 7.923 7.923v19.539c-.001 4.376-3.548 7.923-7.923 7.923z"/></g><path d="m361.015 371.093-5.049-5.779c-1.203-1.377-1.706-3.23-1.365-5.026l3.081-16.222c.802-4.223-.617-8.563-3.759-11.497l-12.981-12.122c-5.058-4.724-12.988-4.452-17.712.606l-3.289 3.522c-5.346 5.725-7.178 13.894-4.787 21.353 13.755 42.927 48.793 75.645 92.559 86.433 7.605 1.875 15.63-.511 20.976-6.236l3.289-3.522c4.724-5.058 4.452-12.988-.606-17.712l-12.981-12.122c-3.142-2.934-7.569-4.053-11.727-2.964l-15.966 4.181c-1.773.464-3.661.086-5.118-1.026l-6.475-4.94c-6.582-5.02-12.643-10.692-18.09-16.927z" fill="#9de5d1"/><path d="m443.482 219.231h-374.293c-6.435 0-11.652-5.217-11.652-11.652v-26.702c0-6.435 5.217-11.652 11.652-11.652h374.293c6.435 0 11.652 5.217 11.652 11.652v26.702c0 6.436-5.217 11.652-11.652 11.652z" fill="#a9e4f9"/><path d="m89.272 110.66c16.268 0 29.503-13.235 29.503-29.503v-16.936h-59.006v16.936c0 16.267 13.235 29.503 29.503 29.503z" fill="#ec6e73"/><path d="m89.272 95.66c-8.01 0-14.503-6.493-14.503-14.503v-33.862c0-8.01 6.493-14.503 14.503-14.503 8.01 0 14.503 6.493 14.503 14.503v33.862c0 8.01-6.493 14.503-14.503 14.503z" fill="#f2eae7"/><path d="m156.07 110.66c16.268 0 29.503-13.235 29.503-29.503v-16.936h-59.007v16.936c.001 16.267 13.236 29.503 29.504 29.503z" fill="#ec6e73"/><path d="m156.07 95.66c-8.01 0-14.503-6.493-14.503-14.503v-33.862c0-8.01 6.493-14.503 14.503-14.503 8.01 0 14.503 6.493 14.503 14.503v33.862c.001 8.01-6.493 14.503-14.503 14.503z" fill="#f2eae7"/><path d="m222.869 110.66c16.268 0 29.503-13.235 29.503-29.503v-16.936h-59.007v16.936c0 16.267 13.236 29.503 29.504 29.503z" fill="#ec6e73"/><path d="m222.869 95.66c-8.01 0-14.503-6.493-14.503-14.503v-33.862c0-8.01 6.493-14.503 14.503-14.503 8.01 0 14.503 6.493 14.503 14.503v33.862c0 8.01-6.493 14.503-14.503 14.503z" fill="#f2eae7"/><path d="m289.667 110.66c16.269 0 29.504-13.235 29.504-29.503v-16.936h-59.007v16.936c0 16.267 13.235 29.503 29.503 29.503z" fill="#ec6e73"/><path d="m289.667 95.66c-8.01 0-14.503-6.493-14.503-14.503v-33.862c0-8.01 6.493-14.503 14.503-14.503 8.01 0 14.503 6.493 14.503 14.503v33.862c0 8.01-6.493 14.503-14.503 14.503z" fill="#f2eae7"/><path d="m356.466 110.66c16.268 0 29.503-13.235 29.503-29.503v-16.936h-59.006v16.936c0 16.267 13.235 29.503 29.503 29.503z" fill="#ec6e73"/><path d="m356.465 95.66c-8.01 0-14.503-6.493-14.503-14.503v-33.862c0-8.01 6.493-14.503 14.503-14.503 8.01 0 14.503 6.493 14.503 14.503v33.862c.001 8.01-6.493 14.503-14.503 14.503z" fill="#f2eae7"/><path d="m423.263 110.66c16.269 0 29.504-13.235 29.504-29.503v-16.936h-59.007v16.936c0 16.267 13.236 29.503 29.503 29.503z" fill="#ec6e73"/><path d="m423.264 95.66c-8.01 0-14.503-6.493-14.503-14.503v-33.862c0-8.01 6.493-14.503 14.503-14.503 8.01 0 14.503 6.493 14.503 14.503v33.862c0 8.01-6.493 14.503-14.503 14.503z" fill="#f2eae7"/></g><g><path d="m462.776 208.069v-26.702c0-10.561-8.592-19.151-19.152-19.151h-26.96c-4.143 0-7.5 3.357-7.5 7.5s3.357 7.5 7.5 7.5h26.96c2.29 0 4.152 1.862 4.152 4.151v26.702c0 2.289-1.862 4.151-4.152 4.151h-374.293c-2.29 0-4.152-1.862-4.152-4.151v-26.702c0-2.289 1.862-4.151 4.152-4.151h315.371c4.143 0 7.5-3.357 7.5-7.5s-3.357-7.5-7.5-7.5h-315.371c-10.561 0-19.152 8.591-19.152 19.151v26.702c0 10.561 8.592 19.151 19.152 19.151h374.293c10.561 0 19.152-8.591 19.152-19.151z"/><path d="m285.016 263.699c0-8.504-6.919-15.423-15.423-15.423h-26.23c-8.504 0-15.423 6.919-15.423 15.423v19.539c0 8.504 6.919 15.423 15.423 15.423h26.23c8.504 0 15.423-6.919 15.423-15.423zm-15 19.539c0 .233-.189.423-.423.423h-26.23c-.233 0-.423-.189-.423-.423v-19.539c0-.233.189-.423.423-.423h26.23c.233 0 .423.189.423.423z"/><path d="m210.668 263.699c0-8.504-6.919-15.423-15.423-15.423h-26.23c-8.504 0-15.423 6.919-15.423 15.423v19.539c0 8.504 6.919 15.423 15.423 15.423h26.23c8.504 0 15.423-6.919 15.423-15.423zm-15 19.539c0 .233-.189.423-.423.423h-26.23c-.233 0-.423-.189-.423-.423v-19.539c0-.233.189-.423.423-.423h26.23c.233 0 .423.189.423.423z"/><path d="m136.32 263.699c0-8.504-6.919-15.423-15.423-15.423h-26.23c-8.504 0-15.423 6.919-15.423 15.423v19.539c0 8.504 6.919 15.423 15.423 15.423h26.23c8.504 0 15.423-6.919 15.423-15.423zm-15 19.539c0 .233-.189.423-.423.423h-26.23c-.233 0-.423-.189-.423-.423v-19.539c0-.233.189-.423.423-.423h26.23c.233 0 .423.189.423.423z"/><path d="m343.94 298.661c8.504 0 15.423-6.919 15.423-15.423v-19.539c0-8.504-6.919-15.423-15.423-15.423h-26.23c-8.504 0-15.423 6.919-15.423 15.423v19.539c0 8.504 6.919 15.423 15.423 15.423zm-26.653-15.423v-19.539c0-.233.189-.423.423-.423h26.23c.233 0 .423.189.423.423v19.539c0 .233-.189.423-.423.423h-26.23c-.233 0-.423-.19-.423-.423z"/><path d="m418.288 298.661c8.504 0 15.423-6.919 15.423-15.423v-19.539c0-8.504-6.919-15.423-15.423-15.423h-26.23c-8.504 0-15.423 6.919-15.423 15.423v19.539c0 8.504 6.919 15.423 15.423 15.423zm-26.653-15.423v-19.539c0-.233.189-.423.423-.423h26.23c.233 0 .423.189.423.423v19.539c0 .233-.189.423-.423.423h-26.23c-.234 0-.423-.19-.423-.423z"/><path d="m285.016 332.143c0-8.504-6.919-15.422-15.423-15.422h-26.23c-8.504 0-15.423 6.918-15.423 15.422v19.54c0 8.504 6.919 15.422 15.423 15.422h26.23c8.504 0 15.423-6.918 15.423-15.422zm-15 19.54c0 .232-.189.422-.423.422h-26.23c-.233 0-.423-.189-.423-.422v-19.54c0-.232.189-.422.423-.422h26.23c.233 0 .423.189.423.422z"/><path d="m210.668 332.143c0-8.504-6.919-15.422-15.423-15.422h-26.23c-8.504 0-15.423 6.918-15.423 15.422v19.54c0 8.504 6.919 15.422 15.423 15.422h26.23c8.504 0 15.423-6.918 15.423-15.422zm-15 19.54c0 .232-.189.422-.423.422h-26.23c-.233 0-.423-.189-.423-.422v-19.54c0-.232.189-.422.423-.422h26.23c.233 0 .423.189.423.422z"/><path d="m136.32 332.143c0-8.504-6.919-15.422-15.423-15.422h-26.23c-8.504 0-15.423 6.918-15.423 15.422v19.54c0 8.504 6.919 15.422 15.423 15.422h26.23c8.504 0 15.423-6.918 15.423-15.422zm-15 19.54c0 .232-.189.422-.423.422h-26.23c-.233 0-.423-.189-.423-.422v-19.54c0-.232.189-.422.423-.422h26.23c.233 0 .423.189.423.422z"/><path d="m269.593 385.166h-26.23c-8.504 0-15.423 6.919-15.423 15.423v19.539c0 8.504 6.919 15.423 15.423 15.423h26.23c8.504 0 15.423-6.919 15.423-15.423v-19.539c0-8.505-6.919-15.423-15.423-15.423zm.423 34.961c0 .233-.189.423-.423.423h-26.23c-.233 0-.423-.189-.423-.423v-19.539c0-.233.189-.423.423-.423h26.23c.233 0 .423.189.423.423z"/><path d="m195.245 385.166h-26.23c-8.504 0-15.423 6.919-15.423 15.423v19.539c0 8.504 6.919 15.423 15.423 15.423h26.23c8.504 0 15.423-6.919 15.423-15.423v-19.539c0-8.505-6.919-15.423-15.423-15.423zm.423 34.961c0 .233-.189.423-.423.423h-26.23c-.233 0-.423-.189-.423-.423v-19.539c0-.233.189-.423.423-.423h26.23c.233 0 .423.189.423.423z"/><path d="m120.897 385.166h-26.23c-8.504 0-15.423 6.919-15.423 15.423v19.539c0 8.504 6.919 15.423 15.423 15.423h26.23c8.504 0 15.423-6.919 15.423-15.423v-19.539c0-8.505-6.919-15.423-15.423-15.423zm.423 34.961c0 .233-.189.423-.423.423h-26.23c-.233 0-.423-.189-.423-.423v-19.539c0-.233.189-.423.423-.423h26.23c.233 0 .423.189.423.423z"/><path d="m345.06 413.678c17.099 15.968 38.144 27.366 60.858 32.966 2.305.568 4.64.845 6.957.845 7.969 0 15.723-3.275 21.296-9.244l3.289-3.521c7.539-8.073 7.104-20.774-.969-28.312l-12.981-12.122c-5.052-4.718-12.056-6.489-18.746-4.737l-15.234 3.989-5.875-4.481c-6.17-4.708-11.887-10.058-16.991-15.9l-4.554-5.212 2.94-15.482c1.289-6.79-.957-13.66-6.008-18.377l-12.981-12.122c-3.909-3.651-9.01-5.571-14.356-5.379-5.348.183-10.304 2.438-13.954 6.347l-3.292 3.523c-7.192 7.703-9.662 18.724-6.447 28.761 7.137 22.276 19.949 42.491 37.048 58.458zm-19.639-76.983 3.291-3.522c.918-.982 2.162-1.549 3.506-1.595.059-.002.117-.003.176-.003 1.278 0 2.49.477 3.429 1.354l12.981 12.122c1.27 1.185 1.833 2.911 1.51 4.616l-3.081 16.22c-.777 4.089.348 8.23 3.085 11.362l5.049 5.779c5.765 6.599 12.222 12.641 19.19 17.957l6.473 4.938c3.315 2.531 7.529 3.379 11.568 2.32l15.967-4.182c1.677-.438 3.438.006 4.707 1.19l12.981 12.122c.982.918 1.549 2.162 1.595 3.506.046 1.343-.434 2.624-1.351 3.606l-3.289 3.521c-3.489 3.735-8.743 5.294-13.7 4.072-20.233-4.987-38.979-15.142-54.21-29.364-15.231-14.223-26.644-32.23-33.002-52.075-1.56-4.866-.361-10.21 3.125-13.944z"/><path d="m467.269 57.43h-21.896v-9.432c0-12.133-9.871-22.003-22.004-22.003s-22.003 9.87-22.003 22.003v9.432h-22.792v-9.432c0-12.133-9.87-22.003-22.003-22.003s-22.003 9.87-22.003 22.003v9.432h-22.792v-9.432c0-12.133-9.871-22.003-22.004-22.003s-22.003 9.87-22.003 22.003v9.432h-22.792v-9.432c0-12.133-9.87-22.003-22.003-22.003s-22.003 9.87-22.003 22.003v9.432h-22.792v-9.432c0-12.133-9.871-22.003-22.004-22.003s-22.003 9.87-22.003 22.003v9.432h-22.792v-9.432c0-12.133-9.87-22.003-22.003-22.003s-22.003 9.87-22.003 22.003v9.432h-21.687c-25.192 0-45.687 20.494-45.687 45.686v338.158c0 25.191 20.495 45.686 45.687 45.686h421.582c25.191 0 45.687-20.494 45.687-45.686v-53.832c0-4.143-3.357-7.5-7.5-7.5s-7.5 3.357-7.5 7.5v53.832c0 16.92-13.766 30.686-30.687 30.686h-421.582c-16.921-.001-30.687-13.766-30.687-30.686v-296.613h45.694c4.143 0 7.5-3.357 7.5-7.5s-3.357-7.5-7.5-7.5h-45.694v-26.545c0-16.92 13.766-30.686 30.687-30.686h21.688v9.431c0 12.133 9.87 22.003 22.003 22.003s22.003-9.87 22.003-22.003v-9.431h22.792v9.431c0 12.133 9.87 22.003 22.003 22.003s22.004-9.87 22.004-22.003v-9.431h22.792v9.431c0 12.133 9.87 22.003 22.003 22.003s22.003-9.87 22.003-22.003v-9.431h22.792v9.431c0 12.133 9.87 22.003 22.003 22.003s22.004-9.87 22.004-22.003v-9.431h22.792v9.431c0 12.133 9.87 22.003 22.003 22.003s22.003-9.87 22.003-22.003v-9.431h22.792v9.431c0 12.133 9.87 22.003 22.003 22.003s22.004-9.87 22.004-22.003v-9.431h21.896c16.921 0 30.687 13.766 30.687 30.686v26.545h-405.301c-4.143 0-7.5 3.357-7.5 7.5s3.357 7.5 7.5 7.5h405.299v210.818c0 4.143 3.357 7.5 7.5 7.5s7.5-3.357 7.5-7.5v-252.363c0-25.192-20.495-45.686-45.686-45.686zm-370.889 24.431c0 3.861-3.142 7.003-7.003 7.003s-7.003-3.142-7.003-7.003v-33.862c0-3.861 3.142-7.003 7.003-7.003s7.003 3.142 7.003 7.003zm66.799 0c0 3.861-3.142 7.003-7.004 7.003-3.861 0-7.003-3.142-7.003-7.003v-33.862c0-3.861 3.142-7.003 7.003-7.003 3.862 0 7.004 3.142 7.004 7.003zm66.798 0c0 3.861-3.142 7.003-7.003 7.003s-7.003-3.142-7.003-7.003v-33.862c0-3.861 3.142-7.003 7.003-7.003s7.003 3.142 7.003 7.003zm66.798 0c0 3.861-3.142 7.003-7.004 7.003-3.861 0-7.003-3.142-7.003-7.003v-33.862c0-3.861 3.142-7.003 7.003-7.003 3.862 0 7.004 3.142 7.004 7.003zm66.798 0c0 3.861-3.142 7.003-7.003 7.003s-7.003-3.142-7.003-7.003v-33.862c0-3.861 3.142-7.003 7.003-7.003s7.003 3.142 7.003 7.003zm66.799 0c0 3.861-3.142 7.003-7.004 7.003-3.861 0-7.003-3.142-7.003-7.003v-33.862c0-3.861 3.142-7.003 7.003-7.003 3.862 0 7.004 3.142 7.004 7.003z"/></g></g></svg>