<svg id="Capa_1" enable-background="new 0 0 510.435 510.435" height="512" viewBox="0 0 510.435 510.435" width="512" xmlns="http://www.w3.org/2000/svg"><g><g><path d="m323.001 106.038h-136.567c-5.492 0-9.943-4.452-9.943-9.943v-78.652c0-5.492 4.452-9.943 9.943-9.943h136.567c5.492 0 9.943 4.452 9.943 9.943v78.651c0 5.492-4.452 9.944-9.943 9.944z" fill="#9de5d1"/><path d="m323.001 238.337h-136.567c-5.492 0-9.943-4.452-9.943-9.943v-78.651c0-5.492 4.452-9.943 9.943-9.943h136.567c5.492 0 9.943 4.452 9.943 9.943v78.651c0 5.491-4.452 9.943-9.943 9.943z" fill="#fbe88c"/><path d="m323.001 370.636h-136.567c-5.492 0-9.943-4.452-9.943-9.943v-78.651c0-5.492 4.452-9.943 9.943-9.943h136.567c5.492 0 9.943 4.452 9.943 9.943v78.651c0 5.491-4.452 9.943-9.943 9.943z" fill="#9de5d1"/><path d="m323.001 502.935h-136.567c-5.492 0-9.943-4.452-9.943-9.943v-78.652c0-5.492 4.452-9.943 9.943-9.943h136.567c5.492 0 9.943 4.452 9.943 9.943v78.651c0 5.492-4.452 9.944-9.943 9.944z" fill="#fbe88c"/><path d="m230.559 81.965c-10.315 0-18.678-8.362-18.678-18.678v-55.787h-25.448c-5.492 0-9.943 4.452-9.943 9.943v78.651c0 5.492 4.452 9.943 9.943 9.943h136.567c5.492 0 9.943-4.452 9.943-9.943v-14.129z" fill="#82dec5"/><path d="m238.613 214.264c-14.764 0-26.732-11.968-26.732-26.732v-47.734h-25.448c-5.492 0-9.943 4.452-9.943 9.943v78.651c0 5.492 4.452 9.943 9.943 9.943h136.567c5.492 0 9.943-4.452 9.943-9.943v-14.129h-94.33z" fill="#fbe372"/><path d="m228.4 346.563c-9.123 0-16.519-7.396-16.519-16.519v-57.947h-25.448c-5.492 0-9.943 4.452-9.943 9.943v78.651c0 5.492 4.452 9.943 9.943 9.943h136.567c5.492 0 9.943-4.452 9.943-9.943v-14.129h-104.543z" fill="#82dec5"/><path d="m232.904 478.862c-11.61 0-21.022-9.412-21.022-21.022v-53.443h-25.448c-5.492 0-9.943 4.452-9.943 9.943v78.651c0 5.492 4.452 9.944 9.944 9.944h136.567c5.492 0 9.943-4.452 9.943-9.943v-14.129h-100.041z" fill="#fbe372"/></g><g><path d="m323 0h-136.566c-9.619 0-17.444 7.825-17.444 17.443v78.651c0 9.618 7.825 17.443 17.444 17.443h84.567c4.142 0 7.5-3.357 7.5-7.5s-3.358-7.5-7.5-7.5h-84.567c-1.348 0-2.444-1.096-2.444-2.443v-78.651c0-1.348 1.096-2.443 2.444-2.443h136.566c1.348 0 2.444 1.096 2.444 2.443v78.651c0 1.348-1.096 2.443-2.444 2.443h-19.208c-4.142 0-7.5 3.357-7.5 7.5s3.358 7.5 7.5 7.5h19.208c9.619 0 17.444-7.825 17.444-17.443v-78.651c0-9.618-7.825-17.443-17.444-17.443z"/><path d="m323.001 132.299h-136.567c-9.618 0-17.443 7.825-17.443 17.443v78.651c0 9.618 7.825 17.443 17.443 17.443h136.567c9.618 0 17.443-7.825 17.443-17.443v-78.651c0-9.618-7.825-17.443-17.443-17.443zm2.443 96.095c0 1.348-1.096 2.443-2.443 2.443h-136.567c-1.347 0-2.443-1.096-2.443-2.443v-78.651c0-1.348 1.096-2.443 2.443-2.443h136.567c1.347 0 2.443 1.096 2.443 2.443z"/><path d="m323 264.598h-72.818c-4.142 0-7.5 3.357-7.5 7.5s3.358 7.5 7.5 7.5h72.818c1.348 0 2.444 1.096 2.444 2.443v78.651c0 1.348-1.096 2.443-2.444 2.443h-136.566c-1.348 0-2.444-1.096-2.444-2.443v-78.651c0-1.348 1.096-2.443 2.444-2.443h30.956c4.142 0 7.5-3.357 7.5-7.5s-3.358-7.5-7.5-7.5h-30.956c-9.619 0-17.444 7.825-17.444 17.443v78.651c0 9.618 7.825 17.443 17.444 17.443h136.566c9.619 0 17.444-7.825 17.444-17.443v-78.651c0-9.618-7.825-17.443-17.444-17.443z"/><path d="m323 396.897h-22.069c-4.142 0-7.5 3.357-7.5 7.5s3.358 7.5 7.5 7.5h22.069c1.348 0 2.444 1.096 2.444 2.443v78.65c0 1.348-1.096 2.443-2.444 2.443h-136.566c-1.348 0-2.444-1.096-2.444-2.443v-78.65c0-1.348 1.096-2.443 2.444-2.443h81.705c4.142 0 7.5-3.357 7.5-7.5s-3.358-7.5-7.5-7.5h-81.705c-9.619 0-17.444 7.825-17.444 17.443v78.65c0 9.618 7.825 17.443 17.444 17.443h136.566c9.619 0 17.444-7.825 17.444-17.443v-78.65c0-9.617-7.825-17.443-17.444-17.443z"/><path d="m368.921 64.269h38.185c32.339 0 58.649 26.31 58.649 58.649s-26.31 58.649-58.649 58.649h-15.22l.963-.897c3.03-2.823 3.198-7.569.375-10.6-2.823-3.03-7.569-3.198-10.6-.375l-14.902 13.885c-1.522 1.419-2.387 3.406-2.387 5.487s.865 4.068 2.387 5.487l14.902 13.886c1.445 1.347 3.28 2.013 5.111 2.013 2.008 0 4.012-.802 5.489-2.387 2.824-3.031 2.656-7.776-.375-10.601l-.964-.898h15.221c40.61 0 73.649-33.039 73.649-73.649s-33.039-73.649-73.649-73.649h-38.185c-4.142 0-7.5 3.357-7.5 7.5s3.358 7.5 7.5 7.5z"/><path d="m407.105 313.867h-38.185c-4.142 0-7.5 3.357-7.5 7.5s3.358 7.5 7.5 7.5h38.185c32.339 0 58.649 26.31 58.649 58.649s-26.31 58.649-58.649 58.649h-15.221l.964-.898c3.03-2.824 3.198-7.569.375-10.601-2.825-3.03-7.569-3.198-10.6-.374l-14.902 13.886c-1.522 1.419-2.387 3.406-2.387 5.487s.865 4.068 2.387 5.487l14.902 13.885c1.445 1.347 3.28 2.013 5.111 2.013 2.008 0 4.012-.802 5.489-2.388 2.824-3.03 2.656-7.776-.375-10.6l-.963-.897h15.22c40.61 0 73.649-33.039 73.649-73.649s-33.038-73.649-73.649-73.649z"/><path d="m141.514 181.567h-38.185c-40.61 0-73.649 33.039-73.649 73.65 0 40.61 33.039 73.649 73.649 73.649h15.22l-.963.897c-3.03 2.823-3.198 7.569-.375 10.6 1.477 1.586 3.48 2.388 5.489 2.388 1.831 0 3.666-.666 5.111-2.013l14.902-13.885c1.522-1.419 2.387-3.406 2.387-5.487s-.865-4.068-2.387-5.487l-14.902-13.886c-3.03-2.822-7.776-2.655-10.6.374-2.824 3.031-2.656 7.776.375 10.601l.964.898h-15.221c-32.339 0-58.649-26.311-58.649-58.65s26.31-58.649 58.649-58.649h38.185c4.142 0 7.5-3.357 7.5-7.5s-3.358-7.5-7.5-7.5z"/></g></g></svg>