<svg id="Capa_1" enable-background="new 0 0 510.984 510.984" height="512" viewBox="0 0 510.984 510.984" width="512" xmlns="http://www.w3.org/2000/svg"><g><g><path d="m404.011 278.12h30.924c7.156 0 12.956-5.801 12.956-12.956v-17.343c0-7.156-5.801-12.956-12.956-12.956h-30.924z" fill="#ded4cf"/><g><path d="m371.163 397.449-17.831 32.925c-1.287 2.376-1.958 5.008-1.958 7.679v54.426c0 6.078-4.927 11.005-11.005 11.005h-121.02c-6.078 0-11.005-4.927-11.005-11.005v-54.426c0-2.671-.671-5.303-1.958-7.679l-17.831-32.925-23.678-33.726v-214.573l23.678-33.615 17.831-32.925c1.287-2.376 1.958-5.008 1.958-7.679v-56.473c0-6.052 4.906-10.958 10.958-10.958h121.114c6.052 0 10.958 4.906 10.958 10.958v56.473c0 2.671.671 5.303 1.958 7.679l17.831 32.925 25.874 30.097v205.779z" fill="#9de5d1"/></g><path d="m123.676 281.854h-34.367v19.849c0 7.937 6.434 14.371 14.371 14.371h5.625c7.937 0 14.371-6.434 14.371-14.371z" fill="#ede2dd"/><g><path d="m360.331 95.535h-160.944l-10.832 20.001-23.678 33.614v214.573l23.678 33.726 10.832 20h160.944l10.832-20 25.874-46.038v-205.778l-25.874-30.097z" fill="#82dec5"/><path d="m140.707 340.858c0 31.254 25.336 56.59 56.59 56.59h164.123c31.254 0 56.59-25.336 56.59-56.59v-168.732c0-31.254-25.336-56.59-56.59-56.59h-164.123c-31.254 0-56.59 25.336-56.59 56.59z" fill="#cfeffc"/><path d="m370.283 152.782h-152.656c-10.993 0-17.637-12.041-11.899-21.417 3.76-6.144 8.484-11.509 13.937-15.83h-22.367c-31.254 0-56.59 25.336-56.59 56.59v168.732c0 31.254 25.336 56.59 56.59 56.59h16.035c-4.738-5.048-8.677-10.999-11.592-17.603-4.083-9.249 2.728-19.644 12.838-19.644h155.706c16.71 0 30.256-13.546 30.256-30.256v-146.906c-.002-16.71-13.548-30.256-30.258-30.256z" fill="#a9e4f9"/><g id="XMLID_10_"><g><path d="m369.04 172.782h-179.36c-6.35 0-11.5 5.15-11.5 11.5v35.71l30.165 32.971h150.018l22.178-32.971v-35.71c-.001-6.35-5.152-11.5-11.501-11.5z" fill="#ee878a"/><path d="m205.746 172.782h-16.066c-6.35 0-11.5 5.15-11.5 11.5v35.71l27.566 30.131z" fill="#ec6e73"/><path d="m380.54 219.992v108.71c0 6.35-5.15 11.5-11.5 11.5h-179.36c-6.35 0-11.5-5.15-11.5-11.5v-108.71z" fill="#f9f7f7"/></g></g><path d="m233.021 316.073c-15.064 0-27.275-12.211-27.275-27.275v-68.806h-27.566v108.71c0 6.351 5.149 11.5 11.5 11.5h179.36c6.351 0 11.5-5.149 11.5-11.5v-12.629z" fill="#f8f3f2"/><g><path d="m209.774 172.782v8.482c0 9.098 7.402 16.5 16.5 16.5s16.5-7.402 16.5-16.5v-8.482z" fill="#ec6e73"/></g><g><path d="m246.35 172.782v8.482c0 9.098 7.402 16.5 16.5 16.5s16.5-7.402 16.5-16.5v-8.482z" fill="#ec6e73"/></g><g><path d="m282.926 172.782v8.482c0 9.098 7.402 16.5 16.5 16.5s16.5-7.402 16.5-16.5v-8.482z" fill="#ec6e73"/></g><g><path d="m319.502 172.782v8.482c0 9.098 7.402 16.5 16.5 16.5s16.5-7.402 16.5-16.5v-8.482z" fill="#ec6e73"/></g><path d="m63.701 281.653 4.489-10.974 2.281-34.077c1.269-18.96 17.018-33.69 36.021-33.69 19.002 0 34.752 14.73 36.021 33.69l2.281 34.077 4.489 10.974c2.187 5.345-1.745 11.2-7.519 11.2h-70.543c-5.775.001-9.706-5.855-7.52-11.2z" fill="#fbe88c"/><path d="m82.398 286.188 4.801-11.72 2.439-36.392c1.069-15.941 11.745-29.085 26.151-33.954-2.969-.789-6.088-1.21-9.297-1.21-19.002 0-34.752 14.73-36.021 33.69l-2.281 34.077-4.489 10.975c-2.187 5.345 1.745 11.2 7.519 11.2h11.231c-.863-2.022-.987-4.385-.053-6.666z" fill="#fbe372"/></g></g><g><path d="m140.706 193.617c4.143 0 7.5-3.357 7.5-7.5v-13.991c0-27.068 22.022-49.091 49.091-49.091h164.123c27.068 0 49.091 22.022 49.091 49.091v9.139c0 4.143 3.357 7.5 7.5 7.5s7.5-3.357 7.5-7.5v-9.139c0-30.101-20.863-55.407-48.885-62.253l-16.699-30.832c-.689-1.273-1.054-2.694-1.054-4.109v-67.432c0-4.143-3.357-7.5-7.5-7.5s-7.5 3.357-7.5 7.5v67.432c0 3.9.99 7.791 2.863 11.252l11.835 21.852h-157.425l11.835-21.852c1.873-3.458 2.863-7.349 2.863-11.252v-67.432c0-4.143-3.357-7.5-7.5-7.5s-7.5 3.357-7.5 7.5v67.432c0 1.416-.364 2.836-1.053 4.108l-16.555 30.568c-28.596 6.429-50.03 32.009-50.03 62.518v13.991c0 4.143 3.358 7.5 7.5 7.5z"/><path d="m222.527 389.949h-25.229c-27.068 0-49.091-22.022-49.091-49.091v-16.071c0-4.143-3.357-7.5-7.5-7.5s-7.5 3.357-7.5 7.5v16.071c0 30.509 21.434 56.089 50.03 62.518l16.555 30.569c.688 1.271 1.053 2.691 1.053 4.107v65.432c0 4.143 3.357 7.5 7.5 7.5s7.5-3.357 7.5-7.5v-65.432c0-3.903-.99-7.794-2.863-11.251l-11.835-21.853h21.381c4.143 0 7.5-3.357 7.5-7.5s-3.359-7.499-7.501-7.499z"/><path d="m380.542 269.639c4.143 0 7.5-3.357 7.5-7.5v-77.854c0-10.479-8.525-19.003-19.004-19.003h-25.536v-.926c0-4.143-3.357-7.5-7.5-7.5s-7.5 3.357-7.5 7.5v.926h-21.576v-.926c0-4.143-3.357-7.5-7.5-7.5s-7.5 3.357-7.5 7.5v.926h-21.576v-.926c0-4.143-3.357-7.5-7.5-7.5s-7.5 3.357-7.5 7.5v.926h-21.576v-.926c0-4.143-3.357-7.5-7.5-7.5s-7.5 3.357-7.5 7.5v.926h-29.095c-10.479 0-19.004 8.524-19.004 19.003v144.414c0 10.479 8.525 19.003 19.004 19.003h179.359c10.479 0 19.004-8.524 19.004-19.003v-34.598c0-4.143-3.357-7.5-7.5-7.5s-7.5 3.357-7.5 7.5v34.598c0 2.207-1.796 4.003-4.004 4.003h-179.359c-2.208 0-4.004-1.796-4.004-4.003v-101.205h187.367v34.645c0 4.142 3.358 7.5 7.5 7.5zm-194.867-57.145v-28.209c0-2.207 1.796-4.003 4.004-4.003h29.095v.982c0 4.143 3.357 7.5 7.5 7.5s7.5-3.357 7.5-7.5v-.982h21.576v.982c0 4.143 3.357 7.5 7.5 7.5s7.5-3.357 7.5-7.5v-.982h21.576v.982c0 4.143 3.357 7.5 7.5 7.5s7.5-3.357 7.5-7.5v-.982h21.576v.982c0 4.143 3.357 7.5 7.5 7.5s7.5-3.357 7.5-7.5v-.982h25.536c2.208 0 4.004 1.796 4.004 4.003v28.209z"/><path d="m217.475 248.992h-5.416c-4.143 0-7.5 3.357-7.5 7.5s3.357 7.5 7.5 7.5h5.416c4.143 0 7.5-3.357 7.5-7.5s-3.358-7.5-7.5-7.5z"/><path d="m260.85 248.992h-5.416c-4.143 0-7.5 3.357-7.5 7.5s3.357 7.5 7.5 7.5h5.416c4.143 0 7.5-3.357 7.5-7.5s-3.358-7.5-7.5-7.5z"/><path d="m304.225 248.992h-5.416c-4.143 0-7.5 3.357-7.5 7.5s3.357 7.5 7.5 7.5h5.416c4.143 0 7.5-3.357 7.5-7.5s-3.358-7.5-7.5-7.5z"/><path d="m347.6 248.992h-5.416c-4.143 0-7.5 3.357-7.5 7.5s3.357 7.5 7.5 7.5h5.416c4.143 0 7.5-3.357 7.5-7.5s-3.358-7.5-7.5-7.5z"/><path d="m217.475 285.49h-5.416c-4.143 0-7.5 3.357-7.5 7.5s3.357 7.5 7.5 7.5h5.416c4.143 0 7.5-3.357 7.5-7.5s-3.358-7.5-7.5-7.5z"/><path d="m260.85 285.49h-5.416c-4.143 0-7.5 3.357-7.5 7.5s3.357 7.5 7.5 7.5h5.416c4.143 0 7.5-3.357 7.5-7.5s-3.358-7.5-7.5-7.5z"/><path d="m304.225 285.49h-5.416c-4.143 0-7.5 3.357-7.5 7.5s3.357 7.5 7.5 7.5h5.416c4.143 0 7.5-3.357 7.5-7.5s-3.358-7.5-7.5-7.5z"/><path d="m347.6 285.49h-5.416c-4.143 0-7.5 3.357-7.5 7.5s3.357 7.5 7.5 7.5h5.416c4.143 0 7.5-3.357 7.5-7.5s-3.358-7.5-7.5-7.5z"/><path d="m434.935 227.364h-9.424v-14.138c0-4.143-3.357-7.5-7.5-7.5s-7.5 3.357-7.5 7.5v127.632c0 27.068-22.022 49.091-49.091 49.091h-106.93c-4.143 0-7.5 3.357-7.5 7.5s3.357 7.5 7.5 7.5h104.082l-11.836 21.854c-1.872 3.459-2.862 7.35-2.862 11.25v65.432c0 4.143 3.357 7.5 7.5 7.5s7.5-3.357 7.5-7.5v-65.432c0-1.415.364-2.836 1.053-4.107l16.7-30.834c28.021-6.846 48.885-32.152 48.885-62.253v-55.239h9.424c11.279 0 20.456-9.177 20.456-20.456v-17.344c-.001-11.279-9.178-20.456-20.457-20.456zm5.456 37.8c0 3.009-2.447 5.456-5.456 5.456h-9.424v-28.256h9.424c3.009 0 5.456 2.447 5.456 5.456z"/><path d="m243.839 69.018h71.04c4.143 0 7.5-3.357 7.5-7.5s-3.357-7.5-7.5-7.5h-71.04c-4.143 0-7.5 3.357-7.5 7.5s3.358 7.5 7.5 7.5z"/><path d="m293.31 448.845h-26.424c-4.143 0-7.5 3.357-7.5 7.5s3.357 7.5 7.5 7.5h26.424c4.143 0 7.5-3.357 7.5-7.5s-3.358-7.5-7.5-7.5z"/><path d="m141.764 300.354c5.216 0 10.065-2.585 12.973-6.916 2.906-4.33 3.463-9.797 1.488-14.624l-4.028-9.849-2.2-32.864c-1.526-22.816-20.636-40.689-43.504-40.689s-41.978 17.873-43.504 40.689l-2.2 32.864-4.028 9.849c-1.975 4.827-1.419 10.295 1.488 14.625s7.757 6.915 12.973 6.915h10.588v1.349c0 12.06 9.812 21.871 21.871 21.871h5.625c12.06 0 21.871-9.812 21.871-21.871v-1.349zm-71.062-15.277c-.186-.276-.097-.492-.06-.584l4.489-10.975c.305-.746.488-1.535.542-2.339l2.281-34.077c1.001-14.968 13.536-26.691 28.537-26.691s27.536 11.724 28.537 26.691l2.281 34.077c.054.804.237 1.593.542 2.339l4.489 10.975c.037.092.126.308-.06.584s-.419.276-.519.276h-18.088-34.364-18.088c-.1.001-.333.001-.519-.276zm45.474 16.625c0 3.789-3.082 6.871-6.871 6.871h-5.625c-3.789 0-6.871-3.082-6.871-6.871v-1.349h19.367z"/></g></g></svg>