<svg id="Capa_1" enable-background="new 0 0 511.471 511.471" height="512" viewBox="0 0 511.471 511.471" width="512" xmlns="http://www.w3.org/2000/svg"><g><g><path d="m78.282 473.354c0 16.909 13.708 30.617 30.617 30.617h337.98c9.08 0 16.441-7.361 16.441-16.441v-463.588c0-9.08-7.361-16.441-16.441-16.441h-337.98c-16.909 0-30.617 13.708-30.617 30.617z" fill="#f9f7f7"/><path d="m162.731 453.704c-16.909 0-30.617-13.708-30.617-30.617v-415.587h-23.216c-16.909 0-30.617 13.708-30.617 30.617v435.236c0 16.909 13.708 30.617 30.617 30.617h337.98c9.08 0 16.441-7.361 16.441-16.441v-33.825z" fill="#f2eae7"/><g fill="#f8f3f2"><path d="m94.893 90.712h-33.222c-7.467 0-13.52-6.053-13.52-13.52 0-7.467 6.053-13.52 13.52-13.52h33.222c7.467 0 13.52 6.053 13.52 13.52 0 7.467-6.053 13.52-13.52 13.52z"/><path d="m94.893 162.539h-33.222c-7.467 0-13.52-6.053-13.52-13.52 0-7.467 6.053-13.52 13.52-13.52h33.222c7.467 0 13.52 6.053 13.52 13.52 0 7.467-6.053 13.52-13.52 13.52z"/><path d="m94.893 234.366h-33.222c-7.467 0-13.52-6.053-13.52-13.52 0-7.467 6.053-13.52 13.52-13.52h33.222c7.467 0 13.52 6.053 13.52 13.52 0 7.467-6.053 13.52-13.52 13.52z"/><path d="m94.893 306.193h-33.222c-7.467 0-13.52-6.053-13.52-13.52 0-7.467 6.053-13.52 13.52-13.52h33.222c7.467 0 13.52 6.053 13.52 13.52 0 7.467-6.053 13.52-13.52 13.52z"/><path d="m94.893 378.021h-33.222c-7.467 0-13.52-6.053-13.52-13.52 0-7.467 6.053-13.52 13.52-13.52h33.222c7.467 0 13.52 6.053 13.52 13.52 0 7.467-6.053 13.52-13.52 13.52z"/><path d="m94.893 449.848h-33.222c-7.467 0-13.52-6.053-13.52-13.52 0-7.467 6.053-13.52 13.52-13.52h33.222c7.467 0 13.52 6.053 13.52 13.52 0 7.467-6.053 13.52-13.52 13.52z"/></g><g><path d="m200.969 85.124h-49.2c-4.16 0-7.54 3.38-7.54 7.54v329.22c0 4.17 3.38 7.55 7.54 7.55h49.2l47.181-44.647v-260.303z" fill="#9de5d1"/></g><g><g id="XMLID_270_"><g><path d="m421.119 85.124h-220.15v96.533l17.599 17.599h187.448l22.643-54.552v-52.04c0-4.16-3.38-7.54-7.54-7.54z" fill="#b6ebdd"/><g fill="#e3f6fc"><path d="m371.929 144.704h56.73v58.26h-56.73z"/><path d="m259.229 373.934h54.43v55.5h-54.43z"/><path d="m428.659 373.934v47.95c0 4.17-3.38 7.55-7.54 7.55h-49.19v-55.5z"/><path d="m313.659 315.664h58.27v58.27h-58.27z"/><path d="m371.929 261.234h56.73v54.43h-56.73z"/><path d="m200.969 315.664h58.26v58.27h-58.26z"/><path d="m259.229 261.234h54.43v54.43h-54.43z"/><path d="m313.659 202.964h58.27v58.27h-58.27z"/><path d="m200.969 202.964h58.26v58.27h-58.26z"/><path d="m259.229 144.704h54.43v58.26h-54.43z"/></g><path d="m313.659 373.934h58.27v55.5h-58.27z" fill="#f3fbff"/><path d="m200.969 373.934h58.26v55.5h-58.26z" fill="#f3fbff"/><path d="m259.229 315.664h54.43v58.27h-54.43z" fill="#f3fbff"/><path d="m371.929 315.664h56.73v58.27h-56.73z" fill="#f3fbff"/><path d="m313.659 261.234h58.27v54.43h-58.27z" fill="#f3fbff"/><path d="m200.969 261.234h58.26v54.43h-58.26z" fill="#f3fbff"/><path d="m259.229 202.964h54.43v58.27h-54.43z" fill="#f3fbff"/><path d="m371.929 202.964h56.73v58.27h-56.73z" fill="#f3fbff"/><path d="m313.659 144.704h58.27v58.26h-58.27z" fill="#f3fbff"/><path d="m200.969 144.704h58.26v58.26h-58.26z" fill="#f3fbff"/></g></g></g></g><g><path d="m463.32 396.614c4.142 0 7.5-3.357 7.5-7.5v-365.173c0-13.201-10.741-23.941-23.942-23.941h-337.979c-21.018 0-38.117 17.1-38.117 38.117v18.056h-9.111c-11.59 0-21.02 9.43-21.02 21.02s9.429 21.02 21.02 21.02h9.111v29.787h-9.111c-11.59 0-21.02 9.43-21.02 21.02s9.429 21.02 21.02 21.02h9.111v29.788h-9.111c-11.59 0-21.02 9.43-21.02 21.02s9.429 21.02 21.02 21.02h9.111v29.788h-9.111c-11.59 0-21.02 9.43-21.02 21.02s9.429 21.02 21.02 21.02h9.111v29.788h-9.111c-11.59 0-21.02 9.43-21.02 21.02s9.429 21.02 21.02 21.02h9.111v29.788h-9.111c-11.59 0-21.02 9.43-21.02 21.02s9.429 21.02 21.02 21.02h9.111v16.006c0 21.018 17.099 38.117 38.117 38.117h337.979c13.201 0 23.941-10.74 23.941-23.941v-66.374c0-4.143-3.358-7.5-7.5-7.5s-7.5 3.357-7.5 7.5v66.369c0 4.931-4.011 8.941-8.941 8.941h-337.979c-12.747 0-23.117-10.37-23.117-23.117v-16.006h9.111c11.59 0 21.02-9.43 21.02-21.02s-9.429-21.02-21.02-21.02h-9.111v-29.788h9.111c11.59 0 21.02-9.43 21.02-21.02s-9.429-21.02-21.02-21.02h-9.111v-29.788h9.111c11.59 0 21.02-9.43 21.02-21.02s-9.429-21.02-21.02-21.02h-9.111v-29.788h9.111c11.59 0 21.02-9.43 21.02-21.02s-9.429-21.02-21.02-21.02h-9.111v-29.788h9.111c11.59 0 21.02-9.43 21.02-21.02s-9.429-21.015-21.02-21.015h-9.111v-29.788h9.111c11.59 0 21.02-9.43 21.02-21.02s-9.429-21.02-21.02-21.02h-9.111v-18.055c0-12.747 10.37-23.117 23.117-23.117h337.979c4.93 0 8.941 4.011 8.941 8.941v365.173c.001 4.143 3.358 7.5 7.501 7.5zm-362.407 39.714c0 3.319-2.7 6.02-6.02 6.02h-33.222c-3.319 0-6.02-2.7-6.02-6.02s2.7-6.02 6.02-6.02h33.223c3.319.001 6.019 2.701 6.019 6.02zm0-71.827c0 3.319-2.7 6.02-6.02 6.02h-33.222c-3.319 0-6.02-2.7-6.02-6.02s2.7-6.02 6.02-6.02h33.223c3.319 0 6.019 2.701 6.019 6.02zm0-71.827c0 3.319-2.7 6.02-6.02 6.02h-33.222c-3.319 0-6.02-2.7-6.02-6.02s2.7-6.02 6.02-6.02h33.223c3.319 0 6.019 2.7 6.019 6.02zm0-71.827c0 3.319-2.7 6.02-6.02 6.02h-33.222c-3.319 0-6.02-2.7-6.02-6.02s2.7-6.02 6.02-6.02h33.223c3.319 0 6.019 2.7 6.019 6.02zm0-71.827c0 3.319-2.7 6.02-6.02 6.02h-33.222c-3.319 0-6.02-2.7-6.02-6.02s2.7-6.02 6.02-6.02h33.223c3.319 0 6.019 2.7 6.019 6.02zm0-71.828c0 3.319-2.7 6.02-6.02 6.02h-33.222c-3.319 0-6.02-2.7-6.02-6.02s2.7-6.02 6.02-6.02h33.223c3.319.001 6.019 2.701 6.019 6.02z"/><path d="m144.23 368.838c-4.142 0-7.5 3.357-7.5 7.5v45.551c0 8.295 6.749 15.043 15.043 15.043h269.343c8.295 0 15.043-6.748 15.043-15.043v-329.223c0-8.295-6.748-15.043-15.043-15.043h-53.064c-4.142 0-7.5 3.357-7.5 7.5s3.358 7.5 7.5 7.5l53.107.043-.006 44.538h-212.688v-44.581h127.541c4.142 0 7.5-3.357 7.5-7.5s-3.358-7.5-7.5-7.5h-184.233c-8.295 0-15.043 6.748-15.043 15.043v251.625c0 4.143 3.358 7.5 7.5 7.5s7.5-3.357 7.5-7.5l.043-251.668h41.691v329.272l-41.735-.007v-45.551c.001-4.142-3.357-7.499-7.499-7.499zm161.93-45.674v43.266h-39.43v-43.266zm-39.43-15v-39.43h39.43v39.43zm54.43 15h32.911l-32.911 33.575zm0-15v-39.43h43.265v39.43zm58.265-39.43h41.711l-.005 39.43h-41.706zm0-15v-43.266h41.719l-.006 43.266zm10.607-58.265 31.118-31.118-.004 31.118zm-25.607 15v43.266h-43.265v-43.266zm-58.265 43.265h-29.66l29.66-31.75zm-54.43 54.43h-43.265v-39.43h43.265zm0 15v43.266h-43.265v-43.266zm-11.122 58.266-32.143 30.903v-30.903zm26.122 0h39.43v40.483l-39.43-.006zm-15 40.475-31.574-.005 31.574-30.355zm69.43-40.475h43.265v40.493l-43.265-.007zm11.506-15 31.759-32.4v32.4zm46.759-43.266h41.704l-.006 43.266h-41.699v-43.266zm0-138.302v-32.658h32.658zm-15 10.607h-43.265v-43.265h43.265zm-58.265 0h-39.43v-43.265h39.43zm-9.77 15-29.66 31.75v-31.75zm-44.66 43.265h-43.265v-43.266h43.265zm127.695 168.191v-40.495h41.697l-.005 40.502zm-127.695-269.721v43.265h-43.265v-43.265z"/></g></g></svg>