<svg id="Capa_1" enable-background="new 0 0 512.955 512.955" height="512" viewBox="0 0 512.955 512.955" width="512" xmlns="http://www.w3.org/2000/svg"><g><g><path d="m466.768 64.019h-421.58c-21.09 0-38.19 17.1-38.19 38.19v34.05l33.777 49.689h438.758l25.425-49.689v-34.05c0-21.09-17.1-38.19-38.19-38.19z" fill="#ee878a"/><g id="XMLID_2_"><g><path d="m504.958 136.259v304.11c0 21.09-17.1 38.19-38.19 38.19h-421.58c-21.09 0-38.19-17.1-38.19-38.19v-304.11z" fill="#f9f7f7"/></g></g><g><path d="m450.659 341.332c-11.803-11.968-30.906-12.608-43.483-1.458l-4.016 3.56-34.754-3.845c-.512-.057-1.028.072-1.453.363l-17.66 12.095c-1.341.918-1.219 2.934.222 3.684l25.055 13.046-25.064 22.219-18.937-5.744c-1.553-.471-3.238-.134-4.49.898l-13.494 11.122c-2.097 1.728-2.364 4.843-.591 6.903l15.987 18.579c5.418 6.296 14.718 7.477 21.537 2.734l99.767-69.389c4.935-3.431 5.595-10.487 1.374-14.767z" fill="#a9e4f9"/></g><g><g><path d="m52.06 64.019h-6.873c-21.09 0-38.19 17.1-38.19 38.19v34.05l33.777 49.689h11.286z" fill="#ec6e73"/><path d="m109.388 439.589c-31.661 0-57.328-25.667-57.328-57.328v-246.002h-45.062v304.11c0 21.092 17.098 38.19 38.19 38.19h421.58c21.092 0 38.19-17.098 38.19-38.19v-.78z" fill="#f2eae7"/><path d="m443.087 219.03h-374.293c-6.435 0-11.652-5.217-11.652-11.652v-26.702c0-6.435 5.217-11.652 11.652-11.652h374.293c6.435 0 11.652 5.217 11.652 11.652v26.702c0 6.435-5.217 11.652-11.652 11.652z" fill="#a9e4f9"/><path d="m88.877 110.458c16.268 0 29.503-13.235 29.503-29.503v-16.936h-59.006v16.936c0 16.268 13.235 29.503 29.503 29.503z" fill="#ec6e73"/><path d="m88.877 95.459c-8.01 0-14.503-6.493-14.503-14.503v-33.863c0-8.01 6.493-14.503 14.503-14.503 8.01 0 14.503 6.493 14.503 14.503v33.862c0 8.01-6.493 14.504-14.503 14.504z" fill="#f2eae7"/><path d="m155.675 110.458c16.268 0 29.503-13.235 29.503-29.503v-16.936h-59.007v16.936c.001 16.268 13.236 29.503 29.504 29.503z" fill="#ec6e73"/><path d="m155.675 95.459c-8.01 0-14.503-6.493-14.503-14.503v-33.863c0-8.01 6.493-14.503 14.503-14.503 8.01 0 14.503 6.493 14.503 14.503v33.862c0 8.01-6.493 14.504-14.503 14.504z" fill="#f2eae7"/><path d="m222.474 110.458c16.268 0 29.503-13.235 29.503-29.503v-16.936h-59.007v16.936c0 16.268 13.236 29.503 29.504 29.503z" fill="#ec6e73"/><path d="m222.474 95.459c-8.01 0-14.503-6.493-14.503-14.503v-33.863c0-8.01 6.493-14.503 14.503-14.503 8.01 0 14.503 6.493 14.503 14.503v33.862c0 8.01-6.493 14.504-14.503 14.504z" fill="#f2eae7"/><path d="m289.271 110.458c16.269 0 29.504-13.235 29.504-29.503v-16.936h-59.007v16.936c.001 16.268 13.236 29.503 29.503 29.503z" fill="#ec6e73"/><path d="m289.272 95.459c-8.01 0-14.503-6.493-14.503-14.503v-33.863c0-8.01 6.493-14.503 14.503-14.503 8.01 0 14.503 6.493 14.503 14.503v33.862c0 8.01-6.493 14.504-14.503 14.504z" fill="#f2eae7"/><path d="m356.07 110.458c16.268 0 29.503-13.235 29.503-29.503v-16.936h-59.006v16.936c0 16.268 13.236 29.503 29.503 29.503z" fill="#ec6e73"/><path d="m356.07 95.459c-8.01 0-14.503-6.493-14.503-14.503v-33.863c0-8.01 6.493-14.503 14.503-14.503 8.01 0 14.503 6.493 14.503 14.503v33.862c.001 8.01-6.493 14.504-14.503 14.504z" fill="#f2eae7"/><path d="m422.868 110.458c16.269 0 29.504-13.235 29.504-29.503v-16.936h-59.007v16.936c0 16.268 13.236 29.503 29.503 29.503z" fill="#ec6e73"/><path d="m422.869 95.459c-8.01 0-14.503-6.493-14.503-14.503v-33.863c0-8.01 6.493-14.503 14.503-14.503 8.01 0 14.503 6.493 14.503 14.503v33.862c0 8.01-6.493 14.504-14.503 14.504z" fill="#f2eae7"/><g fill="#ded4cf"><path d="m269.198 290.959h-26.231c-4.376 0-7.923-3.547-7.923-7.923v-19.539c0-4.375 3.547-7.923 7.923-7.923h26.231c4.375 0 7.923 3.547 7.923 7.923v19.539c-.001 4.376-3.548 7.923-7.923 7.923z"/><path d="m194.85 290.959h-26.231c-4.376 0-7.923-3.547-7.923-7.923v-19.539c0-4.375 3.547-7.923 7.923-7.923h26.231c4.375 0 7.923 3.547 7.923 7.923v19.539c0 4.376-3.547 7.923-7.923 7.923z"/><path d="m120.503 290.959h-26.231c-4.376 0-7.923-3.547-7.923-7.923v-19.539c0-4.375 3.547-7.923 7.923-7.923h26.231c4.376 0 7.923 3.547 7.923 7.923v19.539c-.001 4.376-3.548 7.923-7.923 7.923z"/><path d="m317.314 290.959h26.231c4.375 0 7.923-3.547 7.923-7.923v-19.539c0-4.375-3.547-7.923-7.923-7.923h-26.231c-4.376 0-7.923 3.547-7.923 7.923v19.539c.001 4.376 3.548 7.923 7.923 7.923z"/><path d="m391.662 290.959h26.231c4.376 0 7.923-3.547 7.923-7.923v-19.539c0-4.375-3.547-7.923-7.923-7.923h-26.231c-4.375 0-7.923 3.547-7.923 7.923v19.539c0 4.376 3.547 7.923 7.923 7.923z"/><path d="m269.198 359.404h-26.231c-4.376 0-7.923-3.547-7.923-7.923v-19.539c0-4.375 3.547-7.923 7.923-7.923h26.231c4.375 0 7.923 3.547 7.923 7.923v19.539c-.001 4.376-3.548 7.923-7.923 7.923z"/><path d="m194.85 359.404h-26.231c-4.376 0-7.923-3.547-7.923-7.923v-19.539c0-4.375 3.547-7.923 7.923-7.923h26.231c4.375 0 7.923 3.547 7.923 7.923v19.539c0 4.376-3.547 7.923-7.923 7.923z"/><path d="m120.503 359.404h-26.231c-4.376 0-7.923-3.547-7.923-7.923v-19.539c0-4.375 3.547-7.923 7.923-7.923h26.231c4.376 0 7.923 3.547 7.923 7.923v19.539c-.001 4.376-3.548 7.923-7.923 7.923z"/><path d="m269.198 427.848h-26.231c-4.376 0-7.923-3.547-7.923-7.923v-19.539c0-4.375 3.547-7.923 7.923-7.923h26.231c4.375 0 7.923 3.547 7.923 7.923v19.539c-.001 4.376-3.548 7.923-7.923 7.923z"/><path d="m194.85 427.848h-26.231c-4.376 0-7.923-3.547-7.923-7.923v-19.539c0-4.375 3.547-7.923 7.923-7.923h26.231c4.375 0 7.923 3.547 7.923 7.923v19.539c0 4.376-3.547 7.923-7.923 7.923z"/><path d="m120.503 427.848h-26.231c-4.376 0-7.923-3.547-7.923-7.923v-19.539c0-4.375 3.547-7.923 7.923-7.923h26.231c4.376 0 7.923 3.547 7.923 7.923v19.539c-.001 4.376-3.548 7.923-7.923 7.923z"/></g></g></g></g><g><path d="m467.269 57.43h-21.896v-9.432c0-12.133-9.871-22.003-22.003-22.003s-22.003 9.87-22.003 22.003v9.432h-22.792v-9.432c0-12.133-9.871-22.003-22.003-22.003s-22.003 9.87-22.003 22.003v9.432h-22.792v-9.432c0-12.133-9.871-22.003-22.003-22.003s-22.003 9.87-22.003 22.003v9.432h-22.792v-9.432c0-12.133-9.871-22.003-22.003-22.003s-22.003 9.87-22.003 22.003v9.432h-22.792v-9.432c0-12.133-9.871-22.003-22.003-22.003s-22.003 9.87-22.003 22.003v9.432h-22.795v-9.432c0-12.133-9.871-22.003-22.003-22.003s-22.003 9.87-22.003 22.003v9.432h-21.687c-25.192 0-45.687 20.494-45.687 45.686v240.508c0 4.143 3.358 7.5 7.5 7.5s7.5-3.357 7.5-7.5v-198.963h64.551c4.142 0 7.5-3.357 7.5-7.5s-3.358-7.5-7.5-7.5h-64.551v-26.545c0-16.92 13.766-30.686 30.687-30.686h21.687v9.431c0 12.133 9.871 22.003 22.003 22.003s22.003-9.87 22.003-22.003v-9.431h22.792v9.431c0 12.133 9.871 22.003 22.003 22.003s22.003-9.87 22.003-22.003v-9.431h22.792v9.431c0 12.133 9.871 22.003 22.003 22.003s22.003-9.87 22.003-22.003v-9.431h22.792v9.431c0 12.133 9.871 22.003 22.003 22.003s22.003-9.87 22.003-22.003v-9.431h22.792v9.431c0 12.133 9.871 22.003 22.003 22.003s22.003-9.87 22.003-22.003v-9.431h22.792v9.431c0 12.133 9.871 22.003 22.003 22.003s22.003-9.87 22.003-22.003v-9.431h21.896c16.92 0 30.687 13.766 30.687 30.686v26.545h-386.439c-4.142 0-7.5 3.357-7.5 7.5s3.358 7.5 7.5 7.5h386.441v296.613c0 16.92-13.766 30.686-30.687 30.686h-421.581c-16.92 0-30.687-13.766-30.687-30.686v-65.688c0-4.143-3.358-7.5-7.5-7.5s-7.5 3.357-7.5 7.5v65.688c0 25.191 20.495 45.686 45.687 45.686h421.582c25.192 0 45.687-20.494 45.687-45.686v-338.158c-.001-25.192-20.496-45.686-45.687-45.686zm-370.889 24.431c0 3.861-3.142 7.003-7.003 7.003s-7.003-3.142-7.003-7.003v-33.862c0-3.861 3.142-7.003 7.003-7.003s7.003 3.142 7.003 7.003zm66.799 0c0 3.861-3.142 7.003-7.003 7.003s-7.003-3.142-7.003-7.003v-33.862c0-3.861 3.142-7.003 7.003-7.003s7.003 3.142 7.003 7.003zm66.798 0c0 3.861-3.142 7.003-7.003 7.003s-7.003-3.142-7.003-7.003v-33.862c0-3.861 3.142-7.003 7.003-7.003s7.003 3.142 7.003 7.003zm66.798 0c0 3.861-3.142 7.003-7.003 7.003s-7.003-3.142-7.003-7.003v-33.862c0-3.861 3.142-7.003 7.003-7.003s7.003 3.142 7.003 7.003zm66.799 0c0 3.861-3.142 7.003-7.003 7.003s-7.003-3.142-7.003-7.003v-33.862c0-3.861 3.142-7.003 7.003-7.003s7.003 3.142 7.003 7.003zm66.798 0c0 3.861-3.142 7.003-7.003 7.003s-7.003-3.142-7.003-7.003v-33.862c0-3.861 3.142-7.003 7.003-7.003s7.003 3.142 7.003 7.003z"/><path d="m69.331 177.215h314.239c4.142 0 7.5-3.357 7.5-7.5s-3.358-7.5-7.5-7.5h-314.239c-10.561 0-19.152 8.591-19.152 19.151v26.702c0 10.561 8.591 19.151 19.152 19.151h374.293c10.561 0 19.152-8.591 19.152-19.151v-26.702c0-10.561-8.591-19.151-19.152-19.151h-28.092c-4.142 0-7.5 3.357-7.5 7.5s3.358 7.5 7.5 7.5h28.092c2.29 0 4.152 1.862 4.152 4.151v26.702c0 2.289-1.862 4.151-4.152 4.151h-374.293c-2.29 0-4.152-1.862-4.152-4.151v-26.702c0-2.288 1.863-4.151 4.152-4.151z"/><path d="m285.016 263.699c0-8.504-6.918-15.423-15.423-15.423h-26.23c-8.504 0-15.423 6.919-15.423 15.423v19.539c0 8.504 6.918 15.423 15.423 15.423h26.23c8.504 0 15.423-6.919 15.423-15.423zm-15 19.539c0 .233-.189.423-.423.423h-26.23c-.233 0-.423-.189-.423-.423v-19.539c0-.233.189-.423.423-.423h26.23c.233 0 .423.189.423.423z"/><path d="m210.668 263.699c0-8.504-6.918-15.423-15.422-15.423h-26.231c-8.504 0-15.423 6.919-15.423 15.423v19.539c0 8.504 6.918 15.423 15.423 15.423h26.231c8.504 0 15.422-6.919 15.422-15.423zm-15 19.539c0 .233-.189.423-.422.423h-26.231c-.233 0-.423-.189-.423-.423v-19.539c0-.233.189-.423.423-.423h26.231c.233 0 .422.189.422.423z"/><path d="m136.32 263.699c0-8.504-6.918-15.423-15.422-15.423h-26.231c-8.504 0-15.422 6.919-15.422 15.423v19.539c0 8.504 6.918 15.423 15.422 15.423h26.231c8.504 0 15.422-6.919 15.422-15.423zm-15 19.539c0 .233-.189.423-.422.423h-26.231c-.233 0-.422-.189-.422-.423v-19.539c0-.233.189-.423.422-.423h26.231c.233 0 .422.189.422.423z"/><path d="m317.709 298.661h26.231c8.504 0 15.423-6.919 15.423-15.423v-19.539c0-8.504-6.918-15.423-15.423-15.423h-26.231c-8.504 0-15.422 6.919-15.422 15.423v19.539c0 8.504 6.919 15.423 15.422 15.423zm-.422-34.962c0-.233.189-.423.422-.423h26.231c.233 0 .423.189.423.423v19.539c0 .233-.189.423-.423.423h-26.231c-.233 0-.422-.189-.422-.423z"/><path d="m418.288 298.661c8.504 0 15.422-6.919 15.422-15.423v-19.539c0-8.504-6.918-15.423-15.422-15.423h-26.231c-8.504 0-15.422 6.919-15.422 15.423v19.539c0 8.504 6.918 15.423 15.422 15.423zm-26.653-15.423v-19.539c0-.233.189-.423.422-.423h26.231c.233 0 .422.189.422.423v19.539c0 .233-.189.423-.422.423h-26.231c-.233 0-.422-.19-.422-.423z"/><path d="m285.016 332.143c0-8.504-6.918-15.422-15.423-15.422h-26.23c-8.504 0-15.423 6.918-15.423 15.422v19.54c0 8.504 6.918 15.422 15.423 15.422h26.23c8.504 0 15.423-6.918 15.423-15.422zm-15 19.54c0 .232-.189.422-.423.422h-26.23c-.233 0-.423-.189-.423-.422v-19.54c0-.232.189-.422.423-.422h26.23c.233 0 .423.189.423.422z"/><path d="m210.668 332.143c0-8.504-6.918-15.422-15.422-15.422h-26.231c-8.504 0-15.423 6.918-15.423 15.422v19.54c0 8.504 6.918 15.422 15.423 15.422h26.231c8.504 0 15.422-6.918 15.422-15.422zm-15 19.54c0 .232-.189.422-.422.422h-26.231c-.233 0-.423-.189-.423-.422v-19.54c0-.232.189-.422.423-.422h26.231c.233 0 .422.189.422.422z"/><path d="m136.32 332.143c0-8.504-6.918-15.422-15.422-15.422h-26.231c-8.504 0-15.422 6.918-15.422 15.422v19.54c0 8.504 6.918 15.422 15.422 15.422h26.231c8.504 0 15.422-6.918 15.422-15.422zm-15 19.54c0 .232-.189.422-.422.422h-26.231c-.233 0-.422-.189-.422-.422v-19.54c0-.232.189-.422.422-.422h26.231c.233 0 .422.189.422.422z"/><path d="m269.593 385.166h-26.23c-8.504 0-15.423 6.919-15.423 15.423v19.539c0 8.504 6.918 15.423 15.423 15.423h26.23c8.504 0 15.423-6.919 15.423-15.423v-19.539c0-8.505-6.919-15.423-15.423-15.423zm.423 34.961c0 .233-.189.423-.423.423h-26.23c-.233 0-.423-.189-.423-.423v-19.539c0-.233.189-.423.423-.423h26.23c.233 0 .423.189.423.423z"/><path d="m195.246 385.166h-26.231c-8.504 0-15.423 6.919-15.423 15.423v19.539c0 8.504 6.918 15.423 15.423 15.423h26.231c8.504 0 15.422-6.919 15.422-15.423v-19.539c0-8.505-6.918-15.423-15.422-15.423zm.422 34.961c0 .233-.189.423-.422.423h-26.231c-.233 0-.423-.189-.423-.423v-19.539c0-.233.189-.423.423-.423h26.231c.233 0 .422.189.422.423z"/><path d="m120.898 385.166h-26.231c-8.504 0-15.422 6.919-15.422 15.423v19.539c0 8.504 6.918 15.423 15.422 15.423h26.231c8.504 0 15.422-6.919 15.422-15.423v-19.539c0-8.505-6.918-15.423-15.422-15.423zm.422 34.961c0 .233-.189.423-.422.423h-26.231c-.233 0-.422-.189-.422-.423v-19.539c0-.233.189-.423.422-.423h26.231c.233 0 .422.189.422.423z"/><path d="m322.297 427.647c4.673 5.432 11.277 8.265 17.96 8.264 4.689 0 9.417-1.395 13.543-4.265l99.768-69.389c4.174-2.903 6.837-7.473 7.306-12.537.468-5.062-1.309-10.038-4.875-13.654-14.604-14.809-38.235-15.601-53.798-1.805l-1.525 1.353-31.445-3.479c-2.291-.256-4.607.325-6.515 1.63l-17.659 12.095c-2.825 1.934-4.388 5.129-4.182 8.546s2.142 6.4 5.177 7.979l15.387 8.012-13.77 12.207-14.924-4.527c-3.964-1.203-8.237-.348-11.436 2.288l-13.494 11.122c-2.583 2.129-4.164 5.139-4.449 8.475-.286 3.335.759 6.569 2.943 9.106zm7.456-34.804 17.577 5.331c2.495.76 5.203.165 7.152-1.564l25.064-22.22c1.848-1.638 2.771-4.079 2.469-6.529s-1.791-4.595-3.98-5.735l-17.147-8.929 8.667-5.936 32.781 3.627c2.107.241 4.214-.436 5.8-1.842l4.016-3.561c9.595-8.505 24.164-8.016 33.168 1.113.62.629.654 1.359.619 1.738-.035.382-.204 1.098-.934 1.605l-99.768 69.389c-3.676 2.557-8.649 1.925-11.569-1.468l-14.22-16.526z"/></g></g></svg>