<svg id="Capa_1" enable-background="new 0 0 512.955 512.955" height="512" viewBox="0 0 512.955 512.955" width="512" xmlns="http://www.w3.org/2000/svg"><g><g><path d="m468.891 50.4h-421.58c-21.09 0-38.19 17.1-38.19 38.19v34.05l33.777 49.689h438.758l25.425-49.689v-34.05c0-21.09-17.1-38.19-38.19-38.19z" fill="#ee878a"/><g><path d="m54.184 50.4h-6.873c-21.09 0-38.19 17.1-38.19 38.19v34.05l33.777 49.689h11.286z" fill="#ec6e73"/><g id="XMLID_3_"><g><path d="m507.081 122.64v304.11c0 21.09-17.1 38.19-38.19 38.19h-421.58c-21.09 0-38.19-17.1-38.19-38.19v-304.11z" fill="#f9f7f7"/></g></g><path d="m350.242 423.249c10.887-12.713 17.269-28.791 17.447-45.528.203-19.026-7.192-37.082-20.561-50.452-13.262-13.261-30.894-20.564-49.648-20.564-14.044 0-27.459 4.096-38.878 11.72-11.421-7.624-24.835-11.72-38.878-11.72-18.755 0-36.387 7.304-49.648 20.564-13.368 13.369-20.763 31.424-20.561 50.449.178 16.736 6.559 32.814 17.445 45.527l.002.003c.916 1.07.156 2.721-1.252 2.721h-54.198c-31.661 0-57.328-25.667-57.328-57.328v-246.001h-45.063v304.11c0 21.092 17.098 38.19 38.19 38.19h421.58c21.092 0 38.19-17.098 38.19-38.19v-.78h-155.587c-1.408 0-2.168-1.651-1.252-2.721z" fill="#f2eae7"/><path d="m445.21 205.411h-374.293c-6.435 0-11.652-5.217-11.652-11.652v-26.702c0-6.435 5.217-11.652 11.652-11.652h374.293c6.435 0 11.652 5.217 11.652 11.652v26.702c0 6.435-5.217 11.652-11.652 11.652z" fill="#a9e4f9"/><path d="m91 96.839c16.268 0 29.503-13.235 29.503-29.503v-16.936h-59.006v16.936c0 16.268 13.235 29.503 29.503 29.503z" fill="#ec6e73"/><path d="m91 81.839c-8.01 0-14.503-6.493-14.503-14.503v-33.862c0-8.01 6.493-14.503 14.503-14.503 8.01 0 14.503 6.493 14.503 14.503v33.862c0 8.01-6.493 14.503-14.503 14.503z" fill="#f2eae7"/><path d="m157.799 96.839c16.268 0 29.503-13.235 29.503-29.503v-16.936h-59.007v16.936c0 16.268 13.236 29.503 29.504 29.503z" fill="#ec6e73"/><path d="m157.799 81.839c-8.01 0-14.503-6.493-14.503-14.503v-33.862c0-8.01 6.493-14.503 14.503-14.503 8.01 0 14.503 6.493 14.503 14.503v33.862c0 8.01-6.493 14.503-14.503 14.503z" fill="#f2eae7"/><path d="m224.597 96.839c16.268 0 29.503-13.235 29.503-29.503v-16.936h-59.007v16.936c.001 16.268 13.236 29.503 29.504 29.503z" fill="#ec6e73"/><path d="m224.597 81.839c-8.01 0-14.503-6.493-14.503-14.503v-33.862c0-8.01 6.493-14.503 14.503-14.503 8.01 0 14.503 6.493 14.503 14.503v33.862c0 8.01-6.493 14.503-14.503 14.503z" fill="#f2eae7"/><path d="m291.395 96.839c16.269 0 29.504-13.235 29.504-29.503v-16.936h-59.007v16.936c0 16.268 13.235 29.503 29.503 29.503z" fill="#ec6e73"/><path d="m291.395 81.839c-8.01 0-14.503-6.493-14.503-14.503v-33.862c0-8.01 6.493-14.503 14.503-14.503 8.01 0 14.503 6.493 14.503 14.503v33.862c0 8.01-6.493 14.503-14.503 14.503z" fill="#f2eae7"/><path d="m358.194 96.839c16.268 0 29.503-13.235 29.503-29.503v-16.936h-59.006v16.936c0 16.268 13.235 29.503 29.503 29.503z" fill="#ec6e73"/><path d="m358.194 81.839c-8.01 0-14.503-6.493-14.503-14.503v-33.862c0-8.01 6.493-14.503 14.503-14.503 8.01 0 14.503 6.493 14.503 14.503v33.862c0 8.01-6.493 14.503-14.503 14.503z" fill="#f2eae7"/><path d="m424.991 96.839c16.269 0 29.504-13.235 29.504-29.503v-16.936h-59.007v16.936c.001 16.268 13.236 29.503 29.503 29.503z" fill="#ec6e73"/><path d="m424.992 81.839c-8.01 0-14.503-6.493-14.503-14.503v-33.862c0-8.01 6.493-14.503 14.503-14.503 8.01 0 14.503 6.493 14.503 14.503v33.862c0 8.01-6.493 14.503-14.503 14.503z" fill="#f2eae7"/><g fill="#ded4cf"><path d="m272.217 276.34h-26.231c-4.376 0-7.923-3.547-7.923-7.923v-19.539c0-4.375 3.547-7.923 7.923-7.923h26.231c4.375 0 7.923 3.547 7.923 7.923v19.539c0 4.376-3.548 7.923-7.923 7.923z"/><path d="m197.869 276.34h-26.231c-4.376 0-7.923-3.547-7.923-7.923v-19.539c0-4.375 3.547-7.923 7.923-7.923h26.231c4.375 0 7.923 3.547 7.923 7.923v19.539c0 4.376-3.547 7.923-7.923 7.923z"/><path d="m123.522 276.34h-26.231c-4.376 0-7.923-3.547-7.923-7.923v-19.539c0-4.375 3.547-7.923 7.923-7.923h26.231c4.376 0 7.923 3.547 7.923 7.923v19.539c-.001 4.376-3.548 7.923-7.923 7.923z"/><path d="m320.334 276.34h26.231c4.375 0 7.923-3.547 7.923-7.923v-19.539c0-4.375-3.547-7.923-7.923-7.923h-26.231c-4.376 0-7.923 3.547-7.923 7.923v19.539c0 4.376 3.547 7.923 7.923 7.923z"/><path d="m394.681 276.34h26.231c4.376 0 7.923-3.547 7.923-7.923v-19.539c0-4.375-3.547-7.923-7.923-7.923h-26.231c-4.375 0-7.923 3.547-7.923 7.923v19.539c.001 4.376 3.548 7.923 7.923 7.923z"/><path d="m123.522 344.784h-26.231c-4.376 0-7.923-3.547-7.923-7.923v-19.539c0-4.375 3.547-7.923 7.923-7.923h26.231c4.376 0 7.923 3.547 7.923 7.923v19.539c-.001 4.376-3.548 7.923-7.923 7.923z"/><path d="m394.681 344.784h26.231c4.376 0 7.923-3.547 7.923-7.923v-19.539c0-4.375-3.547-7.923-7.923-7.923h-26.231c-4.375 0-7.923 3.547-7.923 7.923v19.539c.001 4.376 3.548 7.923 7.923 7.923z"/><path d="m123.522 413.229h-26.231c-4.376 0-7.923-3.547-7.923-7.923v-19.539c0-4.376 3.547-7.923 7.923-7.923h26.231c4.376 0 7.923 3.547 7.923 7.923v19.539c-.001 4.376-3.548 7.923-7.923 7.923z"/><path d="m394.681 413.229h26.231c4.376 0 7.923-3.547 7.923-7.923v-19.539c0-4.376-3.547-7.923-7.923-7.923h-26.231c-4.375 0-7.923 3.547-7.923 7.923v19.539c.001 4.376 3.548 7.923 7.923 7.923z"/></g><path d="m251.211 490.878-69.625-81.3c-17.061-19.922-15.914-49.62 2.633-68.167 19.609-19.609 51.402-19.609 71.011 0 1.863 1.863 4.883 1.863 6.745 0 19.609-19.609 51.402-19.609 71.011 0 18.547 18.547 19.694 48.245 2.633 68.167l-69.625 81.3c-3.885 4.535-10.9 4.535-14.783 0z" fill="#ee878a"/><g><path d="m217.004 409.579c-17.061-19.922-15.915-49.62 2.633-68.167 5.22-5.22 11.325-9.046 17.813-11.487-17.882-6.727-38.842-2.902-53.231 11.487-18.547 18.547-19.694 48.245-2.633 68.167l69.625 81.3c3.884 4.535 10.898 4.535 14.782 0l10.318-12.048z" fill="#ec6e73"/></g></g></g><g><path d="m467.269 43.883h-19.272v-10.705c0-12.133-9.871-22.003-22.004-22.003s-22.003 9.87-22.003 22.003v9.432h-22.792v-9.432c0-12.133-9.87-22.003-22.003-22.003s-22.003 9.87-22.003 22.003v9.432h-22.792v-9.432c0-12.133-9.871-22.003-22.004-22.003s-22.003 9.87-22.003 22.003v9.432h-22.792v-9.432c0-12.133-9.87-22.003-22.003-22.003s-22.003 9.87-22.003 22.003v9.432h-22.792v-9.432c0-12.133-9.871-22.003-22.004-22.003s-22.003 9.87-22.003 22.003v9.432h-22.792v-9.432c0-12.133-9.87-22.003-22.003-22.003s-22.003 9.87-22.003 22.003v10.705h-24.311c-25.192 0-45.687 20.494-45.687 45.685v247.562c0 4.143 3.357 7.5 7.5 7.5s7.5-3.357 7.5-7.5v-207.29h482.955v297.886c0 16.92-13.766 30.686-30.687 30.686h-140.397c-4.143 0-7.5 3.357-7.5 7.5s3.357 7.5 7.5 7.5h140.397c25.191 0 45.687-20.494 45.687-45.686v-338.158c0-25.191-20.495-45.685-45.686-45.685zm-48.28-10.705c0-3.861 3.142-7.003 7.003-7.003 3.862 0 7.004 3.142 7.004 7.003v33.862c0 3.861-3.142 7.003-7.004 7.003-3.861 0-7.003-3.142-7.003-7.003zm-66.798 0c0-3.861 3.142-7.003 7.003-7.003s7.003 3.142 7.003 7.003v33.862c0 3.861-3.142 7.003-7.003 7.003s-7.003-3.142-7.003-7.003zm-66.798 0c0-3.861 3.142-7.003 7.003-7.003 3.862 0 7.004 3.142 7.004 7.003v33.862c0 3.861-3.142 7.003-7.004 7.003-3.861 0-7.003-3.142-7.003-7.003zm-66.798 0c0-3.861 3.142-7.003 7.003-7.003s7.003 3.142 7.003 7.003v33.862c0 3.861-3.142 7.003-7.003 7.003s-7.003-3.142-7.003-7.003zm-66.799 0c0-3.861 3.142-7.003 7.003-7.003 3.862 0 7.004 3.142 7.004 7.003v33.862c0 3.861-3.142 7.003-7.004 7.003-3.861 0-7.003-3.142-7.003-7.003zm-66.798 0c0-3.861 3.142-7.003 7.003-7.003s7.003 3.142 7.003 7.003v33.862c0 3.861-3.142 7.003-7.003 7.003s-7.003-3.142-7.003-7.003zm-69.998 81.663v-25.273c0-16.92 13.766-30.686 30.687-30.686h24.312v8.157c0 12.133 9.87 22.003 22.003 22.003s22.003-9.87 22.003-22.003v-9.431h22.792v9.431c0 12.133 9.87 22.003 22.003 22.003s22.004-9.87 22.004-22.003v-9.431h22.792v9.431c0 12.133 9.87 22.003 22.003 22.003s22.003-9.87 22.003-22.003v-9.431h22.792v9.431c0 12.133 9.87 22.003 22.003 22.003s22.004-9.87 22.004-22.003v-9.431h22.792v9.431c0 12.133 9.87 22.003 22.003 22.003s22.003-9.87 22.003-22.003v-9.431h22.792v9.431c0 12.133 9.87 22.003 22.003 22.003s22.004-9.87 22.004-22.003v-8.157h19.272c16.921 0 30.687 13.766 30.687 30.686v25.272h-482.957z"/><path d="m190.333 458.412h-144.646c-16.921 0-30.687-13.766-30.687-30.685v-58.634c0-4.143-3.357-7.5-7.5-7.5s-7.5 3.357-7.5 7.5v58.634c0 25.191 20.495 45.686 45.687 45.686h144.646c4.143 0 7.5-3.357 7.5-7.5s-3.357-7.501-7.5-7.501z"/><path d="m71.955 162.395h314.804c4.143 0 7.5-3.357 7.5-7.5s-3.357-7.5-7.5-7.5h-314.804c-10.561 0-19.152 8.591-19.152 19.151v26.702c0 10.561 8.592 19.151 19.152 19.151h374.293c10.561 0 19.152-8.591 19.152-19.151v-26.702c0-10.561-8.592-19.151-19.152-19.151h-27.527c-4.143 0-7.5 3.357-7.5 7.5s3.357 7.5 7.5 7.5h27.527c2.29 0 4.152 1.862 4.152 4.151v26.702c0 2.289-1.862 4.151-4.152 4.151h-374.293c-2.29 0-4.152-1.862-4.152-4.151v-26.702c0-2.289 1.862-4.151 4.152-4.151z"/><path d="m245.986 233.455c-8.504 0-15.423 6.919-15.423 15.423v19.539c0 8.504 6.919 15.423 15.423 15.423h26.23c8.504 0 15.423-6.919 15.423-15.423v-19.539c0-8.504-6.919-15.423-15.423-15.423zm26.654 15.423v19.539c0 .233-.189.423-.423.423h-26.23c-.233 0-.423-.189-.423-.423v-19.539c0-.233.189-.423.423-.423h26.23c.233 0 .423.19.423.423z"/><path d="m171.639 233.455c-8.504 0-15.423 6.919-15.423 15.423v19.539c0 8.504 6.919 15.423 15.423 15.423h26.23c8.504 0 15.423-6.919 15.423-15.423v-19.539c0-8.504-6.919-15.423-15.423-15.423zm26.653 15.423v19.539c0 .233-.189.423-.423.423h-26.23c-.233 0-.423-.189-.423-.423v-19.539c0-.233.189-.423.423-.423h26.23c.234 0 .423.19.423.423z"/><path d="m138.944 248.878c0-8.504-6.919-15.423-15.423-15.423h-26.23c-8.504 0-15.423 6.919-15.423 15.423v19.539c0 8.504 6.919 15.423 15.423 15.423h26.23c8.504 0 15.423-6.919 15.423-15.423zm-15 19.539c0 .233-.189.423-.423.423h-26.23c-.233 0-.423-.189-.423-.423v-19.539c0-.233.189-.423.423-.423h26.23c.233 0 .423.189.423.423z"/><path d="m320.334 233.455c-8.504 0-15.423 6.919-15.423 15.423v19.539c0 8.504 6.919 15.423 15.423 15.423h26.23c8.504 0 15.423-6.919 15.423-15.423v-19.539c0-8.504-6.919-15.423-15.423-15.423zm26.653 15.423v19.539c0 .233-.189.423-.423.423h-26.23c-.233 0-.423-.189-.423-.423v-19.539c0-.233.189-.423.423-.423h26.23c.234 0 .423.19.423.423z"/><path d="m436.335 248.878c0-8.504-6.919-15.423-15.423-15.423h-26.23c-8.504 0-15.423 6.919-15.423 15.423v19.539c0 8.504 6.919 15.423 15.423 15.423h26.23c8.504 0 15.423-6.919 15.423-15.423zm-15 19.539c0 .233-.189.423-.423.423h-26.23c-.233 0-.423-.189-.423-.423v-19.539c0-.233.189-.423.423-.423h26.23c.233 0 .423.189.423.423z"/><path d="m138.944 317.322c0-8.504-6.919-15.422-15.423-15.422h-26.23c-8.504 0-15.423 6.918-15.423 15.422v19.54c0 8.504 6.919 15.422 15.423 15.422h26.23c8.504 0 15.423-6.918 15.423-15.422zm-15 19.54c0 .232-.189.422-.423.422h-26.23c-.233 0-.423-.189-.423-.422v-19.54c0-.232.189-.422.423-.422h26.23c.233 0 .423.189.423.422z"/><path d="m436.335 317.322c0-8.504-6.919-15.422-15.423-15.422h-26.23c-8.504 0-15.423 6.918-15.423 15.422v19.54c0 8.504 6.919 15.422 15.423 15.422h26.23c8.504 0 15.423-6.918 15.423-15.422zm-15 19.54c0 .232-.189.422-.423.422h-26.23c-.233 0-.423-.189-.423-.422v-19.54c0-.232.189-.422.423-.422h26.23c.233 0 .423.189.423.422z"/><path d="m123.521 370.345h-26.23c-8.504 0-15.423 6.919-15.423 15.423v19.539c0 8.504 6.919 15.423 15.423 15.423h26.23c8.504 0 15.423-6.919 15.423-15.423v-19.539c0-8.504-6.919-15.423-15.423-15.423zm.423 34.962c0 .233-.189.423-.423.423h-26.23c-.233 0-.423-.189-.423-.423v-19.539c0-.233.189-.423.423-.423h26.23c.233 0 .423.189.423.423z"/><path d="m420.912 370.345h-26.23c-8.504 0-15.423 6.919-15.423 15.423v19.539c0 8.504 6.919 15.423 15.423 15.423h26.23c8.504 0 15.423-6.919 15.423-15.423v-19.539c0-8.504-6.919-15.423-15.423-15.423zm.423 34.962c0 .233-.189.423-.423.423h-26.23c-.233 0-.423-.189-.423-.423v-19.539c0-.233.189-.423.423-.423h26.23c.233 0 .423.189.423.423z"/><path d="m351.396 356.324c-1.476-3.87-5.812-5.808-9.681-4.335-3.87 1.477-5.811 5.811-4.335 9.681 5.587 14.646 2.729 31.135-7.46 43.029l-69.624 81.301c-.581.679-1.312.78-1.694.78s-1.113-.102-1.694-.78l-69.625-81.301c-14.421-16.838-13.438-42.308 2.239-57.983 8.067-8.067 18.793-12.511 30.202-12.511s22.135 4.442 30.203 12.512c4.784 4.782 12.567 4.78 17.352-.002 14.14-14.142 35.852-16.627 52.796-6.039 3.514 2.194 8.14 1.127 10.335-2.386s1.127-8.141-2.386-10.335c-22.146-13.837-50.31-11.158-69.422 6.309-10.652-9.731-24.355-15.059-38.878-15.059-15.416 0-29.908 6.003-40.81 16.903-21.181 21.182-22.51 55.597-3.024 78.349l69.625 81.3c3.277 3.828 8.048 6.023 13.087 6.023s9.81-2.195 13.087-6.022l69.625-81.301c13.765-16.072 17.628-38.347 10.082-58.133z"/></g></g></svg>