<svg id="Capa_1" enable-background="new 0 0 512.955 512.955" height="512" viewBox="0 0 512.955 512.955" width="512" xmlns="http://www.w3.org/2000/svg"><g><g><g><path d="m467.163 48.706h-421.58c-21.09 0-38.19 17.1-38.19 38.19v34.05l33.777 49.689h438.758l25.425-49.689v-34.05c0-21.09-17.1-38.19-38.19-38.19z" fill="#ee878a"/><path d="m52.456 48.706h-6.873c-21.09 0-38.19 17.1-38.19 38.19v34.05l33.777 49.689h11.286z" fill="#ec6e73"/><g id="XMLID_4_"><g><path d="m505.353 120.946v304.11c0 21.09-17.1 38.19-38.19 38.19h-421.58c-21.09 0-38.19-17.1-38.19-38.19v-304.11z" fill="#f9f7f7"/></g></g><path d="m109.784 424.276c-31.661 0-57.328-25.667-57.328-57.328v-246.002h-45.063v304.11c0 21.092 17.098 38.19 38.19 38.19h421.58c21.092 0 38.19-17.098 38.19-38.19v-.78z" fill="#f2eae7"/><path d="m443.482 203.717h-374.293c-6.435 0-11.652-5.217-11.652-11.652v-26.702c0-6.435 5.217-11.652 11.652-11.652h374.293c6.435 0 11.652 5.217 11.652 11.652v26.702c0 6.435-5.217 11.652-11.652 11.652z" fill="#a9e4f9"/><path d="m89.272 95.145c16.268 0 29.503-13.235 29.503-29.503v-16.936h-59.006v16.936c0 16.268 13.235 29.503 29.503 29.503z" fill="#ec6e73"/><path d="m89.272 80.146c-8.01 0-14.503-6.493-14.503-14.503v-33.863c0-8.01 6.493-14.503 14.503-14.503 8.01 0 14.503 6.493 14.503 14.503v33.862c0 8.01-6.493 14.504-14.503 14.504z" fill="#f2eae7"/><path d="m156.07 95.145c16.268 0 29.503-13.235 29.503-29.503v-16.936h-59.007v16.936c.001 16.268 13.236 29.503 29.504 29.503z" fill="#ec6e73"/><path d="m156.07 80.146c-8.01 0-14.503-6.493-14.503-14.503v-33.863c0-8.01 6.493-14.503 14.503-14.503 8.01 0 14.503 6.493 14.503 14.503v33.862c.001 8.01-6.493 14.504-14.503 14.504z" fill="#f2eae7"/><path d="m222.869 95.145c16.268 0 29.503-13.235 29.503-29.503v-16.936h-59.007v16.936c0 16.268 13.236 29.503 29.504 29.503z" fill="#ec6e73"/><path d="m222.869 80.146c-8.01 0-14.503-6.493-14.503-14.503v-33.863c0-8.01 6.493-14.503 14.503-14.503 8.01 0 14.503 6.493 14.503 14.503v33.862c0 8.01-6.493 14.504-14.503 14.504z" fill="#f2eae7"/><path d="m289.667 95.145c16.269 0 29.504-13.235 29.504-29.503v-16.936h-59.007v16.936c0 16.268 13.235 29.503 29.503 29.503z" fill="#ec6e73"/><path d="m289.667 80.146c-8.01 0-14.503-6.493-14.503-14.503v-33.863c0-8.01 6.493-14.503 14.503-14.503 8.01 0 14.503 6.493 14.503 14.503v33.862c0 8.01-6.493 14.504-14.503 14.504z" fill="#f2eae7"/><path d="m356.466 95.145c16.268 0 29.503-13.235 29.503-29.503v-16.936h-59.006v16.936c0 16.268 13.235 29.503 29.503 29.503z" fill="#ec6e73"/><path d="m356.465 80.146c-8.01 0-14.503-6.493-14.503-14.503v-33.863c0-8.01 6.493-14.503 14.503-14.503 8.01 0 14.503 6.493 14.503 14.503v33.862c.001 8.01-6.493 14.504-14.503 14.504z" fill="#f2eae7"/><path d="m423.263 95.145c16.269 0 29.504-13.235 29.504-29.503v-16.936h-59.007v16.936c0 16.268 13.236 29.503 29.503 29.503z" fill="#ec6e73"/><path d="m423.264 80.146c-8.01 0-14.503-6.493-14.503-14.503v-33.863c0-8.01 6.493-14.503 14.503-14.503 8.01 0 14.503 6.493 14.503 14.503v33.862c0 8.01-6.493 14.504-14.503 14.504z" fill="#f2eae7"/></g><g><g fill="#ded4cf"><path d="m269.593 275.646h-26.231c-4.376 0-7.923-3.547-7.923-7.923v-19.539c0-4.375 3.547-7.923 7.923-7.923h26.231c4.375 0 7.923 3.547 7.923 7.923v19.539c0 4.376-3.548 7.923-7.923 7.923z"/><path d="m195.245 275.646h-26.231c-4.376 0-7.923-3.547-7.923-7.923v-19.539c0-4.375 3.547-7.923 7.923-7.923h26.231c4.375 0 7.923 3.547 7.923 7.923v19.539c0 4.376-3.547 7.923-7.923 7.923z"/><path d="m120.898 275.646h-26.231c-4.376 0-7.923-3.547-7.923-7.923v-19.539c0-4.375 3.547-7.923 7.923-7.923h26.231c4.376 0 7.923 3.547 7.923 7.923v19.539c-.001 4.376-3.548 7.923-7.923 7.923z"/><path d="m317.71 275.646h26.231c4.375 0 7.923-3.547 7.923-7.923v-19.539c0-4.375-3.547-7.923-7.923-7.923h-26.231c-4.376 0-7.923 3.547-7.923 7.923v19.539c0 4.376 3.547 7.923 7.923 7.923z"/><path d="m392.057 275.646h26.231c4.376 0 7.923-3.547 7.923-7.923v-19.539c0-4.375-3.547-7.923-7.923-7.923h-26.231c-4.375 0-7.923 3.547-7.923 7.923v19.539c.001 4.376 3.548 7.923 7.923 7.923z"/><path d="m120.898 344.091h-26.231c-4.376 0-7.923-3.547-7.923-7.923v-19.539c0-4.375 3.547-7.923 7.923-7.923h26.231c4.376 0 7.923 3.547 7.923 7.923v19.539c-.001 4.375-3.548 7.923-7.923 7.923z"/><path d="m392.057 344.091h26.231c4.376 0 7.923-3.547 7.923-7.923v-19.539c0-4.375-3.547-7.923-7.923-7.923h-26.231c-4.375 0-7.923 3.547-7.923 7.923v19.539c.001 4.375 3.548 7.923 7.923 7.923z"/><path d="m120.898 412.535h-26.231c-4.376 0-7.923-3.547-7.923-7.923v-19.539c0-4.376 3.547-7.923 7.923-7.923h26.231c4.376 0 7.923 3.547 7.923 7.923v19.539c-.001 4.376-3.548 7.923-7.923 7.923z"/><path d="m392.057 412.535h26.231c4.376 0 7.923-3.547 7.923-7.923v-19.539c0-4.376-3.547-7.923-7.923-7.923h-26.231c-4.375 0-7.923 3.547-7.923 7.923v19.539c.001 4.376 3.548 7.923 7.923 7.923z"/></g><path d="m272.631 313.992c3.53 10.943 16.42 15.635 26.159 9.521 14.5-9.103 32.159 5.715 25.712 21.575-4.33 10.652 2.529 22.532 13.919 24.108 16.959 2.347 20.962 25.049 5.828 33.055-10.164 5.377-12.546 18.886-4.834 27.415 11.483 12.699-.043 32.663-16.782 29.068-11.242-2.415-21.751 6.403-21.325 17.894.634 17.109-21.029 24.993-31.541 11.48-7.06-9.076-20.778-9.076-27.838 0-10.512 13.514-32.174 5.629-31.541-11.48.426-11.491-10.083-20.308-21.325-17.894-16.739 3.595-28.265-16.369-16.782-29.068 7.712-8.529 5.33-22.038-4.834-27.415-15.134-8.005-11.131-30.708 5.828-33.055 11.39-1.576 18.249-13.456 13.919-24.108-6.447-15.86 11.212-30.678 25.712-21.575 9.738 6.114 22.629 1.422 26.159-9.521 5.257-16.294 28.31-16.294 33.566 0z" fill="#fbe88c"/><path d="m203.168 394.602c0-25.382 7.752-48.95 20.998-68.486-3.766.409-7.725-.385-11.259-2.604-14.5-9.104-32.159 5.714-25.712 21.575 4.33 10.652-2.529 22.532-13.919 24.108-16.959 2.347-20.962 25.049-5.828 33.055 10.164 5.376 12.546 18.886 4.834 27.415-11.483 12.699.043 32.664 16.782 29.068 11.242-2.415 21.751 6.403 21.325 17.894-.634 17.109 21.029 24.993 31.541 11.479.657-.845 1.388-1.625 2.151-2.313-25.101-22.38-40.913-54.916-40.913-91.191z" fill="#fbe372"/></g></g><g><path d="m467.269 41.916h-21.896v-9.432c0-12.133-9.871-22.003-22.004-22.003s-22.003 9.87-22.003 22.003v9.432h-22.792v-9.432c0-12.133-9.87-22.003-22.003-22.003s-22.003 9.87-22.003 22.003v9.432h-22.792v-9.432c0-12.133-9.871-22.003-22.004-22.003s-22.003 9.87-22.003 22.003v9.432h-22.792v-9.432c0-12.133-9.87-22.003-22.003-22.003s-22.003 9.87-22.003 22.003v9.432h-22.792v-9.432c0-12.133-9.871-22.003-22.004-22.003s-22.003 9.87-22.003 22.003v9.432h-22.792v-9.432c0-12.133-9.87-22.003-22.003-22.003s-22.003 9.87-22.003 22.003v9.432h-21.687c-25.192 0-45.687 20.494-45.687 45.685v232.854c0 4.143 3.357 7.5 7.5 7.5s7.5-3.357 7.5-7.5v-191.309h72.899c4.143 0 7.5-3.357 7.5-7.5s-3.357-7.5-7.5-7.5h-72.899v-26.545c0-16.92 13.766-30.686 30.687-30.686h21.688v9.431c0 12.133 9.87 22.003 22.003 22.003s22.003-9.87 22.003-22.003v-9.431h22.792v9.431c0 12.133 9.87 22.003 22.003 22.003s22.004-9.87 22.004-22.003v-9.431h22.792v9.431c0 12.133 9.87 22.003 22.003 22.003s22.003-9.87 22.003-22.003v-9.431h22.792v9.431c0 12.133 9.87 22.003 22.003 22.003s22.004-9.87 22.004-22.003v-9.431h22.792v9.431c0 12.133 9.87 22.003 22.003 22.003s22.003-9.87 22.003-22.003v-9.431h22.792v9.431c0 12.133 9.87 22.003 22.003 22.003s22.004-9.87 22.004-22.003v-9.431h21.896c16.921 0 30.687 13.766 30.687 30.686v26.545h-378.096c-4.143 0-7.5 3.357-7.5 7.5s3.357 7.5 7.5 7.5h378.094v296.613c0 16.92-13.766 30.686-30.687 30.686h-98.932c-4.143 0-7.5 3.357-7.5 7.5s3.357 7.5 7.5 7.5h98.932c25.191 0 45.687-20.494 45.687-45.686v-338.158c0-25.191-20.495-45.685-45.686-45.685zm-370.889 24.43c0 3.861-3.142 7.003-7.003 7.003s-7.003-3.142-7.003-7.003v-33.862c0-3.861 3.142-7.003 7.003-7.003s7.003 3.142 7.003 7.003zm66.799 0c0 3.861-3.142 7.003-7.004 7.003-3.861 0-7.003-3.142-7.003-7.003v-33.862c0-3.861 3.142-7.003 7.003-7.003 3.862 0 7.004 3.142 7.004 7.003zm66.798 0c0 3.861-3.142 7.003-7.003 7.003s-7.003-3.142-7.003-7.003v-33.862c0-3.861 3.142-7.003 7.003-7.003s7.003 3.142 7.003 7.003zm66.798 0c0 3.861-3.142 7.003-7.004 7.003-3.861 0-7.003-3.142-7.003-7.003v-33.862c0-3.861 3.142-7.003 7.003-7.003 3.862 0 7.004 3.142 7.004 7.003zm66.798 0c0 3.861-3.142 7.003-7.003 7.003s-7.003-3.142-7.003-7.003v-33.862c0-3.861 3.142-7.003 7.003-7.003s7.003 3.142 7.003 7.003zm66.799 0c0 3.861-3.142 7.003-7.004 7.003-3.861 0-7.003-3.142-7.003-7.003v-33.862c0-3.861 3.142-7.003 7.003-7.003 3.862 0 7.004 3.142 7.004 7.003z"/><path d="m143.358 456.445h-97.671c-16.921 0-30.687-13.766-30.687-30.686v-73.342c0-4.143-3.357-7.5-7.5-7.5s-7.5 3.357-7.5 7.5v73.342c0 25.191 20.495 45.686 45.687 45.686h97.672c4.143 0 7.5-3.357 7.5-7.5s-3.358-7.5-7.501-7.5z"/><path d="m69.331 161.701h315.371c4.143 0 7.5-3.357 7.5-7.5s-3.357-7.5-7.5-7.5h-315.371c-10.561 0-19.152 8.591-19.152 19.151v26.702c0 10.561 8.592 19.151 19.152 19.151h374.293c10.561 0 19.152-8.591 19.152-19.151v-26.702c0-10.561-8.592-19.151-19.152-19.151h-26.96c-4.143 0-7.5 3.357-7.5 7.5s3.357 7.5 7.5 7.5h26.96c2.29 0 4.152 1.862 4.152 4.151v26.702c0 2.289-1.862 4.151-4.152 4.151h-374.293c-2.29 0-4.152-1.862-4.152-4.151v-26.702c0-2.289 1.862-4.151 4.152-4.151z"/><path d="m243.362 232.761c-8.504 0-15.423 6.919-15.423 15.423v19.539c0 8.504 6.919 15.423 15.423 15.423h26.23c8.504 0 15.423-6.919 15.423-15.423v-19.539c0-8.504-6.919-15.423-15.423-15.423zm26.654 15.423v19.539c0 .233-.189.423-.423.423h-26.23c-.233 0-.423-.189-.423-.423v-19.539c0-.233.189-.423.423-.423h26.23c.233 0 .423.19.423.423z"/><path d="m169.015 232.761c-8.504 0-15.423 6.919-15.423 15.423v19.539c0 8.504 6.919 15.423 15.423 15.423h26.23c8.504 0 15.423-6.919 15.423-15.423v-19.539c0-8.504-6.919-15.423-15.423-15.423zm26.653 15.423v19.539c0 .233-.189.423-.423.423h-26.23c-.233 0-.423-.189-.423-.423v-19.539c0-.233.189-.423.423-.423h26.23c.234 0 .423.19.423.423z"/><path d="m136.32 248.184c0-8.504-6.919-15.423-15.423-15.423h-26.23c-8.504 0-15.423 6.919-15.423 15.423v19.539c0 8.504 6.919 15.423 15.423 15.423h26.23c8.504 0 15.423-6.919 15.423-15.423zm-15 19.539c0 .233-.189.423-.423.423h-26.23c-.233 0-.423-.189-.423-.423v-19.539c0-.233.189-.423.423-.423h26.23c.233 0 .423.189.423.423z"/><path d="m317.71 232.761c-8.504 0-15.423 6.919-15.423 15.423v19.539c0 8.504 6.919 15.423 15.423 15.423h26.23c8.504 0 15.423-6.919 15.423-15.423v-19.539c0-8.504-6.919-15.423-15.423-15.423zm26.653 15.423v19.539c0 .233-.189.423-.423.423h-26.23c-.233 0-.423-.189-.423-.423v-19.539c0-.233.189-.423.423-.423h26.23c.234 0 .423.19.423.423z"/><path d="m433.711 248.184c0-8.504-6.919-15.423-15.423-15.423h-26.23c-8.504 0-15.423 6.919-15.423 15.423v19.539c0 8.504 6.919 15.423 15.423 15.423h26.23c8.504 0 15.423-6.919 15.423-15.423zm-15 19.539c0 .233-.189.423-.423.423h-26.23c-.233 0-.423-.189-.423-.423v-19.539c0-.233.189-.423.423-.423h26.23c.233 0 .423.189.423.423z"/><path d="m136.32 316.628c0-8.504-6.919-15.422-15.423-15.422h-26.23c-8.504 0-15.423 6.918-15.423 15.422v19.54c0 8.504 6.919 15.422 15.423 15.422h26.23c8.504 0 15.423-6.918 15.423-15.422zm-15 19.54c0 .232-.189.422-.423.422h-26.23c-.233 0-.423-.189-.423-.422v-19.54c0-.232.189-.422.423-.422h26.23c.233 0 .423.189.423.422z"/><path d="m433.711 316.628c0-8.504-6.919-15.422-15.423-15.422h-26.23c-8.504 0-15.423 6.918-15.423 15.422v19.54c0 8.504 6.919 15.422 15.423 15.422h26.23c8.504 0 15.423-6.918 15.423-15.422zm-15 19.54c0 .232-.189.422-.423.422h-26.23c-.233 0-.423-.189-.423-.422v-19.54c0-.232.189-.422.423-.422h26.23c.233 0 .423.189.423.422z"/><path d="m120.897 369.651h-26.23c-8.504 0-15.423 6.919-15.423 15.423v19.539c0 8.504 6.919 15.423 15.423 15.423h26.23c8.504 0 15.423-6.919 15.423-15.423v-19.539c0-8.504-6.919-15.423-15.423-15.423zm.423 34.962c0 .233-.189.423-.423.423h-26.23c-.233 0-.423-.189-.423-.423v-19.539c0-.233.189-.423.423-.423h26.23c.233 0 .423.189.423.423z"/><path d="m418.288 369.651h-26.23c-8.504 0-15.423 6.919-15.423 15.423v19.539c0 8.504 6.919 15.423 15.423 15.423h26.23c8.504 0 15.423-6.919 15.423-15.423v-19.539c0-8.504-6.919-15.423-15.423-15.423zm.423 34.962c0 .233-.189.423-.423.423h-26.23c-.233 0-.423-.189-.423-.423v-19.539c0-.233.189-.423.423-.423h26.23c.233 0 .423.189.423.423z"/><path d="m347.756 408.88c9.828-5.199 14.931-15.633 13-26.582-1.931-10.948-10.294-19.008-21.307-20.532-3.12-.432-5.813-2.243-7.388-4.971s-1.798-5.966-.611-8.884c4.187-10.3 1.389-21.572-7.128-28.719-8.519-7.146-20.105-7.943-29.521-2.032-2.668 1.674-5.896 2.016-8.854.94-2.96-1.077-5.212-3.414-6.179-6.412-3.413-10.581-12.802-17.418-23.92-17.418s-20.507 6.837-23.92 17.418c-.967 2.998-3.219 5.335-6.179 6.412-2.959 1.075-6.186.734-8.854-.94-9.418-5.913-21.003-5.114-29.52 2.032-8.518 7.146-11.315 18.419-7.129 28.719 1.187 2.918.964 6.156-.611 8.884-1.574 2.728-4.268 4.539-7.388 4.971-11.013 1.524-19.376 9.584-21.307 20.532-1.931 10.949 3.172 21.383 13 26.582 2.784 1.473 4.694 4.096 5.241 7.197.547 3.103-.351 6.222-2.463 8.558-7.457 8.246-8.684 19.796-3.125 29.424 5.56 9.63 16.177 14.343 27.044 12.007 3.08-.663 6.229.12 8.644 2.146 2.412 2.024 3.729 4.99 3.612 8.138-.411 11.11 6.073 20.747 16.521 24.549 10.445 3.803 21.608.589 28.435-8.186 1.934-2.486 4.85-3.913 8-3.913 3.149.001 6.064 1.427 7.998 3.912 4.922 6.327 12.096 9.763 19.631 9.763 2.917 0 5.889-.515 8.805-1.576 10.447-3.803 16.932-13.439 16.52-24.549-.117-3.147 1.2-6.113 3.612-8.138 2.414-2.025 5.566-2.809 8.643-2.146 10.874 2.336 21.487-2.378 27.045-12.007 5.559-9.628 4.332-21.178-3.124-29.424-2.113-2.336-3.011-5.455-2.464-8.558.547-3.101 2.457-5.724 5.241-7.197zm-7.014-13.259c-6.905 3.653-11.644 10.16-13 17.853s.87 15.428 6.11 21.223c3.649 4.035 3.043 8.774 1.26 11.863-1.783 3.09-5.578 5.985-10.905 4.841-7.633-1.639-15.45.298-21.434 5.321-5.984 5.021-9.25 12.377-8.961 20.184.202 5.437-3.308 8.678-6.66 9.897-3.353 1.222-8.125.994-11.465-3.3-4.796-6.166-12.026-9.702-19.838-9.703 0 0 0 0-.001 0-7.811 0-15.042 3.537-19.839 9.703-3.342 4.294-8.116 4.518-11.464 3.301-3.353-1.221-6.863-4.462-6.661-9.899.289-7.806-2.977-15.162-8.961-20.183-5.983-5.021-13.794-6.96-21.435-5.321-5.317 1.146-9.12-1.751-10.904-4.841-1.783-3.089-2.39-7.828 1.261-11.863 5.239-5.795 7.466-13.53 6.109-21.223s-6.095-14.199-13-17.853c-4.81-2.544-5.861-7.204-5.241-10.718.619-3.513 3.201-7.532 8.591-8.277 7.737-1.071 14.416-5.565 18.321-12.33 3.906-6.765 4.459-14.796 1.518-22.032-2.049-5.04.141-9.286 2.874-11.58 2.732-2.293 7.296-3.711 11.901-.819 6.616 4.154 14.621 5.005 21.961 2.333 7.341-2.672 12.926-8.468 15.324-15.902 1.67-5.179 6.077-7.023 9.645-7.023s7.975 1.845 9.645 7.023c2.398 7.435 7.983 13.23 15.324 15.902 7.342 2.672 15.346 1.821 21.961-2.333 4.607-2.892 9.169-1.474 11.901.819 2.733 2.294 4.923 6.54 2.874 11.58-2.941 7.236-2.389 15.268 1.518 22.032 3.905 6.765 10.584 11.259 18.321 12.33 5.39.745 7.972 4.765 8.591 8.277.621 3.514-.431 8.174-5.241 10.718z"/><path d="m297.89 358.641c-2.93-2.928-7.678-2.928-10.607 0l-74.415 74.415c-2.929 2.93-2.929 7.678 0 10.607 1.465 1.464 3.385 2.196 5.304 2.196s3.839-.732 5.304-2.196l74.415-74.415c2.927-2.929 2.927-7.677-.001-10.607z"/><path d="m228.262 394.602c12.345 0 22.389-10.044 22.389-22.389s-10.044-22.389-22.389-22.389c-12.346 0-22.39 10.044-22.39 22.389s10.044 22.389 22.39 22.389zm0-29.777c4.074 0 7.389 3.314 7.389 7.389s-3.314 7.389-7.389 7.389-7.39-3.314-7.39-7.389 3.316-7.389 7.39-7.389z"/><path d="m284.317 405.88c-12.345 0-22.389 10.044-22.389 22.39 0 12.345 10.044 22.389 22.389 22.389s22.389-10.044 22.389-22.389c0-12.346-10.044-22.39-22.389-22.39zm0 29.779c-4.074 0-7.389-3.314-7.389-7.389s3.314-7.39 7.389-7.39 7.389 3.315 7.389 7.39-3.314 7.389-7.389 7.389z"/></g></g></svg>